/* XPM */
static char *f71c68b859ff48caeeeb8ea11e1a5008jIhPlmyM4WbiiWDT[] = {
/* columns rows colors chars-per-pixel */
"65 65 9 1 ",
"  c None",
". c black",
"X c #353535",
"o c #E91E63",
"O c #673AB7",
"+ c #3F51B5",
"@ c gray51",
"# c #868686",
"$ c #FFCDD2",
/* pixels */
"                                                                 ",
"                                                                 ",
"                                                                 ",
"                                                                 ",
"                                                                 ",
"                                                                 ",
"                                                                 ",
"                                                                 ",
"                                                                 ",
"                                                                 ",
"                                                                 ",
"                                                                 ",
"                           +++++                                 ",
"                          ++++++++                               ",
"                         ++++++++++                              ",
"                        ++++  ++++++                             ",
"                        +++   ++++++                             ",
"                              +++++++                            ",
"                             ++++++++                            ",
"                            ++++++++++                           ",
"                            ++++++++++                           ",
"                         $++++++++++++++                         ",
"                         $++++++++++++++                         ",
"                         @++++++++++++++                         ",
"                         @@ ..........                           ",
"                         @#  ........                            ",
"                         @@  ........                            ",
"                         XXOO........OO                          ",
"                         XOOO........OOO                         ",
"                         ...O........O...                        ",
"                         ...O........O...                        ",
"                         ...O........O...                        ",
"                          OOO........OO..                        ",
"                          OOO........OO..                        ",
"                          OOO........OO..                        ",
"                          OOOOOOOOOOOOO..                        ",
"                          OOOOOOOOOOOOO..                        ",
"                          OOOOOOOOOOOOO..                        ",
"                          OO.O.O..O.O.O...                       ",
"                           .O.O.OO.O.O... .                      ",
"                          . .o..........$. .                     ",
"                           .o............ .                      ",
"                           .o............ .                      ",
"                          . .o.......... . .                     ",
"                           .o.o. . .o.o . .                      ",
"                            .o.o. .o.o.. .                       ",
"                            oooo   oooo                          ",
"                            oooo   oooo                          ",
"                            oooo   oooo                          ",
"                            oooo   oooo                          ",
"                            oooo   oooo                          ",
"                            oooo   oooo                          ",
"                            oooo   oooo                          ",
"                            oooo   oooo                          ",
"                            oooo                                 ",
"                                                                 ",
"                                                                 ",
"                                                                 ",
"                                                                 ",
"                                                                 ",
"                                                                 ",
"                                                                 ",
"                                                                 ",
"                                                                 ",
"                                                                 "
};
