/* XPM */
static char *_abb4a29974c472df7ed7b9abc8dbc3b7R2NOjegYGoUVGEq[] = {
/* columns rows colors chars-per-pixel */
"65 65 8 1 ",
"  c None",
". c black",
"X c #E91E63",
"o c #8BC34A",
"O c #673AB7",
"+ c #3F51B5",
"@ c #FFCDD2",
"# c white",
/* pixels */
"                                                                 ",
"                                                                 ",
"                                                                 ",
"                                                                 ",
"                                                                 ",
"                                                                 ",
"                                                                 ",
"                                                                 ",
"                                                                 ",
"                                                                 ",
"                                                                 ",
"                                                                 ",
"                                                                 ",
"                                                                 ",
"                       +++++++                                   ",
"                      ++++++++++                                 ",
"                     ++++++++++++                                ",
"                    ++++++++++++++                               ",
"                   +++++++++  +++++                              ",
"                  +++++++++.    +++                              ",
"                 ++++++++++.     ++                              ",
"                 +++++++++++.                                    ",
"                ++++++++++++..                                   ",
"                +++++++++++++.                                   ",
"               ++++++++++++++..                                  ",
"               ++++++++++++++...                                 ",
"                 @@@@###@@..                                     ",
"                 @@@@o##@@..                                     ",
"             @@@@@@@@@@@@@OOOO                                   ",
"              @@@@@@@@@@@@OOOOOO                                 ",
"                 @@@@@@OOOOOOOOOO                                ",
"                 @@@@@@OOOOOOOOOOO                               ",
"               @@@@@@@@OOOOOOOOOOOO                              ",
"               @@@@@@@@OOOOOOOOOOOO                              ",
"                       OOO..OOOOOOOO                             ",
"                       OOO..OOOOOOOOO                            ",
"                       OOO..OOOOOOOOO                            ",
"              @@.......OOO..OOOOOOOOO                            ",
"               @........  ..OOOOOOOOO            .......         ",
"                          ..OOOOOOOOO            .......         ",
"                          ..OOOOOOOOO          .....    ..       ",
"                          ..XXXXXXXXX          .....    ..       ",
"                  XXXXXXXX..XXXXXXXXX       ............         ",
"                  XXXXXXXX..XXXXXXXX        ............         ",
"                  XXXXXXXX..XXXXXXXX        ..............       ",
"            ..............@@XXXXX.........................       ",
"            ..............@@XXXXX.........................       ",
"            ..............@@XXXXX.........................       ",
"                  XXXXX     XXXXX           ............         ",
"                  XXXXX     XXXXX           ............         ",
"                  XXXXX     XXXXX              .....    ..       ",
"                  XXXXX     XXXXX              .....    ..       ",
"                  XXXXX     XXXXX              .........         ",
"                XXXXXXX     XXXXX                .......         ",
"                XXXXXXX   XXXXXXX                                ",
"                          XXXXXXX                                ",
"                                                                 ",
"                                                                 ",
"                                                                 ",
"                                                                 ",
"                                                                 ",
"                                                                 ",
"                                                                 ",
"                                                                 ",
"                                                                 "
};
