/* XPM */
static char *a56db6e13d324354e063519fffd7dd88LKFG5IuF32TdVf2m[] = {
/* columns rows colors chars-per-pixel */
"65 65 10 1 ",
"  c None",
". c black",
"X c gray36",
"o c #E91E63",
"O c #E57373",
"+ c #4CAF50",
"@ c #673AB7",
"# c #3F51B5",
"$ c #FFCDD2",
"% c white",
/* pixels */
"                                                                 ",
"                                                                 ",
"                                                                 ",
"                                                                 ",
"                                                                 ",
"                                                                 ",
"                                                                 ",
"                                                                 ",
"                                                                 ",
"                                                                 ",
"                                                                 ",
"                                                                 ",
"                                                                 ",
"                              ##                                 ",
"                             ####                                ",
"                            ######                               ",
"                           ########                              ",
"                           ########                              ",
"                          ##########                             ",
"                          ###### ####                            ",
"                         #######  ###                            ",
"                        #########  ##                            ",
"                        ##########                               ",
"                       ############                              ",
"                      ##############                             ",
"                      ##############                             ",
"                         .$$$$$$$.                               ",
"                         .$%%$%%$.                               ",
"                          $%+$%+$                                ",
"                          $$$$$$$@@                              ",
"                         @$$OO$$$@@@                             ",
"                         @$$$$$$$@@@                             ",
"                        @.@$$%$$@@@@@                            ",
"                        ..@$$$$$@@.@@                            ",
"                        ..@@@@@@@..@@                            ",
"                        ..@@@@@@...@@@                           ",
"                        ..@@@@@@...@@@                           ",
"                        ..@@@@@@...@@@ X                         ",
"                      X ..@@@@@@...@@@X                          ",
"                       X$$@@@@@@...@@@ X                         ",
"                       X$$@@@@@@...@@@XX                         ",
"                      X XX@@@@@@...@@XX                          ",
"                       X oooooo$$..ooX X                         ",
"                        Xooooo..$oooooX                          ",
"                         ooooo..$ooooo                           ",
"                         ooooo..oooooo                           ",
"                         oooooo   oooo                           ",
"                          ooooooo oooo                           ",
"                           oooooo oooo                           ",
"                            ooooo oooo                           ",
"                              ooo oooo                           ",
"                              ooo oooo                           ",
"                              ooo ooo                            ",
"                                  ooo                            ",
"                                  ooo                            ",
"                                                                 ",
"                                                                 ",
"                                                                 ",
"                                                                 ",
"                                                                 ",
"                                                                 ",
"                                                                 ",
"                                                                 ",
"                                                                 ",
"                                                                 "
};
