/* XPM */
static char *_f932239e9354b22e63720b03985c280lNYfLXXksuSZ9zHs[] = {
/* columns rows colors chars-per-pixel */
"65 65 8 1 ",
"  c None",
". c black",
"X c #E91E63",
"o c #8BC34A",
"O c #673AB7",
"+ c #3F51B5",
"@ c #FFCDD2",
"# c white",
/* pixels */
"                                                                 ",
"                                                                 ",
"                                                                 ",
"                                                                 ",
"                                                                 ",
"                                                                 ",
"                                                                 ",
"                                                                 ",
"                                                                 ",
"                                                                 ",
"                                   ++++                          ",
"                                  ++++++                         ",
"                                 ++++++++                        ",
"                                ++++++++++                       ",
"                                +++++++++++                      ",
"                                ++  ++++++++                     ",
"                               +++  +++++++++                    ",
"                               ++   +++++++++                    ",
"                               ++  +++++++++++                   ",
"                               +   +++++++++++                   ",
"                               +  +++++++++++++                  ",
"                                  ++++++++++++++                 ",
"                                 +++++++++++++++                 ",
"                                .+++++++++++++++                 ",
"                                    ..@@###@@@@                  ",
"                                    ..@@##o@@@@                  ",
"                                 OOOOO@@@@@@@@@@@@@              ",
"                               OOOOOOO@@@@@@@@@@@@               ",
"                              OOOOOOOOOO@@@@@@@                  ",
"                             OOOOOOOOOOO@@@@@@@                  ",
"                            OOOOOOOOOOOO@@@@@@@@@                ",
"                            OOOOOOOOOOOO@@@@@@@@@                ",
"                           OOOOOOOOO..OO                         ",
"                          OOOOOOOOOO..OO                         ",
"                          OOOOOOOOOO..OO                         ",
"      .......             OOOOOOOOOO..OO                         ",
"      .......             OOOOOOOOOO..OO                         ",
"    ..    .....           OOOOOOOOOO..OO                         ",
"    ..    .....           XXXXXXXXXX..                           ",
"      ............        XXXXXXXXXX..XXXXXXX                    ",
"      ............        XXXXXXXXXX..XXXXXXX                    ",
"    ..............         XXXXXXXXX..XXXXXXX                    ",
"    .......................XXXXXXXXX@@............               ",
"    ...........................XXXXX@@............               ",
"    ...........................XXXXX@@............               ",
"      ............             XXXXX    XXXXX                    ",
"      ............             XXXXX    XXXXX                    ",
"    ..   ......                XXXXX    XXXXX                    ",
"    ..   ......                XXXXX    XXXXX                    ",
"      .......                  XXXXX    XXXXX                    ",
"      .......                  XXXXX    XXXXXXX                  ",
"                               XXXXXXX  XXXXXXX                  ",
"                               XXXXXXX                           ",
"                                                                 ",
"                                                                 ",
"                                                                 ",
"                                                                 ",
"                                                                 ",
"                                                                 ",
"                                                                 ",
"                                                                 ",
"                                                                 ",
"                                                                 ",
"                                                                 ",
"                                                                 "
};
