/* XPM */
static char *_980cf07832a4c01e136ae4dfec79db84Yj2FhEY719entpb[] = {
/* columns rows colors chars-per-pixel */
"65 65 58 1 ",
"  c None",
". c black",
"X c gray3",
"o c gray4",
"O c #0B0F11",
"+ c #0E1215",
"@ c #101010",
"# c #161616",
"$ c #101518",
"% c #111618",
"& c #13191C",
"* c gray10",
"= c #171F23",
"- c #1A2226",
"; c #1B2327",
": c #1C252A",
"> c #1E282D",
", c #202020",
"< c gray13",
"1 c #222526",
"2 c #222628",
"3 c #222729",
"4 c #23282B",
"5 c #23292C",
"6 c #232A2D",
"7 c #242B2F",
"8 c #272C2F",
"9 c #222C31",
"0 c #242C30",
"q c #242D32",
"w c #253036",
"e c #2A3135",
"r c #253138",
"t c #263238",
"y c #29353B",
"u c #2C3438",
"i c #2D363A",
"p c #29353C",
"a c #2A373D",
"s c #2B383F",
"d c #2E383D",
"f c #7F2610",
"g c #2C3940",
"h c #2D3B42",
"j c #2F3D44",
"k c #303B40",
"l c #313D43",
"z c #303F46",
"x c #314047",
"c c #324149",
"v c #33434A",
"b c #37474F",
"n c gray44",
"m c #8A3927",
"M c #943722",
"N c #DD2C00",
"B c #D19500",
"V c #B2B2B2",
/* pixels */
"                                                                 ",
"                                                                 ",
"                                                                 ",
"                                                                 ",
"                                                                 ",
"                                                                 ",
"                                                                 ",
"                                                                 ",
"                                                                 ",
"                                                                 ",
"                                                                 ",
"                                                                 ",
"                                                                 ",
"                              ,,,,,,,                            ",
"                             ,<<<<<<<,                           ",
"                            ,<<<llllll,                          ",
"                           ,<<<kg888880,,                        ",
"                          ,<<<,bt<<<<<t<<                        ",
"                         ,<<<<ks2,<<<<200,                       ",
"                        ,<<<<kg2<<V<V<<240,                      ",
"                       ,<<<<,bt,<<n<n<<<,t,                      ",
"                       ,<<<<,bt,<<<<<<<<,y,                      ",
"                       ,<<<<1bt0<<<<<<,00t,                      ",
"                       ,<<<<,bttd<<<,,dtty,                      ",
"                        ,,<<<ellbd,i<ikttl,                      ",
"                        ,1<<<<bbbb-b<btttb,                      ",
"                         <<<<<ebbg6j6gtlle                       ",
"                          <<<<<eblllljjee                        ",
"                             @@@ubbb:;;                          ",
"                              @&6umu&.                           ",
"                              <ttfBft.                           ",
"                             <6ttmBmt&.                          ",
"                            ,,tttbNbtt...                        ",
"                            ,6ttgbMbjt$..                        ",
"                          ,,6tthbbbbbtt..                        ",
"                         <44tthbbbbbbgt$$.                       ",
"                        <4wythbbbbbbbjttt$.                      ",
"                        <ytwgbb9bbbbbt-ttt+.                     ",
"                       -4wggbbb.bbbbbt.tttw+.                    ",
"                      ,4w-lxjxx.bbbbbt.tttw-+.                   ",
"                      ,yw.ttttt.bbbbbt.tttt.w.                   ",
"                      ,--+----;.bbbbbtOttt-$-X                   ",
"                      #O$t%%....bbbbbtttw;$x+#                   ",
"                      .exgww.  Xbbbbbs--;$xts.                   ",
"                      .-;w..   1bbbbbb.O+xtsw.                   ",
"                       ...  .1tsbbbbbb.tw9:y.                    ",
"                          ..Xtscbccccc.  ,..                     ",
"                         ,XX,tcscattt:.                          ",
"                        ,<<<,ttbtbttt..                          ",
"                        ,,<<*>tvavttt..                          ",
"                        ,,,,..>6g>>>>.                           ",
"                             .........                           ",
"                                 ...                             ",
"                                                                 ",
"                                                                 ",
"                                                                 ",
"                                                                 ",
"                                                                 ",
"                                                                 ",
"                                                                 ",
"                                                                 ",
"                                                                 ",
"                                                                 ",
"                                                                 ",
"                                                                 "
};
