/* XPM */
static char *_28fb27f51fe4285dc6f5246eaf474d9HbUFhjTIoyCDp8VP[] = {
/* columns rows colors chars-per-pixel */
"65 65 61 1 ",
"  c #4BAF4B",
". c #4DB04C",
"X c #53B24C",
"o c #5BB54B",
"O c #66B947",
"+ c #6CBB47",
"@ c #61B74A",
"# c #64B849",
"$ c #6ABA49",
"% c #6CBB48",
"& c #6DBB48",
"* c #6CBA4B",
"= c #6DBA4B",
"- c #6FBC49",
"; c #6BB94C",
": c #70BC46",
"> c #72BC46",
", c #73BD46",
"< c #75BD45",
"1 c #75BF45",
"2 c #76BE44",
"3 c #76BD46",
"4 c #7ABF44",
"5 c #7ABF45",
"6 c #7CBF47",
"7 c #71BB4B",
"8 c #73BC4B",
"9 c #77BE48",
"0 c #78BE4A",
"q c #7CBE4A",
"w c #7FBF4A",
"e c #77C047",
"r c #7EC143",
"t c #7FC143",
"y c #78C045",
"u c #7FC044",
"i c #7FC045",
"p c #7FC245",
"a c #7CC046",
"s c #7DC048",
"d c #83C243",
"f c #82C343",
"g c #85C343",
"h c #81C145",
"j c #86C245",
"k c #87C347",
"l c #89C543",
"z c #88C345",
"x c #89C345",
"c c #8AC347",
"v c #88C444",
"b c #89C444",
"n c #89C544",
"m c #89C545",
"M c #82C04A",
"N c #84C248",
"B c #87C248",
"V c #87C24A",
"C c #89C348",
"Z c #89C24A",
"A c #8BC34A",
/* pixels */
"AAAAAAAAAACAAAAAZZAVAAZZZZAAZZMBqMNwwMqaepphhhdddddlxllxlkzzzAAAA",
"AAAAAAAAAkCBAABBBAZVVVVMVAVMq97;;;;;;;$$$8,pphd6ttdvllxxvxzlzAAAA",
"AAAAkzzAzzzBNpqqqqwqssseMVMe;$#oooooooooo#$>,,,,,24ddtddvlkzzAAAA",
"BAABAkAkAkpe7-$$;;;$e@eeeMse;#oXXXXXXXXXXo##O+OOOOOO+++aaevvAzAAA",
"qqe8888---#@oooXXXXooooo;-;ooXX.. .......Xooo@oooooOOO++>,hvzCCCA",
"77;;*;##oooXXXXXXXXXXXX.oooXX.        .  X.XXXXXXooooooO$-phxxCCA",
";;@@@ooooXXXXX......XX..XX...              .X.X..XXXXooo#$p4hzCAA",
"#@oooooXXXX..................              ....X.... Xoooo->pcCAA",
"@oooXXXXXXX..  .. .   .....                  ...  X ..Xooo#-ehCCA",
"ooXXXXXX......   .   ......                  ...X   . .XXo###pCCA",
"oXXXXXX.....     .........                     ..    ...XXoo#ekCA",
"XX......X...     .  . ....                      ..  ... ..XX@7CAA",
"XX... .....      ...........                   ..... .....XXo9kCA",
"..... ....       .  ........                   .... .. ....X@8BCA",
"  ..... .       ..........                      ...  .  ...Xo>BCC",
" ... ....       ..........                     .. ....  ....o7BCC",
" ..... ...       ..........                   ......  X    Xo>ffx",
" . . . ...        ........                   .....      X  Xo,flA",
". .. .....       . .. ......                  ...   . ..    o+flx",
"... .. ...       ...... ....                  ...X  ..   X XoellA",
"    .. ....  ...............   .            ..... X   .....Xo+flx",
"     .......................   .            .....      ....Xo>flC",
".. . . ...........     .....  ..            ....       ....XoellC",
". .... ...........      ..... ..            .... XX  X   ..Xoyllx",
"X.....  ....... .        .......        ........   .. .. ..oOtfln",
"X.X ........... .        .......        ........     ...X..o>tflx",
"X.X..X.....X..          ........ .   ...........      ..XXoX+tllx",
"oooXXXXXXX....          ........................   ...X..Xoeyffln",
"#@oooooXXXX...            ...............   ..X.......X.XXOO2fllx",
"$$##@@oooX.X....          ........       . ..........X.oXXoO2fflx",
"--8-7$$OoXX.........        ......      ............X  XXoO+rrflx",
"ssspp9$OXX.......... ..    ..... .     ....... .. ..   XXXoO>rrfx",
"kkkvsh;;........................       .......         ...oo$7qsx",
"kCxCAq;oX.....  ................       .......         ...Xo$$eeC",
"CCCf9eoo...     ..  ............       .... .           ...ooeeex",
"Ckhe$#XXX.            .......X.. . .. ..... .           ...Xoeesl",
"Clf,*oXX....        .  ......X............            . ..XXoeeex",
"lxf-oXXX....        .. ....XX............               ...Xoeeez",
"xCf-XX......        .......XX............              ....XXeeez",
"xxh-X.......  ..... .......XX.X..........              .....ooeek",
"lxp-oX.....................XX...............            ...Xo#eel",
"nnf-XX...................XXXXX............              ...Xoeeel",
"nkf-o .......   .   .......XX............               ...XXeeev",
"knf-oX......          ...X...XX...........              ...XoOeel",
"lzd+X.  ..              ...XX..X..............          ...X@O2tl",
"zkt+XX.X.               ...XXXX...............          ..XoeO2tl",
"lk4*X...                ...X.X...............           .XX#+tdfl",
"zhp$XX..                ....X.. .............          ..X.O>tfvl",
"lht+o...               ........    ...........        ...oooyrffl",
"xk4+o...                 .......    ....X......      ....ooOyrflf",
"zht>@XX                 .....       .  .................XoO+rlfll",
"lta,@X.                .....            .............Xo.OOOyfflll",
"zh6,OX.                 ..              ............XooOO22rfflfl",
"zpd,OX.                .....            ..........XXXoO+2rlflllfx",
"zhp,+X.                 ....          ....... . ..X.oO+yrrlllllfl",
"zh6,+oX                .....           ...... ....oOO>ttrffllllll",
"zp64*oX.               ...              ...... . XoO+2dvlllllldlx",
"Ah64*oX..              ...                ...  XooOO2udgfllddllll",
"Ah662+oX...           ....              X X X.Xoo@O+44dgldlllldlA",
"Ahph6*@X.. ... .. . .  ....            . X XXXXo@+:<ttgjfldlllllC",
"zBhh67@XX  . . .   .......X.. .   ..  ..  XXXooO+<:2udvxlbbxllllx",
"AkhBpq@XX.....   . ....XX......    .  ..XXXXooO<<266vvdblbbxlldlC",
"AAkkg,OoXX ..   ......XXXXX.... . ......XXoOO+:6ggddbbbbvgvvllllC",
"AAzAkp+ooXXX.   ....XXXXXXXX....  ...XXXoO+:<6dggbbvvjbvvvvvllllC",
"AAAAkN9ooXXXXX .X..XXooooXXXXXXX.X.XXXoo;7asskkAzklllzxxCCxCCCCCA"
};
