/* XPM */
static char *_42fa13ee452468beec4fe7458c1eb04dcIJrhRGz1dwj6EG[] = {
/* columns rows colors chars-per-pixel */
"65 65 211 2 ",
"   c None",
".  c black",
"X  c #010101",
"o  c #020202",
"O  c gray1",
"+  c gray2",
"@  c #060606",
"#  c #070707",
"$  c gray3",
"%  c #090909",
"&  c gray4",
"*  c #0B0B0B",
"=  c #0C0C0C",
"-  c gray5",
";  c #0E0E0E",
":  c gray6",
">  c #101010",
",  c #111111",
"<  c gray7",
"1  c #131313",
"2  c gray8",
"3  c #151515",
"4  c #161616",
"5  c gray9",
"6  c #181818",
"7  c #191919",
"8  c gray10",
"9  c #1B1B1B",
"0  c gray11",
"q  c #1D1D1D",
"w  c #1E1E1E",
"e  c gray12",
"r  c #202020",
"t  c gray13",
"y  c #222222",
"u  c #232323",
"i  c gray14",
"p  c #252525",
"a  c gray15",
"s  c #272727",
"d  c #282828",
"f  c gray16",
"g  c #2A2A2A",
"h  c gray17",
"j  c #2C2C2C",
"k  c #2D2D2D",
"l  c gray18",
"z  c #2F2F2F",
"x  c gray19",
"c  c #313131",
"v  c #323232",
"b  c gray20",
"n  c #343434",
"m  c #353535",
"M  c gray21",
"N  c #373737",
"B  c gray22",
"V  c #3A3A3A",
"C  c gray23",
"Z  c #3C3C3C",
"A  c gray24",
"S  c #3E3E3E",
"D  c #3F3F3F",
"F  c gray25",
"G  c #414141",
"H  c gray26",
"J  c #434343",
"K  c #444444",
"L  c gray27",
"P  c #464646",
"I  c gray28",
"U  c #484848",
"Y  c #494949",
"T  c gray29",
"R  c #4B4B4B",
"E  c #4C4C4C",
"W  c gray30",
"Q  c #4E4E4E",
"!  c gray31",
"~  c #505050",
"^  c #515151",
"/  c gray32",
"(  c #535353",
")  c gray33",
"_  c #555555",
"`  c #565656",
"'  c gray34",
"]  c #585858",
"[  c gray35",
"{  c #5A5A5A",
"}  c #5B5B5B",
"|  c gray36",
" . c #5D5D5D",
".. c gray37",
"X. c #5F5F5F",
"o. c #606060",
"O. c gray38",
"+. c #626262",
"@. c gray39",
"#. c #646464",
"$. c #656565",
"%. c gray40",
"&. c #676767",
"*. c #686868",
"=. c DimGray",
"-. c #6A6A6A",
";. c gray42",
":. c #6C6C6C",
">. c #6D6D6D",
",. c gray43",
"<. c #6F6F6F",
"1. c gray44",
"2. c #717171",
"3. c #727272",
"4. c gray45",
"5. c #747474",
"6. c gray46",
"7. c #767676",
"8. c #777777",
"9. c #797979",
"0. c gray48",
"q. c #7B7B7B",
"w. c #7C7C7C",
"e. c #7E7E7E",
"r. c #808080",
"t. c #838383",
"y. c gray52",
"u. c #868686",
"i. c gray53",
"p. c #888888",
"a. c #898989",
"s. c gray54",
"d. c #8B8B8B",
"f. c gray55",
"g. c #8D8D8D",
"h. c #8E8E8E",
"j. c gray56",
"k. c #909090",
"l. c #929292",
"z. c #939393",
"x. c gray58",
"c. c #959595",
"v. c gray59",
"b. c #979797",
"n. c #989898",
"m. c gray60",
"M. c #9A9A9A",
"N. c #9B9B9B",
"B. c gray61",
"V. c #9D9D9D",
"C. c gray62",
"Z. c #9F9F9F",
"A. c #A0A0A0",
"S. c gray63",
"D. c #A2A2A2",
"F. c gray64",
"G. c #A4A4A4",
"H. c #A5A5A5",
"J. c gray65",
"K. c #A7A7A7",
"L. c gray66",
"P. c #A9A9A9",
"I. c #AAAAAA",
"U. c gray67",
"Y. c #ACACAC",
"T. c gray68",
"R. c #AEAEAE",
"E. c #AFAFAF",
"W. c #B1B1B1",
"Q. c #B2B2B2",
"!. c gray70",
"~. c #B4B4B4",
"^. c gray71",
"/. c #B6B6B6",
"(. c #B7B7B7",
"). c gray72",
"_. c #B9B9B9",
"`. c gray73",
"'. c #BBBBBB",
"]. c #BCBCBC",
"[. c gray74",
"{. c gray",
"}. c #C0C0C0",
"|. c #C1C1C1",
" X c #C3C3C3",
".X c gray77",
"XX c #C5C5C5",
"oX c #C6C6C6",
"OX c #C8C8C8",
"+X c gray79",
"@X c #CACACA",
"#X c #CBCBCB",
"$X c #CECECE",
"%X c gray81",
"&X c gray82",
"*X c #D2D2D2",
"=X c LightGray",
"-X c gray83",
";X c gray84",
":X c gray85",
">X c #DADADA",
",X c gray86",
"<X c gainsboro",
"1X c #DDDDDD",
"2X c gray87",
"3X c #E1E1E1",
"4X c #E6E6E6",
"5X c gray91",
"6X c #EAEAEA",
"7X c #EEEEEE",
"8X c #EFEFEF",
/* pixels */
"                                                                                                                                  ",
"                                                                                                                                  ",
"                                                                                                                                  ",
"                                                                                                                                  ",
"                                                                                                                                  ",
"                                                                                                                                  ",
"                                                      h S =.u.u.#.G.~.x.F.N.x.                                                    ",
"                                                    * 5 u I d.N.5.0.P.OX=X].d.d.5.                                                ",
"                                                I S S S #.u.0.3.=.W >.N.x.oX%XoX).C.                                              ",
"                                              W I { r.>.3.w.5.j.u.x.>X4X XC. XoX).).].R.                                          ",
"                                            S W I m u 5 i b j S b m N.=X>XP.G. XoX].P.R.k.                                        ",
"                                          U U U u 5 * - - i S / 0.#.X.F.=X1X XP.oX=XR.Q.R./                                       ",
"                                        W W G 0 1 . . . . 7 b S W X.#.>.C.=X7XoX).~.). XP.~.x.                                    ",
"                                    F.W W W I - . . . . . 7 i 1 5 5 7 h I +.~.OXP.G.).Q.Q.P.F.C.;X                                ",
"                                  k.U S m C I G 5 . - 5 5 5 7 7 1 0 0 b { m X.).5X).R.Q.G.P.].R.x.).                              ",
"                                W W G i S U G u 7 1 5 5 u u 7 1 5 u m G I / >.u.R.F.N.d.j.j.N.F.x.k.R.7X                          ",
"                              W W U G U i G m 0 0 5           1 i 7 * u C U >.#.3.P.4X3X~.%XR.5.C.G.x.%X7X                        ",
"                            W W I m C W b S m i j               7 h b u 7 W I u i U >.OXP. XF.3.x.G.).Q.R.5X                      ",
"                          W U b b C X.I j m 0 -                   - i u @ 0 +.>.{ 3.' / r.).G.5.j.).>X1Xu.=X                      ",
"                          W I G u.U . - m 7 .                         u 0 @ 1 5 * I u.+.S x.P.0.#.=X=XR.F.                        ",
"                          . . * S j . . @ S C.                          i S u - * i b i S 3.x.G 3.G.1X;XR.                        ",
"                          5 5 * S j . * W C.C.                            @ 5 - @ @ 0 1 - 0 { C.w.Q.P.;X~.                        ",
"                          G / - C i 1 { C.C.C.                              @ 7 5 * i i 5 j / +.#.R.P.Q.r.                        ",
"                          1 / - U C =.C.C.C.C.                                7 u 5 0 u 0 >.x.j.3.Q.R.]./                         ",
"                          1 / - ' d.C.C.C.C.C.                                  W u 1 1 * #.G.F.0.R.P. XW                         ",
"                          1 / * ' C.C.C.C.C.N.                                  #.X.b 1 @ { N.w.=.R.R.]./                         ",
"                          5 X.* ' C.C.C.C.C.C.                                  . S m 5 @ >.j.>.#.Q.R.].W                         ",
"                          h +.0 { C.C.C.C.C.C.                                  . S m i 1 X.N.0.#.P.P.]./                         ",
"                          h 3.#.>.C.C.C.C.C.C.                                  . i S +.j { N.0.#.x.G.]./                         ",
"                          h 3.#.>.C.C.C.C.C.C.                                  . . U #.u { x.0.=.k.F. XW                         ",
"                          h 3.#.>.C.C.C.C.C.C.                                  1 @ U { 7 ' x.0.=.k.F.]./                         ",
"                          h 3.#.>.C.C.C.C.C.C.                                  7 * U >.h X.0.=.#.x.G.].W                         ",
"                          h 3./ i C.C.C.C.C.C.                                  7 7 / ' 7 X.3.#.#.k.G.]./                         ",
"                          h 3.X.' C.C.C.C.C.C.                                  3.S / ' 5 X.3.#.=.x.G.G.S                         ",
"                          u W U { C.C.C.C.C.C.                                  #.m / =.i / >.#.#.x.G.G.S                         ",
"                          5 . * { C.C.C.C.C.C.                                  =.m / =.i ' >.#.=.k.F.F.G                         ",
"                          5 * C X.C.C.C.C.C.C.                                  #.C / I 1 / >.#.#.x.F.F.S                         ",
"                          5 1 X.{ C.C.C.C.C.N.                                  #.m / h . W =.#.#.x.F.F.G                         ",
"                          U 1 X.{ C.C.C.C.C.C.                                  #.C / h . / >.#.=.x.G.F.S                         ",
"                          #.=.=.{ C.C.C.C.C.C.                                  #.m / h @ { >.0 I k.F.F.S                         ",
"                          =.3.X.X.C.C.C.C.C.C.                                  #.G W i C 3.>.u I x.F.F.G                         ",
"                          #.#.i >.C.C.C.C.C.C.                                  =.3.>.m m >.>.0 I k.F.F.S                         ",
"                          =.+.i >.C.C.C.C.C.C.                                  #.3.=.{ C X.=.u I k.F.F.S                         ",
"                          =.#.i >.F.C.C.C.C.C.                                  #.>.>.#.G X.=.0 I x.F.F.G                         ",
"                          =.3.+.>.C.C.C.C.C.C.                                  =.>.=.#.I X.=.0 I x.G.G.S                         ",
"                          5.5.3.>.C.C.C.C.C.C.                                  #.3.>.#.G { =.#.#.k.F.F.S                         ",
"                          h 5.>.X.C.C.C.C.C.C.                                  5.>.#.=.j { =.X.+.x.F.F.G                         ",
"                          h 5.>.{ C.C.C.C.C.C.                                  5.5.>.#.b #.3.u I k.F.F.S                         ",
"                          h =.W X.C.C.C.C.C.C.                                  5.3.=.X.b 0.d.h I x.G.F.S                         ",
"                          ' +.u #.C.C.C.C.C.C.                                  5.=.#.m 0 5.C.m I k.F.F.S                         ",
"                          5.+.5 >.F.C.C.C.C.C.                                  b / #.i - 5.C.#.X.x.F.R.I                         ",
"                          3.X.1 >.C.C.C.C.C.N.                                  7 I b i 5 >.F.C.5.k.F.G.G                         ",
"                          5.+.i >.C.C.C.C.C.C.                                  7 I +.W 5 >.F.F.F.G.F.F.S                         ",
"                          =.+.h >.C.C.C.C.C.C.                                  7 * G +.i =.C.F.F.F.F.F.S                         ",
"                          h +.i >.C.C.C.C.C.C.                                  S i U U 5 { N.F.F.F.F.F.S                         ",
"                          h X.i >.C.C.C.C.C.C.                                  5.S U W 7 =.P.3.r.F.j.3.                          ",
"                          h / 1 { C.C.C.C.C.                                    5.S U U 7 3.].>.w.F.k.                            ",
"                          5 +.W ' C.C.C.C.                                      5.C U +.u X.~.U >.F.                              ",
"                          1 #.#.>.F.C.C.                                        5.S U =.i { Q.S .                                 ",
"                          5 #.#.#.C.C.                                          =.S W #.i X.N.C.                                  ",
"                          1 #./ 0 C.                                            1 W >.' 0 #.F.                                    ",
"                          u k.w.                                                . h ' i . '                                       ",
"                                                                                    0./                                           ",
"                                                                                                                                  ",
"                                                                                                                                  "
};
