/* XPM */
static char *_071404e5f8049f2f6ec3fb4d26f6586s99rsqh6SQXQbl b[] = {
/* columns rows colors chars-per-pixel */
"100 100 3 1 ",
". c #F44336",
"X c white",
"  c none",
/* pixels */
"                                                                                                    ",
"                                                                                                    ",
"                                                                                                    ",
"                                                                                                    ",
"                                                                                                    ",
"                                                                                                    ",
"                                                                                                    ",
"                                                                                                    ",
"                                                                                                    ",
"  .......................................................................................           ",
"   .......................................................................................          ",
"    .......................................................................................         ",
"    .......................................................................................         ",
"     .......................................................................................        ",
"     .......................................................................................        ",
"      .......................................................................................       ",
"      .......................................................................................       ",
"      ........................................................................................      ",
"       .......................................................................................      ",
"       .......X..X.X..X.X...X.XXX..XXXX.XXX.....XX..XXXX....XXX.XXXXX.XXXX.XXX...XXX..........      ",
"       .......XX.X.X..X.XX.XX.X..X.X....X..X...X..X.X......X......X...X....X..X.X.............      ",
"       .......X.XX.X..X.X.X.X.XXX..XXX..XXX....X..X.XXX.....XX....X...XXX..XXX...XX...........      ",
"        ......X..X.X..X.X...X.X..X.X....X.X....X..X.X.........X...X...X....X.......X.........       ",
"        ......X..X..XX..X...X.XXX..XXXX.X..X....XX..X......XXX....X...XXXX.X....XXX..........       ",
"        .....................................................................................       ",
"        .....................................................................................       ",
"       .....................................................................................        ",
"       .....................................................................................        ",
"       .....................................................................................        ",
"      ......................................................................................        ",
"      .....................................................................................         ",
"     ......................................................................................         ",
"     ......................................................................................         ",
"     .....................................................................................          ",
"    ......................................................................................          ",
"    ......................................................................................          ",
"    ......................................................................................          ",
"    .....................................................................................           ",
"    .....................................................................................           ",
"    .....................................................................................           ",
"     .....................................................................................          ",
"     .....................................................................................          ",
"      ....................................................................................          ",
"      .....................................................................................         ",
"       ....................................................................................         ",
"       .....................................................................................        ",
"        ....................................................................................        ",
"        .....................................................................................       ",
"         .....................................................................................      ",
"          ....................................................................................      ",
"                                                                                                    ",
"                                                                                                    ",
"                                                                                                    ",
"                                                                                                    ",
"                                                                                                    ",
"                                                                                                    ",
"                                                                                                    ",
"                                                                                                    ",
"                                                                                                    ",
"                                                                                                    ",
"                                                                                                    ",
"                                                                                                    ",
"                                                                                                    ",
"                                                                                                    ",
"                                                                                                    ",
"                                                                                                    ",
"                                                                                                    ",
"                                                                                                    ",
"                                                                                                    ",
"                                                                                                    ",
"                                                                                                    ",
"                                                                                                    ",
"                                                                                                    ",
"                                                                                                    ",
"                                                                                                    ",
"                                                                                                    ",
"                                                                                                    ",
"                                                                                                    ",
"                                                                                                    ",
"                                                                                                    ",
"                                                                                                    ",
"                                                                                                    ",
"                                                                                                    ",
"                                                                                                    ",
"                                                                                                    ",
"                                                                                                    ",
"                                                                                                    ",
"                                                                                                    ",
"                                                                                                    ",
"                                                                                                    ",
"                                                                                                    ",
"                                                                                                    ",
"                                                                                                    ",
"                                                                                                    ",
"                                                                                                    ",
"                                                                                                    ",
"                                                                                                    ",
"                                                                                                    ",
"                                                                                                    ",
"                                                                                                    "
};
