/* XPM */
static char *_3070145de61432289ec7bf1de574ddb2qmOOiqI8UMRwQ1Z[] = {
/* columns rows colors chars-per-pixel */
"65 65 175 2 ",
"   c None",
".  c #7C6974",
"X  c #736F7B",
"o  c #756E79",
"O  c #746F7A",
"+  c #6E737F",
"@  c #70727E",
"#  c #BE3C3E",
"$  c #BE3C3F",
"%  c #D32F2F",
"&  c #CF3131",
"*  c #CE3132",
"=  c #CD3233",
"-  c #CE3232",
";  c #CB3334",
":  c #CC3334",
">  c #CA3435",
",  c #C93536",
"<  c #C83637",
"1  c #C63739",
"2  c #C4383A",
"3  c #C03B3E",
"4  c #D03030",
"5  c #D13030",
"6  c #D03031",
"7  c #BA3F42",
"8  c #BD3D40",
"9  c #BF3D40",
"0  c #9D535A",
"q  c #98565D",
"w  c #99565D",
"e  c #96585F",
"r  c #AF474B",
"t  c #AB494E",
"y  c #AA4A4F",
"u  c #B64245",
"i  c #B54246",
"p  c #B64246",
"a  c #B84144",
"s  c #B94246",
"d  c #B24448",
"f  c #B34448",
"g  c #B3474B",
"h  c #B5484B",
"j  c #A74C51",
"k  c #A64C52",
"l  c #A34E54",
"z  c #A44E54",
"x  c #A94B50",
"c  c #A05157",
"v  c #A25056",
"b  c #AB5257",
"n  c #AD5257",
"m  c #8D5D66",
"M  c #8C5E67",
"N  c #8B5F68",
"B  c #925A62",
"V  c #9A5B62",
"C  c #A15C63",
"Z  c #83646E",
"A  c #896169",
"S  c #88616A",
"D  c #97666E",
"F  c #816670",
"G  c #806771",
"H  c #996C74",
"J  c #A46269",
"K  c #5F7C8A",
"L  c #5F7D8A",
"P  c #5F7C8B",
"I  c #6D7380",
"U  c #6A7582",
"Y  c #667885",
"T  c #677885",
"R  c #657986",
"E  c #647A87",
"W  c #617B89",
"Q  c #637A88",
"!  c #627B88",
"~  c #607C8A",
"^  c #607D8A",
"/  c #607C8B",
"(  c #607D8B",
")  c #627E8C",
"_  c #627F8C",
"`  c #8D7C86",
"'  c #9E7880",
"]  c #A27980",
"[  c #A07E86",
"{  c #A37F86",
"}  c #64808E",
"|  c #67828F",
" . c #7D808B",
".. c #698391",
"X. c #6B8491",
"o. c #6D8693",
"O. c #728A96",
"+. c #738A97",
"@. c #788E9A",
"#. c #798F9B",
"$. c #7C909C",
"%. c #7D919D",
"&. c #89818C",
"*. c #9A838C",
"=. c #858791",
"-. c #818C97",
";. c #8D8D98",
":. c #9D959E",
">. c #A4858C",
",. c #A79098",
"<. c #8596A2",
"1. c #8597A2",
"2. c #8596A3",
"3. c #8798A3",
"4. c #8F9EA8",
"5. c #9399A4",
"6. c #909DA9",
"7. c #919FA9",
"8. c #A49BA4",
"9. c #96A2AD",
"0. c #9BA6B0",
"q. c #9CA6B0",
"w. c #9EA7B1",
"e. c #ABA2AA",
"r. c #B1A3AA",
"t. c #A5A7B0",
"y. c #A0AAB3",
"u. c #A4ACB5",
"i. c #A5ADB6",
"p. c #A7AEB7",
"a. c #ACA8B0",
"s. c #A8AEB7",
"d. c #AEAEB6",
"f. c #B2A8B0",
"g. c #BAAFB6",
"h. c #AFB4BC",
"j. c #B0B4BD",
"k. c #B4B8BF",
"l. c #B6B8C0",
"z. c #B9BAC2",
"x. c #C3C1C8",
"c. c #C6C3CA",
"v. c #C7C4CB",
"b. c #C8C5CB",
"n. c #CDC8CF",
"m. c #CEC9CF",
"M. c #D0CAD0",
"N. c #D1CBD1",
"B. c #D2CCD2",
"V. c #D6CED4",
"C. c #D7CFD5",
"Z. c #DDD3D9",
"A. c #E1D6DB",
"S. c #E3D6DB",
"D. c #E3D7DC",
"F. c #E6DADE",
"G. c #EADCE1",
"H. c #EBDDE1",
"J. c #ECDEE2",
"K. c #EDDEE3",
"L. c #EEDFE3",
"P. c #EFE0E4",
"I. c #F5E4E7",
"U. c #F5E4E8",
"Y. c #F6E4E8",
"T. c #F6E5E8",
"R. c #F7E5E9",
"E. c #F7E6E9",
"W. c #F8E6EA",
"Q. c #FAE7EB",
"!. c #FBE8EB",
"~. c #FDEAED",
"^. c #FFEAED",
"/. c #FFEBED",
"(. c #FFEBEE",
/* pixels */
"                                                                                                                                  ",
"                                                                                                                                  ",
"                                                                                                                                  ",
"                                                                                                                                  ",
"                                                                                                                                  ",
"                                                                                                                                  ",
"                                                                                                                                  ",
"                                                                                                                                  ",
"                                                      W L ) ( ( ( ( ( ( ( ( ( (                                                   ",
"                                                      R R R ) ..................                                                  ",
"                                                    ( p % c 3.(.(.(.(.(.(.(.(.(.3.                                                ",
"                                                  T # 6 % c 3.(.(.(.(.(.(.(.(.(.3.P L                                             ",
"                                              W ( T 1 % % , n %.%.F.(.(.(.F.%.%.n 8 w ( W                                         ",
"                                              ( ( T 2 % % % p ( ( A.(.(.(.A.( ( p % c ( (                                         ",
"                                            ( ( I x = % % % p ( ( A.(.(.(.A.( ( p % 3 j c (                                       ",
"                                      ( ( p.z.z.f.q , % % % 1 c c 8.D.(.Z.8.c c 1 % p B D z.#.(                                   ",
"                                    L ( ( n.(.(.H.t.C 1 5 % % % % o n.(.x.o % % % p H p.j.(.l.p.6.                                ",
"                                    R N N r.A.(.(.W.s.J j 8 , j j I u.x.w.o % % g >.n.(.(.(.n.x.6.(                               ",
"                                    + % % Z h.(.(.(.(.1.) B p ( L P P ) ( o % % . l.(.(.(.(.%.( ( (                               ",
"                                    + % % B e.A.F.(.(.w.%.H j ( ( ( W ( L o 8 8 ` x.(.(.!.A.&.o U (                               ",
"                                    + % % % 0 R -.R.(.R.I.l.(               ( ( B.W.!.I.A.T # % w (                               ",
"                                    + % % % % % 8 ..H.1.( (                     ( z.z.( + % % % w (                               ",
"                                    W + + d % % 6 9  .} ( (                     W o.D 2 1 % F + T !                               ",
"                                    ( ( L g % % % : + ( ( (                     P ( B % % % o ( ( (                               ",
"                                    o.n.n.*.t % % 4 d X ( (                     P M 8 % , Z     ( (                               ",
"                                    +.(.(.C.,.N q % % . ( (                     W l f N A   H.(.q.(                               ",
"                                    +.(.(.(.C.h.e.0 ; . ( (                     P . { h.l.  (.(.h.(                               ",
"                                    +.(.(.(.(.(.A.R 1 . ( (                     P P p.(.(.(.(.(.h.(                               ",
"                                    o.n.n.P.(.(.G.5.b @ ( (                     L L 4.n.n.n.n.n.y.                                ",
"                                    W . . g.H.(.(.R.9...( (                         W ) ( ( ( (                                   ",
"                                    + % % m e.H.H.(.(.3.( (                                                                       ",
"                                    + % % % V ( %.(.(.3.( (                                                                       ",
"                                    + % % % w P %.(.(.3.( (                                                                       ",
"                                    + % % % , 1 h %.H.3.( (                                                                       ",
"                                    ! o o p % % = s =.} ( (                                                                       ",
"                                    o.n.n.*.t % % % g X ( (                                                                       ",
"                                    +.(.(.C.,.N w % % . ( (                                                                       ",
"                                    +.(.(.(.h.L o % % . ( (                                                                       ",
"                                    +.(.(.(.M.p.8.l ; . ( (                                                                       ",
"                                    o.n.n.P.(.(.G.5.b X ( (                                                                       ",
"                                    W . . g.H.(.(.R.#.( ( (                                                                       ",
"                                    + % % Z h.(.(.(.  ( ( (                                                                       ",
"                                    + % % A d.I.R.(.  ) ( (                                                                       ",
"                                    + % % = V ..1.(.(.2.( (                                                                       ",
"                                    + 6 % % ; 1 h #.L.3.P L                                                                       ",
"                                    R . . a % % = g ;...) )                                                                       ",
"                                    ) L } t % % % ; + ( L P                                                                       ",
"                                    o.z.z.H g % % 6 k + L )                                                                       ",
"                                    +.(.(.b.>.w z 6 % . ) L                                                                       ",
"                                    +.(.(.(.n.0.:.t = . P L                                                                       ",
"                                    +.(.(.(.(.(.H.5.n X P )                                                                       ",
"                                    +.(.(.(.(.(.(.I.+.( L )                                                                       ",
"                                    +.(.(.(.(.(.(.I.1._ ) )                                                                       ",
"                                    +.(.(.(.(.(.(.(.(.3.P L                                                                       ",
"                                      ....M.(.(.D.....                                                                            ",
"                                          +.+.+.+.                                                                                ",
"                                          ( ( ( (                                                                                 ",
"                                                                                                                                  ",
"                                                                                                                                  ",
"                                                                                                                                  ",
"                                                                                                                                  ",
"                                                                                                                                  ",
"                                                                                                                                  ",
"                                                                                                                                  ",
"                                                                                                                                  "
};
