/* XPM */
static char *_e45479cc9be4f3ec8383aa7aa50a30b7SoJEeObExgl0QAo[] = {
/* columns rows colors chars-per-pixel */
"65 65 95 2 ",
"   c black",
".  c #060708",
"X  c #251A16",
"o  c #2D1F1B",
"O  c #34251F",
"+  c #181F22",
"@  c #313131",
"#  c gray23",
"$  c #442F28",
"%  c #4B352D",
"&  c #533A31",
"*  c #5A3F36",
"=  c #303E45",
"-  c #36464E",
";  c gray27",
":  c gray31",
">  c #42555F",
",  c #714F43",
"<  c #795548",
"1  c #7A5B48",
"2  c #7B6248",
"3  c #7C6948",
"4  c #7D7048",
"5  c #7E7748",
"6  c #7F7E48",
"7  c #546D79",
"8  c #E91E63",
"9  c #CC2F75",
"0  c #6A8E7A",
"q  c #688A7E",
"w  c #738A79",
"e  c #43D96C",
"r  c #A0F802",
"t  c #D4F000",
"y  c #EDEC00",
"u  c #FFEA00",
"i  c #F2E013",
"p  c #CDC72B",
"a  c #808548",
"s  c #828C49",
"d  c #839249",
"f  c #849949",
"g  c #85A049",
"h  c #86A749",
"j  c #87AE49",
"k  c #88B549",
"l  c #89BC49",
"z  c #A1887F",
"x  c #91BC6D",
"c  c #BCB56C",
"v  c #8BC34A",
"b  c #90CD6A",
"n  c #FEE849",
"m  c #FDE767",
"M  c #607D8B",
"N  c #637F8C",
"B  c #687E89",
"V  c #5974BD",
"C  c #925299",
"Z  c #AF4087",
"A  c #67818D",
"S  c #6B838E",
"D  c #6F858F",
"F  c #698391",
"G  c #738790",
"H  c #778992",
"J  c #7B8B93",
"K  c #7F8D94",
"L  c #20A2DE",
"P  c #03A9F4",
"I  c #7FC6F0",
"U  c gray54",
"Y  c #828F95",
"T  c #869196",
"R  c #8A9398",
"E  c #8E9599",
"W  c #92979A",
"Q  c #96999B",
"!  c #9E9B9A",
"~  c #9A9B9C",
"^  c gray62",
"/  c #99A789",
"(  c #9AA48E",
")  c #909DA9",
"_  c #A3A2A2",
"`  c #A9A6A7",
"'  c #AFABAC",
"]  c #BBB3B6",
"[  c #F281A7",
"{  c #8FCAEF",
"}  c #DFC7C9",
"|  c #D5CAD3",
" . c #EAD2D7",
".. c #E4D2D8",
"X. c #FCE4EC",
/* pixels */
"v v v v v v v v v v v v v 3 < < < < < < < < < < < < < < < < < < < < < < < < < < < < < < < < < < < < < 2 v v v v v v v v v v v v v ",
"v v v v v v v v v v v v 5 < < < < < < < < < < < < < < < < < < < < < < < < < < < < < < < < < < < < < < < 4 v v v v v v v v v v v v ",
"v v v v v v v v v v v a < < < < < < < < < < < < < < < < < < < < < < < < < < < < < < < < < < < < < < < < < 6 v v v v v v v v v v v ",
"v v v v v v v v v v d < < < < < < < < < < < < < < < < < < < < < < < < < < < < < < < < < < < < < < < < < < < s v v v v v v v v v v ",
"v v v v v v v v v g < < < < < < < < < < < < < < < < < < < < < < < < < < < < < < < < < < < < < < < < < < < < < f v v v v v v v v v ",
"v v v v v v v v k < < < < < < < < < < < < < < < < < < < < < < < < < < < < < < < < < < < < < < < < < < < < < < < j v v v v v v v v ",
"v v v v v v v v < < < < < < < < < < < < < < < < < < < < < < < < < < < < < < < < < < < < < < < < < < < < < < < < < l v v v v v v v ",
"v v v v v v v < < < < < < < < < < < < < < < < < < < < < < < < < < < < < < < < < < < < < < < < < < < < < < < < < < < v v v v v v v ",
"v v v v v v 2 < < < < < < < < < < < < < < < < < < < < < < < < < < < < < < < < < < < < < < < < < < < < < < < < < < < 1 v v v v v v ",
"v v v v v 4 < < < < < < < < < < < < < < < < < < < < < < < < < < < < < < < < < < < < < < < < < < < < < < < < < < < < < 3 v v v v v ",
"v v v v a < < < < < < < < < < < < < < < < < < < < < < < < < < < < < < < < < < < < < < < < < < < < < < < < < < < < < < < 6 v v v v ",
"v v v d < < < < < < < < < < < < < < < < < < < < < < < < < < < < < < < < < < < < < < < < < < < < < < < < < < < < < < < < < s v v v ",
"v v g < < < < < < < < < < < < < < < < < < < < < < < < < < < < < < < < < < < < < < < < < < < < < < < < < < < < < < < < < < < f v v ",
"v j < < < < < < < < < < < < < < < < < < < < < < < < < < < < < < < < < < < < < < < < < < < < < < < < < < < < < < < < < < < < < h v ",
"l < < < < < < < < < < < < < < < < < < < < < < < < < < < < < < < < < < < < < < < < < < < < < < < < < < < < < < < < < < < < < < < k ",
"l < < < < < < < < < < < < < < < < < < < < < < < < < < < < < < < < < < < < < < < < < < < < < < < < < < < < < < < < < < < < < < < k ",
"l < < < < < < < < < < < < < < < < < < < < < < < < < < < < < < < < < < < < < < < < < < < < < < < < < < < < < < < < < < < < < < < k ",
"l < < < < < < < < < < < < < < < < < < < < < < < < < < < < < < < < < < < < < < < < < < < < < < < < < < < < < < < < < < < < < < < k ",
"l < < < < < < < < < < < < < < < < < < < < < < < < < < < < < < < < < < < < < < < < < < < < < < < < < < < < < < < < < < < < < < < k ",
"l < < < < < < < < < < < < < < < < < < < < < < < < < < < < < < < < < < < < < < < < < < < < < < < < < < < < < < < < < < < < < < < k ",
"l < < < < < < < < < < < < < < < < < < < < < < < < < < < < < < < < < < < < < < < < < < < < < < < < < < < < < < < < < < < < < < < k ",
"l < < < < < < < < < < < < < < < < < < < < < < < < < < < < < < < < < < < < < < < < < < < < < < < < < < < < < < < < < < < < < < < k ",
"l < < < < < < < < < < < < < < < < < < < < < < < < < < < < < < < < < < < < < < < < < < < < < < < < < < < < < < < < < < < < < < < k ",
"l < < < < < < < < < < < < < < < < < < < < < < < < < < < < < < < < < < < < < < < < < < < < < < < < < < < < < < < < < < < < < < < k ",
"l < < < < < < < < < < < < < < < < < < < < < < < < < < < < < < < < < < < < < < < < < < < < < < < < < < < < < < < < < < < < < < < k ",
"l < < < < < < < < < < < < < < < < < < < < < < < < < < < < < < < < < < < < < < < < < < < < < < < < < < < < < < < < < < < < < < < k ",
"l < < < < < < < < < < < < < < < < < < < < < < < < < < < < < < < < < < < < < < < < < < < < < < < < < < < < < < < < < < < < < < < k ",
"l < < < < < < < < < < < < < < < < < < < < < < < < < < < < < < < < < < < < < < < < < < < < < < < < < < < < < < < < < < < < < < < k ",
"l < < < < < < < < < < < < < < < < < < < < < < < < < < < < < < < < < < < < < < < < < < < < < < < < < < < < < < < < < < < < < < < k ",
"l < < < < < < < < < < < < < < < < < < < < < < < < < < < < < < < < < < < < < < < < < < < < < < < < < < < < < < < < < < < < < < < k ",
"l < < < < < < < < < < < < < < < < < < < < < < < < < < < < < < < < < < < < < < < < < < < < < < < < < < < < < < < < < < < < < < < k ",
"l < < < < < < < < < < < < < < < < < < < < < < < < < < < < < < < < < < < < < < < < < < < < < < < < < < < < < < < < < < < < < < < k ",
"l < < < < < < < < < < < < < < < < < < < < < < < < < < < < < < < < < < < < < < < < < < < < < < < < < < < < < < < < < < < < < < < k ",
"v v v v v / ^ ^ ^ ^ ^ J M M M M D ^ K M M M M D ^ ^ ^ D M M M M M T ^ ^ M M M M M M Q ^ Q M M M M M ~ M M M M T ^ ^ ^ ( v v v v v ",
"v v v v v / ^ ^ M M M M M W ^ ^ ^ ^ ^ ^ ^ ^ ^ ^ ^ ^ ^ ^ ^ ^ ^ ^ ^ ^ ^ ^ ^ ^ ^ ^ ^ ^ ^ ^ ^ ^ ^ ^ ^ ^ ^ M M M M T ^ N M q v v v v v ",
"v v v v v / ^ ^ M M M M M W ^ M M M M R ^ N M M M K ^ ^ ^ ^ ^ ^ Y M M M M S R M M M M M Q M M M M M ~ ^ ^ ^ ^ ^ ^ N M q v v v v v ",
"v v v v v / ^ ^ ^ ^ ^ ^ ^ ^ ^ M M M M R ^ N M M M K ^ ^ ^ ^ ^ ^ Y M M M M S R M M M M M Q M M M M M ~ ^ ^ ^ ^ ^ ^ ^ ^ ( v v v v v ",
"v v v v v / ^ ^ ^ ^ ^ ^ ^ ^ ^ ^ ^ ^ ^ ^ ^ ^ ^ ^ T M M M M ~ M M M M E ^ ^ ^ ^ ^ ^ ^ ^ ^ ^ ^ ^ ^ ^ ^ ^ ^ ^ ^ ^ ^ ^ ^ ^ ( v v v v v ",
"v v v v v / ^ ^ M M M M M W ^ ^ ^ ^ ^ ^ ^ ^ ^ ^ T M M M M ~ M M M M E ^ ^ ^ ^ ^ ^ ^ ^ ^ ^ ^ ^ J M M M M D ^ ^ ^ ^ ^ ^ ( v v v v v ",
"v v v v v / ^ u w p M M M W ^ ^ ^ T M M M ~ ^ ^ ^ ^ ^ ^ ^                   @ ^ ^ G M M M M J J M M M M D T M M M M N ( v v v v v ",
"v v v v v / i ^ i c m X.X.X.X.9 P V [ X.X.X.X...^ K M M . < < < < o * < < < & ; ^ G M M M M J ^ ^ ^ ^ ^ ^ T M M M M N ( v v v v v ",
"v v v v v / ^ u u n { P P P X.9 P V [ ] ^ ^ _ ..^ K M + , < < < < o * < < < < $ - M M M A ^ ^ ^ ^ ^ N M M H ^ ^ ^ ^ ^ ( v v v v v ",
"v v v v v / i M y r b P P P X.8 Z V [ ] S M F | H ^ # * < < < < < o * < < < < < O > M M A ^ ^ ^ ^ ^ N M M H ^ ^ ^ ^ ^ ( v v v v v ",
"v v v v v / A u w t e P P P X.8 Z V [ ] S M F | H : % < < < < < < o * < < < < < < X U ^ ^ ^ ^ ^ ^ ^ N M M M M M M M N ( v v v v v ",
"v v v v v / ^ ^ ^ x e P P P X.8 Z P I ] ^ ^ _ ..^ : % < < < < < < o * < < < < < < X U ^ M M M M M W ^ ^ ^ T M M M M N ( v v v v v ",
"v v v v v / ^ ^ ^ x e P P P X.9 P V [ ) M M F ..^ : % < < < < < < o * < < < < < < X U ^ M M M M M W ^ ^ ^ ^ ^ ^ ^ ^ ^ ( v v v v v ",
"v v v v v / A M z z z z z z X.8 Z V [ ) M M F ..^ : % < < < < < < o * < < < < < < X U ^ ^ ^ ^ ^ ^ ^ ^ ^ ^ ^ ^ ^ ^ ^ ^ ( v v v v v ",
"v v v v v / A M B z z z z L X.8 Z V [ ] ^ ^ _ ..^ : % < < < < < < o * < < < < < < X U ^ Q M M M M M ~ ^ ^ ^ ^ ^ ^ ^ ^ ( v v v v v ",
"v v v v v / ^ ^ ! z z z z  .X.8 8 C I X.X.X.X...^ : % < < < < < < o * < < < < < < X U ^ Q M M M M M ~ ^ ^ ^ ^ ^ ^ ^ ^ ( v v v v v ",
"v v v v v / ^ ^ ` } z z } X.X.X.X.X.X.] ^ ^ ^ ^ ^ : % < < < < < < o * < < < < < < X U ^ ^ ^ ^ ^ ^ ^ N M M M K H M M M q v v v v v ",
"v v v v v / ^ ^ X.X.X.X.X.X.X.X.X.X.X.X.' N M M M = % < < < < < < o * < < < < < < X U ^ ^ ^ ^ ^ ^ ^ N M M M K H M M M q v v v v v ",
"v v v v v / ^ ^ ^ ^ Y M M M M A ^ ^ ^ ^ ^ N M M M = % < < < < < < o * < < < < < < X 7 M ^ E M M M M M M M M K H M M M q v v v v v ",
"v v v v v / ^ ^ ^ ^ Y M M M M A ^ ^ ^ ^ ^ ^ ^ ^ ^ : % < < < < < < o * < < < < < < X 7 M ^ E M M M M ~ ^ ^ ^ ^ ^ ^ ^ ^ ( v v v v v ",
"v v v v v / ^ ^ ^ ^ ^ ^ ^ ^ ^ ^ E M M M M ~ ^ ^ ^ : % < < < < < < o * < < < < < < X U ^ ^ ^ ^ ^ ^ ^ ^ ^ ^ ^ ^ ^ ^ ^ ^ ( v v v v v ",
"v v v v v 0 M M M G ^ ^ ^ ^ ^ ^ E M M M M ~ ^ ^ T = % < < < < < < o * < < < < < < X U ^ M M M M M W ^ ^ E M M M M M N ( v v v v v ",
"v v v v v 0 M M M M M Y ^ ^ ^ ^ ^ ^ ^ ^ ^ ^ ^ ^ T = % < < < < < < o * < < < < < < X U ^ M M M M M W ^ ^ E M M M M M N ( v v v v v ",
"v v v v v / ^ M M M M Y ^ ^ ^ ^ ^ ^ ^ ^ S M M M M = % < < < < < < o * < < < < < < X U ^ ^ ^ ^ ^ ^ ^ ^ ^ ^ ^ ^ ^ ^ ^ ^ ( v v v v v ",
"v v v v v / ^ ^ ^ ^ ^ ^ G M M M M H ^ ^ S M M M M = % < < < < < < o * < < < < < < X 7 M M M J ^ ^ ^ ^ ^ ^ ^ ^ ^ ^ ^ ^ ( v v v v v ",
"v v v v v / ^ ^ ^ ^ ^ ^ G M M M M H ^ ^ ^ ^ ^ ^ ^ : % < < < < < < o * < < < < < < X 7 M M M J J M M M M M H ^ ^ ^ ^ ^ ( v v v v v ",
"v v v v v / ^ ^ ^ ^ ^ ^ ^ ^ ^ ^ ^ ^ ^ ^ ^ ^ ^ ^ ^ : % < < < < < < o * < < < < < < X U ^ ^ ^ ^ J M M M M M H ^ ^ ^ ^ ^ ( v v v v v ",
"v v v v v / ^ ^ ^ ^ ^ ^ ^ ^ ^ ^ ^ ^ ^ ^ ^ ^ ^ ^ ^ : % < < < < < < o * < < < < < < X U ^ ^ ^ ^ ^ ^ ^ ^ ^ ^ ^ ^ ^ ^ ^ ^ ( v v v v v ",
"v v v v v v v v v v v v v v v v v v v v v v v v v v v v v v v v v v v v v v v v v v v v v v v v v v v v v v v v v v v v v v v v v ",
"v v v v v v v v v v v v v v v v v v v v v v v v v v v v v v v v v v v v v v v v v v v v v v v v v v v v v v v v v v v v v v v v v ",
"v v v v v v v v v v v v v v v v v v v v v v v v v v v v v v v v v v v v v v v v v v v v v v v v v v v v v v v v v v v v v v v v v ",
"v v v v v v v v v v v v v v v v v v v v v v v v v v v v v v v v v v v v v v v v v v v v v v v v v v v v v v v v v v v v v v v v v "
};
