/* XPM */
static char *result[] = {
/* columns rows colors chars-per-pixel */
"64 64 225 2 ",
"   c #010100",
".  c #0B0503",
"X  c #0C0B04",
"o  c #070804",
"O  c #130B05",
"+  c #130D0D",
"@  c #1C0C08",
"#  c #0F1100",
"$  c #131404",
"%  c #14140A",
"&  c #1A170A",
"*  c #1C1B0A",
"=  c #171A05",
"-  c #1A1212",
";  c #241209",
":  c #211E0A",
">  c #2D170B",
",  c #38160E",
"<  c #261817",
"1  c #280E0A",
"2  c #1E2300",
"3  c #1E210F",
"4  c #242B00",
"5  c #24230B",
"6  c #2C2C0E",
"7  c #27230A",
"8  c #35270F",
"9  c #313901",
"0  c #32350F",
"q  c #242612",
"w  c #332911",
"e  c #2E3217",
"r  c #333210",
"t  c #3D3B13",
"y  c #373817",
"u  c #2D3406",
"i  c #352323",
"p  c #33332E",
"a  c #4D1814",
"s  c #561B16",
"d  c #401F0F",
"f  c #641F1A",
"g  c #442211",
"h  c #492612",
"j  c #552816",
"k  c #413D14",
"l  c #493516",
"z  c #563819",
"x  c #66281A",
"c  c #663318",
"v  c #722D1C",
"b  c #4B342F",
"n  c #7E2721",
"m  c #3E441F",
"M  c #394208",
"N  c #3F4520",
"B  c #464416",
"V  c #484617",
"C  c #484C1A",
"Z  c #514D1A",
"A  c #594A1F",
"S  c #58451A",
"D  c #4B5418",
"F  c #55521B",
"G  c #5A541D",
"H  c #5D5A1D",
"J  c #6D431F",
"K  c #655415",
"L  c #615F1F",
"P  c #6B5B1A",
"I  c #72441D",
"U  c #786A1E",
"Y  c #414621",
"T  c #444922",
"R  c #4C5425",
"E  c #4E5627",
"W  c #555C29",
"Q  c #5F4F21",
"!  c #614F27",
"~  c #754721",
"^  c #685625",
"/  c #765825",
"(  c #5A632C",
")  c #5B642C",
"_  c #656321",
"`  c #6A6522",
"'  c #6D6A22",
"]  c #636E2D",
"[  c #736E24",
"{  c #7B6C2B",
"}  c #786628",
"|  c #7A7526",
" . c #7E7A29",
".. c #777426",
"X. c #646E33",
"o. c #796938",
"O. c #667033",
"+. c #6A7535",
"@. c #6E7937",
"#. c #717C39",
"$. c #7C7A3C",
"%. c #525252",
"&. c #654343",
"*. c #734E4E",
"=. c #795255",
"-. c #756647",
";. c #7C6E52",
":. c #696846",
">. c gray46",
",. c #932F27",
"<. c #A7352C",
"1. c #B1382F",
"2. c #8B5925",
"3. c #945C28",
"4. c #884B23",
"5. c #846828",
"6. c #96682B",
"7. c #827C2A",
"8. c #89792A",
"9. c #977C2D",
"0. c #8E6F30",
"q. c #817339",
"w. c #937A33",
"e. c #9B7632",
"r. c #A1742D",
"t. c #A27A33",
"y. c #84595B",
"u. c #887845",
"i. c #847556",
"p. c #8E6164",
"a. c #877A60",
"s. c #85822B",
"d. c #8B862C",
"f. c #8D8A2D",
"g. c #938C2C",
"h. c #9A8A2F",
"j. c #9D932E",
"k. c #96912E",
"l. c #9A8934",
"z. c #9B9531",
"x. c #9A9635",
"c. c #88853E",
"v. c #A48234",
"b. c #A78B3A",
"n. c #A68B36",
"m. c #A49D33",
"M. c #AC953A",
"N. c #AD9B3A",
"B. c #A99636",
"V. c #B19C38",
"C. c #A5A134",
"Z. c #ABA435",
"A. c #AEA937",
"S. c #ADA539",
"D. c #AAA53A",
"F. c #B3A43B",
"G. c #B4AD39",
"H. c #B8AE3B",
"J. c #B2A737",
"K. c #B6B13A",
"L. c #BBB53B",
"P. c #BDB83C",
"I. c #958B47",
"U. c #AB9347",
"Y. c #B29B45",
"T. c #A79653",
"R. c #B6A847",
"E. c #BFBA43",
"W. c #BBB34C",
"Q. c #B2AB53",
"!. c #8E8269",
"~. c #8D8064",
"^. c #978B73",
"/. c #9E9878",
"(. c #92866D",
"). c #BBAA67",
"_. c #B3AB71",
"`. c #C0BB45",
"'. c #C2BD4B",
"]. c #C2BC54",
"[. c #C2BB64",
"{. c #C1AD74",
"}. c #C5B17C",
"|. c #C8C45D",
" X c #C5C154",
".X c #CAC663",
"XX c #CDC96B",
"oX c #C9C469",
"OX c #CFCB72",
"+X c #CAC578",
"@X c #D1CE7A",
"#X c #D4D07F",
"$X c #A49986",
"%X c #B1AC87",
"&X c #BDB5A7",
"*X c #CBBA89",
"=X c #C2BCAE",
"-X c #C7C284",
";X c #D1CD85",
":X c #D6D286",
">X c #D4C699",
",X c #DCD99A",
"<X c #DAD598",
"1X c #C5C397",
"2X c #DFD9A7",
"3X c #DBD5B7",
"4X c #D0C8AC",
"5X c #E1DEA9",
"6X c #E2DBB6",
"7X c #E3E1AC",
"8X c #E4E2B1",
"9X c #D6D3CC",
"0X c #E5DECB",
"qX c #EDECCC",
"wX c #E9E6C3",
"eX c #ECEAD6",
"rX c #F1EED7",
"tX c #F3F2DB",
"yX c #EBE9E4",
"uX c #F1EDE4",
"iX c #F4F2EC",
"pX c #F7F6E9",
"aX c #FFFEFE",
"sX c #FBFAF4",
"dX c None",
/* pixels */
"dXdXdXdXdXdXdXdXdXdXdXdXdXdXdXdXdXdXdXdXdXdXdXdXdXdXdXdXdXdXdX      dXdX                      dXdXdXdXdXdXdXdXdXdXdXdXdXdXdXdXdX",
"dXdXdXdXdXdXdXdXdXdXdXdXdXdXdXdXdXdXdXdXdXdXdXdXdXdXdX                                        dXdXdXdXdXdXdXdXdXdXdXdXdXdXdXdXdX",
"dXdXdXdXdXdXdXdXdXdXdXdXdXdXdXdXdXdXdXdXdXdXdXdXdXdX            & %     * 5 o * 6 6 6 6 5 > O   dXdXdXdXdXdXdXdXdXdXdXdXdXdXdXdX",
"dXdXdXdXdXdXdXdXdXdXdXdXdXdXdXdXdXdXdXdXdXdX                    / Q     F g.= ` G.G.A.N.e.4.g     dXdXdXdXdXdXdXdXdXdXdXdXdXdXdX",
"dXdXdXdXdXdXdXdXdXdXdXdXdXdXdXdXdXdXdXdX            > j 8 $ . ; 8.^ #   F C.I.x.P.P.P.L.F.t.z     dXdXdXdXdXdXdXdXdXdXdXdXdXdXdX",
"dXdXdXdXdXdXdXdXdXdXdXdXdXdXdXdXdXdXdX      ; , w . l 6.^ t 7 h w.7.m N $.W.OX XP.P.P.P.L.F.G     dXdXdXdXdXdXdXdXdXdXdXdXdXdXdX",
"dXdXdXdXdXdXdXdXdXdXdXdXdXdXdXdXdXdX      . c 6.w.: _ R.9.{ ^ v n.D.x.+X@X#X,XoXE.P.P.P.P.P.L     dXdXdXdXdXdXdXdXdXdXdXdXdXdXdX",
"dXdXdXdXdXdXdXdXdXdXdXdXdXdXdXdXdX    d J { n.V.D.H /.5XR.Y.T.2.).<X6XeX,X.XwX5XXXP.P.P.P.P._     dXdXdXdXdXdXdXdXdXdXdXdXdXdXdX",
"dXdXdXdXdXdXdXdXdXdXdXdXdXdXdXdX  . , ~ e.M.H..X;Xx.>XrX'.;X*Xr.>XrXsXaX<X[.wX2X].P.P.P.P.P._     dXdXdXdXdXdXdXdXdXdXdXdXdXdXdX",
"dXdXdXdXdXdXdXdXdXdXdXdXdXdXdXdX  ; 4.t.M.V.'.,XsXXX7XrX].8X6XY.2XtXpXpX>X{.2X[.`.H.P.P.P.P._     dXdXdXdXdXdXdXdXdXdXdXdXdXdXdX",
"dXdXdXdXdXdXdXdXdXdXdXdXdXdXdX    : e.V.H.L.8XpXaXuXtXwX[.5XqX<X:XOX.X#X6X6X[.Y.V.P.P.P.P.P._     dXdXdXdXdXdXdXdXdXdXdXdXdXdXdX",
"dXdXdXdXdXdXdXdXdXdXdXdXdXdXdX    7 B.K.L.P.qXrX,X,X5X8X8XqXtXtX+XR.F.W.5XrX{.U.M.P.P.P.P.F.Q     dXdXdXdXdXdXdXdXdXdXdXdXdXdXdX",
"dXdXdXdXdXdXdXdXdXdXdXdXdXdX    O l Z.P.P. X7X,XP.P.|.<XqX8XqXaX_.l.Y.Y.2XuX*XU.v.P.P.P.L.M.A     dXdXdXdXdXdXdXdXdXdXdXdXdXdXdX",
"dXdXdXdXdXdXdXdXdXdXdXdXdXdXdX  g 3.K.P. X.X XP.P.P.P. X'.'.:XaXi.o.}.{.3XsX0Xi.P L.P.P.L.M.A     dXdXdXdXdXdXdXdXdXdXdXdXdXdXdX",
"dXdXdXdXdXdXdXdXdXdXdXdXdXdX    z t.L.P.P. X XP.P.P.P.P.P.P.OXpX-.i.wX3XeXsXiXa.K L.P.P.L.M.S     dXdXdXdXdXdXdXdXdXdXdXdXdXdXdX",
"dXdXdXdXdXdXdXdXdXdXdXdXdXdX    G Z.L.P.P.P.P.P.P.P.P.P.P.P..X8Xo.!.aXyXiXaXaX(.K L.P.P.L.M.A     dXdXdXdXdXdXdXdXdXdXdXdXdXdXdX",
"dXdXdXdXdXdXdXdXdXdXdXdXdX      _ L.P.P.P.P.P.P.L.L.L.P.P.P.`. X^ !.aXaXaXaXaX^.K L.P.P.L.M.A     dXdXdXdXdXdXdXdXdXdXdXdXdXdXdX",
"dXdXdXdXdXdXdXdXdXdXdXdXdX      _ P.L.P.H.M.N.M.M.M.H.L.P.P.P.`.P a.aXaXaXaXaX_.g.L.P.P.G.v.z     dXdXdXdXdXdXdXdXdXdXdXdXdXdXdX",
"dXdXdXdXdXdXdXdXdXdXdXdXdXdX    L L.L.P.].*X*X*X*XU.F.P.P.P.P.P.P (.sXaXaXaXaX-Xm.P.L.H.N.6.z     dXdXdXdXdXdXdXdXdXdXdXdXdXdXdX",
"dXdXdXdXdXdXdXdXdXdXdXdXdXdX    G S.L.L.@XaXaXaXiX{.R.P.L.P.P.P.} !.yXsXaXaXaX-XZ.L.L.R.v.3.g   dXdXdXdXdXdXdXdXdXdXdXdXdXdXdXdX",
"dXdXdXdXdXdXdXdXdXdXdXdXdX      8 ` G.L.@XaXaXaXaXuX:XP.H.L.P.P.q.-./.yXiXyXyX_.Z.P.P.J.b.~ ,   dXdXdXdXdXdXdXdXdXdXdXdXdXdXdXdX",
"dXdXdXdXdXdXdXdXdXdXdXdXdX      k 8.j.8._.aXaXaXaXaX<XF.H.L.P.P.I.u.T.eX0X=X9X_.J.P.P.H.t.l @           dXdXdXdXdXdXdXdXdXdXdXdX",
"dXdXdXdXdXdXdXdXdXdXdXdXdX      A n.9.G i.aXaXaXaXaX>XV.L.P.P.P.I.U. XqX=X^./.T.H.P.H.V.0.:             dXdXdXdXdXdXdXdXdXdXdXdX",
"dXdXdXdXdXdXdXdXdXdXdXdXdX      A n.z.K ;.aXaXaXaXaX>XM.L.P.P.P.k.z.W.3X$X! P j.L.P.V.0.z O                 dXdXdXdXdXdXdXdXdXdX",
"dXdXdXdXdXdXdXdXdXdXdXdXdX    X ^ B.m.} ;.9X$X&XiX$Xu.w.K.P.P.P.j.m.K.I.$.8.g.Z.P.P.G.m.8.5 0 [ [ ..[ [ 5       dXdXdXdXdXdXdXdX",
"dXdXdXdXdXdXdXdXdXdXdXdXdXdXo $ A t.Z.} ;.$X-.(.9Xo.K U K.P.P.P.A.A.G.U 8.A.P.P.P.P.P.P.A.6 H P.P.|.|.P._ 5       dXdXdXdXdXdXdX",
"dXdXdXdXdXdXdXdXdX    dXdXdX  O j 3.V.[ ! ;.i.^._.E.| S Z.P.P.P.P.P.P.P.P.P.P.P.P.P.P.P.A.6 F P.P.5XqX XP.|         dXdXdXdXdXdX",
"dXdXdXdXdXdXdXdXdX    dXdXdX  . g ~ Z.j.s.{ ^ ^ o.Z.g.5.K.P.P.P.P.P.P.P.P.P.P.P.P.P.P.P.L.d.z.P.P.|.:XwXXXZ.s.s.V   dXdXdXdXdXdX",
"dXdXdXdXdXdXdXdXdXt V dXdX    % S 8.J.A.m.g.U P [ [ 7.j.L.P.P.P.P.P.P.P.P.P.P.P.P.P.P.P.L.L.L.P.P.P.|.7X.XP.P.P._   dXdXdXdXdXdX",
"dXdXdXdXdXdXdXo # 7.C.dX    o 6 7.L.K.L.P.P.j.j.k.: H K.Z.K.P.P.P.P.P.P.P.P.P.P.P.P.P.P.P.P.P.P.P.P.P.P.P.P.P.P._   dXdXdXdXdXdX",
"dXdXdXdXdXdXdX6 f.A.f.      % 7.Z.P.L.L.P.P.K.G.m.5 B | 0 7.P.P.P.P.P.P.P.P.P.P.P.P.P.P.P.P.P.P.P.P.P.P.P.P.P.P.`   dXdXdXdXdXdX",
"dXdXdXdXdXdXdXr K.P.s.o B V k m.P.P.L.P.P.P.P.P.Z.5 8 z X [ P.P.P.P.P.P.P.P.P.P.P.P.P.P.P.P.P.P.P.P.P.P.P.P.P.J.^   dXdXdXdXdXdX",
"dXdXdXdXdXdX  r K.E.s.3 k.x. .J.P.P.P.P.P.P.P.L.m.: 1 a o [ L.L.P.P.P.P.P.P.P.P.P.P.P.P.P.P.P.P.P.P.P.P.L.L.H.b.S   dXdXdXdXdXdX",
"dXdXdXdXdXdXX r K.`.x.H Q.].G.P.P.P.P.P.L.P.P.A.d.; , a o [ K.Z.L.P.P.P.P.P.P.P.P.P.P.P.P.P.P.P.P.P.P.P.L.H.b.3.j   dXdXdXdXdXdX",
"dXdXdXdXdXdXX t A.XX;X%X). XP.P.P.P.P.P.P.L.' L U * s ,.@ { z.V 5.v.F.L.P.P.P.P.P.P.P.P.P.P.P.P.P.F.B.e.V.V.3.j > dXdXdXdXdXdXdX",
"dXdXdXdXdXdX% k K.OX5XrX.XP.P.P.P.P.P.P.P.L.y * B > x <.a } '   g J { Z.P.P.P.j.k.P.j.k.A.g.m.P.P.h./ c h.h.c ; dXdXdXdXdXdXdXdX",
"dXdXdXdXdXdX6 Z K.P.OXqX.XP.P.P.P.P.P.P.P.L.r   . a ,.1.<.v m       % k.P.P.P.F t L.t y s.5 H P.P.F      .|   dXdXdXdXdXdXdXdXdX",
"dXdXdXdXdXdXr F A.K..X8X|.P.P.P.P.P.P.P.P.L.y   . f s a <.j %       o dXP.P.P.7._ P.V * t dX .G.L.s.dXdX5.2.dXdXdXdXdXdXdXdXdXdX",
"dXdXdXdXdXdXt Z 8. .I.:X'.P.P.P.P.P.P.P.Z.[ :   . v a , <.a           dXdXG.7.dXdXP._ . # dXdX .G.dXdXdXj z dXdXdXdXdXdXdXdXdXdX",
"dXdXdXdXdXdXk k , $ C .X`.L.P.P.P.L.P.L.7.      . s dXdX1.j ;       dXdXdXz.= dXdXP.dXdX  dXdX5 D.dXdXdX    dXdXdXdXdXdXdXdXdXdX",
"dXdXdXdXdXdXV k > dXdXE.V.V.L.P.L.L.P.B.0.dXdXdXdX@ dXdXa / H   dXdXdXdXdXK.dXdXdXP.dXdXdXdXdXdXG.dXdXdXdXdXdXdXdXdXdXdXdXdXdXdX",
"dXdXdXdXdXdXdXt dXdXk ' 2.9.V.G.m.m.L.9.2.dXdXdXdXdXdXdX1 [ _   dXdXdXdXdXP.dXdXdXZ.dXdXdXdXdXdXL.dXdXdXdXdXdXdXdXdXdXdXdXdXdXdX",
"dXdXdXdXdXdXdXdXdXdXo O h I 6.B.g.d.L.5.c dXdXdXdXdXdXdXdX` H   dXdXdXdXg.C.dXdXdXs.dXdXdXdXdXdXK.k.dXp dXdXdXdXdXdXdXdXdXdXdXdX",
"dXdXdXdXdXdXdXdXdXdXdXdXX ; h dXdXdXL.G O dX              Z F           t H X dXdXB dXdXdXdXdXdXz.V %.9XdXdX  dXdXdXdXdXdXdXdXdX",
"dXdXdXdXdXdXdXdXdXdXdXdXdXO ; dXdXdX[ B dX      X y N N C W T   $ $     * r o   X = dXdXdXdXdXdXB * p :X:.    dXdXdXdXdXdXdXdXdX",
"dXdXdXdXdXdXdXdXdXdXdXdXdXdXdXdXdXdXw dXdX    X q X.#.@.) E e   u 0 3 3 * dX        dXdXdXdXdXdX    r K.` 5   dXdXdXdXdXdXdXdXdX",
"dXdXdXdXdXdXdXdXdXdXdXdXdXdXdXdXdXdXo dXdX    e @.@.#.] M =     E @.@.@.+.dX      dXdXdXdXdXdXdXdX  r K.].;.  dXdXdXdXdXdXdXdXdX",
"dXdXdXdXdXdXdXdX    dXdXdXdXdXdXdXdX  dXdX  $ C #.#.#.] M $ % R O.#.#.#.#.dX2 #   dXdXdXdXdXdXdXdX  r K.E. .  dXdXdXdXdXdXdXdXdX",
"dXdXdXdXdXdXdXp %.%.>.dXdXdXdXdXdXdX  dXdX  2 D #.#.#.] 9 = * E +.#.#.#.) dXN u $ dXdXdXdXdXdXdXdX  r K.P.|   dXdXdXdXdXdXdXdXdX",
"dXdXdXdXdXdX  p iXaXsXsXdXdXdXdXdXdX      o 4 D #.#.#.] M = X 2 ( #.#.#.C u ] D 9 dXdXdXdXdXdXdXdX  r K.P...  dXdXdXdXdXdXdXdXdX",
"dXdXdXdXdXdX  e oXXXXXXXdXdXdXdXdX      X 4 u D #.#.#.@.X.W ( ( +.#.#.#.O.] @.+.R     dXdXdXdXdXdX  r G.P.|   dXdXdXdXdXdXdXdXdX",
"dXdXdXdXdXdX  6 G.P.E.K.Z dXdXdX      X 2 9 9 D #.#.#.O.T N N y m m N X.#.#.#.#.W       dXdXdXdXdX  r K.P.|   dXdXdXdXdXdXdXdXdX",
"dXdXdXdXdXdX* B G.P.K.z.r dXdXdX      2 9 9 9 D #.#.+.E + + + + + X % E @.#.#.#.W #     dXdXdXdXdX  r K.P.|   dXdXdXdXdXdXdXdXdX",
"dXdXdXdX    H Z.P.P.s.* dXdXdXdX      2 9 9 9 D #.#.Y * w &.=.=.=.&.i - N #.#.#.O.T %   dXdXdXdXdX  r K.P.|   dXdXdXdXdXdXdXdXdX",
"dXdXdXdX    _ P.P.P. .  dXdXdXdX      # = 9 9 D +.N b b *.y.p.p.p.=.&.- m :.#.E e q X   dXdXdXdXdX  r K.P.|   dXdXdXdXdXdXdXdXdX",
"dXdXdXdX    _ P.P.P. .  dXdXdXdXdX      # 9 9 D O.% p y.p.p.p.p.p.y.*.- y @.( q       dXdXdXdXdXdX6 F K.z._   dXdXdXdXdXdXdXdXdX",
"dXdXdXdX    _ P.P.P. .  dXdXdXdXdXdX    # 9 9 D X.% < b p.p.p.p.p.=.b . y ) %       dXdXdXdXdXdXdXG.K.P.V X dXdXdXdXdXdXdXdXdXdX",
"dXdXdXdXdXdXy _ K.P.C...6 dXdXdXdXdXdX  o $ 4 D X.& + < i i i i i q + o - 3 o     dXdXdXdXdXdX  dXP.P.P.t   dXdXdXdXdXdXdXdXdXdX",
"dXdXdXdXdXdX  6 A.P.P.K.L r dXdXdXdXdX      = 0 T X                               dXdXdXdXdX6 V dXP.A. .y dXdXdXdXdXdXdXdXdXdXdX",
"dXdXdXdXdXdX  6 A.P.P.P.P.' o o o o o o o o o o o o     dXdXdXdXdXdX  o o o o o o o o o o o H P.P.L.s.o dXdXdXdXdXdXdXdXdXdXdXdX",
"dXdXdXdXdXdXdXdX6 d.P.P.P.Z.d.d.d.d.d.d.d.d.f.8.} { y   dXdXdXdXdXdX. K } { s.d.d.d.d.d.d.d.m.P.P.' 6 dXdXdXdXdXdXdXdXdXdXdXdXdX",
"dXdXdXdXdXdXdXdX  F ' ' C.P.P.P.P.P.P.P.P.P.E.F.b.b.S   dXdXdXdXdXdXO q.b.M.L.P.P.P.P.P.K. .' ' ' t dXdXdXdXdXdXdXdXdXdXdXdXdXdX",
"dXdXdXdXdXdXdXdXdX    o  .m.C.C.C.C.C.C.C.C.m.l.w.w.l   dXdXdXdXdXdXO / w.w.B.m.C.C.C.C.z.5       dXdXdXdXdXdXdXdXdXdXdXdXdXdXdX",
"dXdXdXdXdXdXdXdXdXdXdXdX* 5 * 3 * 5 * 5 * 3 : * & & X   dXdXdXdXdXdX  % & * * 5 * 5 * 3 5 dXdXdXdXdXdXdXdXdXdXdXdXdXdXdXdXdXdXdX"
};
