/* XPM */
static char *result[] = {
/* columns rows colors chars-per-pixel */
"64 64 221 2 ",
"   c #040006",
".  c #1C090D",
"X  c #160812",
"o  c #0D0D14",
"O  c #240A0D",
"+  c #38000B",
"@  c #261415",
"#  c #2B1515",
"$  c #2F1815",
"%  c #311614",
"&  c #331915",
"*  c #3A1E16",
"=  c #3D1F18",
"-  c #240D13",
";  c #3E2916",
":  c #3E3415",
">  c #1D1729",
",  c #1A1624",
"<  c #201A2C",
"1  c #251C34",
"2  c #2A1E3B",
"3  c #362A3E",
"4  c #57000B",
"5  c #4A0016",
"6  c #550017",
"7  c #5B0115",
"8  c #5B0219",
"9  c #5A071B",
"0  c #5F131A",
"q  c #4D090F",
"w  c #630319",
"e  c #6B051B",
"r  c #6C0A1C",
"t  c #620F19",
"y  c #75021D",
"u  c #7C051E",
"i  c #79091D",
"p  c #6D121D",
"a  c #66191B",
"s  c #72171B",
"d  c #4D2C14",
"f  c #4A2C19",
"g  c #432918",
"h  c #512E15",
"j  c #433116",
"k  c #4C301C",
"l  c #493A17",
"z  c #54331B",
"x  c #5C361C",
"c  c #583819",
"v  c #4D2B09",
"b  c #65391B",
"n  c #64341C",
"m  c #6B2F13",
"M  c #761525",
"N  c #5C3A22",
"B  c #55373D",
"V  c #42353C",
"C  c #623B26",
"Z  c #4A4419",
"A  c #504719",
"S  c #6A461C",
"D  c #64461C",
"F  c #754E1C",
"G  c #674227",
"H  c #744D2C",
"J  c #7E4820",
"K  c #7A5227",
"L  c #65443D",
"P  c #744D33",
"I  c #7B5239",
"U  c #2D1C43",
"Y  c #321E4D",
"T  c #341E55",
"R  c #210850",
"E  c #33214A",
"W  c #38294D",
"Q  c #372152",
"!  c #3A2456",
"~  c #3B265B",
"^  c #3C2B5B",
"/  c #372659",
"(  c #3F1D77",
")  c #352666",
"_  c #4D3449",
"`  c #412C5B",
"'  c #402D53",
"]  c #45335C",
"[  c #4B3B5D",
"{  c #442C63",
"}  c #4E3B61",
"|  c #49336A",
" . c #4B2B79",
".. c #492A74",
"X. c #4C3374",
"o. c #513675",
"O. c #553B75",
"+. c #55397B",
"@. c #593D7D",
"#. c #523779",
"$. c #52376F",
"%. c #444659",
"&. c #574558",
"*. c #57565B",
"=. c #534E55",
"-. c #644542",
";. c #7A5744",
":. c #4A4665",
">. c #534363",
",. c #5B417C",
"<. c #564273",
"1. c #475A74",
"2. c #5D5B69",
"3. c #6A5D6A",
"4. c #634D7A",
"5. c #695C7A",
"6. c #556775",
"7. c #6B666B",
"8. c #746379",
"9. c #7B7773",
"0. c #6B6B71",
"q. c #85091E",
"w. c #802113",
"e. c #8C0523",
"r. c #860621",
"t. c #940724",
"y. c #930925",
"u. c #9C0829",
"i. c #A20227",
"p. c #A5062D",
"a. c #A50A2A",
"s. c #AE0D2D",
"d. c #A81827",
"f. c #B9112A",
"g. c #B1172A",
"h. c #B40A31",
"j. c #852A25",
"k. c #843623",
"l. c #923722",
"z. c #842737",
"x. c #FF201D",
"c. c #CA1535",
"v. c #D21B35",
"b. c #D11139",
"n. c #CD2A2E",
"m. c #D62531",
"M. c #FB3636",
"N. c #FF3D3A",
"B. c #F53939",
"V. c #FF2D28",
"C. c #91461D",
"Z. c #A1431A",
"A. c #93641C",
"S. c #A86C1D",
"D. c #9A4122",
"F. c #9F4B24",
"G. c #83593B",
"H. c #854E28",
"J. c #A84622",
"K. c #A65A3A",
"L. c #AC4E2B",
"P. c #896823",
"I. c #966137",
"U. c #A76A24",
"Y. c #A67727",
"T. c #B07034",
"R. c #FF433D",
"E. c #C97827",
"W. c #D0742B",
"Q. c #825A42",
"!. c #8D664E",
"~. c #836049",
"^. c #8A6955",
"/. c #946C53",
"(. c #9F795B",
"). c #90674F",
"_. c #AD7D41",
"`. c #867C74",
"'. c #877973",
"]. c #8C7061",
"[. c #A07E63",
"{. c #FF4C43",
"}. c #FF716D",
"|. c #AF8629",
" X c #BA872B",
".X c #D38B32",
"XX c #EE942F",
"oX c #FFA728",
"OX c #F2A131",
"+X c #FFC32C",
"@X c #BD8644",
"#X c #88897A",
"$X c #9A987C",
"%X c #948E7A",
"&X c #AE9879",
"*X c #ACAC7E",
"=X c #CF9A47",
"-X c #EB9756",
";X c #EBAC58",
":X c #F5B45A",
">X c #C39673",
",X c #FCCA67",
"<X c #F4D669",
"1X c #FFEC73",
"2X c #5A3C81",
"3X c #59378B",
"4X c #5A3C9F",
"5X c #664A8A",
"6X c #694D8C",
"7X c #624683",
"8X c #6E5193",
"9X c #715295",
"0X c #715099",
"qX c #6D4E95",
"wX c #556887",
"eX c #7D5DA4",
"rX c #A4A281",
"tX c #FF8D8C",
"yX c #FFB0AC",
"uX c #FFF6F4",
"iX c None",
/* pixels */
"iXiXiXiXiXiXiXiXiXiXiXiXiXiXiXiXiXiXiXiXiXiXiXiXiXiXiXiXiXiXiXiXiXiXiXiXiXiXiXiXiXiXiXiXiXiXiXiXiXiXiXiXiXiXiXiXiXiXiXiXiXiXiXiX",
"iXiXiXiXiXiXiXiXiXiXiXiXiXiXiXiXiXiXiXiXiXiXiXiXiXiXiXiXiXiXiXiXiXiXiXiXiXiXiXiXiXiXiXiXiXiXiXiXiXiXiXiXiXiXiXiXiXiXiXiXiXiXiXiX",
"iXiXiXiXiXiXiXiXiXiXiXiXiXiXiXiXiXiXiXiXiXiXiXiXiXiXiXiXiXiXiXiXiXiXiXiXiXiXiXiXiXiXiXiXiXiXiXiXiXiXiXiXiXiXiXiXiXiXiXiXiXiXiXiX",
"iXiXiXiXiXiXiXiXiXiXiXiXiXiXiXiXiXiXiXiXiXiXiXiXiXiXiXiXiXiXiXiXiXiXiXiXiXiXiXiXiXiXiXiXiXiXiXiXiXiXiXiXiXiXiXiXiXiXiXiXiXiXiXiX",
"iXiXiXiXiXiXiXiXiXiXiXiXiXiXiXiXiXiXiXiXiXiXiXiXiXiXiXiXiXiXiXiXiXiXiXiXiXiXiXiXiXiXiXiXiXiXiXiXiXiXiXiXiXiXiXiXiXiXiXiXiXiXiXiX",
"iXiXiXiXiXiXiXiXiXiXiXiXiXiXiXiXiXiXiXiXiXiXiXiXiXiXiXiXiXiXiXiXiXiXiXiXiXiXiXiXiXiXiXiXiXiXiXiXiXiXiXiXiXiXiXiXiXiXiXiXiXiXiXiX",
"iXiXiXiXiXiXiXiXiXiXiXiXiXiXiXiXiXiXiXiXiXiXiXiXiXiXiXiXiXiXiXiXiXiXiXiXiXiXiXiXiXiXiXiXiXiXiXiXiXiXiXiXiXiXiXiXiXiXiXiXiXiXiXiX",
"iXiXiXiXiXiXiXiXiXiXiXiXiXiXiXiXiXiXiXiXiXiXiXiXiXiXiXiXiXiXiXiXiXiXiXiXiXiXiXiXiXiXiXiXiXiXiXiXiXiXiXiXiXiXiXiXiXiXiXiXiXiXiXiX",
"iXiXiXiX* % @ @ # % * iXiXiX* % # # @ $ * iXiXiXiXiXiXiXiXiXiXiXiXiXiXiXiXiXiXiXiXiXiXiXiXiXiXiXiXiXiXiXiXiXiXiXiXiXiXiXiXiXiXiX",
"iXiXiXiXg z b n x z f iXiXiXf z x b b c f iXiXiXiXiXiXiXiXiXiXiXiXiXiXiXiXiXiXiXiXiXiXiXiXiXiXiXiXiXiXiXiXiXiXiXiXiXiXiXiXiXiXiX",
"iXiXiX- c A.oXoXXX XP.g % # K |.XXOXoXU.D $ $ iXiXiXiXiXiXiXiXiXiXiXiXiXiXiXiXiXiXiXiXiXiXiXiXiXiXiXiXiXiXiXiXiXiXiXiXiXiXiXiXiX",
"iXiXf x  X=XJ.D.D.k.b k j : n k.l.D.Z..X=XD f iXiXiXiXiXiXiXiXiXiXiXiXiXiXiXiXiXiXiXiXiXiXiXiXiXiXiXiXiXiXiXiXiXiXiXiXiXiXiXiXiX",
"iX% x A.:X<X8 5 6 8 w z A A 9 w 6 5 + -X1XY.S % iXiXiXiXiXiXiXiXiXiXiXiXiXiXiXiXiXiXiXiXiXiXiXiXiXiXiXiXiXiXiXiXiXiXiXiXiXiXiXiX",
"iX. H.1XK.a a.p.p.e.i t 0 t u t.u.p.p.M k.,X@X. iXiXiXiXiXiXiXiXiXiXiXiXiXiXiXiXiXiXiXiXiXiXiXiXiXiXiXiXiXiXiXiXiXiXiXiXiXiXiXiX",
"iX. H <Xj.4 c.v.v.s.t.y e w u t.c.c.v.y 7 ;X_.O iXiXiXiXiXiXiXiXiXiXiXiXiXiXiXiXiXiXiXiXiXiXiXiXiXiXiXiXiXiXiXiXiXiXiXiXiXiXiXiX",
"iX* ; : p i.M.N.R.v.p.t.q.t 7 i x.V.{.f.i l ; g iXiXiXiXiXiXiXiXiXiXiXiXiXiXiXiXiXiXiXiXiXiXiXiXiXiXiXiXiXiXiXiXiXiXiXiXiXiXiXiX",
"iX; ; l p i.M.N.R.v.p.t.q.w 7 M tX}.V.f.y l j = iXiXiXiXiXiXiXiXiXiXiXiXiXiXiXiXiXiXiXiXiXiXiXiXiXiXiXiXiXiXiXiXiXiXiXiXiXiXiXiX",
"iX* ; Z p u.M.N.N.v.p.t.u t 4 M uXyXV.f.i l j = iXiXiXiXiXiXiXiXiXiXiXiXiXiXiXiXiXiXiXiXiXiXiXiXiXiXiXiXiXiXiXiXiXiXiXiXiXiXiXiX",
"iX% c P.a y B.N.N.v.p.e.i 9 w r z.z.q.y r P.G % iXiXiXiXiXiXiXiXiXiXiXiXiXiXiXiXiXiXiXiXiXiXiXiXiXiXiXiXiXiXiXiXiXiXiXiXiXiXiXiX",
"iX% x Y.a e B.N.N.c.u.u.r.e r e 4 4 9 7 p Y.F % iXiXiXiXiXiXiXiXiXiXiXiXiXiXiXiXiXiXiXiXiXiXiXiXiXiXiXiXiXiXiXiXiXiXiXiXiXiXiXiX",
"iX$ b |.a 6 N.R.M.g.u c.s.q.r 9 e e e 7 8 Y.K % iXiXiXiXiXiXiXiXiXiXiXiXiXiXiXiXiXiXiXiXiXiXiXiXiXiXiXiXiXiXiXiXiXiXiXiXiXiXiXiX",
"iXiXf D H.J.d.n.{.g.y p.a.a.e.y e w w l.F.S z iXiXiXiXiXiXiXiXiXiXiXiXiXiXiXiXiXiXiXiXiXiXiXiXiXiXiXiXiXiXiXiXiXiXiXiXiXiXiXiXiX",
"iXiXiXX T.oXO r.{.g.e u u.b.a.q.r 7 6 W.OX% # iXiXiXiXiXiXiXiXiXiXiXiXiXiXiXiXiXiXiXiXiXiXiXiXiXiXiXiXiXiXiXiXiXiXiXiXiXiXiXiXiX",
"iXiXiXiXd C W.J.8 m.B.e.q.t.t.e.5 j..XJ g iXiXiXiXiXiXiXiXiXiXiXiXiXiXiXiXiXiXiXiXiXiXiXiXiXiXiXiXiXiXiXiXiXiXiXiXiXiXiXiXiXiXiX",
"iXiXiXiX@ % .XU.q n.R.y.e.e.e.q.s C..Xc X iXiXiXiXiXiXiXiXiXiXiXiXiXiXiXiXiXiXiXiXiXiXiXiXiXiXiXiXiXiXiXiXiXiXiXiXiXiXiXiXiXiXiX",
"iXiXiXiXiXiXo C.+Xs + f.b.b.w 5 oXE.. iXiXiXiXiXiXiXiXiXiXiXiXiXiXiXiXiXiXiXiXiXiXiXiXiXiXiXiXiXiXiXiXiXiXiXiXiXiXiXiXiXiXiXiXiX",
"iXiXiXiXiXiX# x U.U.K.y.e.e.L.T.U.F # iXiXiXiXiXiXiXiXiXiXiXiXiXiXiXiXiXiXiXiXiXiXiXiXiXiXiXiXiXiXiXiXiXiXiXiXiXiXiXiXiXiXiXiXiX",
"iXiXiXiXiXiXiXiX  ;X1X6 5 + -X1X- . iXiXiXiXiXiXiXiXiXiXiXiXiXiXiXiXiXiXiXiXiXiXiXiXiXiXiXiXiXiXiXiXiXiXiXiXiXiXiXiXiXiXiXiXiXiX",
"iXiXiXiXiXiXiXiXiXk H -X;X;XI.k iXiXiXiXiXiXiXiXiXiXiXiXiXiXiXiXiXiXiXiXiXiXiXiXiXiXiXiXiXiXiXiXiXiXiXiXiXiXiXiXiXiXiXiXiXiXiXiX",
"iXiXiXiXiXiXiXiXiX. % ;X,X,XG   iXiXiXiXiXiXiXiXiXiXiXiXiXiXiXiXiXiXiXiXiXiXiXiXiXiXiXiXiXiXiXiXiXiXiXiXiXiXiXiXiXiXiXiXiXiXiXiX",
"iXiXiXiXiXiXiXiXiXiXiX* * * iXiXiXiXiXiXiXiXiXiXiXiXiXiXiXiXiXiXiXiXiXiXiXiXiXiXiXiXiXiXiXiXiXiXiXiXiXiXiXiXiXiXiXiXiXiXiXiXiXiX",
"iXiXiXiXiXiXiXiXiXiXiX& % & iXiXiXiXiXiXiXiXiXiXiXiXiXiXiXiXiXiXiXiXiXiXiXiXiXiXiXiXiXiXiXiXiXiXiXiXiXiXiXiXiXiXiXiXiXiXiXiXiXiX",
"iXiXiXiXiXiXiXiXiXiXiXiXiXiXiXiXiXiXiXiXiXiXiXiXiXiXiXiXiXiXiXiXiXiXiXiXiXiXiXiXiXiXiXiXiXiXiXiXiXiXiXiXiXiXiXiXiXiXiXiXiXiXiXiX",
"iXiXiXiXiXiXiXiXiXiXiXiXiXiXiXiXiXiXiXiXiXiXiXiXiXiXiXiXiXiXiXiXiXiXiXiXiXiXiXiXiXiXiXiXiXiXiXiXiXiXiXiXiXiXiXiXiXiXiXiXiXiXiXiX",
"iXiXiXiXiXiXiXiXiXiXiXiXiX9XqX9X9X8X2X@.iXiXiXiXiXiXiXiXiXiXiXiXiXiXiXiXiXiXiXiXiXiXiXiXiXiXiXiXiXiXiXiXiXiXiXiXiXiXiXiXiXiXiXiX",
"iXiXiXiXiXiXiXiXiXiXiXiXiX@.,.,.,.@.| X.iXiXiXiXiXiXiXiXiXiXiXiXiXiXiXiXiXiXiXiXiXiXiXiXiXiXiXiXiXiXiXiXiXiXiXiXiXiXiXiXiXiXiXiX",
"iXiXiXiXiXiXiXiXiXiXiXeX7XU Y T Q ! T ~ #.iXiXiXiXiXiXiXiXiXiXiXiXiXiXiXiXiXiXiXiXiXiXiXiXiXiXiXiXiXiXiXiXiXiXiXiXiXiXiXiXiXiXiX",
"iXiXiXiXiXiXiXiXiXiX] O.| T Y 2 U 2 1 E 7XiXiXiXiXiXiXiXiXiXiXiXiXiXiXiXiXiXiXiXiXiXiXiXiXiXiXiXiXiXiXiXiXiXiXiXiXiXiXiXiXiXiXiX",
"iXiXiXiXiXiXiXiXiX` ^ U Y ` 2 , < < o 2 9XiXiXiXiXiXiXiXiXiXiXiXiXiXiXiXiXiXiXiXiXiXiXiXiXiXiXiXiXiXiXiXiXiXiXiXiXiXiXiXiXiXiXiX",
"iXiXiXiXiXiXiXiXiX7X4.! U 1 < > < 1 O.,.@.iXiXiXiXiXiXiXiXiXiXiXiXiXiXiXiXiXiXiXiXiXiXiXiXiXiXiXiXiXiXiXiXiXiXiXiXiXiXiXiXiXiXiX",
"iXiXiXiXiXiXiXiXiX9X6X` Y < 1 2 , 1 9X0Xo.iXiXiXiXiXiXiXiXiXiXiXiXiXiXiXiXiXiXiXiXiXiXiXiXiXiXiXiXiXiXiXiXiXiXiXiXiXiXiXiXiXiXiX",
"iXiXiXiXiXiXiXiXiX .#.5X6X5X5XqX2 , o.@.+.iXiXiXiXiXiXiXiXiXiXiXiXiXiXiXiXiXiXiXiXiXiXiXiXiXiXiXiXiXiXiXiXiXiXiXiXiXiXiXiXiXiXiX",
"iXiXiXiXiXiXiXiXiX4.4.5X5X5X6XqXW 1 o.+.+.iXiXiXiXiXiXiXiXiXiXiXiXiXiXiXiXiXiXiXiXiXiXiXiXiXiXiXiXiXiXiXiXiXiXiXiXiXiXiXiXiXiXiX",
"iXiXiXiXiXiXiXiXiX*X$X .( .. . .{ [ o.+.+.iXiXiXiXiXiXiXiXiXiXiXiXiXiXiXiXiXiXiXiXiXiXiXiXiXiXiXiXiXiXiXiXiXiXiXiXiXiXiXiXiXiXiX",
"iXiXiXiXiXiXiXiXiX3.3.8.wX0.5.5.[ ^ +.+.| iXiXiXiXiXiXiXiXiXiXiXiXiXiXiXiXiXiXiXiXiXiXiXiXiXiXiXiXiXiXiXiXiXiXiXiXiXiXiXiXiXiXiX",
"iXiXiXiXiXiXiXiXiXR T $X*XrX%X#X&.! @.#.^ iXiXiXiXiXiXiXiXiXiXiXiXiXiXiXiXiXiXiXiXiXiXiXiXiXiXiXiXiXiXiXiXiXiXiXiXiXiXiXiXiXiXiX",
"iXiXiXiXiXiXiXiXiX%X'.>.>.>.&.} X.o.| ] L iXiXiXiXiXiXiXiXiXiXiXiXiXiXiXiXiXiXiXiXiXiXiXiXiXiXiXiXiXiXiXiXiXiXiXiXiXiXiXiXiXiXiX",
"iXiXiXiXiXiXiXiXiXrX%X` T ` ^ ! o.2X^ _ K iXiXiXiXiXiXiXiXiXiXiXiXiXiXiXiXiXiXiXiXiXiXiXiXiXiXiXiXiXiXiXiXiXiXiXiXiXiXiXiXiXiXiX",
"iXiXiXiXiXiXiXiX~ / [ %X$XrX#X9.4. .) ` P iXiXiXiXiXiXiXiXiXiXiXiXiXiXiXiXiXiXiXiXiXiXiXiXiXiXiXiXiXiXiXiXiXiXiXiXiXiXiXiXiXiXiX",
"iXiXiXiXiXiXiX[ ` ^ { 9.'.'.9.0.<.X.} -.H iXiXiXiXiXiXiXiXiXiXiXiXiXiXiXiXiXiXiXiXiXiXiXiXiXiXiXiXiXiXiXiXiXiXiXiXiXiXiXiXiXiXiX",
"iXiXiXiXiXiX6.*.V +.3X) / Q / ~ ~ ] %X(.P iXiXiXiXiXiXiXiXiXiXiXiXiXiXiXiXiXiXiXiXiXiXiXiXiXiXiXiXiXiXiXiXiXiXiXiXiXiXiXiXiXiXiX",
"iXiXiXiXiX].9.3.%.:.} B _ o.{ ` ` _ G.G.C iXiXiXiXiXiXiXiXiXiXiXiXiXiXiXiXiXiXiXiXiXiXiXiXiXiXiXiXiXiXiXiXiXiXiXiXiXiXiXiXiXiXiX",
"iXiXiXiX/.(.>X'.1.%.V m C 4XX./ ) { P G d iXiXiXiXiXiXiXiXiXiXiXiXiXiXiXiXiXiXiXiXiXiXiXiXiXiXiXiXiXiXiXiXiXiXiXiXiXiXiXiXiXiXiX",
"iXiXiXiX!.^.).].#X2.=.*.&.B _ -.-.L N x iXiXiXiXiXiXiXiXiXiXiXiXiXiXiXiXiXiXiXiXiXiXiXiXiXiXiXiXiXiXiXiXiXiXiXiXiXiXiXiXiXiXiXiX",
"iXiXiXiXQ.Q.P /.&X7.1.wX*.v S H.K H h d iXiXiXiXiXiXiXiXiXiXiXiXiXiXiXiXiXiXiXiXiXiXiXiXiXiXiXiXiXiXiXiXiXiXiXiXiXiXiXiXiXiXiXiX",
"iXiXiXiXh G ).).!.!.^./.;.l C G x z iXiXiXiXiXiXiXiXiXiXiXiXiXiXiXiXiXiXiXiXiXiXiXiXiXiXiXiXiXiXiXiXiXiXiXiXiXiXiXiXiXiXiXiXiXiX",
"iXiXiXiXv x Q.I P G.G.G.P z N N z d iXiXiXiXiXiXiXiXiXiXiXiXiXiXiXiXiXiXiXiXiXiXiXiXiXiXiXiXiXiXiXiXiXiXiXiXiXiXiXiXiXiXiXiXiXiX",
"iXiXiXiXiXiXh h h h h h h h z h iXiXiXiXiXiXiXiXiXiXiXiXiXiXiXiXiXiXiXiXiXiXiXiXiXiXiXiXiXiXiXiXiXiXiXiXiXiXiXiXiXiXiXiXiXiXiXiX",
"iXiXiXiXiXiXiXiXiXiXiXiXiXiXiXiXiXiXiXiXiXiXiXiXiXiXiXiXiXiXiXiXiXiXiXiXiXiXiXiXiXiXiXiXiXiXiXiXiXiXiXiXiXiXiXiXiXiXiXiXiXiXiXiX",
"iXiXiXiXiXiXiXiXiXiXiXiXiXiXiXiXiXiXiXiXiXiXiXiXiXiXiXiXiXiXiXiXiXiXiXiXiXiXiXiXiXiXiXiXiXiXiXiXiXiXiXiXiXiXiXiXiXiXiXiXiXiXiXiX",
"iXiXiXiXiXiXiXiXiXiXiXiXiXiXiXiXiXiXiXiXiXiXiXiXiXiXiXiXiXiXiXiXiXiXiXiXiXiXiXiXiXiXiXiXiXiXiXiXiXiXiXiXiXiXiXiXiXiXiXiXiXiXiXiX",
"iXiXiXiXiXiXiXiXiXiXiXiXiXiXiXiXiXiXiXiXiXiXiXiXiXiXiXiXiXiXiXiXiXiXiXiXiXiXiXiXiXiXiXiXiXiXiXiXiXiXiXiXiXiXiXiXiXiXiXiXiXiXiXiX",
"iXiXiXiXiXiXiXiXiXiXiXiXiXiXiXiXiXiXiXiXiXiXiXiXiXiXiXiXiXiXiXiXiXiXiXiXiXiXiXiXiXiXiXiXiXiXiXiXiXiXiXiXiXiXiXiXiXiXiXiXiXiXiXiX",
"iXiXiXiXiXiXiXiXiXiXiXiXiXiXiXiXiXiXiXiXiXiXiXiXiXiXiXiXiXiXiXiXiXiXiXiXiXiXiXiXiXiXiXiXiXiXiXiXiXiXiXiXiXiXiXiXiXiXiXiXiXiXiXiX"
};
