/* XPM */
static char *result[] = {
/* columns rows colors chars-per-pixel */
"64 64 215 2 ",
"   c #010016",
".  c #0F0017",
"X  c #0D0019",
"o  c #050018",
"O  c #140217",
"+  c #14011A",
"@  c #1C041C",
"#  c #1E091D",
"$  c #160D1A",
"%  c #0A0811",
"&  c #21061D",
"*  c #2A021D",
"=  c #21091D",
"-  c #2B0B1F",
";  c #2C1C1E",
":  c #26131E",
">  c #330712",
",  c #2E231D",
"<  c #352C1F",
"1  c #2A0E21",
"2  c #330E21",
"3  c #370821",
"4  c #2C1222",
"5  c #2B1B21",
"6  c #351424",
"7  c #321B21",
"8  c #391A24",
"9  c #342423",
"0  c #392926",
"q  c #3E3828",
"w  c #4C3E1E",
"e  c #420523",
"r  c #420D23",
"t  c #510926",
"y  c #471824",
"u  c #581C28",
"i  c #6A172A",
"p  c #710E2B",
"a  c #432C24",
"s  c #452727",
"d  c #512C2C",
"f  c #5C272E",
"g  c #46342A",
"h  c #493826",
"j  c #533D27",
"k  c #58372A",
"l  c #4F3635",
"z  c #6D282C",
"x  c #75222D",
"c  c #7B242F",
"v  c #6C3434",
"b  c #42451E",
"n  c #4B541F",
"m  c #6C531A",
"M  c #47482C",
"N  c #5B4B2C",
"B  c #574328",
"V  c #4C4F31",
"C  c #4F5333",
"Z  c #545729",
"A  c #664929",
"S  c #6F5527",
"D  c #745A2D",
"F  c #71562D",
"G  c #6D5734",
"H  c #57642F",
"J  c #75622F",
"K  c #7A632E",
"L  c #7B6A34",
"P  c #796231",
"I  c #637833",
"U  c #7E743C",
"Y  c #60742D",
"T  c #543845",
"R  c #554E56",
"E  c #6B4652",
"W  c #821A1D",
"Q  c #862931",
"!  c #962533",
"~  c #823D35",
"^  c #B42A3A",
"/  c #AD3639",
"(  c #A43937",
")  c #B4393A",
"_  c #B7393A",
"`  c #C53F3D",
"'  c #8E5336",
"]  c #856B35",
"[  c #8E7A34",
"{  c #827B3D",
"}  c #80773C",
"|  c #927733",
" . c #926830",
".. c #A66939",
"X. c #B8693C",
"o. c #B17F3B",
"O. c #C46C3E",
"+. c #CB773E",
"@. c #906841",
"#. c #A87C46",
"$. c #AD6E44",
"%. c #927D67",
"&. c #936B76",
"*. c #CB5C41",
"=. c #E84A44",
"-. c #D46941",
";. c #D47B42",
":. c #728E3E",
">. c #6A8433",
",. c #7C9C46",
"<. c #7E9E48",
"1. c #789643",
"2. c #7EA147",
"3. c #8A863D",
"4. c #998738",
"5. c #9E913E",
"6. c #A78438",
"7. c #B88B3A",
"8. c #AC963A",
"9. c #AA963C",
"0. c #B39C3B",
"q. c #BD9B3D",
"w. c #B8962A",
"e. c #ADA339",
"r. c #B4A53C",
"t. c #BAA23C",
"y. c #B7AB3D",
"u. c #BCB23B",
"i. c #BAB93B",
"p. c #C2813D",
"a. c #C99C3F",
"s. c #C6AB3D",
"d. c #C3B53A",
"f. c #CCC33C",
"g. c #928C43",
"h. c #B38448",
"j. c #A39D46",
"k. c #A49A47",
"l. c #B29A42",
"z. c #81A34A",
"x. c #85AA4B",
"c. c #88AF4E",
"v. c #8AB14F",
"b. c #8CB550",
"n. c #A6A349",
"m. c #BBAC44",
"M. c #B7A84A",
"N. c #BCB24A",
"B. c #BCB94D",
"V. c #BAB546",
"C. c #C18547",
"Z. c #C79947",
"A. c #C49E50",
"S. c #C4AB41",
"D. c #CAA744",
"F. c #C4BB43",
"G. c #CABC45",
"H. c #C2BB4A",
"J. c #CAB948",
"K. c #D6B246",
"L. c #C8BD52",
"P. c #CCBF79",
"I. c #E3BA79",
"U. c #C3C443",
"Y. c #CBCD43",
"T. c #C5C54C",
"R. c #CCC44C",
"E. c #C7C84E",
"W. c #CDC94D",
"Q. c #CAC546",
"!. c #D4C54A",
"~. c #CDD547",
"^. c #C5C552",
"/. c #C9C751",
"(. c #C7C852",
"). c #C8CA53",
"_. c #CACB5A",
"`. c #CCD255",
"'. c #CAD956",
"]. c #D1D355",
"[. c #D9DC54",
"{. c #DADE59",
"}. c #D7DC58",
"|. c #D5CC57",
" X c #DBE25A",
".X c #E1E358",
"XX c #D4D769",
"oX c #DBCE77",
"OX c #DED87C",
"+X c #D2CB68",
"@X c #DAE279",
"#X c #E8F77E",
"$X c #8B7082",
"%X c #A5919C",
"&X c #AA968B",
"*X c #EB8C89",
"=X c #C2B4BC",
"-X c #DCDD92",
";X c #DFDF89",
":X c #DAE283",
">X c #DEE696",
",X c #F3E19E",
"<X c #D5CABE",
"1X c #E2DAAB",
"2X c #E5E5AD",
"3X c #E6E9AE",
"4X c #E8E8B6",
"5X c #EBEAC2",
"6X c #F0F2CB",
"7X c #F6F7DC",
"8X c #F1F0D6",
"9X c #FBFAEB",
"0X c white",
"qX c #FDFFF7",
"wX c None",
/* pixels */
"wXwXwXwXwXwXwXwXwXwXwXwXwXwXwXwXwXwXwXwXwXwXwXwXwX= = = # # # # & = = = # @ = = & = & = # wXwXwXwXwXwXwXwXwXwXwXwXwXwXwXwXwXwXwX",
"wXwXwXwXwXwXwXwXwXwXwXwXwXwXwXwXwXwXwXwXwXwXwXwX= = + X + X + X O X . X O X + + + + X # = wX= wXwXwXwXwXwXwXwXwXwXwXwXwXwXwXwXwX",
"wXwXwXwXwXwXwXwXwXwXwXwXwXwXwXwXwXwXwXwXwXwX= @ + @ 3 s a a q g g g g g g g a a a s r * + @ @ = wXwXwXwXwXwXwXwXwXwXwXwXwXwXwXwX",
"wXwXwXwXwXwXwXwXwXwXwXwXwXwXwXwXwXwXwXwXwX= @ @ + * ! O.r.8.N.^.^.^.^.B.^.m.8.8.r.o.) 3 X @ = = = wXwXwXwXwXwXwXwXwXwXwXwXwXwXwX",
"wXwXwXwXwXwXwXwXwXwXwXwXwXwXwXwXwXwXwX= 1 + X A [ ] 7.s.f.f.f.Y.Y.Y.Y.Y.Y.W.E.E.).J.A.k.4.D $ O = = wXwXwXwXwXwXwXwXwXwXwXwXwXwX",
"wXwXwXwXwXwXwXwXwXwXwXwXwXwXwXwXwXwXwX= + 1 t 6.f.G.:X>X:X-X-X-X-X-X-X-X>X+XQ.).).).}. X[.m.z 3 @ & wXwXwXwXwXwXwXwXwXwXwXwXwXwX",
"wXwXwXwXwXwXwXwXwXwXwXwXwXwXwXwXwXwXwX@ X y _ p.i.+X9X0X0X0X0X0X0X0X0X0X0X2XE.(.).).).).'.L.*.i X # wXwXwXwXwXwXwXwXwXwXwXwXwXwX",
"wXwXwXwXwXwXwXwXwXwXwXwXwXwXwXwXwXwX1 = o 9 7.w.oXqXqX0X0X0X0X0X0X0X0X0X0X0X6X_.Q.).).).)./.D.k   # = wXwXwXwXwXwXwXwXwXwXwXwXwX",
"wXwXwXwXwXwXwXwXwXwXwXwXwXwXwXwXwXwX= # e ~ r.u.+X5X4X2X2X2X2X2X2X2X2X2X2X4X2X_.T.).).).).).V.' t = @ & wXwXwXwXwXwXwXwXwXwXwXwX",
"wXwXwXwXwXwXwXwXwXwXwXwXwXwXwXwXwXwX# + c -.0.T._.f.U.U.U.U.U.U.U.U.U.U.U.U.T.).).).(.).).).i.;.( 1 + = wXwXwXwXwXwXwXwXwXwXwXwX",
"wXwXwXwXwXwXwXwXwXwXwXwXwXwXwXwXwXwX@ + D s.0.H.`.^.E.).).).).).).).(.E.).)./.).).).).).).).).J.| - @ @ wXwXwXwXwXwXwXwXwXwXwXwX",
"wXwXwXwXwXwXwXwXwXwXwXwXwXwXwXwXwXwX@ + D G.H./.(.(./.).).).^.).).(.).(.).(.).(.).).^.).).).).R.[ - + = wXwXwXwXwXwXwXwXwXwXwXwX",
"wXwXwXwXwXwXwXwXwXwXwXwXwXwXwXwXwXwX@ + D G.).).).).(.).).).).).(.).).(.).).).).).).).).(.).).|.4.= @ # wXwXwXwXwXwXwXwXwXwXwXwX",
"wXwXwXwXwXwXwXwXwXwXwXwXwXwXwXwXwXwX& + D G.).).(.).).).).).).).).).).).(./.(.).(./.(.).).(.(.{.j.= + # wXwXwXwXwXwXwXwXwXwXwXwX",
"wXwXwXwXwXwXwXwXwXwXwXwXwXwXwXwXwXwX@ + U ].).).`.)._.`.).).(._.(.(.).(.).).).).).).).).(.).(.{.n.= + = wXwXwXwXwXwXwXwXwXwXwXwX",
"wXwXwXwXwXwXwXwXwXwXwXwXwXwXwXwXwXwX& + }  X`.V.u.u.i.V.^.(.(.(.).).).).).(.).(.).(.).(.).(.).{.j.1 + = wXwXwXwXwXwXwXwXwXwXwXwX",
"wXwXwXwXwXwXwXwXwXwXwXwXwXwXwXwXwXwX@ + U [./.N.M.M.M.l.0.L.`.(.).).).).(.).).(./.).).).^.).).{.j.1 + # wXwXwXwXwXwXwXwXwXwXwXwX",
"wXwXwXwXwXwXwXwXwXwXwXwXwXwXwXwXwXwX@ + U [.s.1X9X8XqX&XF B.].).).(.).(.).(.).).(.).).).).).).{.n.1 + # wXwXwXwXwXwXwXwXwXwXwXwX",
"wXwXwXwXwXwXwXwXwXwXwXwXwXwXwXwXwXwX@ + g.H.] <X0X0X0X%Xk N.].).(.).).).(.).).(.).).).^.).).).].5.= + = wXwXwXwXwXwXwXwXwXwXwXwX",
"wXwXwXwXwXwXwXwXwXwXwXwXwXwXwXwXwXwX@ + { N.d =X0X0X0X%Xk N.].).).).(.).).(.(.(.).(.).).).).`.G.| 1 + = wXwXwXwXwXwXwXwXwXwXwXwX",
"wXwXwXwXwXwXwXwXwXwXwXwXwXwXwXwXwXwX@ X g.V.d =X0X0X0X%Xk B.}.).(.(.).).(.).).(.).).).(.).).).!.| = @ @ wXwXwXwXwXwXwXwXwXwXwXwX",
"wXwXwXwXwXwXwXwXwXwXwXwXwXwXwXwXwXwX@ + U `.k.%.$X&.$X%.j.^.).)._.(.).(.(.(.(._.).(.(.).).).H.F.4.: + = wXwXwXwXwXwXwXwXwXwXwXwX",
"wXwXwXwXwXwXwXwXwXwXwXwXwXwXwXwXwXwX@ + U .X}.[ A A k 9..X`.).)._.].|.].].].`.).).).)._./.H.y.a. .- + = wXwXwXwXwXwXwXwXwXwXwXwX",
"wXwXwXwXwXwXwXwXwXwXwXwXwXwXwXwXwXwX@ + U {.(._.).).).).)./.(.)./.^.^.(.^.(.(.).).).).).B.t.t.O.! 1 + = wXwXwXwXwXwXwXwXwXwXwXwX",
"wXwXwXwXwXwXwXwXwXwXwXwXwXwXwXwXwXwX& + U {.).).`.).`.].L.#.$.@.G s 7 < 8 h @.h.D.Q.m.m.V.t.-.Q 3 = @ 1 wXwXwXwXwXwXwXwXwXwXwXwX",
"wXwXwXwXwXwXwXwXwXwXwXwXwXwXwXwXwXwX@ + U {.).).).).).^.m.h.h.#.@.N b B w z v v A [ s.s.a.X.Q 3 o # @ wXwXwXwXwXwXwXwXwXwXwXwXwX",
"wXwXwXwXwXwXwXwXwXwXwXwXwXwXwXwXwXwX@ + U [.).(./.).).H.m.E.`.`.`.XX@XXXQ.C.' @   a 9.9.X.! * X # = wXwXwXwXwXwXwXwXwXwXwXwXwXwX",
"wXwXwXwXwXwXwXwXwXwXwXwXwXwXwXwXwXwX@ + D R.).).(.).).^.E.).).E.(.6X0X9X_.d.| $ X = 9 9 7 2 @ @ = wXwXwXwXwXwXwXwXwXwXwXwXwXwXwX",
"wXwXwXwXwXwXwXwXwXwXwXwXwXwXwXwXwXwX@ + F J.)._.).).).)._.).).^.(.>X4X3X8X:Xr.K 8 + + + wXwXwXwXwXwXwXwXwXwXwXwXwXwXwXwXwXwXwXwX",
"wXwXwXwXwXwXwXwXwXwXwXwXwXwXwXwXwXwX@ + D G.T.(.(.).).).(.).(.).(.Q.i.(.7X3XQ.!.N X = wXwXwXwXwXwXwXwXwXwXwXwXwXwXwXwXwXwXwXwXwX",
"wXwXwXwXwXwXwXwXwXwXwXwXwXwXwXwXwXwX@ + P G.t.H.).).(.(.).).).).(.).).(._._.).].N X = wXwXwXwXwXwXwXwXwXwXwXwXwXwXwXwXwXwXwXwXwX",
"wXwXwXwXwXwXwXwXwXwXwXwXwXwXwXwXwXwX1 0 0 D s.W.`.).).).).(.).(.).).).).T.W.`.H.B X = wXwXwXwXwXwXwXwXwXwXwXwXwXwXwXwXwXwXwXwXwX",
"wXwXwXwXwXwXwXwXwXwXwXwXwXwXwXwXwXwX4 ~ 6 $ L N.].).).).(.).).).(.).).).).^.H.y.j + # wXwXwXwXwXwXwXwXwXwXwXwXwXwXwXwXwXwXwXwXwX",
"wXwXwXwXwXwXwXwXwXwXwXwXwXwXwXwXwXwX2 _ c O + K J.).).).).).(.(.(.).).).).F.0.s.j . & wXwXwXwXwXwXwXwXwXwXwXwXwXwXwXwXwXwXwXwXwX",
"wXwXwXwXwXwXwXwXwXwXwXwXwXwXwXwXwXwX2 / ` x + + P Q.S.H.`.)._.(.).).`.).V.u.q.*.f . = wXwXwXwXwXwXwXwXwXwXwXwXwXwXwXwXwXwXwXwXwX",
"wXwXwXwXwXwXwXwXwXwXwXwXwXwXwXwXwXwX6 / =.` c & : D 0.G.).R.`.'.}.W.W.L.p.O.X.Q 3 @ wXwXwXwXwXwXwXwXwXwXwXwXwXwXwXwXwXwXwXwXwXwX",
"wXwXwXwXwXwXwXwXwXwXwXwXwXwXwXwXwXwX2 ! / / _ y o # ] 8.4.6.9.V.n.9.4.o.( ^ Q @ + = wXwXwXwXwXwXwXwXwXwXwXwXwXwXwXwXwXwXwXwXwXwX",
"wXwXwXwXwXwXwXwXwXwXwXwXwXwXwXwXwXwX= 4 2 2 2 - @ = ; 7 7 7 5 1 9 7 ; 7 6 2 - & wXwXwXwXwXwXwXwXwXwXwXwXwXwXwXwXwXwXwXwXwXwXwXwX",
"wXwXwXwXwXwXwXwXwXwXwXwXwXwXwXwXwXwXwXwXwXwXwXwXwXwXwXwXwXX V G + wXwXwXwXwXwXwXwXwXwXwXwXwXwXwXwXwXwXwXwXwXwXwXwXwXwXwXwXwXwXwX",
"wXwXwXwXwXwXwXwXwXwXwXwXwXwXwXwXwXwXwXwXwXwXwXwXwXwXwXwXwX+ n.^.= wXwXwXwXwXwXwXwXwXwXwXwXwXwXwXwXwXwXwXwXwXwXwXwXwXwXwXwXwXwXwX",
"wXwXwXwXwXwXwXwXwXwXwXwXwXwXwXwXwXwXwXwXwXwXwXwXwXwXwXwXwX+ g.M.= + & = & wXwXwXwXwXwXwXwXwXwXwXwXwXwXwXwXwXwXwXwXwXwXwXwXwXwXwX",
"wXwXwXwXwXwXwXwXwXwXwXwXwXwXwXwXwXwXwXwXwXwXwXwXwXwXwXwXwX@ g h @ + O O @ @ wXwXwXwXwXwXwXwXwXwXwXwXwXwXwXwXwXwXwXwXwXwXwXwXwXwX",
"wXwXwXwXwXwXwXwXwXwXwXwXwXwXwXwXwXwXwXwXwXwXwXwXwXwXwXwXwX= + O , q M g < = @ wXwXwXwXwXwXwXwXwXwXwXwXwXwXwXwXwXwXwXwXwXwXwXwXwX",
"wXwXwXwXwXwXwXwXwXwXwXwXwXwXwXwXwXwXwXwXwXwXwXwXwXwXwXwXwX= @ ; Z 1.c.<.Y < @ - wXwXwXwXwXwXwXwXwXwXwXwXwXwXwXwXwXwXwXwXwXwXwXwX",
"wXwXwXwXwXwXwXwXwXwXwXwXwXwXwXwXwXwXwXwXwXwXwXwXwXwXwXwXwX= + 0 1.2.2.2.2.M + & wXwXwXwXwXwXwXwXwXwXwXwXwXwXwXwXwXwXwXwXwXwXwXwX",
"wXwXwXwXwXwXwXwXwXwXwXwXwXwXwXwXwXwXwXwXwXwXwXwXwXwXwXwXwX= + 9 I ,.<.<.c.C O @ wXwXwXwXwXwXwXwXwXwXwXwXwXwXwXwXwXwXwXwXwXwXwXwX",
"wXwXwXwXwXwXwXwXwXwXwXwXwXwXwXwXwXwXwXwXwXwXwXwXwXwXwXwXwX= @ ; H :.2.2.x.V + & wXwXwXwXwXwXwXwXwXwXwXwXwXwXwXwXwXwXwXwXwXwXwXwX",
"wXwXwXwXwXwXwXwXwXwXwXwXwXwXwXwXwXwXwXwXwXwXwXwXwXwXwXwXwX= + 0 1.2.2.2.x.V + = wXwXwXwXwXwXwXwXwXwXwXwXwXwXwXwXwXwXwXwXwXwXwXwX",
"wXwXwXwXwXwXwXwXwXwXwXwXwXwXwXwXwXwXwXwXwXwXwXwXwXwXwXwXwX= + 9 I z.z.,.x.V O & wXwXwXwXwXwXwXwXwXwXwXwXwXwXwXwXwXwXwXwXwXwXwXwX",
"wXwXwXwXwXwXwXwXwXwXwXwXwXwXwXwXwXwXwXwXwXwXwXwXwXwXwXwXwX@ @ ; M I 1.z.x.V O & wXwXwXwXwXwXwXwXwXwXwXwXwXwXwXwXwXwXwXwXwXwXwXwX",
"wXwXwXwXwXwXwXwXwXwXwXwXwXwXwXwXwXwXwXwXwXwXwXwXwXwXwXwXwX= @ ; n n Y z.x.V O & wXwXwXwXwXwXwXwXwXwXwXwXwXwXwXwXwXwXwXwXwXwXwXwX",
"wXwXwXwXwXwXwXwXwXwXwXwXwXwXwXwXwXwXwXwXwXwXwXwXwXwXwXwXwX& & = , b >.v.b.C O & wXwXwXwXwXwXwXwXwXwXwXwXwXwXwXwXwXwXwXwXwXwXwXwX",
"wXwXwXwXwXwXwXwXwXwXwXwXwXwXwXwXwXwXwXwXwXwXwXwXwXwXwXwXwX= O O @ , M H :.M O & wXwXwXwXwXwXwXwXwXwXwXwXwXwXwXwXwXwXwXwXwXwXwXwX",
"wXwXwXwXwXwXwXwXwXwXwXwXwXwXwXwXwXwXwXwXwXwXwXwXwXwXwXwXwX@ 1 - - @ + = M < @ # wXwXwXwXwXwXwXwXwXwXwXwXwXwXwXwXwXwXwXwXwXwXwXwX",
"wXwXwXwXwXwXwXwXwXwXwXwXwXwXwXwXwXwXwXwXwXwXwXwXwXwXwXwX& O E &.k 6 + + $ # = @ wXwXwXwXwXwXwXwXwXwXwXwXwXwXwXwXwXwXwXwXwXwXwXwX",
"wXwXwXwXwXwXwXwXwXwXwXwXwXwXwXwXwXwXwXwXwXwXwXwXwX= wX= # @ l T 6 X 9 D x e @ = = wXwXwXwXwXwXwXwXwXwXwXwXwXwXwXwXwXwXwXwXwXwXwX",
"wXwXwXwXwXwXwXwXwXwXwXwXwXwXwXwXwXwXwXwXwXwXwXwXwX@ @ @ @ @ * - 0 ; J J.+.x + @ @ # wXwXwXwXwXwXwXwXwXwXwXwXwXwXwXwXwXwXwXwXwXwX",
"wXwXwXwXwXwXwXwXwXwXwXwXwXwXwXwXwXwXwX= = = @ & # @ O O + X p *.B.r.8.t.s.A X & 1 # wXwXwXwXwXwXwXwXwXwXwXwXwXwXwXwXwXwXwXwXwXwX",
"wXwXwXwXwXwXwXwXwXwXwXwXwXwX# X X + @ + X X X % > W ] 3.3.3.7.I.7XOXu.t.u...i - # # wXwXwXwXwXwXwXwXwXwXwXwXwXwXwXwXwXwXwXwXwXwX",
"wXwXwXwXwXwXwXwXwXwXwXwXwX+ 7 j d 2 : M k s h R &.*X,X#X[. X~.@X7X:Xi.t.y.;.^ - + = wXwXwXwXwXwXwXwXwXwXwXwXwXwXwXwXwXwXwXwXwXwX",
"wXwXwXwXwXwXwXwXwXwXwXwX= X j t.C.f 7 B.A...t.5X0X0X0X2XU.E./.E.E.).H.t.y.;.! = + = wXwXwXwXwXwXwXwXwXwXwXwXwXwXwXwXwXwXwXwXwXwX",
"wXwXwXwXwXwXwXwXwXwXwXwX= + d C.K.F 4 m.K.D.d.+XoXoXoXL.F.J.|. X[.R.F.S.-.Q 1 # @ = wXwXwXwXwXwXwXwXwXwXwXwXwXwXwXwXwXwXwXwXwXwX",
"wXwXwXwXwXwXwXwXwXwXwXwXwX@ 6 v K h : A ] K D S m m m F D F L } U J D D c e X @ = wXwXwXwXwXwXwXwXwXwXwXwXwXwXwXwXwXwXwXwXwXwXwX",
"wXwXwXwXwXwXwXwXwXwXwXwXwX= = = = # # = = # = = = @ - & # = # & = & = = = # = = wXwXwXwXwXwXwXwXwXwXwXwXwXwXwXwXwXwXwXwXwXwXwXwX"
};
