/* XPM */
static char *result[] = {
/* columns rows colors chars-per-pixel */
"64 64 194 2 ",
"   c #010016",
".  c #0E0016",
"X  c #0D0019",
"o  c #130014",
"O  c #14011A",
"+  c #1C041C",
"@  c #1E091C",
"#  c #170A1C",
"$  c #1F111B",
"%  c #21051C",
"&  c #20081D",
"*  c #2C081E",
"=  c #2A181D",
"-  c #30151E",
";  c #2E221C",
":  c #342B1D",
">  c #31261D",
",  c #3B391F",
"<  c #380A21",
"1  c #2B1223",
"2  c #2F1A22",
"3  c #321524",
"4  c #321C22",
"5  c #3B1023",
"6  c #3E2029",
"7  c #362B26",
"8  c #393421",
"9  c #393128",
"0  c #3E3828",
"q  c #470924",
"w  c #441A28",
"e  c #5D1628",
"r  c #621F2A",
"t  c #442224",
"y  c #432C24",
"u  c #462729",
"i  c #4A3326",
"p  c #47352A",
"a  c #4D3C2B",
"s  c #45382A",
"d  c #53372A",
"f  c #4B2D3B",
"g  c #573530",
"h  c #5E3A35",
"j  c #52323F",
"k  c #5B393A",
"l  c #5C2D2E",
"z  c #693835",
"x  c #672E2D",
"c  c #41431F",
"v  c #424421",
"b  c #474C22",
"n  c #5A482E",
"m  c #4F5B21",
"M  c #515D25",
"N  c #56582E",
"B  c #5E5031",
"V  c #6F572A",
"C  c #735B2D",
"Z  c #6F5F33",
"A  c #6D4C2F",
"S  c #536126",
"D  c #5A6B2B",
"F  c #586926",
"G  c #5C6937",
"H  c #5F7035",
"J  c #776330",
"K  c #7A6430",
"L  c #64753C",
"P  c #657838",
"I  c #7B6A2F",
"U  c #573642",
"Y  c #5D3B47",
"T  c #734D4B",
"R  c #7B544C",
"E  c #8D1F32",
"W  c #872E31",
"Q  c #943334",
"!  c #972C32",
"~  c #AD2938",
"^  c #AC323A",
"/  c #935B36",
"(  c #875B37",
")  c #A24F37",
"_  c #836D32",
"`  c #886F30",
"'  c #8A6730",
"]  c #8A7332",
"[  c #867738",
"{  c #917B35",
"}  c #95613C",
"|  c #BE763D",
" . c #A3713E",
".. c #C8743F",
"X. c #C7663F",
"o. c #BB7F46",
"O. c #885F64",
"+. c #8D6364",
"@. c #8D6569",
"#. c #976B68",
"$. c #9C706E",
"%. c #9B6F71",
"&. c #9D7173",
"*. c #A07475",
"=. c #A37679",
"-. c #A67878",
";. c #A97C7B",
":. c #CD5341",
">. c #D77642",
",. c #6E8A37",
"<. c #769342",
"1. c #7C9C47",
"2. c #7E9E48",
"3. c #6C8142",
"4. c #7FA049",
"5. c #9C8436",
"6. c #92853C",
"7. c #928B3C",
"8. c #8B8034",
"9. c #A18C39",
"0. c #A08A37",
"q. c #A49139",
"w. c #AE9A3A",
"e. c #B39D3B",
"r. c #B6A23D",
"t. c #BAA43D",
"y. c #B5AC3D",
"u. c #B5B13D",
"i. c #C3893D",
"p. c #C2AD3E",
"a. c #C4B33F",
"s. c #879D47",
"d. c #9B9345",
"f. c #999B46",
"g. c #988742",
"h. c #A39E47",
"j. c #B99F41",
"k. c #B38A44",
"l. c #80A34A",
"z. c #86AB4C",
"x. c #84AA49",
"c. c #8AB24F",
"v. c #AEAC4B",
"b. c #AAA044",
"n. c #B9A540",
"m. c #BCAB42",
"M. c #B0AE4B",
"N. c #BDB146",
"B. c #BFB548",
"V. c #B8B54C",
"C. c #C88D47",
"Z. c #DB894C",
"A. c #C99B46",
"S. c #C4AE41",
"D. c #C5B241",
"F. c #CABC46",
"G. c #C3BD4C",
"H. c #CDBB4A",
"J. c #CCB641",
"K. c #D3BE44",
"L. c #CBB651",
"P. c #D5BB52",
"I. c #C3C443",
"U. c #CBCE43",
"Y. c #C5C34E",
"T. c #CDC34B",
"R. c #C6C94C",
"E. c #CAC94E",
"W. c #D7C849",
"Q. c #C5C451",
"!. c #C8C953",
"~. c #C8C752",
"^. c #CAD256",
"/. c #CBDA56",
"(. c #D4D253",
"). c #D6DA58",
"_. c #DADE59",
"`. c #D6D757",
"'. c #E1DC53",
"]. c #DAE25B",
"[. c #CFE257",
"{. c #E0E054",
"}. c #CCCD60",
"|. c #D6D77E",
" X c #D3D374",
".X c #D7D780",
"XX c #DBDC8F",
"oX c #DBDC90",
"OX c #E5E5AE",
"+X c #E8E9B8",
"@X c #F4F4DD",
"#X c #FAFAEE",
"$X c white",
"%X c None",
/* pixels */
"%X%X%X%X%X%X%X%X%X%X%X%X%X%X%X%X%X%X%X& & & @ & & @ @ & @ @ & & & & @ @ & & & & @ @ & @ & %X%X%X%X%X%X%X%X%X%X%X%X%X%X%X%X%X%X%X",
"%X%X%X%X%X%X%X%X%X%X%X%X%X%X%X%X& & & @ O X X O . O . . X . . X X o . X X . . O O O X O @ & & & %X%X%X%X%X%X%X%X%X%X%X%X%X%X%X%X",
"%X%X%X%X%X%X%X%X%X%X%X%X%X%X%X& & + O % q t 8 y p p p p p p p p p p p p p s p p y 8 t < % O + & & %X%X%X%X%X%X%X%X%X%X%X%X%X%X%X",
"%X%X%X%X%X%X%X%X%X%X%X%X%X%X& & & + . < ^ | r.w.V.~.Q.Q.Q.Q.Q.Q.Q.Q.Q.Q.Q.Q.!.B.w.r...^ < X @ @ & & %X%X%X%X%X%X%X%X%X%X%X%X%X%X",
"%X%X%X%X%X%X%X%X%X%X%X%X%X& & O # V 6.h.A.H.E.E.U.U.U.U.U.U.U.U.U.U.U.U.U.U.U.U.Y.E.P.A.d.6.C # O & & %X%X%X%X%X%X%X%X%X%X%X%X%X",
"%X%X%X%X%X%X%X%X%X%X%X%X%X& + * r j._._./.^.R.R.|.oXoXoXoXXXoXoXXXoXoXoXoXoXoX.XR.E.^./.]._.n.r * + & %X%X%X%X%X%X%X%X%X%X%X%X%X",
"%X%X%X%X%X%X%X%X%X%X%X%X%X& X e :.L./.!.!.!.!.}.@X$X$X$X$X$X$X$X$X$X$X$X$X$X$X@X}.R.!.!.~.^.L.:.e X @ %X%X%X%X%X%X%X%X%X%X%X%X%X",
"%X%X%X%X%X%X%X%X%X%X%X%X& &   i A.Q.^.!.!.I..X#X$X$X$X$X$X$X$X$X$X$X$X$X$X$X$X$X#X|.I.!.!.!.!.P.n   @ & %X%X%X%X%X%X%X%X%X%X%X%X",
"%X%X%X%X%X%X%X%X%X%X%X& @ @ q / R.!.!.!.!.I. X+XOXOXOXOXOXOXOXOXOXOXOXOXOXOXOXOX+X XI.!.!.~.^.[./ q @ @ & %X%X%X%X%X%X%X%X%X%X%X",
"%X%X%X%X%X%X%X%X%X%X%X& + @ ! Z./.!.!.!.!.!.Q.I.I.I.I.I.I.I.I.I.I.I.I.I.I.I.I.I.I.!.!.!.!.!.!.!.Z.! @ O & %X%X%X%X%X%X%X%X%X%X%X",
"%X%X%X%X%X%X%X%X%X%X%X& + & ' H.!.!.!.!.!.!.!.!.!.!.!.~.!.!.~.~.!.R.Q.!.R.!.!.!.!.!.!.!.!.!.!.!._.g.@ + & %X%X%X%X%X%X%X%X%X%X%X",
"%X%X%X%X%X%X%X%X%X%X%X& + & 6.(.!.!.!.!.!.!.!.!.!.!.!.!.!.!.!.!.!.!.!.!.~.!.!.!.!.!.!.!.!.!.!.~.].f.@ + & %X%X%X%X%X%X%X%X%X%X%X",
"%X%X%X%X%X%X%X%X%X%X%X& O & d.].!.Q.!.!.!.!.!.!.!.!.!.Q.!.!.!.!.!.!.!.!.!.!.!.!.!.!.!.!.!.!.!.!._.d.& + & %X%X%X%X%X%X%X%X%X%X%X",
"%X%X%X%X%X%X%X%X%X%X%X@ O & d._.!.!.!.!.!.!.!.!.!.!.!.!.!.!.!.!.!.!.~.!.!.!.!.!.!.!.!.!.!.!.!.!._.d.+ + & %X%X%X%X%X%X%X%X%X%X%X",
"%X%X%X%X%X%X%X%X%X%X%X& + & d.].!.!.!.!.!.!.!.!.!.!.!.!.!.!.!.!.!.!.!.!.!.!.!.!.!.!.!.!.!.!.!.!.].d.% + & %X%X%X%X%X%X%X%X%X%X%X",
"%X%X%X%X%X%X%X%X%X%X%X@ + @ 6.(.!.!.!.!.!.!.!.!.!.!.!.!.!.!.!.!.!.!.!.!.!.!.~.!.!.!.!.!.!.~.!.!.(.g.% O & %X%X%X%X%X%X%X%X%X%X%X",
"%X%X%X%X%X%X%X%X%X%X%X& + @ ` H.!.!.!.!.!.!.!.!.!.!.!.!.!.!.!.!.!.!.!.!.!.!.!.~.!.!.!.!.!.!.^.!.F.` @ O & %X%X%X%X%X%X%X%X%X%X%X",
"%X%X%X%X%X%X%X%X%X%X%X& + @ ` T.!.!.!.!.!.!.!.!.!.!.!.!.!.!.!.!.!.!.!.!.!.!.!.!.!.!.!.!.!.!.!.!.T.` % + & %X%X%X%X%X%X%X%X%X%X%X",
"%X%X%X%X%X%X%X%X%X%X%X& O + ` T.^.!.!.!.!.!.!.!.!.!.!.!.~.!.!.!.!.~.!.!.!.!.!.!.!.!.!.!.!.!.!.!.T._ % O & %X%X%X%X%X%X%X%X%X%X%X",
"%X%X%X%X%X%X%X%X%X%X%X& + @ ] H.~.!.!.!.!.!.!.!.!.!.!.!.!.!.Q.!.!.!.~.!.!.!.!.!.!.!.!.!.!.!.!.Q.H.[ % + & %X%X%X%X%X%X%X%X%X%X%X",
"%X%X%X%X%X%X%X%X%X%X%X& + & ] p.n.Y.!.!.!.!.!.!.!.!.!.!.!.!.!.~.!.!.!.!.!.!.!.!.!.!.!.!.!.!.~.n.D.] % O & %X%X%X%X%X%X%X%X%X%X%X",
"%X%X%X%X%X%X%X%X%X%X%X& o % { a.r.~.^.!.!.!.!.!.!.!.~.!.!.!.!.!.!.!.!.!.~.!.!.!.!.!.!.!.!.^.~.r.p.{ % O & %X%X%X%X%X%X%X%X%X%X%X",
"%X%X%X%X%X%X%X%X%X%X%X& + % / p.r.B.~.!.!.!.!.!.!.!.!.!.!.!.!.!.!.!.!.~.!.!.!.!.!.~.!.!.!.~.D.j.J.{ @ + & %X%X%X%X%X%X%X%X%X%X%X",
"%X%X%X%X%X%X%X%X%X%X%X% # & E X.y.r.B.!.!.!.!.!.!.!.!.!.!.!.!.!.!.!.!.!.!.!.!.!.!.!.!.!.!.V.j.n.D.` @ + & %X%X%X%X%X%X%X%X%X%X%X",
"%X%X%X%X%X%X%X%X%X%X%X%X& & % z m.G.~.!.!.!.!.!.!.!.!.!.!.!.!.!.!.!.!.!.!.!.!.!.!.!.!.!.!.G.G.!.Z $ @ @ %X%X%X%X%X%X%X%X%X%X%X%X",
"%X%X%X%X%X%X%X%X%X%X%X& + O 7 K t.!.^.!.!.!.!.!.!.!.!.!.~.!.!.!.!.!.!.!.!.!.!.!.!.!.!.!.!.!.^.).[ - O + & %X%X%X%X%X%X%X%X%X%X%X",
"%X%X%X%X%X%X%X%X%X%X& @ & 3 6.J.m.Y.!.!.!.!.!.!.!.!.!.!.!.!.!.!.!.!.!.!.!.!.!.!.!.!.!.!.!.!.!.!.(.5.2 + @ & %X%X%X%X%X%X%X%X%X%X",
"%X%X%X%X%X%X%X%X%X%X@ X 4 9.e.D.~.!.!.!.!.!.!.!.!.!.!.!.!.!.!.!.!.!.!.!.!.!.!.!.!.!.!.!.!.!.!.!.!.G.9.4 X & %X%X%X%X%X%X%X%X%X%X",
"%X%X%X%X%X%X%X%X%X@ + p { S.n.N.!.!.!.!.!.!.!.!.~.!.~.~.~.~.!.!.!.!.!.!.!.!.!.!.!.!.!.!.!.!.!.!.!.!.p.{ p + @ %X%X%X%X%X%X%X%X%X",
"%X%X%X%X%X%X%X%X%X@ O _ K.r.e.N.!.!.!.!.!.!.!.!.!.!.!.~.!.!.~.!.!.!.!.!.!.!.!.!.!.!.!.!.!.!.!.!.!.Y.e.K._ O + %X%X%X%X%X%X%X%X%X",
"%X%X%X%X%X%X%X%X%X+ O K D.e.e.N.!.!.!.!.!.!.!.!.!.!.!.!.!.!.!.!.!.!.!.!.!.!.!.!.!.!.!.!.!.!.!.!.!.G.r.D.K O % %X%X%X%X%X%X%X%X%X",
"%X%X%X%X%X%X%X%X%X@ O K D.r.e.D.^.^.!.!.!.!.!.!.!.!.!.!.!.!.!.!.!.!.!.!.Q.!.!.!.!.!.!.!.!.!.!.!.^.T.r.S.K O + %X%X%X%X%X%X%X%X%X",
"%X%X%X%X%X%X%X%X%X@ O K D.r.r.t.Y.!.!.!.!.!.!.!.!.!.!.!.!.!.!.!.!.!.!.!.!.!.!.!.!.!.~.!.!.!.!.!.~.B.r.D.K + + %X%X%X%X%X%X%X%X%X",
"%X%X%X%X%X%X%X%X%X@ O K S.r.r.e.r.Y.!.!.!.!.!.!.!.!.!.!.!.!.!.!.!.!.!.!.!.!.!.!.!.!.!.!.!.!.!.!.m.e.r.D.J O + %X%X%X%X%X%X%X%X%X",
"%X%X%X%X%X%X%X%X%X%XO W >.y.u.y.e.n.G.^.!.!.!.!.!.!.!.!.!.!.!.!.!.!.!.!.!.!.!.!.!.!.!.~.!.^.!.m.r.y.y.>.W # %X%X%X%X%X%X%X%X%X%X",
"%X%X%X%X%X%X%X%X%X%X%Xq Q ....C.S.p.F.T.Y.`.).).`./.).).).).).`.`.).).).).).).^.).).).`.E.T.H.D.e.>.| Q q %X%X%X%X%X%X%X%X%X%X%X",
"%X%X%X%X%X%X%X%X%X%X%X%X5 ^ ~ ) q.5.9.5.5.b.M.v.v.M.M.M.M.M.M.v.v.M.M.M.M.M.M.M.M.M.M.v.9.5.0.q.) ~ ^ 5 %X%X%X%X%X%X%X%X%X%X%X%X",
"%X%X%X%X%X%X%X%X%X%X%X%X%Xz w * 4 3 = 4 4 4 6 ; 4 4 2 6 4 4 6 = 1 2 6 4 4 4 6 4 4 4 7 4 4 4 - 4 * q z %X%X%X%X%X%X%X%X%X%X%X%X%X",
"%X%X%X%X%X%X%X%X%X%X%X%X%X%X%X%X%X%X%X%X%X%X%X%X%X%X%X%X%X%XO B B X %X%X%X%X%X%X%X%X%X%X%X%X%X%X%X%X%X%X%X%X%X%X%X%X%X%X%X%X%X%X",
"%X%X%X%X%X%X%X%X%X%X%X%X%X%X%X%X%X%X%X%X%X%X%X%X%X%X%X%X%X%XO M.M.O %X%X%X%X%X%X%X%X%X%X%X%X%X%X%X%X%X%X%X%X%X%X%X%X%X%X%X%X%X%X",
"%X%X%X%X%X%X%X%X%X%X%X%X%X%X%X%X%X%X%X%X%X%X%X%X& & & @ + + O h.b.O O @ @ & % & %X%X%X%X%X%X%X%X%X%X%X%X%X%X%X%X%X%X%X%X%X%X%X%X",
"%X%X%X%X%X%X%X%X%X%X%X%X%X%X%X%X%X%X%X%X%X%X%X& & + % : N L H s.s.G L N : # O & & %X%X%X%X%X%X%X%X%X%X%X%X%X%X%X%X%X%X%X%X%X%X%X",
"%X%X%X%X%X%X%X%X%X%X%X%X%X%X%X%X%X%X%X%X%X%X%X& % & , D 1.c.z.1.1.z.c.1.D 7 & + & %X%X%X%X%X%X%X%X%X%X%X%X%X%X%X%X%X%X%X%X%X%X%X",
"%X%X%X%X%X%X%X%X%X%X%X%X%X%X%X%X%X%X%X%X%X%X%X& + ; F 1.4.1.1.1.1.1.4.4.1.D 7 + & %X%X%X%X%X%X%X%X%X%X%X%X%X%X%X%X%X%X%X%X%X%X%X",
"%X%X%X%X%X%X%X%X%X%X%X%X%X%X%X%X%X%X%X%X%X%X& & O = D <.l.1.1.1.1.1.1.4.1.4.0 O & & %X%X%X%X%X%X%X%X%X%X%X%X%X%X%X%X%X%X%X%X%X%X",
"%X%X%X%X%X%X%X%X%X%X%X%X%X%X%X%X%X%X%X%X%X& & & ; , F <.l.1.1.1.1.1.1.1.4.z.S = & & & %X%X%X%X%X%X%X%X%X%X%X%X%X%X%X%X%X%X%X%X%X",
"%X%X%X%X%X%X%X%X%X%X%X%X%X%X%X%X%X%X%X%X%X& & & b M M <.l.1.1.1.1.1.1.1.1.4.,.b & + & %X%X%X%X%X%X%X%X%X%X%X%X%X%X%X%X%X%X%X%X%X",
"%X%X%X%X%X%X%X%X%X%X%X%X%X%X%X%X%X%X%X%X%X& & & v M M 1.l.1.1.1.4.1.1.1.1.1.x.H & + & %X%X%X%X%X%X%X%X%X%X%X%X%X%X%X%X%X%X%X%X%X",
"%X%X%X%X%X%X%X%X%X%X%X%X%X%X%X%X%X%X%X%X%X& + & v m M <.l.1.1.1.1.1.1.1.1.1.c.P & + & %X%X%X%X%X%X%X%X%X%X%X%X%X%X%X%X%X%X%X%X%X",
"%X%X%X%X%X%X%X%X%X%X%X%X%X%X%X%X%X%X%X%X%X& % & v M M 1.z.4.l.l.l.4.4.4.l.s.c.L & + & %X%X%X%X%X%X%X%X%X%X%X%X%X%X%X%X%X%X%X%X%X",
"%X%X%X%X%X%X%X%X%X%X%X%X%X%X%X%X%X%X%X%X%X& @ & v m M <.4.1.1.1.1.1.1.1.1.1.z.P & + & %X%X%X%X%X%X%X%X%X%X%X%X%X%X%X%X%X%X%X%X%X",
"%X%X%X%X%X%X%X%X%X%X%X%X%X%X%X%X%X%X%X%X%X& + & s F M 0 7 9 7 9 9 9 9 7 0 D x.P & + & %X%X%X%X%X%X%X%X%X%X%X%X%X%X%X%X%X%X%X%X%X",
"%X%X%X%X%X%X%X%X%X%X%X%X%X%X%X%X%X%X%X%X%X& + & c S : O X . . . . . X . o > P P & + & %X%X%X%X%X%X%X%X%X%X%X%X%X%X%X%X%X%X%X%X%X",
"%X%X%X%X%X%X%X%X%X%X%X%X%X%X%X%X%X%X%X%X%X& % & b , + & 1 1 1 1 1 1 1 1 & O : c & & & %X%X%X%X%X%X%X%X%X%X%X%X%X%X%X%X%X%X%X%X%X",
"%X%X%X%X%X%X%X%X%X%X%X%X%X%X%X%X%X%X%X%X%X& % @ = @ @ t T @.O.O.O.O.@.T 6 @ @ & & & & %X%X%X%X%X%X%X%X%X%X%X%X%X%X%X%X%X%X%X%X%X",
"%X%X%X%X%X%X%X%X%X%X%X%X%X%X%X%X%X%X%X%X%X& & & O % u T $.;.=.-.-.=.;.$.R u & + & & & %X%X%X%X%X%X%X%X%X%X%X%X%X%X%X%X%X%X%X%X%X",
"%X%X%X%X%X%X%X%X%X%X%X%X%X%X%X%X%X%X%X%X%X& @ & O w R %.-.%.*.%.&.&.%.=.%.R w O & & @ %X%X%X%X%X%X%X%X%X%X%X%X%X%X%X%X%X%X%X%X%X",
"%X%X%X%X%X%X%X%X%X%X%X%X%X& & %X%X& & & %X%X& & o j *.&.%.%.%.%.&.&.%.%.&.*.j o & & %X%X& & & %X%X@ & %X%X%X%X%X%X%X%X%X%X%X%X%X",
"%X%X%X%X%X%X%X%X%X%X%X%X+ . X O & O X o @ & @ & o U ;.&.*.@.T T T T @.*.=.;.U o & & & & O . O @ O X X + %X%X%X%X%X%X%X%X%X%X%X%X",
"%X%X%X%X%X%X%X%X%X%X%X+ = a A 7 O y n a @ O + @ o U ;.&.-.@.h d d h +.-.=.k.U o % @ O O y n a O 4 n n 2 + %X%X%X%X%X%X%X%X%X%X%X",
"%X%X%X%X%X%X%X%X%X%X& X i e.'.[ & 5.'.v.- # & @ o j -.&.*.+.h g g k +.&.&.&.U   & & @ 3 6.'.v.2 C W.E.a X & %X%X%X%X%X%X%X%X%X%X",
"%X%X%X%X%X%X%X%X%X%X& X u k.Z.k.q.S.W.F.q.w.I + O & f &.#.h 3 1 1 3 k $.&.U & O % z  .q.p.W.J.9.r.W.W.d X & %X%X%X%X%X%X%X%X%X%X",
"%X%X%X%X%X%X%X%X%X%X%X+ 1 z z A ` J C C _ { A + @ o @ Y k - + O O @ 1 U Y + O + % l ( _ K C C _ K J C 4 # %X%X%X%X%X%X%X%X%X%X%X",
"%X%X%X%X%X%X%X%X%X%X%X& % & & % & & & & & & @ % @ & & % & & & & & & & & & & & & & & & & & & & & & & & & & %X%X%X%X%X%X%X%X%X%X%X"
};
