/* XPM */
static char *result[] = {
/* columns rows colors chars-per-pixel */
"64 64 221 2 ",
"   c #020014",
".  c #0E0017",
"X  c #070018",
"o  c #0E0019",
"O  c #13021A",
"+  c #1B041C",
"@  c #1E081D",
"#  c #150317",
"$  c #150910",
"%  c #22051D",
"&  c #21081D",
"*  c #2B0A1F",
"=  c #2E051F",
"-  c #32051D",
";  c #24111E",
":  c #29151D",
">  c #381F1E",
",  c #39371E",
"<  c #290C20",
"1  c #320E20",
"2  c #390421",
"3  c #2D1424",
"4  c #2D1922",
"5  c #251120",
"6  c #321B21",
"7  c #361624",
"8  c #342223",
"9  c #3E2E25",
"0  c #393224",
"q  c #2D2724",
"w  c #650716",
"e  c #4C341F",
"r  c #410923",
"t  c #570B27",
"y  c #491524",
"u  c #471626",
"i  c #531527",
"p  c #64142A",
"a  c #6D1C2C",
"s  c #6A122B",
"d  c #442B24",
"f  c #46262A",
"g  c #552A2B",
"h  c #46342A",
"j  c #49372A",
"k  c #4B3B2B",
"l  c #493623",
"z  c #503A27",
"x  c #53372A",
"c  c #422334",
"v  c #513930",
"b  c #692F33",
"n  c #6B3435",
"m  c #762E2F",
"M  c #40411E",
"N  c #6D521D",
"B  c #454A21",
"V  c #434229",
"C  c #55452E",
"Z  c #554328",
"A  c #54562E",
"S  c #584A35",
"D  c #5E5231",
"F  c #654726",
"G  c #67542A",
"H  c #71592C",
"J  c #745A2B",
"K  c #695535",
"L  c #7D5634",
"P  c #5B6538",
"I  c #5E6D35",
"U  c #59672D",
"Y  c #776827",
"T  c #796733",
"R  c #66793B",
"E  c #7D763A",
"W  c #6D7032",
"Q  c #5B3B45",
"!  c #623F44",
"~  c #735046",
"^  c #735E73",
"/  c #84371A",
"(  c #8C2631",
")  c #863832",
"_  c #9A3434",
"`  c #8D2831",
"'  c #AA2637",
"]  c #A73737",
"[  c #B73A3A",
"{  c #885938",
"}  c #8B5636",
"|  c #AC4239",
" . c #AF4B39",
".. c #846B31",
"X. c #946438",
"o. c #8A7A38",
"O. c #967E37",
"+. c #C5483D",
"@. c #C8543E",
"#. c #C7783E",
"$. c #8A7843",
"%. c #A96944",
"&. c #A97746",
"*. c #B37544",
"=. c #856979",
"-. c #8D737A",
";. c #93686C",
":. c #DA4941",
">. c #E14843",
",. c #D67C45",
"<. c #6B8435",
"1. c #6E8937",
"2. c #76953F",
"3. c #6E8442",
"4. c #7C9C47",
"5. c #7D9E48",
"6. c #7FA149",
"7. c #8D853D",
"8. c #988537",
"9. c #9B8832",
"0. c #A7873A",
"q. c #BC8A3D",
"w. c #AE933B",
"e. c #AF9B39",
"r. c #B29C3B",
"t. c #B8983D",
"y. c #AC842A",
"u. c #B4A33C",
"i. c #BAA43D",
"p. c #B8AC3D",
"a. c #BCB23D",
"s. c #BAB735",
"d. c #C28F3F",
"f. c #C9A53C",
"g. c #C7BD3A",
"h. c #C4C23C",
"j. c #8B8641",
"k. c #988D47",
"l. c #968A50",
"z. c #AB9942",
"x. c #B59549",
"c. c #AF8347",
"v. c #85AA4B",
"b. c #88AF4E",
"n. c #81A449",
"m. c #8BB34E",
"M. c #8DB651",
"N. c #AEAB49",
"B. c #B7A541",
"V. c #BAA54C",
"C. c #B1AF4B",
"Z. c #BAAA42",
"A. c #BEB347",
"S. c #BBB44A",
"D. c #B8B849",
"F. c #BFBE50",
"G. c #AB957C",
"H. c #CD8743",
"J. c #D58746",
"K. c #C89C4A",
"L. c #E49545",
"P. c #CAA845",
"I. c #D9AA4D",
"U. c #C3BB4A",
"Y. c #C7B945",
"T. c #CCB64F",
"R. c #C3C443",
"E. c #CBCE43",
"W. c #C5C64C",
"Q. c #CCC54D",
"!. c #C7CA4D",
"~. c #CDC94C",
"^. c #D3CD4C",
"/. c #D9D448",
"(. c #C5C552",
"). c #C7C853",
"_. c #C8CA53",
"`. c #CACA57",
"'. c #D4C956",
"]. c #CBD355",
"[. c #CAD559",
"{. c #D1D356",
"}. c #D5DA56",
"|. c #D5DB59",
" X c #DBDD58",
".X c #D8D250",
"XX c #C9D248",
"oX c #E4D750",
"OX c #DDE35A",
"+X c #E1E65B",
"@X c #E5EE5D",
"#X c #CECE65",
"$X c #D4D57A",
"%X c #D7CE71",
"&X c #DCE570",
"*X c #E3E568",
"=X c #8B7081",
"-X c #CD7383",
";X c #EFAD8E",
":X c #D8D985",
">X c #DBDD91",
",X c #D5CE84",
"<X c #E1DF82",
"1X c #DEE093",
"2X c #DEEC98",
"3X c #E8EB8D",
"4X c #E5E5AD",
"5X c #E7E9AE",
"6X c #E8E8B4",
"7X c #EFF4B1",
"8X c #DAD1C1",
"9X c #E1DADD",
"0X c #EBECC2",
"qX c #EEF1C9",
"wX c #F5F6DE",
"eX c #F8EAC3",
"rX c #F4F2E3",
"tX c #FEFDEC",
"yX c white",
"uX c #FCFDF6",
"iX c None",
/* pixels */
"iXiXiXiXiXiXiXiXiXiXiXiXiXiXiXiXiXiXiX& & & @ @ & @ @ & @ @ & & & & @ & & @ & iXiXiXiXiXiXiXiXiXiXiXiXiXiXiXiXiXiXiXiXiXiXiXiXiX",
"iXiXiXiXiXiXiXiXiXiXiXiXiXiXiXiXiX& & & + O O o O O o . . . o . . O o O o + & & & iXiXiXiXiXiXiXiXiXiXiXiXiXiXiXiXiXiXiXiXiXiXiX",
"iXiXiXiXiXiXiXiXiXiXiXiXiXiXiXiX& + + + = y d d d d h h h h h h h d d d y = O + @ & iXiXiXiXiXiXiXiXiXiXiXiXiXiXiXiXiXiXiXiXiXiX",
"iXiXiXiXiXiXiXiXiXiXiXiXiXiXiX& & @ O O a @.w.u.e.r.U.(.(.W.(.(.(.B.e.w.+.p o + @ & & iXiXiXiXiXiXiXiXiXiXiXiXiXiXiXiXiXiXiXiXiX",
"iXiXiXiXiXiXiXiXiXiXiXiXiXiX& @ o d o.7.x.I.Q.W.Q.(.E.E.E.E.E.E.E.h.g.g.f.w.j.o.> X & & iXiXiXiXiXiXiXiXiXiXiXiXiXiXiXiXiXiXiXiX",
"iXiXiXiXiXiXiXiXiXiXiXiXiX& @ & - } /. X|.].`.].!.Q.:X>X>X>X>X>X>X1X1X>X2X&X/.^.} - @ @ & iXiXiXiXiXiXiXiXiXiXiXiXiXiXiXiXiXiXiX",
"iXiXiXiXiXiXiXiXiXiXiXiXiX& + & _ J.[._._._.).).!.#XrXyXyXyXyXyXyXyXyXyXyX4XW.].,.` @ + & iXiXiXiXiXiXiXiXiXiXiXiXiXiXiXiXiXiXiX",
"iXiXiXiXiXiXiXiXiXiXiXiX& & O # X.Y.]._._._.).R.:XuXyXyXyXyXyXyXyXyXyXyXyXyXqX[.f.{ o O & & iXiXiXiXiXiXiXiXiXiXiXiXiXiXiXiXiXiX",
"iXiXiXiXiXiXiXiXiXiXiXiX& + 1 a y.W.)._._.)._.W.$X0X6X4X4X4X4X4X4X4X4X4X4X6X4X`.XXc.p * + @ iXiXiXiXiXiXiXiXiXiXiXiXiXiXiXiXiXiX",
"iXiXiXiXiXiXiXiXiXiXiXiX& o u :.d.D._._._._._._.W.R.R.R.R.R.R.R.R.R.R.R.R.R.W.).[.T.+.y o & iXiXiXiXiXiXiXiXiXiXiXiXiXiXiXiXiXiX",
"iXiXiXiXiXiXiXiXiXiXiXiX& o k t.i.A._._.).)._._._._._.Q._._.~._.!._.).)._.Q._._.`.W.w.d o @ iXiXiXiXiXiXiXiXiXiXiXiXiXiXiXiXiXiX",
"iXiXiXiXiXiXiXiXiXiXiXiX& O z a.i.U._._._._.)._._.)._._._.(._._._._._._._._.)._._.Q.u.d O & iXiXiXiXiXiXiXiXiXiXiXiXiXiXiXiXiXiX",
"iXiXiXiXiXiXiXiXiXiXiXiX& o z i.i.A._._._._.(._._._._._._._._._._._.(._._._._._.`.~.B.d o < iXiXiXiXiXiXiXiXiXiXiXiXiXiXiXiXiXiX",
"iXiXiXiXiXiXiXiXiXiXiXiX@ O z i.i.A._._._._._._._.)._.)._._.(._._.(._._._._._._._.}.(.j o @ iXiXiXiXiXiXiXiXiXiXiXiXiXiXiXiXiXiX",
"iXiXiXiXiXiXiXiXiXiXiXiX& o z i.i.A._._._.(._._.(._._._.(._._._._._._.`._._._.`._.{.(.j . @ iXiXiXiXiXiXiXiXiXiXiXiXiXiXiXiXiXiX",
"iXiXiXiXiXiXiXiXiXiXiXiX@ o z i.i.A.`._._._._._._._._.)._._._._._._.(.W.g.a.a.a.W.|.(.h o @ iXiXiXiXiXiXiXiXiXiXiXiXiXiXiXiXiXiX",
"iXiXiXiXiXiXiXiXiXiXiXiX& o z i.i.A._._._._._._._._._._.(._._.(.).].S.w.V.V.V.x.U.}.(.h . & iXiXiXiXiXiXiXiXiXiXiXiXiXiXiXiXiXiX",
"iXiXiXiXiXiXiXiXiXiXiXiX& o z i.i.A.`._._._._._.(._._._._._._._.).{.8.~ 8XtXrXrX%Xg.(.k . & iXiXiXiXiXiXiXiXiXiXiXiXiXiXiXiXiXiX",
"iXiXiXiXiXiXiXiXiXiXiXiX& o z i.i.U.`._._._._._._._.(._._._.(._._.}.o.Q 9XyXyXyXG.O.(.k . & iXiXiXiXiXiXiXiXiXiXiXiXiXiXiXiXiXiX",
"iXiXiXiXiXiXiXiXiXiXiXiX& o z i.i.Z.(._.)._.)._._._._._._._._._.).}.o.~ 9XyXyXyX=.F _.k . & iXiXiXiXiXiXiXiXiXiXiXiXiXiXiXiXiXiX",
"iXiXiXiXiXiXiXiXiXiXiXiX& o z i.Z.r.Z.(._._.(._.(._._._._._.(.`._.}.o.! 9XyXyXyX=.H (.v O @ iXiXiXiXiXiXiXiXiXiXiXiXiXiXiXiXiXiX",
"iXiXiXiXiXiXiXiXiXiXiXiX& o z a.i.r.i.W.]._._._._._._._._._._._._.].S.k.-.-.-.-.l.S.(.j . & iXiXiXiXiXiXiXiXiXiXiXiXiXiXiXiXiXiX",
"iXiXiXiXiXiXiXiXiXiXiXiX& o g d.f.u.i.U._.`._.`.`.{.{.{.{.{.{.`.].`. X`...F F F N.@X(.h . & iXiXiXiXiXiXiXiXiXiXiXiXiXiXiXiXiXiX",
"iXiXiXiXiXiXiXiXiXiXiXiX& o i [ q.p.r.r.U._._._.(.(.(.(.(.(.(.`.(.(._._._.`.`.(.`.{.(.j . & iXiXiXiXiXiXiXiXiXiXiXiXiXiXiXiXiXiX",
"iXiXiXiXiXiXiXiXiXiXiXiX& @ % y ] H.a.u.u.U.Y.P.&.K h 6 8 8 v { &.%.x.[.].].{._.`.{.(.j o & iXiXiXiXiXiXiXiXiXiXiXiXiXiXiXiXiXiX",
"iXiXiXiXiXiXiXiXiXiXiXiXiX& + O t | d.P.Y.r.J n b n x z Z e G $.c.*.x.A.(._._._.).{.(.h o & iXiXiXiXiXiXiXiXiXiXiXiXiXiXiXiXiXiX",
"iXiXiXiXiXiXiXiXiXiXiXiXiX& & @ X t [ 0.u...+   f *.t.'.&X&X|.].].].R.i.W._._._.).{.(.j . & iXiXiXiXiXiXiXiXiXiXiXiXiXiXiXiXiXiX",
"iXiXiXiXiXiXiXiXiXiXiXiXiXiXiX& @ * 1 6 8 4 + X e t.g.2XyXyX1XR._._.).(.(._._._.).{.(.j . & iXiXiXiXiXiXiXiXiXiXiXiXiXiXiXiXiXiX",
"iXiXiXiXiXiXiXiXiXiXiXiXiXiXiXiXiXiXiXiXO O + l O.U.5XqX5X6X$XW._._._._._._._._.).{.(.j o & iXiXiXiXiXiXiXiXiXiXiXiXiXiXiXiXiXiX",
"iXiXiXiXiXiXiXiXiXiXiXiXiXiXiXiXiXiXiXiX@ + + 8./.[.wX4Xs.h.W._._._._._._._.(._.).{._.j . & iXiXiXiXiXiXiXiXiXiXiXiXiXiXiXiXiXiX",
"iXiXiXiXiXiXiXiXiXiXiXiXiXiXiXiXiXiXiXiX@ + + 7. X_.`.`._._._._._._.(.`._._._._._.|._.h . @ iXiXiXiXiXiXiXiXiXiXiXiXiXiXiXiXiXiX",
"iXiXiXiXiXiXiXiXiXiXiXiXiXiXiXiXiXiXiXiX& + + k.OX(.W.W._._._._.(._._._._._.(._.+XS.C h 3 @ iXiXiXiXiXiXiXiXiXiXiXiXiXiXiXiXiXiX",
"iXiXiXiXiXiXiXiXiXiXiXiXiXiXiXiXiXiXiXiX& O + 7.}._._.)._._._.(._._._._.(._.`.|.S.A X b b + iXiXiXiXiXiXiXiXiXiXiXiXiXiXiXiXiXiX",
"iXiXiXiXiXiXiXiXiXiXiXiXiXiXiXiXiXiXiXiX& + + ..Y.)._.).(._._.`._._._._._._.{._.C   < ] ( O iXiXiXiXiXiXiXiXiXiXiXiXiXiXiXiXiXiX",
"iXiXiXiXiXiXiXiXiXiXiXiXiXiXiXiXiXiXiXiX& + + _ J.D.].[.`._._._._.Q._._.(.+XU.v . < _ +.m O iXiXiXiXiXiXiXiXiXiXiXiXiXiXiXiXiXiX",
"iXiXiXiXiXiXiXiXiXiXiXiXiXiXiXiXiXiXiXiXiX+ @ i _ #.H.I.~.~.{. X|.|.|.|.OXC.A # 1 ' :.:.m + iXiXiXiXiXiXiXiXiXiXiXiXiXiXiXiXiXiX",
"iXiXiXiXiXiXiXiXiXiXiXiXiXiXiXiXiXiXiXiXiXiX& X y ' '  .9.9.N.C.N.C.C.C.U.D   + ( [ ] [ a # iXiXiXiXiXiXiXiXiXiXiXiXiXiXiXiXiXiX",
"iXiXiXiXiXiXiXiXiXiXiXiXiXiXiXiXiXiXiXiXiXiXiX@ & * 1 : 6 6 6 4 5 4 8 6 8 3 + @ 3 1 1 1 < @ iXiXiXiXiXiXiXiXiXiXiXiXiXiXiXiXiXiX",
"iXiXiXiXiXiXiXiXiXiXiXiXiXiXiXiXiXiXiXiXiXiXiXiXiXiXiXiXiXiXX 6 T 8 X iXiXiXiXiXiXiXiXiXiXiXiXiXiXiXiXiXiXiXiXiXiXiXiXiXiXiXiXiX",
"iXiXiXiXiXiXiXiXiXiXiXiXiXiXiXiXiXiXiXiXiXiXiXiXiXiXiXiXiXiX. D OXD . iXiXiXiXiXiXiXiXiXiXiXiXiXiXiXiXiXiXiXiXiXiXiXiXiXiXiXiXiX",
"iXiXiXiXiXiXiXiXiXiXiXiXiXiXiXiXiXiXiXiXiXiXiXiXiXiX& & @ & . C `.C o iXiXiXiXiXiXiXiXiXiXiXiXiXiXiXiXiXiXiXiXiXiXiXiXiXiXiXiXiX",
"iXiXiXiXiXiXiXiXiXiXiXiXiXiXiXiXiXiXiXiXiXiXiXiXiX& + + O # O 3 C 6 + iXiXiXiXiXiXiXiXiXiXiXiXiXiXiXiXiXiXiXiXiXiXiXiXiXiXiXiXiX",
"iXiXiXiXiXiXiXiXiXiXiXiXiXiXiXiXiXiXiXiXiXiXiXiX& & : 0 V k 0 ; o + & iXiXiXiXiXiXiXiXiXiXiXiXiXiXiXiXiXiXiXiXiXiXiXiXiXiXiXiXiX",
"iXiXiXiXiXiXiXiXiXiXiXiXiXiXiXiXiXiXiXiXiXiXiX& % & B 1.v.v.1.M @ @ & iXiXiXiXiXiXiXiXiXiXiXiXiXiXiXiXiXiXiXiXiXiXiXiXiXiXiXiXiX",
"iXiXiXiXiXiXiXiXiXiXiXiXiXiXiXiXiXiXiXiXiXiXiX& + & R n.6.6.b.I & + & iXiXiXiXiXiXiXiXiXiXiXiXiXiXiXiXiXiXiXiXiXiXiXiXiXiXiXiXiX",
"iXiXiXiXiXiXiXiXiXiXiXiXiXiXiXiXiXiXiXiXiXiXiX& + 5 3.b.4.6.2.A & + & iXiXiXiXiXiXiXiXiXiXiXiXiXiXiXiXiXiXiXiXiXiXiXiXiXiXiXiXiX",
"iXiXiXiXiXiXiXiXiXiXiXiXiXiXiXiXiXiXiXiXiXiXiX& + & R v.4.6.R M & % & iXiXiXiXiXiXiXiXiXiXiXiXiXiXiXiXiXiXiXiXiXiXiXiXiXiXiXiXiX",
"iXiXiXiXiXiXiXiXiXiXiXiXiXiXiXiXiXiXiXiXiXiXiX& O ; 3.v.4.4.n.R & + & iXiXiXiXiXiXiXiXiXiXiXiXiXiXiXiXiXiXiXiXiXiXiXiXiXiXiXiXiX",
"iXiXiXiXiXiXiXiXiXiXiXiXiXiXiXiXiXiXiXiXiXiXiX& + 5 3.b.4.4.b.R & + & iXiXiXiXiXiXiXiXiXiXiXiXiXiXiXiXiXiXiXiXiXiXiXiXiXiXiXiXiX",
"iXiXiXiXiXiXiXiXiXiXiXiXiXiXiXiXiXiXiXiXiXiXiX& + & I 6.5.4.b.R & + & iXiXiXiXiXiXiXiXiXiXiXiXiXiXiXiXiXiXiXiXiXiXiXiXiXiXiXiXiX",
"iXiXiXiXiXiXiXiXiXiXiXiXiXiXiXiXiXiXiXiXiXiXiX& + ; M <.n.4.v.R & + & iXiXiXiXiXiXiXiXiXiXiXiXiXiXiXiXiXiXiXiXiXiXiXiXiXiXiXiXiX",
"iXiXiXiXiXiXiXiXiXiXiXiXiXiXiXiXiXiXiXiXiXiXiX& @ & , <.M.b.P 4 & % & iXiXiXiXiXiXiXiXiXiXiXiXiXiXiXiXiXiXiXiXiXiXiXiXiXiXiXiXiX",
"iXiXiXiXiXiXiXiXiXiXiXiXiXiXiXiXiXiXiXiXiXiXiX@ + & B U P P q . # + & iXiXiXiXiXiXiXiXiXiXiXiXiXiXiXiXiXiXiXiXiXiXiXiXiXiXiXiXiX",
"iXiXiXiXiXiXiXiXiXiXiXiXiXiXiXiXiXiXiXiXiXiXiX& & & B q # # & < 3 < @ iXiXiXiXiXiXiXiXiXiXiXiXiXiXiXiXiXiXiXiXiXiXiXiXiXiXiXiXiX",
"iXiXiXiXiXiXiXiXiXiXiXiXiXiXiXiXiXiXiXiXiXiXiX& & & @ O # + 7 ~ ;.c # & iXiXiXiXiXiXiXiXiXiXiXiXiXiXiXiXiXiXiXiXiXiXiXiXiXiXiXiX",
"iXiXiXiXiXiXiXiXiXiXiXiXiXiXiXiXiXiXiXiXiXiXiX@ @ % t } G # + c Q 7 # & & iXiXiXiXiXiXiXiXiXiXiXiXiXiXiXiXiXiXiXiXiXiXiXiXiXiXiX",
"iXiXiXiXiXiXiXiXiXiXiXiXiXiXiXiXiXiXiXiXiXiX@ & # & ] L.u.l q > = % O + + + + iXiXiXiXiXiXiXiXiXiXiXiXiXiXiXiXiXiXiXiXiXiXiXiXiX",
"iXiXiXiXiXiXiXiXiXiXiXiXiXiXiXiXiXiXiXiXiXiX5 @ + @ 8.f.u.e.a.K.' r X O + + + @ @ @ < @ iXiXiXiXiXiXiXiXiXiXiXiXiXiXiXiXiXiXiXiX",
"iXiXiXiXiXiXiXiXiXiXiXiXiXiXiXiXiXiXiXiXiXiX& # 7 ` w.a.u.Y.7XeXK.8.j.7.Y / w $   o O O + + O . O & iXiXiXiXiXiXiXiXiXiXiXiXiXiX",
"iXiXiXiXiXiXiXiXiXiXiXiXiXiXiXiXiXiXiXiXiXiX& o p :.t.p.u.!.6XqX|.OXOXOX&X;X-X^ S e u C 0 < u v l & @ iXiXiXiXiXiXiXiXiXiXiXiXiX",
"iXiXiXiXiXiXiXiXiXiXiXiXiXiXiXiXiXiXiXiXiXiX& o i  .H.u.B.(._.W._.Q.W.`.rXyXyXyX,Xy.%.'.E = } K.8.5 + @ iXiXiXiXiXiXiXiXiXiXiXiX",
"iXiXiXiXiXiXiXiXiXiXiXiXiXiXiXiXiXiXiXiXiXiX& @ 5 y | J.Y.Y.^.OX X~.Y.Y.%X<X3X3X*X.X'.oXT * x.I.X.< O & iXiXiXiXiXiXiXiXiXiXiXiX",
"iXiXiXiXiXiXiXiXiXiXiXiXiXiXiXiXiXiXiXiXiXiXiX& # @ p m T H T o.E T H H N Y ..Y E E 7...d & G L g < + iXiXiXiXiXiXiXiXiXiXiXiXiX",
"iXiXiXiXiXiXiXiXiXiXiXiXiXiXiXiXiXiXiXiXiXiXiX& @ & & & @ @ + & @ % & @ @ @ ; ; @ @ + & & & @ & & & iXiXiXiXiXiXiXiXiXiXiXiXiXiX"
};
