/* XPM */
static char *bf085adc2f1e4f4496696f07d68cecb5gJezogVYoCaNn6Id[] = {
/* columns rows colors chars-per-pixel */
"64 64 206 2 ",
"   c None",
".  c #070014",
"X  c #0D0016",
"o  c #0F0019",
"O  c #060018",
"+  c #130015",
"@  c #13011A",
"#  c #1C041C",
"$  c #1D091C",
"%  c #17091C",
"&  c #140A15",
"*  c #21061D",
"=  c #20081D",
"-  c #2D0C1F",
";  c #25131B",
":  c #2B141E",
">  c #33171F",
",  c #31021E",
"<  c #32241E",
"1  c #33281F",
"2  c #352D1E",
"3  c #1D0A21",
"4  c #290E21",
"5  c #320520",
"6  c #380621",
"7  c #2D1323",
"8  c #2F1A23",
"9  c #321C22",
"0  c #381825",
"q  c #342922",
"w  c #392926",
"e  c #393128",
"r  c #3A3520",
"t  c #3E2133",
"y  c #47191D",
"u  c #593B1F",
"i  c #451A25",
"p  c #551627",
"a  c #6D192C",
"s  c #73152C",
"d  c #402625",
"f  c #422B24",
"g  c #462329",
"h  c #542C2C",
"j  c #56232C",
"k  c #47352A",
"l  c #48362A",
"z  c #473A29",
"x  c #503625",
"c  c #503926",
"v  c #54372A",
"b  c #4A2A39",
"n  c #5E2F32",
"m  c #5C3935",
"M  c #583633",
"N  c #4F303D",
"B  c #782230",
"V  c #6B3534",
"C  c #743A35",
"Z  c #62352F",
"A  c #42461E",
"S  c #464A23",
"D  c #464825",
"F  c #56442D",
"G  c #58482A",
"H  c #4B5320",
"J  c #4E542C",
"K  c #505C23",
"L  c #5E512F",
"P  c #594A30",
"I  c #574B30",
"U  c #634C2A",
"Y  c #6C552D",
"T  c #725A2E",
"R  c #794536",
"E  c #664E38",
"W  c #546224",
"Q  c #5D6B38",
"!  c #5D713B",
"~  c #5F732D",
"^  c #796736",
"/  c #657A34",
"(  c #627439",
")  c #71712E",
"_  c #6A4545",
"`  c #744D48",
"'  c #79524D",
"]  c #764F59",
"[  c #9D2734",
"{  c #A42F36",
"}  c #BB343C",
"|  c #8D5F39",
" . c #955C3C",
".. c #814339",
"X. c #AA5438",
"o. c #926937",
"O. c #8F7935",
"+. c #8F7035",
"@. c #A6783B",
"#. c #C24F3C",
"$. c #C5543D",
"%. c #C87A3F",
"&. c #845C5E",
"*. c #A95F45",
"=. c #977440",
"-. c #AD6C49",
";. c #885F64",
":. c #8D6366",
">. c #966B6A",
",. c #9B6F71",
"<. c #9D7173",
"1. c #A27576",
"2. c #A67879",
"3. c #A97A7A",
"4. c #A4777A",
"5. c #CE5A42",
"6. c #6D8837",
"7. c #71823F",
"8. c #74903F",
"9. c #759442",
"0. c #7C9C47",
"q. c #7E9F48",
"w. c #728C42",
"e. c #7FA14A",
"r. c #9E8635",
"t. c #9F8539",
"y. c #A38839",
"u. c #AE953B",
"i. c #AF9B3B",
"p. c #A19339",
"a. c #B49D3C",
"s. c #BB9D3C",
"d. c #BB8B3E",
"f. c #B6A33D",
"g. c #BBA53E",
"h. c #BEA93E",
"j. c #B5AA3C",
"k. c #B6B33D",
"l. c #C3933E",
"z. c #C3AD3F",
"x. c #C4B03E",
"c. c #C2BC3D",
"v. c #8E8840",
"b. c #998844",
"n. c #AC8647",
"m. c #B98144",
"M. c #A89B42",
"N. c #B4954A",
"B. c #80A34A",
"V. c #84A94B",
"C. c #89AF4F",
"Z. c #8AB14E",
"A. c #93AA4B",
"S. c #AEAC4B",
"D. c #BBAC43",
"F. c #B0AE4B",
"G. c #B8A842",
"H. c #BEB246",
"J. c #BFB548",
"K. c #B2B14D",
"L. c #D6874B",
"P. c #C79340",
"I. c #D39550",
"U. c #C4A840",
"Y. c #D2AA4F",
"T. c #C4B041",
"R. c #C4BE4C",
"E. c #C9BA47",
"W. c #D1B847",
"Q. c #CCAC55",
"!. c #CCB753",
"~. c #C3C443",
"^. c #C5C846",
"/. c #CBCE43",
"(. c #C5C34C",
"). c #CBC44D",
"_. c #C7C84F",
"`. c #CCC84B",
"'. c #D9D34E",
"]. c #C4C351",
"[. c #C7C852",
"{. c #C8C953",
"}. c #CDC253",
"|. c #D7CD54",
" X c #CCD256",
".X c #CBD756",
"XX c #D6DA55",
"oX c #D6DB58",
"OX c #DBDD58",
"+X c #D5D557",
"@X c #D0CC4C",
"#X c #E1DC55",
"$X c #D8E359",
"%X c #CED063",
"&X c #C6C566",
"*X c #DBDC8F",
"=X c #DBDC90",
"-X c #DFDF9B",
";X c #E0E39F",
":X c #E5E5AE",
">X c #E9E9B9",
",X c #EAF1B1",
"<X c #F2EBD5",
"1X c white",
"2X c #FEFEFC",
"3X c #FCF6F2",
/* pixels */
"                                      * = $ $ = = $ * = $ $ * $ * = $ * $ = $ * $ = = = = $                                     ",
"                                  4 = = % @ @ @ @ X + X o o @ X @ X X X @ X X @ o @ @ o # = # 4                                 ",
"                                = $ # @ 5 i d f f k l l k k k k l l k k k k l l f f d i 5 @ # $ =                               ",
"                              = * 3 @ O s $.a.u.D.].].].].].].{.].].].].].].].].G.i.a.$.s o # $ = =                             ",
"                            = $ X f O.t.N.Y.)._._./././././././././././././././._.{.).Y.N.t.O.e O $ *                           ",
"                          = $ * 6 | '.OXoX X X^.%X=X=X=X=X=X=X=X=X=X=X=X=X=X=X=X%X^.{..X.XOX'.| 6 * $ $                         ",
"                          = # = [ L..X{.{.{.{.~.-X2X2X2X2X2X2X2X2X2X2X2X2X2X2X2X-X~.{.[.{. X.XL.{ 4 % *                         ",
"                        = = @ % | E. X{.[._._.>X2X2X2X2X2X2X2X2X2X2X2X2X2X2X2X2X2X>X[._.[.[.[.|.=.$ @ = =                       ",
"                        = # 5 a N.@X{.{.{._.{.;X>X:X:X:X:X:X:X:X:X:X:X:X:X:X:X:X>X;X_._.{.{.{.$XK.a , % =                       ",
"                        = o p 5.!..X{.{.{.{.{.^.~.~.~.~.~.~.~.~.~.~.~.~.~.~.~.~.~.^.{.{.{.{.{. X!.5.p o =                       ",
"                        $ o x s.].{.{.{.{.{.{.{._.{._._.[._.{.{.[.[.[.[.[.[.[.[.{._.{.{.{.{.{.{.|.}.F X =                       ",
"                        = o F (.{.{.{.{.{.{.{.{.{.{.{.{.{.{.{.{.{.{.{.{.[.{.[.{.{.{.{.{.{.{.{.}. X.XI o =                       ",
"                        = X I  X|.{.{.{.{.{.{.].{.{.{.{.].{.{.{.{.{.{.{.{.{.{.{.{.{.{.{.{.{.{.{. X|.F o =                       ",
"                        = X P {. X{.{.{.{.{.{.{.{.{.{.{.{.{.{.{.{.{.{.{.{.{.{.{.{.{.{.{.{.{.{.{. X XF X =                       ",
"                        $ o P  X X{.{.{.{.{.{.{.{.{.{.{.{.{.{.{.{.{.{.{.{.{.{.{.{.{.{.{.{.{.{.{. X XP o =                       ",
"                        = o v ).{.{.{.{.{.{.{.{.{.{.{.{.{.{.{.{.{.{.[.{.{.{.{.{.{.{.{.{.{.{.{.{.{.R.F o =                       ",
"                        = o x g.).{.{.{.{.{.{.{.{.{.{.{.{.{.{.{.{.{.{.{.{.{.{.{.{.{.{.{.{.{.{. X).g.x o =                       ",
"                        = o x h._. X{.{.{.{.{.{.{.{.{.{.{.].{.{.{.{.{.{.{.{.].{.{.].{.{.{.{.{.{.).h.c o =                       ",
"                        = o c G._. X{.{.{.{.{.{.{.{.{.{.{.{.{.{.{.{.{.{.{.{.{.{.{.{.{.{.{.{.{. X}.G.c o =                       ",
"                        = o x g.R._.{.{.{.{.{.{.{.{.{.{.{.{.{.{.].{.{.{.{.{.{.{.{.{.{.{.{.{.{.{.(.g.c o =                       ",
"                        $ X c g.G.J.{.{.{.{.{.{.].{.{.{.{.{.{.{.{.{.{.{.{.{.{.{.{.{.{.{.{.{.{.J.g.h.c @ $                       ",
"                        = X F h.f.H. X{.}.{.{.{.{.{.{.{.{.{.{.{.{.{.{.{.{.{.{.{.{.{.{.{.{.{. XJ.s.g.c o =                       ",
"                        * o h l.s.D.R.{.{.{.{.{.{.{.{.{.{.{.{.].{.{.{.{.{.{.{.{.{.{.{.{.{.{.R.D.g.z.c o =                       ",
"                        = o p } d.j.G.].{.{.{.{.{.{.{.{.{.{.{.{.{.{.{.{.{.{.{.{.].{.{.{.{.[.G.s.g.f.c + =                       ",
"                        * $ * 6 O.E.).[.{.{.{.{.{.{.{.{.{.{.{.{.{.{.{.{.{.{.{.{.{.{.{.{.{._.R.{.M.w $ * =                       ",
"                      = $ @ $ G y.E. X[.{.{.{.{.{.{.{.{.{.{.{.{.{.{.{.{.{.{.{.{.{.{.{.{.{.{. XOXF.v $ @ = =                     ",
"                    = $ $ $ U T.D.J.{.[.{.{.{.{.{.}.{.{.{.{.{.{.{.].{.{.].{.{.{.{.{.{.{.{.{.{.{.).E.U % $ $ =                   ",
"                      # o T s.G.R.{.{.{.{.{.{.{.{.{.{.{.{.{.{.{.{.{.{.{.{.{.{.{.{.{.{.{.{.{.{.{.}._.D.Y o #                     ",
"                    % 8 Y u.T.f.(.{.{.{.{.{._.{.{.{.{.{.{.{.{.{.{.{.].{.{.{.{.{.{.{.{.{.{.{.{.{.{. X).u.Y 8 %                   ",
"                  = @ f h.T.a.f.].{.{.{.{.{.{.{.{.{.{.{.{.{.{.{.{.{.{.{.{.{.{.{.{.{.{.{.{.{.{.{.{.{.G.z.z.f o *                 ",
"                  = @ d u.h.a.f.].{.{.{.{.{.{.{.{.{.{.{.{.{.{.].{.{.{.{.{.{.{.{.{.{.{.{.{.{.{.{.{.{.D.z.i.d @ =                 ",
"                  = o d a.h.f.f.]. X{.{.{.{.{.{.{.{.{.{.{.{.{.{.{.{.{.{.{.{.{.{.{.{.{.{.{.{.{.{.{.{.D.g.u.d o =                 ",
"                  = + w i.z.a.f.T.{.{.{.{.{.{.{.{.{.{.{.{.{.{.{.{.{.{.{.{.{.{.{.{.{.{.{.{.{.{. X{.R.g.g.a.d @ =                 ",
"                  = @ d u.g.f.f.M.H.{.{.{.{.{.{.{.{.{.{.{.{.{.{.{.{.{.{.{.{.{.{.{.{.{.{.{.{.{.}.R.f.f.h.u.w @ $                 ",
"                    @ i #.l.K.k.f.f.T.{. X{.{.{.{.{.{.{.{.{.{.{.{.{.{.{.{.{.{.{.{.{.{.{.{.{. XR.j.j.k.l.#.i o                   ",
"                      5 a X.%.%.U.x.T.E.).{.oXoXoX+XoXoXoX+XoXoX+XoXoX+X+XoXoXoXoXoXoXOX X).).E.l.%.%.X.a 5                     ",
"                        o B } { @.p.y.r.r.p.S.F.F.K.F.F.F.F.F.F.S.F.F.F.K.K.K.S.K.F.F.K.M.r.y.p.@.{ } B o                       ",
"                          h n 5 - 9 9 > 9 9 9 9 9 9 9 9 q 9 9 7 4 9 9 9 9 9 9 9 9 9 9 9 9 > > 9 8 - n h                         ",
"                                                            O 9 ^ 8 O                                                           ",
"                                                            X P $XI O                                                           ",
"                                                  = = $ # * @ F {.F X * $ = = =                                                 ",
"                                                = * # ; S Q ! / A.w.! Q S : @ * =                                               ",
"                                              = $ * ; D 6.V.Z.V.9.V.C.V.6.S ; = * =                                             ",
"                                              = # $ S 6.B.0.0.0.0.0.0.0.V.6.S = # =                                             ",
"                                            = = # $ A 6.e.0.0.0.0.0.0.0.0.V.( * @ = =                                           ",
"                                            * $ ; r S / e.0.0.0.0.0.0.0.0.V.w.r = * =                                           ",
"                                            * # 1 W H / e.e.0.0.0.0.0.0.0.0.9.~ 1 @ =                                           ",
"                                            $ # 1 K H / e.0.0.0.0.0.0.0.0.0.0.e.z @ =                                           ",
"                                            * # q K H / e.e.0.e.0.0.0.0.0.0.B.Z.D + =                                           ",
"                                            $ # < H H / V.e.e.e.B.B.B.B.B.B.B.8.e @ =                                           ",
"                                            = # q K H / e.0.0.0.0.0.0.0.0.B.8.W 9 # $                                           ",
"                                            = # < K W D q e w e e w e w q J ~ W q @ @ o @ @ $ =                                 ",
"                                            * # q K S ; X X X . X X . X X ; r r $ 4 j u h y # @ =                               ",
"                                            $ # q H - # - 7 7 7 7 7 7 : ; = # # # h -.Q.Q.-.g $ $ =                             ",
"                                            = * $ $ + : M &.:.:.;.;.:.;.Z > @ X j @.{.<X3X<X&XG . *                             ",
"                                            = * - 0 9 m :.1.3.2.2.2.2.1.>.b = U n.E..X;X,X,XOXy.h @ @                           ",
"                                            = + i ` E &.4.,.,.,.,.<.<.,.1.b > H.XX.X{.^.^.c.h.@.R i = $                         ",
"                          = = =     = =     $ + N <.,.,.,.,.,.<.,.1.1.>.R 7 w ].oX X+X XR.z.x.G 0 *.h @                         ",
"                        $ @ X o $ # + + # * $ + N 4.4.<.,.,.4.>.` _ :.<.b + 8 ^ n.=.P m.o.v m.Z @ h 0                           ",
"                        $ k L c $ 8 L v 8 @ @ + N 2.2.<.,.1.>.' M h ` &.7 . 7 V *.C o Z g @ C h @ @                             ",
"                    $ # # v.#XM.> L OXW.U @ - + b <.,.,.<.<.` h m m m M 4 X 0  .-.R * @ $ = *                                   ",
"                    4 # # | L.P.y.j.@Xc.g.t. .i 3 t 8 ] 3.' E h 7 4 8 7   # 4 i g 0                                             ",
"                      $ * g V V | ^ T T ^ +.R 0 @ + X t _ t g 0 @ # @       $ @ @                                               ",
"                        4 * * * $ = = $ $ # $ * $ = * $ = = = =                                                                 "
};
