/* XPM */
static char *_9f6ea6b30cc4e11d726d4180893dc86yogWTQhZKNG3JSAq[] = {
/* columns rows colors chars-per-pixel */
"64 64 217 2 ",
"   c None",
".  c #090006",
"X  c #11000F",
"o  c #020015",
"O  c #0E0017",
"+  c #0E0019",
"@  c #130015",
"#  c #13011A",
"$  c #1C051C",
"%  c #1E091D",
"&  c #24051D",
"*  c #21081D",
"=  c #2B0B1F",
"-  c #2F001F",
";  c #23121C",
":  c #2C131F",
">  c #291A1B",
",  c #31171D",
"<  c #2F231C",
"1  c #31281C",
"2  c #3E3E1E",
"3  c #330A21",
"4  c #3C0A23",
"5  c #2C1321",
"6  c #321222",
"7  c #341B23",
"8  c #391826",
"9  c #2A0F22",
"0  c #342323",
"q  c #3A2223",
"w  c #3B2826",
"e  c #3C3725",
"r  c #2E2122",
"t  c #430822",
"y  c #570924",
"u  c #491826",
"i  c #561927",
"p  c #63192A",
"a  c #79182E",
"s  c #412325",
"d  c #422C24",
"f  c #43262C",
"g  c #432C2A",
"h  c #4D2D2C",
"j  c #4D2927",
"k  c #552D28",
"l  c #453229",
"z  c #4C3A2A",
"x  c #4A3726",
"c  c #593828",
"v  c #5C3A35",
"b  c #573837",
"n  c #452731",
"m  c #68232A",
"M  c #6B3B32",
"N  c #623A33",
"B  c #713936",
"V  c #73352C",
"C  c #464A1F",
"Z  c #4A462B",
"A  c #54432D",
"S  c #5D462A",
"D  c #5C4C2A",
"F  c #594726",
"G  c #494A31",
"H  c #515228",
"J  c #64462A",
"K  c #69542D",
"L  c #674239",
"P  c #6E4F3A",
"I  c #774838",
"U  c #645633",
"Y  c #685A36",
"T  c #765E2D",
"R  c #596A29",
"E  c #57652B",
"W  c #5D6C35",
"Q  c #677A3D",
"!  c #65773C",
"~  c #7F6333",
"^  c #563542",
"/  c #4C3647",
"(  c #6C4745",
")  c #724C49",
"_  c #7D565D",
"`  c #704B4F",
"'  c #6A7E40",
"]  c #635261",
"[  c #801F2E",
"{  c #9A2B35",
"}  c #933434",
"|  c #892F35",
" . c #A63837",
".. c #B7303A",
"X. c #C13E3C",
"o. c #84543A",
"O. c #94583E",
"+. c #B94A3D",
"@. c #AE563A",
"#. c #B65839",
"$. c #8A7635",
"%. c #997536",
"&. c #8D6A34",
"*. c #C6483E",
"=. c #C6773E",
"-. c #9B5A40",
";. c #815851",
":. c #A75946",
">. c #916E42",
",. c #A56242",
"<. c #AC6644",
"1. c #AE6944",
"2. c #B36C46",
"3. c #AE7942",
"4. c #9B6F71",
"5. c #936869",
"6. c #A7797A",
"7. c #A77978",
"8. c #C24F40",
"9. c #C67847",
"0. c #D67C43",
"q. c #6C8538",
"w. c #75943C",
"e. c #6D8341",
"r. c #7C9B47",
"t. c #7D9E48",
"y. c #779641",
"u. c #7FA249",
"i. c #988237",
"p. c #998937",
"a. c #9C8138",
"s. c #9E9036",
"d. c #A38B38",
"f. c #BB8C3D",
"g. c #AB9C3C",
"h. c #A19138",
"j. c #B59E3C",
"k. c #B1933E",
"l. c #B6A23D",
"z. c #B5AC3C",
"x. c #BCAA3D",
"c. c #B9A938",
"v. c #B8AB37",
"b. c #C8993F",
"n. c #C1AC3E",
"m. c #C4A03E",
"M. c #C3B93F",
"N. c #C4C33D",
"B. c #8D8540",
"V. c #B88846",
"C. c #A69D44",
"Z. c #B99645",
"A. c #A6934E",
"S. c #85AB4C",
"D. c #80A448",
"F. c #89B14E",
"G. c #8EB951",
"H. c #BBAC43",
"J. c #B7A846",
"K. c #B3B24D",
"L. c #BDB649",
"P. c #BFBD50",
"I. c #ABAE4B",
"U. c #B69F63",
"Y. c #C78D48",
"T. c #C99A41",
"R. c #D79A46",
"E. c #C8A643",
"W. c #C4B543",
"Q. c #C9B541",
"!. c #CBBA44",
"~. c #C2BD4D",
"^. c #CABD4C",
"/. c #C6BA45",
"(. c #C3BC50",
"). c #D6B645",
"_. c #EFAD55",
"`. c #BDC052",
"'. c #C6C64D",
"]. c #CBC54C",
"[. c #C6C746",
"{. c #D2C947",
"}. c #C6D349",
"|. c #C6C552",
" X c #C9C551",
".X c #C7C851",
"XX c #C9CA53",
"oX c #CDD255",
"OX c #CCD957",
"+X c #D2D456",
"@X c #D6D955",
"#X c #D9DB59",
"$X c #D5D958",
"%X c #D1D14B",
"&X c #DAE159",
"*X c #E4EA5C",
"=X c #D4D879",
"-X c #CECF66",
";X c #E1E76C",
":X c #9F8C81",
">X c #B08081",
",X c #B7A6AD",
"<X c #B9A8B2",
"1X c #C8AF9A",
"2X c #D4C584",
"3X c #DADB8A",
"4X c #E6EA9C",
"5X c #EAEE8A",
"6X c #E3E3A8",
"7X c #F2F4BE",
"8X c #C1BDCC",
"9X c #F1F1D2",
"0X c #F3F4DA",
"qX c #F3F5C7",
"wX c #FFFFFF",
"eX c #FCFCF4",
"rX c #F9FAEB",
/* pixels */
"                                            * % * * * * % % % % * % % * * * * *                                                 ",
"                                        * * * # + + + + O O O O + O O # + + + % % % *                                           ",
"                                      * % # + t m F S S J Y U U U U U S F c y $ + $ *                                           ",
"                                    * % * q r } 0./.W.W.].@X@X@X@X@X@X/.M.R.+.j 0 : $ *                                         ",
"                                  * * + d l.P.|. X XXXXX'.'.'.'.'.'.'.'.'.'.].'./.T # $ *                                       ",
"                                  * # y @.XXoXoXXXXXoXz.=X0X9X9X9X9X9X9X9X0XqXoX%XZ.a = $ *                                     ",
"                                % * o V R.oXXXXXXXXX'.3X0XwXwXwXwXwXwXwXwXwXeXqX=X).@.% # %                                     ",
"                                % $ - &.].XXXX.XXXXX[.7XeX0X0X0X0X9X0X0X0X0X0XeX3XN.g.u & % *                                   ",
"                                $ % { =.L.XXXXXXXXXXXX.XXXXX|.|.|..X.XXXXXXX.XXX.XoX(.8.u # *                                   ",
"                                $ * %.b.H.XXXXXXXX|.XX.X'..X|.|..X'..X'.'.'.'..X.XXX|.T.j # *                                   ",
"                                $ % p.n.H.XXXXXXXXXXXXXXXXXXXXXXXXXX.XXXXXXX|.XXXXXX Xx.x # *                                   ",
"                                % * i.n.H.XXXXXXXX|.XXXX|.XXXXXXXXXXXX|.XXXXXXXXXXXXXXW.z + *                                   ",
"                                $ % %.x.H.XXXXXXXXXX|.XXXXXXXX|.|.XXXXXXXXXXXXXXXXXXXX+XA O *                                   ",
"                                $ * p.n.H.XXXXXXXXXXXXXX|.XXXXXXXXXXXX|.XX|.XXXXoXXX%X@XA O *                                   ",
"                                $ * i.n.H.XXXXXXXXXXXX|.XXXXXXXXXXXXXXXXXXXXXX'.x.v.v.n.x # %                                   ",
"                                $ * i.H.H.XXXXXX|.XXXXXXXXXX|.XXXX|.XXXXXXXX|.%.U.2X-X1XA # %                                   ",
"                                $ * p.x.H.XXXXXXXXXX|.XXXX|.XXXXXX.XXXXXXXoXP.c <XwXwXwX] . *                                   ",
"                                $ * %.n.H.XXXXXXXXXXXXXXXXXX|.XX|.XXXXXXXXoXP.c <XwXwXwX] . *                                   ",
"                                $ * i.n.J.H..XXXXXXXXXXXXX|.XXXXXXXXXX XXXoX`.k <XwXwXwX] . *                                   ",
"                                $ % p.W.j.j..XoXXXXXXXXXXXXXXXXXXXXXXXXXXXXX`.i.:X<X,X<X/ X *                                   ",
"                                % * %.m.l.l.~.XXXXXXXXXXXXXXoXXXXXXXXXXXXXXXXX&X$.k S J 7 $ $                                   ",
"                                % * { =.z.j.j.~.XXXXXXoX+X+XXXoXXX+XoXXXXXXXXXXX.X|. XXXA + *                                   ",
"                                % * 3 } 0.v.l.l.~.!.V.>.c q 1 w 0 g P ,.1.A.oXXXXXXX+X@XA O *                                   ",
"                                * * O 4 } 9.n.!.h.S m B M F D F U Y $.A.V.Z.W.XXXXXXXX+XA O *                                   ",
"                                  * * + 3 { %.d.K o o I b.{.5X5X;X@XoXoXOX'.l..XXXXXXX+XA + *                                   ",
"                                    % % % % $ $ $ % # &.M.=XeXwX6X/.XXXXXXXXXXXXXXXXXX$XA O *                                   ",
"                                              $ # , $.v.4XrX=X=X-XXXXXXXXX.XXXXXXXXXXX+XA O *                                   ",
"                                              * # , L.%X3X4X[.`.'.XXXXXX|.XXXXXXXXXXXXOXA O *                                   ",
"                                              * # 7 P.$X'.[..XXX|.XXXXXXXXXXXX|.XXXXXX#XA O *                                   ",
"                                              * # 7 L.+X.X.XXXXXXXXXXX|.XXXXXXXXXXXXXXXXA # *                                   ",
"                                              * $ 7 g.XXXXoX.X.XXXXXXXXX|.XXXXXX`.&X|.l # # *                                   ",
"                                              * # 6 #.E.`.OXoX.XXXXXXXXXXXXXXX|.*XK.x o p p #                                   ",
"                                                % * a #.Y.R.].].XX$X+X$X+X+X$X#XK.A O i X.{ +                                   ",
"                                                  % + a .. .d.p.C.K.I.K.K.K.K.`.Z o 6  .X.m #                                   ",
"                                                    % * = = : : 6 5 * : 5 5 5 7 * * * = = = *                                   ",
"                                * * * * * *                     + q B.0 O                                                       ",
"                              * % $ # # # *                     # A *Xz                                                         ",
"                            * % * 4 q w 7 # $ % *       % $ % $ @ l I.w                                                         ",
"                            % # 4 ..f.M.$.# $ % % *   * % % $ $ % % * *                                                         ",
"                            * # s b.^.XXP.C.I.A # * % % > Z ' e.E 1 $ %                                                         ",
"                            * # d v.XXoXoX#X_.M O % % $ e w.S.S.D.E * %                                                         ",
"                            % # d H. XXXoX|. .t # * * # G S.r.t.D.W & $                                                         ",
"                            * O l XXXXXXoXP.7 # *   * # G S.r.D.q.x $ $                     % %                                 ",
"                            * # l XX+X}.E.8.6 # *   * $ Z S.r.r.u.W * $                 % $ # # %                               ",
"                            * O x XX%X5X1Xy & $     * # G F.r.r.S.q.$ $                 # l &.M 6 $                             ",
"                            * # l XX}.qX8XO $       * # e w.r.r.u.' % $                 # K ).V.s # *                           ",
"                            * # l XX[.7X8X@         % $ 1 R r.u.S.Q $ %               * + D !.x.d # %                           ",
"                            * # d l.'.;XA.$         % $ < R y.u.F.e.$ $               * # J M.x.d # *                           ",
"                            * # w l.@X^.~ $         * $ < R u.G.' 0 % %               # o F E.3.s # %                           ",
"                            * + 0 l.H.9.| #         $ $ < E q.Q 0 @ * *               F z $.E.1.u +                             ",
"                            % $ k l.3.+.[ $         * $ 1 E C ; # % * %             0 l.M.n.k.O.8                               ",
"                          % # p *.l.!.K # *         $ $ 2 H * $ $ $ * *         * # , j.n.n.i.5 %                               ",
"                          * + J R.j.K ; #           * % * ; @ , ( ` $ $         * # 6 ,.3.f.p.% $                               ",
"                          * # K {.H., +             * * * 8 ^ ` 4.5.$ $         * # ; O.:.V.s.* $                               ",
"                          * # J J.d.q               * # f ;.6.6.U._ $ $         $ * j -.,.V.a.* $                               ",
"                            $ q L N 5               * # ^ 6.4.4.6._ $ $       % # h 1.<.,.1.O.* $                               ",
"                              9 5 9                 % # ^ U.4.) ( ^ $ $     * $ 8 I 1.,.1.I 3 %                                 ",
"                                                    * # n 5.7.) v n * $     * # f o.<.,.2.N o *                                 ",
"                                                    * $ - ^ _ b j u % %     * 5 g I <.,.2.M # *                                 ",
"                                                      % $ $ $ $ $ $ %       9 b v I ,.,.2.M # *                                 ",
"                                                                            9 b L N P ,.9.M # *                                 ",
"                                                                              8 8 f N ;.M 8 $                                   ",
"                                                                              $ # 5 h n % #                                     ",
"                                                                                    % * % %                                     "
};
