/* XPM */
static char *result[] = {
/* columns rows colors chars-per-pixel */
"64 64 233 2 ",
"   c #060008",
".  c #040015",
"X  c #0D0016",
"o  c #0D0119",
"O  c #060318",
"+  c #120016",
"@  c #13011A",
"#  c #1C041C",
"$  c #1E091C",
"%  c #1A0918",
"&  c #1A181D",
"*  c #21061D",
"=  c #21091D",
"-  c #2D0A1F",
";  c #2B051E",
":  c #34021F",
">  c #24121C",
",  c #2A141E",
"<  c #2B1C1E",
"1  c #27181E",
"2  c #2E221D",
"3  c #32271D",
"4  c #3D3A1E",
"5  c #1B0421",
"6  c #290E21",
"7  c #330F21",
"8  c #3B0921",
"9  c #2C1323",
"0  c #271422",
"q  c #331421",
"w  c #331B23",
"e  c #3A1B26",
"r  c #2B1532",
"t  c #2A2121",
"y  c #342625",
"u  c #3B2323",
"i  c #3E2A27",
"p  c #372C26",
"a  c #393320",
"s  c #3B3523",
"d  c #3C2231",
"f  c #5B0A26",
"g  c #451926",
"h  c #5A1927",
"j  c #490724",
"k  c #6D1B2B",
"l  c #472928",
"z  c #512B2E",
"x  c #54262D",
"c  c #47352A",
"v  c #4A3729",
"b  c #553A29",
"n  c #4C2D37",
"m  c #5A3632",
"M  c #5D3A34",
"N  c #573438",
"B  c #673934",
"V  c #75252E",
"C  c #442C1E",
"Z  c #44481F",
"A  c #4D4E1F",
"S  c #454623",
"D  c #55462D",
"F  c #4C5422",
"G  c #4F5828",
"H  c #515D23",
"J  c #525C29",
"K  c #5A5732",
"L  c #5D4D30",
"P  c #664E2B",
"I  c #68442A",
"U  c #69572D",
"Y  c #684339",
"T  c #7C4736",
"R  c #675533",
"E  c #75572C",
"W  c #5C6D2C",
"Q  c #556425",
"!  c #5F732D",
"~  c #586737",
"^  c #7B682D",
"/  c #756736",
"(  c #657A38",
")  c #7E743B",
"_  c #6C6132",
"`  c #74641E",
"'  c #57394C",
"]  c #694548",
"[  c #74524F",
"{  c #726F44",
"}  c #7E6077",
"|  c #64556B",
" . c #861B30",
".. c #882731",
"X. c #9C3135",
"o. c #81282D",
"O. c #A33436",
"+. c #AD3A37",
"@. c #B9393A",
"#. c #AE2537",
"$. c #C43E3E",
"%. c #8A503B",
"&. c #B34E3A",
"*. c #846B38",
"=. c #87793A",
"-. c #9B7E36",
";. c #957D24",
":. c #A37237",
">. c #C7443D",
",. c #C4633D",
"<. c #9C5941",
"1. c #855C59",
"2. c #895740",
"3. c #A76842",
"4. c #B17043",
"5. c #885F64",
"6. c #8C6264",
"7. c #8E646A",
"8. c #956A6A",
"9. c #9B6F71",
"0. c #987375",
"q. c #90796B",
"w. c #A7797A",
"e. c #9D6E43",
"r. c #D64541",
"t. c #CF6C44",
"y. c #6C8639",
"u. c #718C3C",
"i. c #77953E",
"p. c #769343",
"a. c #7B9B46",
"s. c #7D9D49",
"d. c #6D8141",
"f. c #7FA149",
"g. c #8B833E",
"h. c #988537",
"j. c #9E9136",
"k. c #B19D2C",
"l. c #A5933B",
"z. c #A99339",
"x. c #AC9639",
"c. c #B59E3C",
"v. c #B4953C",
"b. c #A98D30",
"n. c #B5A23D",
"m. c #BCA63B",
"M. c #AFA039",
"N. c #C1AE3F",
"B. c #C3B83F",
"V. c #C8C83F",
"C. c #8C8542",
"Z. c #8E9244",
"A. c #A59B43",
"S. c #A79845",
"D. c #B78C46",
"F. c #82A54B",
"G. c #85AB4D",
"H. c #9BB74E",
"J. c #ABA647",
"K. c #BBAC43",
"L. c #B5AC48",
"P. c #BAB54C",
"I. c #BDBB4F",
"U. c #B8B249",
"Y. c #BEBD55",
"T. c #BAA77B",
"R. c #C88549",
"E. c #CA9549",
"W. c #D5974D",
"Q. c #C5AA45",
"!. c #D4A54E",
"~. c #C6B443",
"^. c #C6BB49",
"/. c #D2B84A",
"(. c #C0BE51",
"). c #C1AD7D",
"_. c #BCC551",
"`. c #C3C443",
"'. c #C6C944",
"]. c #CBCE43",
"[. c #C4C54B",
"{. c #CCC44D",
"}. c #CCCC4D",
"|. c #C7C94B",
" X c #D2CB4B",
".X c #C5C551",
"XX c #C7C852",
"oX c #C8CA53",
"OX c #CAC856",
"+X c #D6CA54",
"@X c #CCD355",
"#X c #CCD658",
"$X c #D2D455",
"%X c #D5D956",
"&X c #D5DA58",
"*X c #D9DE59",
"=X c #DDDA52",
"-X c #D6D44A",
";X c #D8E35A",
":X c #C9E658",
">X c #E2E75B",
",X c #CCC963",
"<X c #CED166",
"1X c #D4D576",
"2X c #D3CD71",
"3X c #E8DC5C",
"4X c #AE7F80",
"5X c #9F8B82",
"6X c #AB9094",
"7X c #BDAEB3",
"8X c #C2B5BB",
"9X c #CABB8D",
"0X c #D9DA89",
"qX c #DCDC91",
"wX c #D9CD9E",
"eX c #F3F88F",
"rX c #D8CBA3",
"tX c #E1D7A8",
"yX c #E5E5AE",
"uX c #E2E3A4",
"iX c #E8E9B7",
"pX c #FEF5B3",
"aX c #CABDC3",
"sX c #D1C5CE",
"dX c #CDC0C8",
"fX c #E1DADD",
"gX c #ECEDC3",
"hX c #F1F2D5",
"jX c #FFFFFF",
"kX c #FCFCF5",
"lX c #F7F7E5",
"zX c #DEDCEB",
"xX c None",
/* pixels */
"xXxXxXxXxXxXxXxXxXxXxXxXxXxXxXxXxXxX= 6 $ $ = $ * = $ = $ = = $ * $ $ $ * = $ * $ $ * = $ xXxXxXxXxXxXxXxXxXxXxXxXxXxXxXxXxXxXxX",
"xXxXxXxXxXxXxXxXxXxXxXxXxXxXxXxXxX* = @ o @ X X X + + X X X X @ @ X X X o + o @ @ X o # = = = xXxXxXxXxXxXxXxXxXxXxXxXxXxXxXxXxX",
"xXxXxXxXxXxXxXxXxXxXxXxXxXxXxX= # @ # 8 g l l c c c c c c c c c c c c c c c c l l l g 6 @ # # * xXxXxXxXxXxXxXxXxXxXxXxXxXxXxXxX",
"xXxXxXxXxXxXxXxXxXxXxXxXxXxX$ = * @ # ..,.n.x.U..X.X.X[.(..X.X.X.X.X.X.X.X.X.Xn.x.v.$.f o $ $ * = xXxXxXxXxXxXxXxXxXxXxXxXxXxXxX",
"xXxXxXxXxXxXxXxXxXxXxXxXxX= # O b h.g.D./.|.|.'.].].].].].].V.].].].].].].].'.|.|.{.!.S.h.*.w o = * xXxXxXxXxXxXxXxXxXxXxXxXxXxX",
"xXxXxXxXxXxXxXxXxXxXxXxX= # ; j -.;X;X&X#XoX'.1XqXqXqXqXqXqXqXqXqXqXqXqXqXqXqX@X'.@X#X&X;X/.T 8 $ $ = xXxXxXxXxXxXxXxXxXxXxXxXxX",
"xXxXxXxXxXxXxXxXxXxXxXxX= @ q @.W.#XoXoXOXXX[.yXjXjXjXjXjXjXjXjXjXjXjXjXjXjXkX0X[.oXoXXX}.@Xt...@ # xXxXxXxXxXxXxXxXxXxXxXxXxXxX",
"xXxXxXxXxXxXxXxXxXxXxX= = O , :./.@XoXXX[.,XhXjXjXjXjXjXjXjXjXjXjXjXjXjXjXjXjXkXuX`.XXoXXXXX+X/ O # = * xXxXxXxXxXxXxXxXxXxXxXxX",
"xXxXxXxXxXxXxXxXxXxXxX= # 8 V U.@XXXoXoX[.OXyXgXyXyXyXyXyXyXyXyXyXyXyXyXyXyXyXgXqX|.XXXXXXoX;XS.f ; # * xXxXxXxXxXxXxXxXxXxXxXxX",
"xXxXxXxXxXxXxXxXxXxXxX$ o k t.OX#XoXXXoXoXoX`.`.`.`.`.`.`.`.`.`.`.`.`.`.`.`.`.`.|.XXoXXXoXoX#X!.>.e o $ xXxXxXxXxXxXxXxXxXxXxXxX",
"xXxXxXxXxXxXxXxXxXxXxX* @ P Q.+XoXoXoXoXoXoXoXoXXXoXoX|.XXXXXXoXoXXX[.oXoX|.oXXXoXoXoXXXoXoXXX$XL.l o = xXxXxXxXxXxXxXxXxXxXxXxX",
"xXxXxXxXxXxXxXxXxXxXxX= @ U -XoXOXoXXXXXoXOXoXXXoXXXOXXXXXOXoXoXoXoXoXoXoXXXoXoXXXXXoXOXoXXXoX&X_.i @ = xXxXxXxXxXxXxXxXxXxXxXxX",
"xXxXxXxXxXxXxXxXxXxXxX* o / &XoXXXoXoXoXoXoXoXoXoXoXXXoXoXoXXXXXXXoXoXoXoXoXXXoXoXoXoXoXXXOXoX%XI.i o * xXxXxXxXxXxXxXxXxXxXxXxX",
"xXxXxXxXxXxXxXxXxXxXxX$ @ / *XoXoXoXXXoXoXoXoXoXXXoXoXoXXXoXoXoXXXoXoXoXoXoXOXXXoXXXoXXXoXoXOX$XI.p @ = xXxXxXxXxXxXxXxXxXxXxXxX",
"xXxXxXxXxXxXxXxXxXxXxX* o / ;XOXoXoXoXoXoXoXoXoXoXoXoXXXXXoXoXXXoXoXXXoXXXOXoXXXoXoXoXoXoXoXXX%XI.i o = xXxXxXxXxXxXxXxXxXxXxXxX",
"xXxXxXxXxXxXxXxXxXxXxX$ @ _ }.OXoXoXoXoXoXoXoX@XoXoXoXoXoXoXXXoXoXXXoXOXoXoXoX@XoXoXXXoXXXoXoX$XL.i @ $ xXxXxXxXxXxXxXxXxXxXxXxX",
"xXxXxXxXxXxXxXxXxXxXxX6 o P ~.XXOXoXoXoXXX.X[..X[..XoXoXoXoXoXoXoXoXXX.X.X.X.X.X.XoXoXoXoXoX@X{.z.u o * xXxXxXxXxXxXxXxXxXxXxXxX",
"xXxXxXxXxXxXxXxXxXxXxX$ @ P ~.XXOXoXoXoX{.N.M.k.k.k.^.@XoXoXoXoXoXOX.X~.m.k.k.k.U.@XoXXXoXOXOX{.z.u @ $ xXxXxXxXxXxXxXxXxXxXxXxX",
"xXxXxXxXxXxXxXxXxXxXxX* o P ~.OX@XoXXX#Xc.*.9XtXwXrX,XB.oXoXoXoXoX@XU.*.T.tXwXrX2X^..XOXoXoXoX Xz.u @ * xXxXxXxXxXxXxXxXxXxXxXxX",
"xXxXxXxXxXxXxXxXxXxXxX$ @ P ~.[.oXoXoX%X=.' fXjXjXjX).b.oXoXoXoXoX%XJ.z 7XjXjXjXrXb..XoXoXoXXX^.z.u @ $ xXxXxXxXxXxXxXxXxXxXxXxX",
"xXxXxXxXxXxXxXxXxXxXxX$ @ U N.n.I.oXXX%Xh.] fXjXjXjX0.E @XoXoXXXoX%XJ.m aXjXjXjX6XD P.$XoXoXU.N.z.u @ = xXxXxXxXxXxXxXxXxXxXxXxX",
"xXxXxXxXxXxXxXxXxXxXxX* @ U B.n.^.@XoX*X=.N fXjXjXjX} D oX@XOXoXoX%XA.x 7XjXjXjX6Xl P.$XoXoXK.N.z.u @ $ xXxXxXxXxXxXxXxXxXxXxXxX",
"xXxXxXxXxXxXxXxXxXxXxX$ o I E.m.I.[.oX$XJ.2.7XdXaXaXq.=.oX@XoXoXoX$XL./ 6XsXaXsX5X*.^.@XoX[.N.N.c.u o = xXxXxXxXxXxXxXxXxXxXxXxX",
"xXxXxXxXxXxXxXxXxXxXxX* @ k >.v.n.K.XXOX#X(.R z m m S.%XoXoXXXoXoXOXoX$X*.z M z =.&XoXoX^.n.c.N.z.u @ = xXxXxXxXxXxXxXxXxXxXxXxX",
"xXxXxXxXxXxXxXxXxXxXxX= $ ; 8 > V ,.=X@X@XOXJ.A.A.A.I.@XoXXXoXoXXXoXoX@XU.A.A.A.P.#XoX#X!.&.x 1 w = $ $ xXxXxXxXxXxXxXxXxXxXxXxX",
"xXxXxXxXxXxXxXxXxXxX= $ X y K D %.R.~.oXoXOX$X%X%X%XoXXXXXOXoXXXoXoXoXXX@X%X%X$X@XoXoX[.K.t.T S v $ @ * xXxXxXxXxXxXxXxXxXxXxXxX",
"xXxXxXxXxXxXxXxXxX# $ $ # =.>X%X#XI.K.^.oXoXoXoXoXoXoXoXXXXXoXoXXXoXoXoXoXoXXXXXoXoXoXK.L.@X&X%Xm.v # # = xXxXxXxXxXxXxXxXxXxXxX",
"xXxXxXxXxXxXxXxXxX6 @ $ ^ ^.#X|.'.[..X.XoXoXXXXXoXoXoXoXOXoX#X#XoXOXXXoXoXXXoXoXoXoXoX.X^.`.'.|.^.c.b O $ xXxXxXxXxXxXxXxXxXxXxX",
"xXxXxXxXxXxXxXxXxX@ w ^ K.V.oXiXhXuXoXXXoXoXoXoXoXoXoXXXoX>XJ./ oX*XXXoXXXXXoXoXoXoXXX|.1XgXhXqX`. XS.b - # xXxXxXxXxXxXxXxXxXxX",
"xXxXxXxXxXxXxXxX= o I {. X<XqXlXjXiXoX|.oXoXXXoXoXoXOXoX@XI.D o g.XX$XoXOXXXXXoXXXoXoX`.1XlXjXgX1X@X-Xc.< @ $ xXxXxXxXxXxXxXxXxX",
"xXxXxXxXxXxXxXxX* o L $X].iXkX<XXXOXoXoXoXoXXXoXoXoXXX$XoXD o # # =.;XoXOXXXoXoXXXoXOXXXoX@X|.uXjX1X-XJ.9 @ = xXxXxXxXxXxXxXxXxX",
"xXxXxXxXxXxXxXxX= o L &X}.1XqXXX`.|.oXoXoXoXoXoXXXXX>XP.D O 8 o.o & ) *X%XXXXXoXoXXXoXOX.X[.`.2XqXOX;XJ.9 @ = xXxXxXxXxXxXxXxXxX",
"xXxXxXxXxXxXxXxX* + D +XoX|.`.XXOXoXoXoXoXOXoXoXoX%XP.K . : X.$.k @ & g..X%XXXXXXXoXoXoXOXoXOX[.`.XX%XJ.9 @ = xXxXxXxXxXxXxXxXxX",
"xXxXxXxXxXxXxXxX= + b m.|.oXXXXXXXXXoXoXoXoXoXoX@XXXD . - O.$.@.>.k @ @ g.&XoXOXoXXXXXoXoXoXoXoXXXoX^.-.9 @ = xXxXxXxXxXxXxXxXxX",
"xXxXxXxXxXxXxXxXxXo h t.OX:X#X@XoXoXoXXXoX@X#X;X^.D O - X.@.$.@.>.@.V o % ) ;X&X#XOXoXoXoXoX@XoX:X:XW.+.7 @ xXxXxXxXxXxXxXxXxXxX",
"xXxXxXxXxXxXxXxXxXxX8  .4.W.W./.}.}.&X*X%X^.E.D.K o j O.r.>.$.$.$.r.>.V @ t =.R.!.|.&X&X$X{.}./.R.E.&.f 6 xXxXxXxXxXxXxXxXxXxXxX",
"xXxXxXxXxXxXxXxXxXxXxX$ ..#.+.-.h.z.L.P.J.-.+.f O @ o.&.O.O.O.X.O.O.+.@.h O @  .&.l.L.P.J.h.h.:.#.@.h O xXxXxXxXxXxXxXxXxXxXxXxX",
"xXxXxXxXxXxXxXxXxXxXxXxXm x - q w w w t w w 7 ; @ = 7 8 7 q 6 ; 7 7 7 7 6 @ # 6 q w 2 y w w q , 7 B l xXxXxXxXxXxXxXxXxXxXxXxXxX",
"xXxXxXxXxXxXxXxXxXxXxXxXxXxXxXxXxXxXxXxXxXxXxXxXxXxXxXxXxXO S / > O xXxXxXxXxXxXxXxXxXxXxXxXxXxXxXxXxXxXxXxXxXxXxXxXxXxXxXxXxXxX",
"xXxXxXxXxXxXxXxXxXxXxXxXxXxXxXxXxXxXxXxXxXxXxXxXxXxXxXxXxXX { $Xu xXxXxXxXxXxXxXxXxXxXxXxXxXxXxXxXxXxXxXxXxXxXxXxXxXxXxXxXxXxXxX",
"xXxXxXxXxXxXxXxXxXxXxXxXxXxXxXxXxXxXxXxXxXxXxXxX* $ $ * # X / .Xy O & $ $ $ * xXxXxXxXxXxXxXxXxXxXxXxXxXxXxXxXxXxXxXxXxXxXxXxXxX",
"xXxXxXxXxXxXxXxXxXxXxXxXxXxXxXxXxXxXxXxXxXxX# 6 $ # < F { ( s.H.{ { ~ 4 > + * $ xXxXxXxXxXxXxXxXxXxXxXxXxXxXxXxXxXxXxXxXxXxXxXxX",
"xXxXxXxXxXxXxXxXxXxXxXxXxXxXxXxXxXxXxXxXxXxX$ $ = < J y.u.i.( ~ u.i.u.y.v > $ $ = xXxXxXxXxXxXxXxXxXxXxXxXxXxXxXxXxXxXxXxXxXxXxX",
"xXxXxXxXxXxXxXxXxXxXxXxXxXxXxXxXxXxXxXxXxXxX5 # 1 F i.p.F H 3 @ Z F W a.y.4 # # = xXxXxXxXxXxXxXxXxXxXxXxXxXxXxXxXxXxXxXxXxXxXxX",
"xXxXxXxXxXxXxXxXxXxXxXxXxXxXxXxXxXxXxXxXxX= = # = F u.F.i.W 3 $ Z y.s.s.F.J # # = = xXxXxXxXxXxXxXxXxXxXxXxXxXxXxXxXxXxXxXxXxXxX",
"xXxXxXxXxXxXxXxXxXxXxXxXxXxXxXxXxXxXxXxXxX= $ > 4 F u.a.( W 3 = Z W y.a.G.( 2 = $ $ xXxXxXxXxXxXxXxXxXxXxXxXxXxXxXxXxXxXxXxXxXxX",
"xXxXxXxXxXxXxXxXxXxXxXxXxXxXxXxXxXxXxXxXxX* # s Q F u.p.H H a = Z F W a.G.u.Q 9 # * xXxXxXxXxXxXxXxXxXxXxXxXxXxXxXxXxXxXxXxXxXxX",
"xXxXxXxXxXxXxXxXxXxXxXxXxXxXxXxXxXxXxXxXxX* # p H F y.F.i.W 3 * Z y.f.a.F.F.p.y @ * xXxXxXxXxXxXxXxXxXxXxXxXxXxXxXxXxXxXxXxXxXxX",
"xXxXxXxXxXxXxXxXxXxXxXxXxXxXxXxXxXxXxXxXxX* # a F F y.G.s.! 2 # Z u.G.s.a.F.a.p @ = xXxXxXxXxXxXxXxXxXxXxXxXxXxXxXxXxXxXxXxXxXxX",
"xXxXxXxXxXxXxXxXxXxXxXxXxXxXxXxXxXxXxXxXxX$ # a H F u.G.F.! 4 2 S y.G.f.f.G.p.y # = xXxXxXxXxXxXxXxXxXxXxXxXxXxXxXxXxXxXxXxXxXxX",
"xXxXxXxXxXxXxXxXxXxXxXxXxXxXxXxXxXxXxXxXxX* # a J F y.F.a.W F F F y.f.s.a.F.p.y + * $ $ = xXxXxXxXxXxXxXxXxXxXxXxXxXxXxXxXxXxXxX",
"xXxXxXxXxXxXxXxXxXxXxXxXxXxXxXxXxXxXxXxXxX* # a Q J S p p t < 2 < t p p G i.s.y @ * # # @ # * xXxXxXxXxXxXxXxXxXxXxXxXxXxXxXxXxX",
"xXxXxXxXxXxXxXxXxXxXxXxXxXxXxXxXxXxXxXxXxX$ # s Q s > X X X @ @ X X X @ 1 J y.y # = e e r e 6 $ xXxXxXxXxXxXxXxXxXxXxXxXxXxXxXxX",
"xXxXxXxXxXxXxXxXxXxXxXxXxXxXxXxXxXxXxXxXxX* # 4 Z $ * 6 9 9 9 9 9 9 9 = @ < Z < + 6 M Y T B q @ = xXxXxXxXxXxXxXxXxXxXxXxXxXxXxX",
"xXxXxXxXxXxXxXxXxXxXxXxXxXxXxXxXxXxXxXxXxX= * = > @ q Y 5.6.5.6.5.8.[ N 6 # > = @ 5 n %.3.<.e . = xXxXxXxXxXxXxXxXxXxXxXxXxXxXxX",
"xXxXxXxXxXxXxXxXxXxXxXxXxXxXxXxXxXxXxXxXxX* $ # = l ] 8.w.w.w.w.w.5Xw.1.M 9 # X e B T <.3.3.%.l X # xXxXxXxXxXxXxXxXxXxXxXxXxXxX",
"xXxXxXxXxXxXxXxXxXxXxXxXxXxXxXxXxXxXxXxXxX= # + 6 z 5.4X9.9.8.6.8.6.8.w.[ e $ ; T R.:.4.4.e.3.T i > $ xXxXxXxXxXxXxXxXxXxXxXxXxX",
"xXxXxXxXxXxXxXxXxXxXxXxX= = = xXxX% = xXxX$ # # @ 6 [ 4X9.w.1.M B m [ w.N X = T D.m.n.n.N.m.u R .Xl xXxXxXxXxXxXxXxXxXxXxXxXxXxX",
"xXxXxXxXxXxXxXxXxXxXxX* o .   = % . . 5 @ % U -.U $ 6 ] 9.w.[ m B B N n 6 $ l <.T U }.=._ =Xv , R xXxXxXxXxXxXxXxXxXxXxXxXxXxXxX",
"xXxXxXxXxXxXxXxXxXxX$ = C [ | $ 3 [ | r $ R n.-Xl.6 . r 9.T.1.m l z u @ X d 2.R.Y % Z.c 9 Z.v X o xXxXxXxXxXxXxXxXxXxXxXxXxXxXxX",
"xXxXxXxXxXxXxXxXxX= @ , ;.pXzXr ` eXjX' A =Xm.N.h.> X n 9.w.1.z = # # 6 o l 3.+X) @ # $ $ # xXxXxXxXxXxXxXxXxXxXxXxXxXxXxXxXxXxX",
"xXxXxXxXxXxXxXxXxX= @ , b.3X2XP.#X>XeX(.^.>X^./.z.- O e [ n q - xXxXxXxX# 6 g v y xXxXxXxXxXxXxXxXxXxXxXxXxXxXxXxXxXxXxXxXxXxXxX",
"xXxXxXxXxXxXxXxXxXxX# = P E E g.g./ ^ g.C.) / ^ P = @ 9 u % xXxXxXxXxXxXxX$ @ o xXxXxXxXxXxXxXxXxXxXxXxXxXxXxXxXxXxXxXxXxXxXxXxX",
"xXxXxXxXxXxXxXxXxXxXxX= = = $ = = = $ * * # = = = * * * = xXxXxXxXxXxXxXxXxXxXxXxXxXxXxXxXxXxXxXxXxXxXxXxXxXxXxXxXxXxXxXxXxXxXxX"
};
