/* XPM */
static char *result[] = {
/* columns rows colors chars-per-pixel */
"64 64 227 2 ",
"   c #040115",
".  c #0D0016",
"X  c #0E0019",
"o  c #0A0B19",
"O  c #13011A",
"+  c #1C041C",
"@  c #1E0A1D",
"#  c #120719",
"$  c #21091D",
"%  c #2A0C1E",
"&  c #27041D",
"*  c #26121C",
"=  c #2B181E",
"-  c #31261D",
";  c #352F1E",
":  c #2C0E20",
">  c #350A21",
",  c #2C1321",
"<  c #2B1A23",
"1  c #251B21",
"2  c #331A23",
"3  c #3B1B23",
"4  c #321723",
"5  c #3C2A25",
"6  c #382525",
"7  c #3E3C21",
"8  c #3D3727",
"9  c #352129",
"0  c #490723",
"q  c #491826",
"w  c #591727",
"e  c #560C26",
"r  c #680A29",
"t  c #611B2A",
"y  c #73192E",
"u  c #4D2C2E",
"i  c #462528",
"p  c #522C2E",
"a  c #572A28",
"s  c #4A3728",
"d  c #563E27",
"f  c #5C332E",
"g  c #573A26",
"h  c #492937",
"j  c #583632",
"k  c #67242C",
"l  c #79222C",
"z  c #63352A",
"x  c #633C34",
"c  c #6B3A32",
"v  c #653732",
"b  c #773735",
"n  c #44481F",
"m  c #434621",
"M  c #464A21",
"N  c #49492A",
"B  c #55452E",
"V  c #5A4229",
"C  c #5D4829",
"Z  c #4C5522",
"A  c #595533",
"S  c #575332",
"D  c #654C29",
"F  c #67552C",
"G  c #635532",
"H  c #6A5C35",
"J  c #685834",
"K  c #765736",
"L  c #6C4239",
"P  c #58662B",
"I  c #5C6834",
"U  c #5F7030",
"Y  c #7D652E",
"T  c #7F692F",
"R  c #6D6436",
"E  c #6B6738",
"W  c #7C6836",
"Q  c #65793B",
"!  c #7A7337",
"~  c #60732F",
"^  c #623F4A",
"/  c #6C4840",
"(  c #765159",
")  c #7B6144",
"_  c #755661",
"`  c #882933",
"'  c #963234",
"]  c #A73537",
"[  c #BA3B3B",
"{  c #A32635",
"}  c #851D30",
"|  c #C63F3E",
" . c #894938",
".. c #98593F",
"X. c #855133",
"o. c #BB4C3E",
"O. c #826B32",
"+. c #866435",
"@. c #857433",
"#. c #877E3E",
"$. c #887030",
"%. c #906B39",
"&. c #A87C3D",
"*. c #B47039",
"=. c #CA403E",
"-. c #C74B3F",
";. c #D1423F",
":. c #C6633E",
">. c #965B41",
",. c #815957",
"<. c #A05F41",
"1. c #8F7D42",
"2. c #936C50",
"3. c #A86544",
"4. c #B46C46",
"5. c #B46140",
"6. c #B47A44",
"7. c #9C6F70",
"8. c #A47778",
"9. c #C85941",
"0. c #D34E43",
"q. c #C87944",
"w. c #D36B42",
"e. c #718C3C",
"r. c #728F3A",
"t. c #748C42",
"y. c #7B9C46",
"u. c #7A9947",
"i. c #6D8342",
"p. c #7FA049",
"a. c #89833F",
"s. c #9A883A",
"d. c #A48D39",
"f. c #A8993E",
"g. c #B59C3C",
"h. c #AC972C",
"j. c #B3A32E",
"k. c #B9A53F",
"l. c #BDAC3E",
"z. c #B6A638",
"x. c #BAB638",
"c. c #C3AD3F",
"v. c #C5B53E",
"b. c #BFC038",
"n. c #C3C63A",
"m. c #8F8B41",
"M. c #948843",
"N. c #9E9845",
"B. c #B98D43",
"V. c #A49C44",
"C. c #B79646",
"Z. c #AF9659",
"A. c #84A84B",
"S. c #ABA447",
"D. c #BCAB42",
"F. c #B2AC49",
"G. c #BCB345",
"H. c #B9B74B",
"J. c #B3BD50",
"K. c #C89745",
"L. c #D18C48",
"P. c #C2AE43",
"I. c #C6A445",
"U. c #C4B243",
"Y. c #C2BC4B",
"T. c #C8B946",
"R. c #C7BC51",
"E. c #D8A74D",
"W. c #CCBD7B",
"Q. c #CABE65",
"!. c #BFC152",
"~. c #C3C442",
"^. c #C7C844",
"/. c #C5C54C",
"(. c #CAC34C",
"). c #C7C84D",
"_. c #CBCD4D",
"`. c #CACB44",
"'. c #CED048",
"]. c #D8D64E",
"[. c #C5C451",
"{. c #C9C551",
"}. c #C7C852",
"|. c #C8CA53",
" X c #CBCC5C",
".X c #CDD255",
"XX c #CBD857",
"oX c #D2D556",
"OX c #D4D956",
"+X c #D9DC55",
"@X c #D5DA58",
"#X c #DADD59",
"$X c #D8CB49",
"%X c #DBE05A",
"&X c #D3E257",
"*X c #E6EB5D",
"=X c #EAF25C",
"-X c #CDCE63",
";X c #D5D767",
":X c #D5D67B",
">X c #D2D473",
",X c #E5E977",
"<X c #E2DB51",
"1X c #A58883",
"2X c #A8949E",
"3X c #BFB0B0",
"4X c #CDBB80",
"5X c #D9D986",
"6X c #D9DB89",
"7X c #DDDE96",
"8X c #D2C382",
"9X c #DFE09D",
"0X c #E0E292",
"qX c #E2E3A6",
"wX c #E6E6B2",
"eX c #E9E9BA",
"rX c #D8CBA2",
"tX c #D7CED6",
"yX c #D3C9CE",
"uX c #E4DDDC",
"iX c #EEEEC8",
"pX c #F2F2D6",
"aX c #F0EED6",
"sX c #F8F8EA",
"dX c #FFFFFF",
"fX c #FDFDF6",
"gX c None",
/* pixels */
"gXgXgXgXgXgXgXgXgXgXgXgXgXgXgXgXgXgX$ $ $ @ $ + $ $ $ $ $ $ $ $ $ $ $ $ $ $ $ $ $ @ $ $ gXgXgXgXgXgXgXgXgXgXgXgXgXgXgXgXgXgXgXgX",
"gXgXgXgXgXgXgXgXgXgXgXgXgXgXgXgX$ $ $ + X X O X . X . . X X . X . . X . . . . O X X O @ $ $ gXgXgXgXgXgXgXgXgXgXgXgXgXgXgXgXgXgX",
"gXgXgXgXgXgXgXgXgXgXgXgXgXgXgX$ + O O : w a s s B B B B B B B B V B B B B B B s s a 0 + O + @ gXgXgXgXgXgXgXgXgXgXgXgXgXgXgXgXgX",
"gXgXgXgXgXgXgXgXgXgXgXgXgXgX$ @ @ : @ w 0.C.x.U.oXoX.XoXoX|.oX.X.XoX.X.X.XoX(.c.G.q.] 4 $ % @ @ gXgXgXgXgXgXgXgXgXgXgXgXgXgXgXgX",
"gXgXgXgXgXgXgXgXgXgXgXgXgX$ $ O 1 O.S.F.R.).|.).~.^.~.`.^.^.~.`.^.^.^.~.^.^.^.}.}.R.P.F.f.C   + $ gXgXgXgXgXgXgXgXgXgXgXgXgXgXgX",
"gXgXgXgXgXgXgXgXgXgXgXgXgX$ + > ` P.+XOX|. Xn. XwXwXwXwXwXwXwXwXwXwXwXwXwXeX7X^.)..XXX@X+X6.r : + $ gXgXgXgXgXgXgXgXgXgXgXgXgXgX",
"gXgXgXgXgXgXgXgXgXgXgXgXgX$ . w w.R..X|.|.).-XqXdXdXdXdXdXdXdXdXdXdXdXdXdXdXsX5X X).|.}.XXE.5.> O $ gXgXgXgXgXgXgXgXgXgXgXgXgXgX",
"gXgXgXgXgXgXgXgXgXgXgXgX$ @ X d P.}.|.}.}.~.qXdXdXdXdXdXdXdXdXdXdXdXdXdXdXdXdXdX:X~.}.|.}.OXH.3 O @ $ gXgXgXgXgXgXgXgXgXgXgXgXgX",
"gXgXgXgXgXgXgXgXgXgXgXgX@ @ r 5.|.|.|.|.|.).>X5X:X:X:X:X:X:X:X:X>X:X:X:X:X:X:X5X X).}.|.|.XXR.] 0 # $ gXgXgXgXgXgXgXgXgXgXgXgXgX",
"gXgXgXgXgXgXgXgXgXgXgXgX@ O  .L..X|.|.}.}.|./.~.~.~.~.~.~.~.~.~.~.~.~.~.~.~.~.~.).}.|.}.|.|.{.L.z . $ gXgXgXgXgXgXgXgXgXgXgXgXgX",
"gXgXgXgXgXgXgXgXgXgXgXgX+ + $.$X|.|.}.|.|.}.|.}.}.}.}.|.}.}.|.|.|.|.}.}.|.}.|.|.|.}.|.|.|.|.|.#XA X $ gXgXgXgXgXgXgXgXgXgXgXgXgX",
"gXgXgXgXgXgXgXgXgXgXgXgX+ + a.%X|.}.|.}.|.|.|.|.}.}.|.}.|.}.}.|.|.{.}.}.}.|.|.|.|.|.|.}.|.|.|.OXG X $ gXgXgXgXgXgXgXgXgXgXgXgXgX",
"gXgXgXgXgXgXgXgXgXgXgXgX+ O M.%X}.|.}.|.|.|.|.|.|.}.|.|.|.|.|.|.|.|.|.|.|.}.|.|.|.}.}.|.|.|. XOXG . @ gXgXgXgXgXgXgXgXgXgXgXgXgX",
"gXgXgXgXgXgXgXgXgXgXgXgX+ + a.%X|.|.|.}.|.|.|.|.|.|.}.|.}.|.}.|.|.|.}.|.|.|.|.|.|.|.|.|.|.}.|.@XG . @ gXgXgXgXgXgXgXgXgXgXgXgXgX",
"gXgXgXgXgXgXgXgXgXgXgXgX+ O a.+X|.|.|.|.|.|.|.|.|.|.|.|.}.|.}.|.}.|.}.|.|.|.|.|.|.|.|.|.|.|.|.oXG X $ gXgXgXgXgXgXgXgXgXgXgXgXgX",
"gXgXgXgXgXgXgXgXgXgXgXgX$ + O.$X|.|.|.|.|.|.|.|.|. X|.|.|.|.|.|.|.}.|.}.|.|. X|.|.|.|.}.|.|.|.U.d X $ gXgXgXgXgXgXgXgXgXgXgXgXgX",
"gXgXgXgXgXgXgXgXgXgXgXgX@ + O.T.|.|.|.|.}.|.(.U.j.j.j.x.|.|.}.|.|.|.|.}.Y.l.j.j.j.U..X|.|.|.).c.d X $ gXgXgXgXgXgXgXgXgXgXgXgXgX",
"gXgXgXgXgXgXgXgXgXgXgXgX+ O +.(.oX|.|.|.|.|.f.M.W.W.4XW.(.).|.|.|.|.|.[.s.Z.4XW.4XQ.(.|.|.|.}.P.d O $ gXgXgXgXgXgXgXgXgXgXgXgXgX",
"gXgXgXgXgXgXgXgXgXgXgXgX+ O O.T.|.|.|.|.|.oXO._ dXdXdXaXC.x. X}.|.|..XR.g 2XdXdXdXrXh.{.|.|./.P.d X $ gXgXgXgXgXgXgXgXgXgXgXgXgX",
"gXgXgXgXgXgXgXgXgXgXgXgX$ + O.v.l.[.|.|.|.oXO._ dXdXdXuX/ V.oX}.|.}..XY.D 2XdXdXdX2XD [.@XY.k.c.V X $ gXgXgXgXgXgXgXgXgXgXgXgXgX",
"gXgXgXgXgXgXgXgXgXgXgXgX& + @.v.k.[..X}.|.oXY ( dXdXdXtXh s.@X|.}.|.oXR.g 2XdXdXdX2Xi [.XXY.g.c.V O $ gXgXgXgXgXgXgXgXgXgXgXgXgX",
"gXgXgXgXgXgXgXgXgXgXgXgX+ + +.K.l.!.}.}.}.oXs.,.yXyXyX3X) S.oX}.|.}.|.[.O.1XtXyXtX1XW [..XG.l.v.V X $ gXgXgXgXgXgXgXgXgXgXgXgXgX",
"gXgXgXgXgXgXgXgXgXgXgXgX+ # } :.z.g.R. X}.|.@XF.v f p K [. X}.|.|.}.|.|.oX1.p j p 1.OX|.D.g.z.l.V X @ gXgXgXgXgXgXgXgXgXgXgXgXgX",
"gXgXgXgXgXgXgXgXgXgXgXgX$ $ & & 2 ] K.XX|.}..X[.S.V.V.F.|..X}.|.|.|.|.}.oXH.V.S.V.H.oXXXw.l % 2 : + $ gXgXgXgXgXgXgXgXgXgXgXgXgX",
"gXgXgXgXgXgXgXgXgXgXgX$ + . N R J 4.K.~.|.|.}.|.@X@X@X.X|.}.|.}.|.}.|.}.}. XOXOXOX.X[.G.L.>.S C = . $ $ gXgXgXgXgXgXgXgXgXgXgXgX",
"gXgXgXgXgXgXgXgXgXgX$ + $ 2 V.=X+XXXG.D.|.|.|.|.}.}.}.}.|.|.|.|..X|.}.|.|.|.}.}.|.|./.D.!.&X+X$XK $ + $ gXgXgXgXgXgXgXgXgXgXgXgX",
"gXgXgXgXgXgXgXgXgXgX$ O 2 d.(..X).).).[.}.|.}.|.|.}.}.}.|.|.|.|.|.|.}.|.|.|.|.|.|.}.|.}.^.).).|.T.O.O + gXgXgXgXgXgXgXgXgXgXgXgX",
"gXgXgXgXgXgXgXgXgX+ O s s.Y.n.:XsXsX7X~.|.}.|.}.}.|.}.|.|.|.#X|.B V.*X}.[.|.}.|.|.|.}.).wXdXaX).n.G.O.4 O gXgXgXgXgXgXgXgXgXgXgX",
"gXgXgXgXgXgXgXgXgX$ . J ].|.6XeXaXpX5X~.|.}.|.|.|.|.|.|.|.#XH.E   8 S.#X|.|.|.}.}.|.[.).qXpXiXwX>X].U.5 O @ gXgXgXgXgXgXgXgXgXgX",
"gXgXgXgXgXgXgXgXgX$ . R +X).pXiXb.n.).|.|.|.|.}.|.}.{.|..X|.E . > O 8 H.|.oX}.|.|.|.|.|._.x. XsX9X'.[.5 O $ gXgXgXgXgXgXgXgXgXgX",
"gXgXgXgXgXgXgXgXgX$ . H #X|. X X}.}.|.}.|.|.}.|.|.}.}. X+XJ   & ] w   9 H.#X}.|.}.|.|.|.|.).|.-X|.oXH.5 O @ gXgXgXgXgXgXgXgXgXgX",
"gXgXgXgXgXgXgXgXgX$ X F _.|.)./.}.}.|.|.}.|.|.|.}.}.%X|.J # & ' 0.] q   5 S.*X}.}.|.|.|.|.|.|.^.|..XF.6 O $ gXgXgXgXgXgXgXgXgXgX",
"gXgXgXgXgXgXgXgXgX$ O z L.|.XX|.|.|.|.|.|.|.|.|..X#XH.E   & ` 0.[ =.] w   8 F.@XXX|.|.|.|.|.{..XXXR.*.q O gXgXgXgXgXgXgXgXgXgXgX",
"gXgXgXgXgXgXgXgXgXgXO e -.R.}.R.|.(.|.|.|.|.|.).R..XE . : { ;.[ [ [ | [ q   6 H.{./.|.|.|.|.{.R.|.K.{ > gXgXgXgXgXgXgXgXgXgXgXgX",
"gXgXgXgXgXgXgXgXgXgXgX@ q o.0.q.T.U.|.#X+X#X'.K.9.k o > ] | =.| | | | 0.| w o 9 o.q./.@X%X.Xc.:.0.' : gXgXgXgXgXgXgXgXgXgXgXgXgX",
"gXgXgXgXgXgXgXgXgXgXgXgX& b y a D C A H J H G z t $ . > k k w 0 t t t t l q O O 0 k C J H G g t ` k gXgXgXgXgXgXgXgXgXgXgXgXgXgX",
"gXgXgXgXgXgXgXgXgXgXgXgXgXj <   . X X . . . X X X @ $ @ X X 1 8 # X X X X + : O X X X . X X X . 5 gXgXgXgXgXgXgXgXgXgXgXgXgXgXgX",
"gXgXgXgXgXgXgXgXgXgXgXgXgXgXgXgXgXgXgXgXgXgXgXgXgXgXgXgXgX. E }.9 O @ + @ @ + : + : : gXgXgXgXgXgXgXgXgXgXgXgXgXgXgXgXgXgXgXgXgX",
"gXgXgXgXgXgXgXgXgXgXgXgXgXgXgXgXgXgXgXgXgXgXgXgX$ $ $ @ X   E !.2 . + + + + , j : O + $ gXgXgXgXgXgXgXgXgXgXgXgXgXgXgXgXgXgXgXgX",
"gXgXgXgXgXgXgXgXgXgXgXgXgXgXgXgXgXgXgXgXgXgXgX+ O . O , I S t.!.I S N - + + , i i 6 4 $ @ gXgXgXgXgXgXgXgXgXgXgXgXgXgXgXgXgXgXgX",
"gXgXgXgXgXgXgXgXgXgXgXgXgXgXgXgXgX$ # @ @ + + : s s , < i.p.r.U u.p.r.U - @ + + p / L $ + @ gXgXgXgXgXgXgXgXgXgXgXgXgXgXgXgXgXgX",
"gXgXgXgXgXgXgXgXgXgXgXgXgXgX$ $ $ @ + @ $ + . s [.%X! X @ m s $ N Z ~ y.P 6 O $ u >...* + $ gXgXgXgXgXgXgXgXgXgXgXgXgXgXgXgXgXgX",
"gXgXgXgXgXgXgXgXgXgXgXgXgX$ $ O O i M.! X N.N 1 T.=Xa.X + m 8 + n i.y.p.p.m # $ & L ..% + $ $ gXgXgXgXgXgXgXgXgXgXgXgXgXgXgXgXgX",
"gXgXgXgXgXgXgXgXgXgXgXgXgX$ O - D 3 2.C.D C.%.D &.I.K X + m 7 @ n ~ t.y.A.P * @ . v ..@ O $ $ gXgXgXgXgXgXgXgXgXgXgXgXgXgXgXgXgX",
"gXgXgXgXgXgXgXgXgXgXgXgXgX$ + K g.5 c B.U.4.C.D.3.4.x O @ m 7 $ n Z ~ p.p.r.M @ O c >.4 @ $ $ gXgXgXgXgXgXgXgXgXgXgXgXgXgXgXgXgX",
"gXgXgXgXgXgXgXgXgXgXgXgX+ + c 3.3.d.H.}.|.[.[.}.[.T.F O + M 7 $ n e.p.p.p.p.Q @ X z 3.j , + $ gXgXgXgXgXgXgXgXgXgXgXgXgXgXgXgXgX",
"gXgXgXgXgXgXgXgXgXgXgXgX+ + +.K.g.R..X_.~.n.}. X.X$XW   O m 7 # n r.p.p.p.A.e.@ . f 4.>.q O $ gXgXgXgXgXgXgXgXgXgXgXgXgXgXgXgXgX",
"gXgXgXgXgXgXgXgXgXgXgXgX+ + $.v.k.{.|.-X7X7X>X).|.d.i @ s P M 6 n r.p.p.p.p.i.# . f 4.4.i X $ gXgXgXgXgXgXgXgXgXgXgXgXgXgXgXgXgX",
"gXgXgXgXgXgXgXgXgXgXgXgX$ O O.c.k./.~.5XdXdXqXn..Xs   9 u.I M Z M ~ u.t.u.A.Q $ X f 4.3.i O $ gXgXgXgXgXgXgXgXgXgXgXgXgXgXgXgXgX",
"gXgXgXgXgXgXgXgXgXgXgXgX+ + $.v.S.[.~.5XdXdXqX`.+Xs . @ < 1 % * : 1 1 2 Z y.i.$ . z 4.3.i O $ gXgXgXgXgXgXgXgXgXgXgXgXgXgXgXgXgX",
"gXgXgXgXgXgXgXgXgXgXgXgX+ + O.U.k./.n.5XdXwX,X/.G 1 X #   X X X X . X + * P P @ O a 4.B.u X $ gXgXgXgXgXgXgXgXgXgXgXgXgXgXgXgXgX",
"gXgXgXgXgXgXgXgXgXgXgXgX+ O +.c.D.).~.7XdX;Xz.E . : 4 3 h h h h h h 9 + + = ; + . f B.l.d O $ gXgXgXgXgXgXgXgXgXgXgXgXgXgXgXgXgX",
"gXgXgXgXgXgXgXgXgXgXgXgX+ + b 6.k.}.~.7XdX,XF   @ u j / 7.8.8.8.8.1X( & + @ $ : O D P.D.s O $ gXgXgXgXgXgXgXgXgXgXgXgXgXgXgXgXgX",
"gXgXgXgXgXgXgXgXgXgXgXgX@ + ' :.l.[.|. X>X%XF   @ j / x / L ,.Z.8.2.p + O   ,  .>.&.D.6.u X gXgXgXgXgXgXgXgXgXgXgXgXgXgXgXgXgXgX",
"gXgXgXgXgXgXgXgXgXgXgXgX$ $ 0  .l.[.|.).~.oXV.s @ , u j j j / ( ^ 5 % : p c X.B.6.q.&.v : $ gXgXgXgXgXgXgXgXgXgXgXgXgXgXgXgXgXgX",
"gXgXgXgXgXgXgXgXgXgXgXgX$ $   s U.|.|.}.).).].s.+ . 3 L u u p i O . . : 3.3.<.D.>. .c + O gXgXgXgXgXgXgXgXgXgXgXgXgXgXgXgXgXgXgX",
"gXgXgXgXgXgXgXgXgXgXgXgXgX$ X d P.}.|.}.}.|.+XV.@ O i j & @ @ @ $ $ + : >.f 2 3.3 O : $ gXgXgXgXgXgXgXgXgXgXgXgXgXgXgXgXgXgXgXgX",
"gXgXgXgXgXgXgXgXgXgXgXgXgX$ O d P.}.^.:XpXsX0XY.N.< X 4 @ gXgX: K 3.c @ 3 : $ 3 : + gXgXgXgXgXgXgXgXgXgXgXgXgXgXgXgXgXgXgXgXgXgX",
"gXgXgXgXgXgXgXgXgXgXgXgXgX$ X V U.(.~.6XdXdX9X`.+XM.6 O @ gXgX: c  .p gXgXgXgXgX@ gXgXgXgXgXgXgXgXgXgXgXgXgXgXgXgXgXgXgXgXgXgXgX",
"gXgXgXgXgXgXgXgXgXgXgXgXgX@ X g c.{.).:XsXfX7X~.}.=X#.O @ gXgX$ + O + gXgXgXgXgXgXgXgXgXgXgXgXgXgXgXgXgXgXgXgXgXgXgXgXgXgXgXgXgX",
"gXgXgXgXgXgXgXgXgXgXgXgXgXgXX w 9.{.XX|. X X X|.}.%X! O $ gXgXgXgXgXgXgXgXgXgXgXgXgXgXgXgXgXgXgXgXgXgXgXgXgXgXgXgXgXgXgXgXgXgXgX",
"gXgXgXgXgXgXgXgXgXgXgXgXgXgX@ & w 9.E.'.+X].+X#X%X<XW X gXgXgXgXgXgXgXgXgXgXgXgXgXgXgXgXgXgXgXgXgXgXgXgXgXgXgXgXgXgXgXgXgXgXgXgX",
"gXgXgXgXgXgXgXgXgXgXgXgXgXgXgXO + r X.T a.#.#.#.1.$.s gXgXgXgXgXgXgXgXgXgXgXgXgXgXgXgXgXgXgXgXgXgXgXgXgXgXgXgXgXgXgXgXgXgXgXgXgX",
"gXgXgXgXgXgXgXgXgXgXgXgXgXgXgXgXgX$ + $ @ $ $ @ @ $ gXgXgXgXgXgXgXgXgXgXgXgXgXgXgXgXgXgXgXgXgXgXgXgXgXgXgXgXgXgXgXgXgXgXgXgXgXgX"
};
