/* XPM */
static char *_0a53fda179b4fbcd2c5e46337ce18a345k0FizUeAYBkkQL[] = {
/* columns rows colors chars-per-pixel */
"64 64 218 2 ",
"   c None",
".  c #030016",
"X  c #0E0017",
"o  c #0D0119",
"O  c #14011A",
"+  c #1B041C",
"@  c #1D091C",
"#  c #150316",
"$  c #2A051E",
"%  c #21081D",
"&  c #2B0C1F",
"*  c #25021C",
"=  c #2B141E",
"-  c #2A171E",
";  c #330E1F",
":  c #2F211E",
">  c #322A1E",
",  c #280C21",
"<  c #320D20",
"1  c #3B0B22",
"2  c #2B1321",
"3  c #2D1A22",
"4  c #331C23",
"5  c #381724",
"6  c #342123",
"7  c #3A2424",
"8  c #3A2C25",
"9  c #3B3126",
"0  c #3E382A",
"q  c #3C3729",
"w  c #4F371B",
"e  c #460524",
"r  c #500A26",
"t  c #461624",
"y  c #561627",
"u  c #411D3E",
"i  c #641829",
"p  c #771A2E",
"a  c #432B25",
"s  c #422B2A",
"d  c #472529",
"f  c #542729",
"g  c #4C3424",
"h  c #47352A",
"j  c #493828",
"k  c #523826",
"l  c #593533",
"z  c #6A282B",
"x  c #693532",
"c  c #6B3B32",
"v  c #663835",
"b  c #713030",
"n  c #4E401E",
"m  c #46452E",
"M  c #46492F",
"N  c #564327",
"B  c #4A4D31",
"V  c #5A4A32",
"C  c #5E5232",
"Z  c #4B572B",
"A  c #694C27",
"S  c #664A28",
"D  c #69562C",
"F  c #76572C",
"G  c #62493A",
"H  c #7E4E3D",
"J  c #675934",
"K  c #7B512F",
"L  c #576627",
"P  c #596B32",
"I  c #7B632E",
"U  c #7B6530",
"Y  c #796733",
"T  c #7B722A",
"R  c #5A3645",
"E  c #603C45",
"W  c #5B424E",
"Q  c #714C50",
"!  c #841528",
"~  c #8A2632",
"^  c #9B2A34",
"/  c #8C3935",
"(  c #993534",
")  c #A92D37",
"_  c #A63738",
"`  c #B53A3A",
"'  c #B52939",
"]  c #D23F3E",
"[  c #846B1F",
"{  c #854634",
"}  c #825138",
"|  c #925B37",
" . c #B65A3B",
".. c #AF5132",
"X. c #927D36",
"o. c #8C7131",
"O. c #AE7639",
"+. c #C6593E",
"@. c #C1433C",
"#. c #C2763E",
"$. c #926942",
"%. c #8D784A",
"&. c #9A7843",
"*. c #A96643",
"=. c #B76E47",
"-. c #B86E46",
";. c #BA7547",
":. c #AE7145",
">. c #865D61",
",. c #866A78",
"<. c #8D737B",
"1. c #91766E",
"2. c #CD5440",
"3. c #E84944",
"4. c #D66F41",
"5. c #728E3E",
"6. c #6E8839",
"7. c #7C9C45",
"8. c #7E9E48",
"9. c #789642",
"0. c #7FA149",
"q. c #7FA247",
"w. c #978838",
"e. c #96892A",
"r. c #A78E3B",
"t. c #AD943B",
"y. c #A39837",
"u. c #B49D3C",
"i. c #B08A33",
"p. c #B5A23D",
"a. c #B6AD3D",
"s. c #BAA43F",
"d. c #BBB23C",
"f. c #BCBD2E",
"g. c #C4993D",
"h. c #C4AA3F",
"j. c #C6B13E",
"k. c #C7B73A",
"l. c #C8C33B",
"z. c #978D45",
"x. c #9B9445",
"c. c #9E9A46",
"v. c #968359",
"b. c #B98644",
"n. c #A09B45",
"m. c #AF8247",
"M. c #81A44A",
"N. c #87AE4D",
"B. c #8EB751",
"V. c #A6A348",
"C. c #ADAB4A",
"Z. c #BCAC42",
"A. c #B7A848",
"S. c #B5B34A",
"D. c #BDB749",
"F. c #BFB050",
"G. c #C58B48",
"H. c #D78345",
"J. c #C99845",
"K. c #DE9E4B",
"L. c #C5AB4B",
"P. c #C5B240",
"I. c #C6BC44",
"U. c #C3BD4C",
"Y. c #CCB949",
"T. c #C7B654",
"R. c #D1B44F",
"E. c #BDCA49",
"W. c #C3C443",
"Q. c #CBCD43",
"!. c #C4C44C",
"~. c #CCC44D",
"^. c #C6C94C",
"/. c #CAC849",
"(. c #D1CB48",
"). c #C9D248",
"_. c #D8D647",
"`. c #C5C552",
"'. c #C7C852",
"]. c #C8CA53",
"[. c #CBCC5A",
"{. c #CCD156",
"}. c #CBDA57",
"|. c #D2D556",
" X c #D6DA58",
".X c #DADE59",
"XX c #D2D65A",
"oX c #D1CF54",
"OX c #E1DF52",
"+X c #DCE25A",
"@X c #E5EA5C",
"#X c #D6D766",
"$X c #D5D576",
"%X c #DEE472",
"&X c #E9EC68",
"*X c #E3E47C",
"=X c #8B7081",
"-X c #D2BC87",
";X c #E5A5A9",
":X c #DCDB89",
">X c #DBDD91",
",X c #DEDF99",
"<X c #E6D78F",
"1X c #DDE68E",
"2X c #DDE394",
"3X c #E8E69E",
"4X c #E5E5AE",
"5X c #E3E6A6",
"6X c #E9EAB8",
"7X c #F9FEB9",
"8X c #E2DCDF",
"9X c #FFD9CE",
"0X c #EBEAC5",
"qX c #F2F2CA",
"wX c #F1F1D6",
"eX c #F8F6E7",
"rX c white",
"tX c #FBFAF4",
/* pixels */
"                                            , + % % + , % % % % % % % % % + % % @                                               ",
"                                      %   % + O o O O o X X X X X X X o O O o O + %   %                                         ",
"                                      % + O * 1 t 8 a a a h h h h h h h a a d e * O + @ %                                       ",
"                                  % % + + O , ^ #.p.u.t.A.`.`.`.`.`.`.D.u.p.i.) 1 X @ @ % %                                     ",
"                                % % O O S w.z.J.R./.~.~.^.Q.Q.Q.Q.Q.).l.k.l.j.g.x.w.D + O % %                                   ",
"                                @ @ $ y r..X+X}.{.[.[.Q.[.>X>X>X>X>X>X>X2X2X2X1X+X_.A.z , + %                                   ",
"                                % o t ] L.}.].].'.].].!.>XrXrXrXrXrXrXrXrXrXrXtX:X).R.2.i o %                                   ",
"                              % * . 7 u.Y.[.].].].^.^.4XrXrXrXrXrXrXrXrXrXrXrXrXrX5XI.g.g . % %                                 ",
"                              @ @ e / s.].].].].'.`.^.,X0X4X4X4X4X4X4X4X4X4X4X4X0X>XW.^.| r % @ %                               ",
"                              + O ~ #.u.!.{.].].].].].^.W.W.W.I.W.W.W.W.W.l.W.W.W.!.[.}.H.^ % + %                               ",
"                              + O I h.s.U.].].].].].].'.'.'.].].].'.].^.].].].].'.'.'.'.Y.o.+ + @                               ",
"                              + + U j.u.U.[.].].].'.].].'.'.].].].].].].].`.].'.'.'.'.{./.o.% + %                               ",
"                              % O U P.s.U.].'.].].].].].].`.].].'.].].].].].].].[.'.{.[.(.X.% + %                               ",
"                              + + U P.u.U.[.].].].'.].'.].'.].].].'.].].].'.].].'.'.].'..Xx.+ + %                               ",
"                              + O U P.p.U.[.].'.].].'.].].].].'.].'.].].].].].].{.{.[.'.+Xx.@ + %                               ",
"                              % + U P.p.!.].].].'.'.].].].'.].].'.].].'.].~.U.d.d.d.d.'.+Xx.@ O %                               ",
"                              + + U j.u.U.[.].].].].].].].'.].].].].].].'.A.t.A.A.A.F.^..Xx.+ + @                               ",
"                              % O U P.s.U.[.].].].'.].'.'.].'.].].].].].].I 1.eXeXeX0XT._.c.% + %                               ",
"                              + O U P.u.!.{.].].].].].].].].].].].].~.{.[.A ,.rXrXrX8X%.a.n.% O %                               ",
"                              + + U P.u.U.~.].].'.].].].].'.].'.].].].|.].A ,.rXrXrX8XR r.V.% + %                               ",
"                              % + Y j.s.u.D.].].].].].].'.].].].'.'.].].].A ,.rXrXrX8XE r.C.@ O %                               ",
"                              + O T k.s.t.P.[.].].].].].].].].'.].].].].].S.v.<.,.=X<.z./.n.@ + %                               ",
"                              + O } g.s.p.s.!.].].].].[.{.|.|.|.|.|.{.].].+XC.A S S } oX@Xx.% O %                               ",
"                              + + p +.p.s.u.A.U.].].].`.`.`.`.'.`.`.].].`.~.].].].].{.^..Xx.% + +                               ",
"                              % + $ z 2.J.a.p.Z.I.Y.G.$.N 6 6 6 7 G $.:.:.L.}.[.[.].{.]..Xx.% + %                               ",
"                              % % o , p  .J.d.j.w.S x b x g j n N Y &.m.m.A.!.].].].].]..Xx.% # %                               ",
"                                % % + O !  .y.u.V . o c G.j.#X%X#XXX].{.{.Z.Z.].].].].]..Xx.% + %                               ",
"                                  % % @ < 5 4 6 2 O o F j.W.qXrXeX#XQ.].].`.`.].].].'.'..Xx.% + %                               ",
"                                              O O 2 S y.$XqX6X4X4X[.^.'.].].].].^.'.].]..Xx.@ + %                               ",
"                                              @ o a P.Q.1XeX$Xf.W.'.].].].].].].].].'.]..Xn.% + %                               ",
"                                              % O a D.|.].[.].].'.'.'.].].'.].].].].'.`.@Xx.% O %                               ",
"                                              % X s E.#X^.!.].].].].].].'.].].].].].[.@Xz.7 + + %                               ",
"                                              @ o a S.|.].].].].'.].].`.].].].].'.|.].n.8 . 4 2 @                               ",
"                                              % O 7 t.U.].].].].].].].'.].].].'.].|.V.2 X 4 v 5 O                               ",
"                                              % o t 2.J.E.}.|.].[.].].].].].'.].@Xx.3 . y ` ` t O                               ",
"                                                + , i ..4.J.Y./.~.|..X X X X+X|.x.9 X i ` 3.@.y o                               ",
"                                                  + o p ' ) o.w.r.C.C.C.C.C.D.C.6 . ; _ ` _ _ t O                               ",
"                                                    @ & < < 5 5 3 6 3 , 4 4 6 4 % @ % < < < & & @                               ",
"                                                                  X V J O o                                                     ",
"                                                                  o c.].2                                                       ",
"                                                          % % % + X z.S.,                                                       ",
"                                                        % + O # O + s j %                                                       ",
"                                                      + % : h M j > @ X @                                                       ",
"                                                    % + : L 9.N.7.P > + %                                                       ",
"                                    @ @             % O 9 9.0.0.q.q.m # %                                                       ",
"                                  % @ O O           % O 0 M.q.7.7.6.q + %                                                       ",
"                                % + - 7 t , @       % O 0 0.0.0.9.L > + %                                                       ",
"                                @ O a r.+.p + +     % O q 8.q.7.q.q.M O %                                                       ",
"                              % % . a j.K.K . o + % % O 0 N.q.7.M.N.B # %                                                       ",
"                              + % - D s.I.w.j j 3 O O + 9 6.7.q.M.N.B O %                                                       ",
"                              + O U d.p.D.{.'.P.A O % + : Z 5.q.7.M.M O %                                                       ",
"                              @ # / H.S.^.{.{.|.y.[ X.4 # L q.B.0.j , + %                                                       ",
"                              % + r ( 4.~.}.].^.:X<XY.} 5 > M L B @ X + %                                                       ",
"                              % @ o 1 ) J.{.].W.6XeXT.i.{ & @ * % + , 2 @                                                       ",
"                                @ @ + 1 _ H.W.|..X>XtX-Xe.r.e...! # W >.,                                                       ",
"                                    @ O r z S J y.&X7X*Xl.(.3X9X;Xz.W u O +                                                     ",
"                                      % O o O . C S.y.c.S.XXqXrXwX&XT - 8 2 +                                                   ",
"                                        @ % % @ % - - + C |.Y.L.L.h.T.`.p.g O + @ + % %                                         ",
"                                              % + O O X 3 V N w w g X.K.#.f @ 7 s 2 o O O o o +                                 ",
"                                                % % @ % @ . . o X . d / ^ 1 4 Q H v d t g N k 3 @                               ",
"                                                  % % % , , % , , % + @ * O f *.*.*.*.*.b.P.Z.j o +                             ",
"                                                % @ + + 3 l >.Q s , + O # 5 } ;.-.=.=.=.;.G.b.d o ,                             ",
"                                                  % % @ 2 d Q Q t , + % % 5 l c c c c c x x x < +                               ",
"                                                    % % @ + + @ @ @ % % % % + , % % + % % % + , @                               "
};
