/* XPM */
static char *_290799b26f647708b3f0d1d44b49ce4zzcFbJ4nACB8v7vB[] = {
/* columns rows colors chars-per-pixel */
"64 64 215 2 ",
"   c None",
".  c #030015",
"X  c #0D0017",
"o  c #070018",
"O  c #0E0019",
"+  c #080A18",
"@  c #12011A",
"#  c #1B041C",
"$  c #1E091E",
"%  c #150116",
"&  c #0E0911",
"*  c #20081D",
"=  c #28081E",
"-  c #30051F",
";  c #26131C",
":  c #3B391E",
">  c #280E21",
",  c #250C20",
"<  c #330E21",
"1  c #390721",
"2  c #2C1322",
"3  c #2C1C22",
"4  c #331523",
"5  c #331B23",
"6  c #3A1D28",
"7  c #362124",
"8  c #3D2525",
"9  c #393124",
"0  c #2F2324",
"q  c #450010",
"w  c #4D3F1F",
"e  c #4F0B26",
"r  c #5A0A28",
"t  c #4B1425",
"y  c #421726",
"u  c #561727",
"i  c #6B162B",
"p  c #432524",
"a  c #432B24",
"s  c #4C2B2A",
"d  c #522E2D",
"f  c #4B3425",
"g  c #46342A",
"h  c #4F3C2D",
"j  c #48362A",
"k  c #513F2C",
"l  c #56312B",
"z  c #472C37",
"x  c #5B3738",
"c  c #5F2E30",
"v  c #75262E",
"b  c #662F33",
"n  c #663C36",
"m  c #75362F",
"M  c #73591C",
"N  c #424420",
"B  c #444528",
"V  c #53432D",
"C  c #56472B",
"Z  c #57552F",
"A  c #664628",
"S  c #67542C",
"D  c #72592C",
"F  c #6A473B",
"G  c #774A3A",
"H  c #635431",
"J  c #665A35",
"K  c #5C6937",
"L  c #59682C",
"P  c #79652C",
"I  c #7A712C",
"U  c #796936",
"Y  c #667A3C",
"T  c #7E753B",
"R  c #6C4749",
"E  c #6A7F40",
"W  c #5B5161",
"Q  c #87261D",
"!  c #8B172E",
"~  c #8A2C31",
"^  c #942431",
"/  c #973234",
"(  c #8F3032",
")  c #A92637",
"_  c #A63A37",
"`  c #B73B3A",
"'  c #875938",
"]  c #865434",
"[  c #AA4639",
"{  c #876731",
"}  c #887937",
"|  c #917936",
" . c #927A29",
".. c #A76F32",
"X. c #C6513D",
"o. c #C5763E",
"O. c #985A40",
"+. c #A35A43",
"@. c #8F7244",
"#. c #A76743",
"$. c #B26746",
"%. c #A97843",
"&. c #B57746",
"*. c #876B7B",
"=. c #907173",
"-. c #AA677B",
";. c #D74741",
":. c #EA4943",
">. c #CF7945",
",. c #6B8535",
"<. c #76953F",
"1. c #7C9C47",
"2. c #7D9D48",
"3. c #7FA149",
"4. c #8D863F",
"5. c #97863A",
"6. c #9F913B",
"7. c #A88438",
"8. c #BC853D",
"9. c #AD953D",
"0. c #B39C3B",
"q. c #B6983C",
"w. c #B6A33D",
"e. c #BBA33C",
"r. c #BAAA3E",
"t. c #BCB33D",
"y. c #B4B03D",
"u. c #B7AD34",
"i. c #C18A3D",
"p. c #C09F3D",
"a. c #C6A83E",
"s. c #C6BA3B",
"d. c #BFC035",
"f. c #C4C23D",
"g. c #8D8942",
"h. c #8A8440",
"j. c #9A8953",
"k. c #BB8A49",
"l. c #B49349",
"z. c #AC9045",
"x. c #81A34A",
"c. c #85AB4B",
"v. c #85AB4A",
"b. c #89B24E",
"n. c #8DB84F",
"m. c #ADA948",
"M. c #B2AE4A",
"N. c #BAA746",
"B. c #BDB146",
"V. c #BCBA45",
"C. c #BAB64C",
"Z. c #BCBA50",
"A. c #CC8544",
"S. c #D48346",
"D. c #CA9E4B",
"F. c #E38F45",
"G. c #C5A943",
"H. c #C2BA4C",
"J. c #C8BA46",
"K. c #C9B954",
"L. c #D3B14F",
"P. c #BEC44C",
"I. c #C3C443",
"U. c #CBCE43",
"Y. c #C5C44C",
"T. c #CBC44D",
"R. c #C9CA4D",
"E. c #D5CB4A",
"W. c #D9D547",
"Q. c #C5C552",
"!. c #C7C853",
"~. c #C8CA53",
"^. c #CBCD5B",
"/. c #C9C751",
"(. c #D7CD54",
"). c #CDD255",
"_. c #CAD556",
"`. c #D1D455",
"'. c #D5DA56",
"]. c #D6DB59",
"[. c #D9DC58",
"{. c #C8D147",
"}. c #DDE35B",
"|. c #DCE255",
" X c #E1E75B",
".X c #D8CB7B",
"XX c #D5D67B",
"oX c #D2D566",
"OX c #DDE26D",
"+X c #DCE874",
"@X c #907685",
"#X c #B49F8C",
"$X c #EF9689",
"%X c #DBDC8F",
"&X c #D7D882",
"*X c #DCDD90",
"=X c #E2CF88",
"-X c #DEE192",
";X c #DBE992",
":X c #EEF386",
">X c #E3E790",
",X c #D4C9BA",
"<X c #E5E5AE",
"1X c #E5E6A9",
"2X c #E6E6B0",
"3X c #E8E9B9",
"4X c #DED6D9",
"5X c #E1DADD",
"6X c #F2EEDD",
"7X c #F3F4D7",
"8X c #EFF1C8",
"9X c #DFD8E3",
"0X c #F8F7E6",
"qX c #FFFFFF",
"wX c #FFFFF7",
/* pixels */
"                                            $ * * $ * * * $ * * * * $ $ * $ $ * $ $                                             ",
"                                        * * * @ O @ @ @ O X X X X X X O @ @ @ O # = * $                                         ",
"                                      * $ # # 1 t a a a a g g g j g f g a 8 a t - % # # *                                       ",
"                                    * * $ % O i X.9.w.9.0.Z.Q.Q.Q.Q.Q.Q.r.0.9.X.i X # * * *                                     ",
"                                  * * o 9 } g.z.L.J./.T.T.U.U.U.U.U.U.U.f.f.s.a.9.4.| 9 o * *                                   ",
"                                $ $ * 1 ' E.|.|._.~._.R.R.&X%X*X%X%X%X%X-X-X-X>X+XW.E.' 1 * $ $                                 ",
"                                * $ = ^ S.).~.~.~.~.!.Y.^.6XqXqXqXqXqXqXqXqXqXqX3XR.`.>.^ * # $                                 ",
"                              * * @ @ { L.~.~.~.~.~.I.&XwXqXqXqXqXqXqXqXqXqXqXqXqX7XoXa.{ @ @ * *                               ",
"                              * # < i | R./.~.~.~.~.I.XX3X2X<X<X<X<X<X<X<X<X<X<X2X2X^.{.z.i - # *                               ",
"                              * @ t ;.q.V.~.~.~.~.~.~.Y.I.I.I.I.I.I.I.I.I.I.I.I.I.I.~._.L.X.t @ *                               ",
"                              * @ f q.e.B.^.~.~.~.~.~.~.~./.Q.Q./.!.R.!.~.!.R././.!.~._.T.q.f @ *                               ",
"                              * @ f r.e.B.~.~.~.~.~.~.~.~.~.~.~.~./.!.!.!.~.~.~.~./.!.^.Y.w.f O *                               ",
"                              * O f N.e.B.^.~.Q.~.~.!.~.~.!.~.!.~.!.!.~.~.!./.~.~.~.~.~./.B.f O *                               ",
"                              * O f 0.e.B.~.~.~.~.~.~.~.~.!.~.~.!.~.~.~.~.~././.~.!.~.~.)./.V O $                               ",
"                              * @ f w.e.B.~.~.~.~.~.!.~.~.~.~.~.~./.~.~.~.~.~.^.~.).).~.`.~.V X *                               ",
"                              * @ f w.e.B.~.~.~.~.~.Q.~.~.!.~.!.!.~.~.~.~.!.Y.V.t.t.y.Y.`.~.h O *                               ",
"                              * @ f 0.e.H.~.~.~.~.~.!.!.~.!.~.~.~.!.!.~.).B.9.m.N.N.N.Z.`.~.k X *                               ",
"                              * O f w.e.B.~.~.~.~.~.~.~.!.~.~.!.~.~.~.~.`.6.R ,X6X6X6X.Xs./.V O *                               ",
"                              * O f w.e.B.^.~.~.~.~.~.~.~.~.!.~.~.!.~.!.'.5.x 9XqXqXqX#X .!.V @ *                               ",
"                              * @ f w.e.B.Q.!.~.~./.~.~.!.~.~.~.~.~.!.!.].5.F 5XqXqXqX@XA !.C X *                               ",
"                              $ @ f e.e.0.N.Y.~.~.~.~.~.~.~.~.~.!.~.!.~.'.5.x 5XqXqXqX@XS /.C X *                               ",
"                              * @ j y.r.0.e.!.).~./.~.~.~.~.~.~.~.~.!.~.).C.j.=.*.*.=.=.M.~.V X *                               ",
"                              * O s 8.a.w.w.C./.~.~.~.~.).).).`.`.).).~.~.].).I A S A w. X~.h X *                               ",
"                              * @ t ` 8.r.w.0.H.^.~.~.~.Q.Q.Y.Y.Q.Q.Q.~.!.~.~.R.~.~.~.R.)./.V X $                               ",
"                              * # * t _ S.y.w.N.B.J.D.%.J z 5 7 7 h O.#.#.l._.^.^.).~.~.`.~.k X *                               ",
"                              * * # O r _ i.a.s.9.P n b m l f C k H @.z.%.z.H.~.~.~./.~.`.~.k X *                               ",
"                                  * $ o e ` 7.w.} $ . y ..G.~.OXOX].).).`.H.w.H.~.~.~.!.`.~.V X *                               ",
"                                    $ $ = < 5 7 4 * . a q.s.-XwXwX-XI.~.).Q.Q.~.~.~.~.~.)./.k X *                               ",
"                                              @ % # f | J.1X8X1X2XXXY.!.!.~.~.~.~.~.~.~.`./.k X *                               ",
"                                                # % | W.^.7X2Xd.d.Y.~.~.!.!.~.~.~.~.!.!.`.^.V X $                               ",
"                                                # # h.[.~.^.^.!.^.~.~.~.~.~.~.~.~.~.~.~.`.).k O *                               ",
"                                                # % g. X~.R.Y.~.~.~.~.~.~.~.~.~.~.~./. XZ.C ; @ *                               ",
"                                                % # } [.^.~.~.~.~.~.~.~.Q.~.~.~.~.~.].C.J o * 4 $                               ",
"                                                * % { J.!.~.~.~.~.!.~.~.~.~.~.~.~.~.^.Z X = x d *                               ",
"                                              * # # ( >.V.~._.).~.~./.~.~.Q.Q.Q.}.Q.C + = / ` v *                               ",
"                                                $ $ t / o.A.G.R.T.).[.].[.].[. XC.J @ 1 / X.:.^ *                               ",
"                                                  * o y ) ) [ 9.5.m.M.m.M.M.M.Q.H o @ v ` _ ` v *                               ",
"                                                    # * < < 2 ; 2 5 3 ; 2 5 5 7 ; $ $ = 4 - < = *                               ",
"                                                                  X 4 U 7 o                                                     ",
"                                                                  X C  XJ o                                                     ",
"                                                          * , # * X k ~.H o                                                     ",
"                                                        * # # @ % @ 2 V 5 #                                                     ",
"                                                      # * ; 9 B B 9 ; X # ,                                                     ",
"                                                    * , * N ,.b.c.,.N * # *                                                     ",
"                                                    * # ; K 3.3.x.v.Y $ % *                                                     ",
"                                                    * % , E b.1.1.1.Z * # *                                                     ",
"                                    * * # $         $ # * Y v.1.2.,.N * # *                                                     ",
"                                * * * * % # *       $ # , Y x.1.1.x.Y $ # *                                                     ",
"                                * $ * 4 c n # O     * # ; 1.3.1.1.b.E , # *                                                     ",
"                                * $ # x #.#.A ; @   * # = L 1.1.1.b.Y * # *                                                     ",
"                              * * % , ] $.#.G.S @ * * # * : Y 1.2.c.Y , % ,                                                     ",
"                              * # > z O.$.#.r.w.P z > # * : ,.b.n.K 3 * # *                                                     ",
"                              * # 3 n G ' #.%.a.G.| p @ * N L K K 7 o % $ *                                                     ",
"                              * # 4 x x G #.+.%.e.G.V O ; B : % @ * > 2 , $                                                     ",
"                              * % 4 R n n G #.&.&.&.l O * $ @ % % 6 R =.z @                                                     ",
"                              * $ , 5 p 7 y l b c c 4 # * r G S # # z R 6 #                                                     ",
"                              * * $ % # # % @ @ @ @ $ # * / F.w.C < = X X #                                                     ",
"                                * * * * * * * * * $ * % * | a.N.P.>.! # X # # # # * *                                           ",
"                                                  * # < ( 7.V.Y.`.L.k.g.g.} M Q q . @ @ @ O %                                   ",
"                                                  * O i X.i.P.`./._.|.}.|.OX=X$X-.W k p s C 5 #                                 ",
"                                                  * O t ` 8.H.~.~./.~./.f.-XqXqXqX0XH...k./.V X *                               ",
"                                                  * $ = t [ S.U.[.}.[.J.s.K..X:X:X:X[.(.(.E.k O *                               ",
"                                                    * # @ r m P T T I D D D M P I I T @.} D 5 # *                               ",
"                                                    $ $ * * * * * * * * # # $ # $ $ $ * * $ * *                                 "
};
