/* XPM */
static char *result[] = {
/* columns rows colors chars-per-pixel */
"64 64 216 2 ",
"   c #0A0007",
".  c #0A0008",
"X  c #040015",
"o  c #0E0017",
"O  c #0E0119",
"+  c #140015",
"@  c #13011A",
"#  c #1C041C",
"$  c #1D091C",
"%  c #170919",
"&  c #20081D",
"*  c #28061E",
"=  c #25141E",
"-  c #2B161F",
";  c #3F1A1D",
":  c #3C3A1D",
">  c #31271D",
",  c #270E20",
"<  c #320B20",
"1  c #370921",
"2  c #2D1222",
"3  c #2C1A21",
"4  c #321523",
"5  c #3A1A25",
"6  c #3C2427",
"7  c #48031C",
"8  c #4A0B25",
"9  c #431927",
"0  c #541526",
"q  c #660C29",
"w  c #69162B",
"e  c #422A24",
"r  c #4B2C2F",
"t  c #442727",
"y  c #5B2B2A",
"u  c #54242A",
"i  c #463329",
"p  c #463327",
"a  c #543C27",
"s  c #55342C",
"d  c #583D2B",
"f  c #4B2D35",
"g  c #5A3633",
"h  c #483535",
"j  c #74242D",
"k  c #73382E",
"l  c #643C35",
"z  c #663831",
"x  c #703232",
"c  c #41411F",
"v  c #454627",
"b  c #5B4A2C",
"n  c #564429",
"m  c #5D4E30",
"M  c #4F5332",
"N  c #525934",
"B  c #4B5029",
"V  c #6A4F2B",
"C  c #69552B",
"Z  c #6B592D",
"A  c #725C2D",
"S  c #674538",
"D  c #784938",
"F  c #6D5B30",
"G  c #546125",
"H  c #5A6734",
"J  c #5F7230",
"K  c #7D662E",
"L  c #6F6938",
"P  c #756B39",
"I  c #7A6735",
"U  c #667C38",
"Y  c #7E753B",
"T  c #593A46",
"R  c #4F3B4B",
"E  c #603E49",
"W  c #544255",
"Q  c #4C4058",
"!  c #6B474B",
"~  c #7A574C",
"^  c #7B5356",
"/  c #6E494E",
"(  c #851B30",
")  c #942E34",
"_  c #8F2E33",
"`  c #AA2E38",
"'  c #A33337",
"]  c #83453B",
"[  c #834938",
"{  c #8C543E",
"}  c #85523E",
"|  c #A74A37",
" . c #BC473C",
".. c #816B31",
"X. c #857A3B",
"o. c #947934",
"O. c #826B2F",
"+. c #A3793B",
"@. c #AC6730",
"#. c #C8503F",
"$. c #C9653F",
"%. c #9A5841",
"&. c #A35247",
"*. c #8A714F",
"=. c #A46242",
"-. c #AB6643",
";. c #AE6845",
":. c #B36B46",
">. c #BC7249",
",. c #AE7643",
"<. c #875F62",
"1. c #936868",
"2. c #93696E",
"3. c #AC7D7D",
"4. c #A37576",
"5. c #D34A41",
"6. c #D47F42",
"7. c #D26541",
"8. c #6A8437",
"9. c #708A3D",
"0. c #6B8040",
"q. c #7C9C46",
"w. c #7C9C48",
"e. c #728D43",
"r. c #968435",
"t. c #998939",
"y. c #B6853C",
"u. c #AB963A",
"i. c #B59D3B",
"p. c #BA953A",
"a. c #A58E38",
"s. c #B6A13D",
"d. c #BAA53F",
"f. c #B5AA3D",
"g. c #BDAE30",
"h. c #BDBA3A",
"j. c #ABA33C",
"k. c #C5813C",
"l. c #C3AE3F",
"z. c #C5BC3D",
"x. c #C1B12C",
"c. c #948A43",
"v. c #948B44",
"b. c #BA8546",
"n. c #A39D46",
"m. c #AA9B47",
"M. c #BA9846",
"N. c #86AB4B",
"B. c #83A749",
"V. c #8BB34E",
"C. c #8AB150",
"Z. c #ACA446",
"A. c #A3A048",
"S. c #BCA340",
"D. c #B9A947",
"F. c #BDB444",
"G. c #BBB747",
"H. c #BCA850",
"J. c #BDBB50",
"K. c #D18242",
"L. c #C99845",
"P. c #D99547",
"I. c #C78048",
"U. c #C5AB41",
"Y. c #C4B241",
"T. c #C4BA41",
"R. c #C2BC4C",
"E. c #CBBC4B",
"W. c #CBBB45",
"Q. c #C5BC51",
"!. c #CBB752",
"~. c #CDAF51",
"^. c #E5AD50",
"/. c #C8B96A",
"(. c #C5C545",
"). c #C5C549",
"_. c #CAC54D",
"`. c #C6C94D",
"'. c #CAC747",
"]. c #D1C84B",
"[. c #D3D44A",
"{. c #C6C451",
"}. c #C9C651",
"|. c #C7C851",
" X c #C8CA53",
".X c #CBCC5B",
"XX c #D0CD50",
"oX c #CCD255",
"OX c #CEDD57",
"+X c #D3D656",
"@X c #D5DA56",
"#X c #DADE59",
"$X c #D4DC58",
"%X c #DBE25A",
"&X c #E4F95F",
"*X c #CECF65",
"=X c #D5D674",
"-X c #D0D464",
";X c #B18283",
":X c #DDDE86",
">X c #D6D58A",
",X c #DEE091",
"<X c #E2E494",
"1X c #E4E6A8",
"2X c #DBD3DA",
"3X c #D0C4C0",
"4X c #EBEDC1",
"5X c #EEEECC",
"6X c #F9FAD7",
"7X c #ECF3C3",
"8X c #EDE8EA",
"9X c #F9F9ED",
"0X c #F7F5EB",
"qX c #FFFFFE",
"wX c #FAFAF0",
"eX c None",
/* pixels */
"eXeXeXeXeXeXeXeXeXeXeXeXeXeXeXeXeXeXeXeXeXeXeX& & & & & $ & & & & & $ & & $ , # & eXeXeXeXeXeXeXeXeXeXeXeXeXeXeXeXeXeXeXeXeXeXeX",
"eXeXeXeXeXeXeXeXeXeXeXeXeXeXeXeXeXeXeXeXeX& & & % O O @ O O O o o o O @ O @ O O # & & & eXeXeXeXeXeXeXeXeXeXeXeXeXeXeXeXeXeXeXeX",
"eXeXeXeXeXeXeXeXeXeXeXeXeXeXeXeXeXeXeXeX& # @ @ 8 y a a b m m b m m b a a n s 0 & O @ & & eXeXeXeXeXeXeXeXeXeXeXeXeXeXeXeXeXeXeX",
"eXeXeXeXeXeXeXeXeXeXeXeXeXeXeXeXeXeXeX& $ , 3 3 ' K.T.Y.XX@X+X$X+X@XXXY.l.F.L.5.u 2 - $ & & eXeXeXeXeXeXeXeXeXeXeXeXeXeXeXeXeXeX",
"eXeXeXeXeXeXeXeXeXeXeXeXeXeXeXeXeXeX& & X b i.a.D.(.(.(.(.'.(.).(.).).|.`. X}.Q.J.D.O.% # & & eXeXeXeXeXeXeXeXeXeXeXeXeXeXeXeXeX",
"eXeXeXeXeXeXeXeXeXeXeXeXeXeXeXeXeXeX$ & q @.z.z.1X7X4X4X4X4X4X4X4X4X1X(.`. X XoX$X#XM.( < % & eXeXeXeXeXeXeXeXeXeXeXeXeXeXeXeXeX",
"eXeXeXeXeXeXeXeXeXeXeXeXeXeXeXeXeX& @ % | k.G.1XqXqXqXqXqXqXqXqXqXqXqX<X.X). X X XoXE.$.5 o & eXeXeXeXeXeXeXeXeXeXeXeXeXeXeXeXeX",
"eXeXeXeXeXeXeXeXeXeXeXeXeXeXeXeX& & & < r.g./.qX9X9X9X9X9X9X9X9X9X9XwXqX=X(. X X X X_.f.r # $ & eXeXeXeXeXeXeXeXeXeXeXeXeXeXeXeX",
"eXeXeXeXeXeXeXeXeXeXeXeXeXeXeXeX& @ 5 ` y.T..X*X*X*X*X*X*X*X*X*X*X*X*X*X.X`.|.|. X X{.i. .w o & eXeXeXeXeXeXeXeXeXeXeXeXeXeXeXeX",
"eXeXeXeXeXeXeXeXeXeXeXeXeXeXeXeX$ @ 9 k.p.G.oX).(.).).).).).).).).).).).}..X|. X X X XR.P.k O $ eXeXeXeXeXeXeXeXeXeXeXeXeXeXeXeX",
"eXeXeXeXeXeXeXeXeXeXeXeXeXeXeXeX& @ e f.Y.R. X X|. X X X}. X|. X X X|.|. X|.|.|. X|. X.X(.C @ & eXeXeXeXeXeXeXeXeXeXeXeXeXeXeXeX",
"eXeXeXeXeXeXeXeXeXeXeXeXeXeXeXeX& @ 6 s. XoX X X X X X}. X X X X|. X X X X|. X.X X X X|.E.C O & eXeXeXeXeXeXeXeXeXeXeXeXeXeXeXeX",
"eXeXeXeXeXeXeXeXeXeXeXeXeXeXeXeX$ @ t i.}.oX X X X|. X X X X X X X X|. X.X}. X|. X X X X$XL o & eXeXeXeXeXeXeXeXeXeXeXeXeXeXeXeX",
"eXeXeXeXeXeXeXeXeXeXeXeXeXeXeXeX$ @ p R.+XoX X X X X X|.|. X|. X|. X X X X X|. X X X|. X#XP o $ eXeXeXeXeXeXeXeXeXeXeXeXeXeXeXeX",
"eXeXeXeXeXeXeXeXeXeXeXeXeXeXeXeX& @ : F.T.F.F.R.|. X|. X X X X X X X X|.|.|. X X X X X X#XP @ & eXeXeXeXeXeXeXeXeXeXeXeXeXeXeXeX",
"eXeXeXeXeXeXeXeXeXeXeXeXeXeXeXeX$ O t H.~.H.D.u.J..X|. X X|. X|. X|.|. X X X X|.|. X X X#XP o & eXeXeXeXeXeXeXeXeXeXeXeXeXeXeXeX",
"eXeXeXeXeXeXeXeXeXeXeXeXeXeXeXeX& . R 0X0X0X3XS Z.+X X X X X X X X X X X X X X X X X X X#XP O & eXeXeXeXeXeXeXeXeXeXeXeXeXeXeXeX",
"eXeXeXeXeXeXeXeXeXeXeXeXeXeXeXeX& . W qXqXqX2Xg n.$X X X X X X X X X|. X X X|. X X X X X].F O & eXeXeXeXeXeXeXeXeXeXeXeXeXeXeXeX",
"eXeXeXeXeXeXeXeXeXeXeXeXeXeXeXeX& . W qXqXqX2Xg A.$X X X|. X}.|. X|. X X|. X X X X|. X XW.V @ $ eXeXeXeXeXeXeXeXeXeXeXeXeXeXeXeX",
"eXeXeXeXeXeXeXeXeXeXeXeXeXeXeXeX& . R 8X8X8X3XS Z.oX X X X X|. X X X|.}. X X X X X X X}.T.V O & eXeXeXeXeXeXeXeXeXeXeXeXeXeXeXeX",
"eXeXeXeXeXeXeXeXeXeXeXeXeXeXeXeX$ @ 2 ! ! T ~ J. X X X X X X X X|. X X X}. X}. X X.X{.d.Y.Z @ & eXeXeXeXeXeXeXeXeXeXeXeXeXeXeXeX",
"eXeXeXeXeXeXeXeXeXeXeXeXeXeXeXeX& @ 6 t.t.r.n.oXoX{. XoXoXoX$X#X#X#X#X$X+X X XoX.X).D.f.6.x O & eXeXeXeXeXeXeXeXeXeXeXeXeXeXeXeX",
"eXeXeXeXeXeXeXeXeXeXeXeXeXeXeXeX& O a $X%X$X+X|. XoX{.M.H.m.c.Y Y X.*.n.H.!._.R.R.F.i.k.' 8 @ & eXeXeXeXeXeXeXeXeXeXeXeXeXeXeXeX",
"eXeXeXeXeXeXeXeXeXeXeXeXeXeXeXeX$ @ i  X X|. X|. XoXH.=.=.%.r $ & # - s ] +.u.s.i.l.+.` < O , & eXeXeXeXeXeXeXeXeXeXeXeXeXeXeXeX",
"eXeXeXeXeXeXeXeXeXeXeXeXeXeXeXeX& o i  X X X X X XF.S.Q.{.Q.G.G.F.j.a.%.9 % a D.z.6.' < # # & eXeXeXeXeXeXeXeXeXeXeXeXeXeXeXeXeX",
"eXeXeXeXeXeXeXeXeXeXeXeXeXeXeXeX& @ i  X+X X X X X_.R.oX X`.=X6X6X:Xg.y.- X * n b y 8 % $ $ eXeXeXeXeXeXeXeXeXeXeXeXeXeXeXeXeXeX",
"eXeXeXeXeXeXeXeXeXeXeXeXeXeXeXeX$ @ i R. X X X X X X X X X).=X5X5X7X:XF.A 3 @ + O O @ & & eXeXeXeXeXeXeXeXeXeXeXeXeXeXeXeXeXeXeX",
"eXeXeXeXeXeXeXeXeXeXeXeXeXeXeXeX$ @ e i. X X X X X X X X X X|.).h.1X9XoX].A O & eXeXeXeXeXeXeXeXeXeXeXeXeXeXeXeXeXeXeXeXeXeXeXeX",
"eXeXeXeXeXeXeXeXeXeXeXeXeXeXeXeX& @ e S. X X X X X X X X X|. X|.}..X*X X#XP + $ eXeXeXeXeXeXeXeXeXeXeXeXeXeXeXeXeXeXeXeXeXeXeXeX",
"eXeXeXeXeXeXeXeXeXeXeXeXeXeXeXeX$ @ e Y.Y.R. X X X X X X X X|. X X}.). X].A O & eXeXeXeXeXeXeXeXeXeXeXeXeXeXeXeXeXeXeXeXeXeXeXeX",
"eXeXeXeXeXeXeXeXeXeXeXeXeXeXeXeX& O 3 K i.E.oX X X X X|.|.|. X X XoX XR.Y.C @ $ eXeXeXeXeXeXeXeXeXeXeXeXeXeXeXeXeXeXeXeXeXeXeXeX",
"eXeXeXeXeXeXeXeXeXeXeXeXeXeXeXeX$ < * @ K R. X}. X X X X X X X|. X XR.i.U.V @ & eXeXeXeXeXeXeXeXeXeXeXeXeXeXeXeXeXeXeXeXeXeXeXeX",
"eXeXeXeXeXeXeXeXeXeXeXeXeXeXeXeX% j ) @ % K ].d.}. X X|. X X X XoXJ.f.d.$.j + $ eXeXeXeXeXeXeXeXeXeXeXeXeXeXeXeXeXeXeXeXeXeXeXeX",
"eXeXeXeXeXeXeXeXeXeXeXeXeXeXeXeXO ( 5.) * = A l._._.].@X#X%X@XE.'.L.$.$.( < # eXeXeXeXeXeXeXeXeXeXeXeXeXeXeXeXeXeXeXeXeXeXeXeXeX",
"eXeXeXeXeXeXeXeXeXeXeXeXeXeXeXeX@ 0 ) ) 5 X * ..O.A ..c.X.*.X...K [ ( ( < O eXeXeXeXeXeXeXeXeXeXeXeXeXeXeXeXeXeXeXeXeXeXeXeXeXeX",
"eXeXeXeXeXeXeXeXeXeXeXeXeXeXeXeX& $ % @ & & & @ @ @ + + = $ @ @ @ @ + @ @ eXeXeXeXeXeXeXeXeXeXeXeXeXeXeXeXeXeXeXeXeXeXeXeXeXeXeX",
"eXeXeXeXeXeXeXeXeXeXeXeXeXeXeXeXeXeXeXeXeXeXeXeXeXeXeX& n.P + eXeXeXeXeXeXeXeXeXeXeX& & & # & & eXeXeXeXeXeXeXeXeXeXeXeXeXeXeXeX",
"eXeXeXeXeXeXeXeXeXeXeXeXeXeXeXeXeXeXeXeXeXeXeXeXeXeXeX& +Xv.o $ & & eXeXeXeXeX& & & # O o + @ & & & eXeXeXeXeXeXeXeXeXeXeXeXeXeX",
"eXeXeXeXeXeXeXeXeXeXeXeXeXeXeXeXeXeXeXeXeXeXeXeXeXeXeX& Y m + % # # $ eXeXeX& & @ O = m b y 8 & $ & eXeXeXeXeXeXeXeXeXeXeXeXeXeX",
"eXeXeXeXeXeXeXeXeXeXeXeXeXeXeXeXeXeXeXeXeXeXeXeXeXeXeX& @ % 2 3 3 , & & eXeX$ & - = b @X[.$.' & $ & eXeXeXeXeXeXeXeXeXeXeXeXeXeX",
"eXeXeXeXeXeXeXeXeXeXeXeXeXeXeXeXeXeXeXeXeXeXeXeXeXeXeX& # > G e.q.J : $ # , # , ..G.J. XoXE.o.& # & eXeXeXeXeXeXeXeXeXeXeXeXeXeX",
"eXeXeXeXeXeXeXeXeXeXeXeXeXeXeXeXeX& eXeXeXeXeXeXeXeXeX& # v q.w.B.w.H , # # # # | ^.$X X X_.o.& # & eXeXeXeXeXeXeXeXeXeXeXeXeXeX",
"eXeXeXeXeXeXeXeXeXeXeXeXeXeXeXeX$ @ # eXeXeXeXeXeXeXeX& @ v q.q.w.C.U , # , & # q ,.OX X.X Xt.$ # $ eXeXeXeXeXeXeXeXeXeXeXeXeXeX",
"eXeXeXeXeXeXeXeXeXeXeXeXeXeXeX& , 2 , & eXeXeXeXeXeXeX& # 6 J q.w.N.U # # eXeX# X L %X X|.#Xn., # & eXeXeXeXeXeXeXeXeXeXeXeXeXeX",
"eXeXeXeXeXeXeXeXeXeXeXeXeXeX# # 5 } [ , eXeXeXeXeXeXeX& # B B.q.w.N.U , # eXeX, O P %X X X$Xn.$ # # eXeXeXeXeXeXeXeXeXeXeXeXeXeX",
"eXeXeXeXeXeXeXeXeXeXeXeXeXeX# , I b.{ $ $ eXeXeXeXeXeX& @ N N.q.w.N.U & # eXeXeXO k P.G.|.#Xn.& # $ eXeXeXeXeXeXeXeXeXeXeXeXeXeX",
"eXeXeXeXeXeXeXeXeXeXeXeXeXeX# $ a.L.] & # & eXeXeXeXeX& @ M N.B.w.q.H & # eXeXeX# 7 &.,X-X@XA.& # & eXeXeXeXeXeXeXeXeXeXeXeXeXeX",
"eXeXeXeXeXeXeXeXeXeXeXeXeXeX# & t.L.] $ # eXeXeXeXeXeX& @ M N.w.B.U : $ & eXeXeX& . R qX:X[.n.$ # & eXeXeXeXeXeXeXeXeXeXeXeXeXeX",
"eXeXeXeXeXeXeXeXeXeXeXeXeXeX# & t.L.k @ # eXeXeXeXeXeX& @ N V.w.B.8.: & $ eXeXeXeX  R qX:X[.A.& # $ eXeXeXeXeXeXeXeXeXeXeXeXeXeX",
"eXeXeXeXeXeXeXeXeXeXeXeXeXeX# & r.U.,.D 4 eXeXeXeXeXeX& $ 3 N N.C.8.: & , eXeXeXeXeXh =X-X].t.& # $ eXeXeXeXeXeXeXeXeXeXeXeXeXeX",
"eXeXeXeXeXeXeXeXeXeXeXeXeXeX# $ o.T.S.:.9 @ eXeXeXeXeX& & @ , H 9.U c & # eXeXeXeXeX9 @.E.[.r.& # & eXeXeXeXeXeXeXeXeXeXeXeXeXeX",
"eXeXeXeXeXeXeXeXeXeXeXeXeXeX# , r.Y.b.=.5 @ , eXeXeXeX& & & # # : G v & $ eXeXeXeX# 8 &.~.)...& # & eXeXeXeXeXeXeXeXeXeXeXeXeXeX",
"eXeXeXeXeXeXeXeXeXeXeXeXeXeX# & r.M.@.=.5 @ , eXeXeXeX& , @ + # # c B & $ eXeXeX& O i !.#X..$ & eXeXeXeXeXeXeXeXeXeXeXeXeXeXeXeX",
"eXeXeXeXeXeXeXeXeXeXeXeXeXeX# $ t.M.=.=.4 X , eXeXeXeX& @ f / 5 + % - & $ eXeXeX& O 6 OX&XL X & eXeXeXeXeXeXeXeXeXeXeXeXeXeXeXeX",
"eXeXeXeXeXeXeXeXeXeXeXeXeXeX# , o.>.=.=.z 4 @ eXeXeXeX& @ ! 3.~ g 5 * & & eXeXeX# > I D.~.D O & eXeXeXeXeXeXeXeXeXeXeXeXeXeXeXeX",
"eXeXeXeXeXeXeXeXeXeXeXeXeXeX# # ] ;.=.=.>.z @ & eXeXeX& + E 3.4.b.<.s & $ eXeXeX@ C M.=.#.w @ eXeXeXeXeXeXeXeXeXeXeXeXeXeXeXeXeX",
"eXeXeXeXeXeXeXeXeXeXeXeXeXeXeX& { :.=.=.;.[ 6 & $ eXeX& @ T ;X4.4.3.^ & # eXeXeXeX$ a S.I.z @ eXeXeXeXeXeXeXeXeXeXeXeXeXeXeXeXeX",
"eXeXeXeXeXeXeXeXeXeXeXeXeXeXeX& 5 D ;.=.=.%.f % # eXeX& + f ~ / 2.;X<.& # eXeXeXeXeX, n s 4 eXeXeXeXeXeXeXeXeXeXeXeXeXeXeXeXeXeX",
"eXeXeXeXeXeXeXeXeXeXeXeXeXeXeX& X g :.=.;.%.f 5 & eXeX& # t g g 2.3.W & & eXeXeXeXeXeX@ @ eXeXeXeXeXeXeXeXeXeXeXeXeXeXeXeXeXeXeX",
"eXeXeXeXeXeXeXeXeXeXeXeXeXeXeX& @ z :.=.=.D g g 4 eXeX& # 5 g g ^ ^ f & & eXeXeXeXeXeXeXeXeXeXeXeXeXeXeXeXeXeXeXeXeXeXeXeXeXeXeX",
"eXeXeXeXeXeXeXeXeXeXeXeXeXeXeX& @ z >.@.D g S l 4 eXeXeX& , , , 2 2 , , eXeXeXeXeXeXeXeXeXeXeXeXeXeXeXeXeXeXeXeXeXeXeXeXeXeXeXeX",
"eXeXeXeXeXeXeXeXeXeXeXeXeXeXeXeX# 4 z ~ S r 3 5 & eXeXeXeXeXeXeXeXeXeXeXeXeXeXeXeXeXeXeXeXeXeXeXeXeXeXeXeXeXeXeXeXeXeXeXeXeXeXeX",
"eXeXeXeXeXeXeXeXeXeXeXeXeXeXeXeXeX@ # 6 r 4 @ # eXeXeXeXeXeXeXeXeXeXeXeXeXeXeXeXeXeXeXeXeXeXeXeXeXeXeXeXeXeXeXeXeXeXeXeXeXeXeXeX",
"eXeXeXeXeXeXeXeXeXeXeXeXeXeXeXeXeXeX# $ , eXeXeXeXeXeXeXeXeXeXeXeXeXeXeXeXeXeXeXeXeXeXeXeXeXeXeXeXeXeXeXeXeXeXeXeXeXeXeXeXeXeXeX"
};
