/* XPM */
static char *a4561b16f16c4ebbd6ce6c380992db08U5CK5EF9OI8fikzU[] = {
/* columns rows colors chars-per-pixel */
"64 64 213 2 ",
"   c None",
".  c #030016",
"X  c #0E0016",
"o  c #0D0019",
"O  c #140016",
"+  c #14011A",
"@  c #1C041C",
"#  c #1F091D",
"$  c #170A1C",
"%  c #150915",
"&  c #22031D",
"*  c #2B041E",
"=  c #20081D",
"-  c #2A0D1F",
";  c #2B1A1C",
":  c #3B111D",
">  c #2E221C",
",  c #332B1D",
"<  c #36271D",
"1  c #3A361F",
"2  c #260C22",
"3  c #360B22",
"4  c #2C1223",
"5  c #2F1A22",
"6  c #321322",
"7  c #3A1223",
"8  c #321C22",
"9  c #391C28",
"0  c #392727",
"q  c #393128",
"w  c #3B3525",
"e  c #58381E",
"r  c #470924",
"t  c #431A27",
"y  c #591828",
"u  c #6B1A2B",
"i  c #442224",
"p  c #432C24",
"a  c #452329",
"s  c #4B252B",
"d  c #5A2D2C",
"f  c #4A3426",
"g  c #47352A",
"h  c #48392B",
"j  c #58312C",
"k  c #5D3A34",
"l  c #573535",
"z  c #4C3435",
"x  c #683933",
"c  c #743A34",
"v  c #672F2B",
"b  c #40431F",
"n  c #424421",
"m  c #474B22",
"M  c #5A482E",
"N  c #4F5B21",
"B  c #525C29",
"V  c #5E5031",
"C  c #564D30",
"Z  c #6F572A",
"A  c #745D2E",
"S  c #68433C",
"D  c #774635",
"F  c #695934",
"G  c #764F2E",
"H  c #536126",
"J  c #5A6B2B",
"K  c #5A6C26",
"L  c #5C6937",
"P  c #5F7035",
"I  c #7A682E",
"U  c #796330",
"Y  c #7E663A",
"T  c #64753C",
"R  c #657838",
"E  c #7F763B",
"W  c #5C3A47",
"Q  c #744E4C",
"!  c #744D44",
"~  c #7A5459",
"^  c #704B4D",
"/  c #8D1F32",
"(  c #872E31",
")  c #943334",
"_  c #972C32",
"`  c #AD2938",
"'  c #AC323A",
"]  c #874A3A",
"[  c #8B573C",
"{  c #945C39",
"}  c #A24F37",
"|  c #846D32",
" . c #886E31",
".. c #8A6730",
"X. c #8A7332",
"o. c #847639",
"O. c #917B35",
"+. c #95613C",
"@. c #BE763D",
"#. c #C8743F",
"$. c #C7663F",
"%. c #855D5A",
"&. c #945744",
"*. c #A95D43",
"=. c #966C4C",
"-. c #AC6C45",
";. c #885F64",
":. c #825A60",
">. c #8C6365",
",. c #976C6C",
"<. c #9B6F71",
"1. c #9D7173",
"2. c #9C706E",
"3. c #A27576",
"4. c #A67878",
"5. c #A77A7B",
"6. c #CD5341",
"7. c #D77642",
"8. c #D36846",
"9. c #6E8A37",
"0. c #769342",
"q. c #7C9C47",
"w. c #7E9E48",
"e. c #6C8142",
"r. c #7FA049",
"t. c #9C8536",
"y. c #92853C",
"u. c #928B3C",
"i. c #8B8034",
"p. c #A18C39",
"a. c #A08A37",
"s. c #A19138",
"d. c #B39D3B",
"f. c #B5953A",
"g. c #B6A23D",
"h. c #B8AA3C",
"j. c #B5B13D",
"k. c #C3893D",
"l. c #C2AC3E",
"z. c #C4B63E",
"x. c #879D47",
"c. c #9B9345",
"v. c #999B46",
"b. c #988742",
"n. c #B7894A",
"m. c #A39E47",
"M. c #B79F41",
"N. c #AD8448",
"B. c #80A34A",
"V. c #86AB4C",
"C. c #84AA49",
"Z. c #8AB24F",
"A. c #AEAB4B",
"S. c #AAA044",
"D. c #B9A540",
"F. c #BCAB42",
"G. c #B0AE4B",
"H. c #BDB145",
"J. c #BFB548",
"K. c #B8B54C",
"L. c #ADB24B",
"P. c #C48B47",
"I. c #DB894C",
"U. c #C79B47",
"Y. c #CC9C5A",
"T. c #C4AE41",
"R. c #C4A448",
"E. c #C5B241",
"W. c #CBBC46",
"Q. c #C3BC4C",
"!. c #CDBB4A",
"~. c #CCB641",
"^. c #D3BE44",
"/. c #CAB551",
"(. c #D5BB52",
"). c #E0B44B",
"_. c #C3C443",
"`. c #CBCE43",
"'. c #C5C34E",
"]. c #CDC34B",
"[. c #C6C94C",
"{. c #CACA4D",
"}. c #C7CA43",
"|. c #D7CB4A",
" X c #C5C451",
".X c #C8C953",
"XX c #C8C752",
"oX c #CBD256",
"OX c #CBDA56",
"+X c #D6DA58",
"@X c #DADE59",
"#X c #D5D555",
"$X c #DFD84F",
"%X c #E1DC53",
"&X c #DBE25A",
"*X c #CFE257",
"=X c #E4E659",
"-X c #CCCD60",
";X c #D5D579",
":X c #D3CB71",
">X c #D5E46A",
",X c #B08180",
"<X c #DEBFBC",
"1X c #D9DA88",
"2X c #DBDC90",
"3X c #E3DD98",
"4X c #E5E5AE",
"5X c #E7EAAF",
"6X c #E8EAB7",
"7X c #F4F4DD",
"8X c #F9F8EB",
"9X c white",
"0X c #FCF4F2",
/* pixels */
"                                      = = = @ # = # # # # # # # # = # # # = = = # # # # =                                       ",
"                                # = = # + o + O X O O o X X o X + o X X o o o X + X o + # = = =                                 ",
"                              = = @ O & r i w w g g g g g g g g g g g g g g f g q p a r & + @ = =                               ",
"                            = = = @ + 3 ' @.d.d.K. X X X X X'.'. X X X X X X.XJ.d.g.@.` 3 o # = = =                             ",
"                          = = + $ Z y.c.U.!.{.'.`.`.`.`.`.`.`.`.`.`.`.`.}.`.`.`.{.{.!.U.c.y.Z $ + = =                           ",
"                          = @ * u d.@X&XOXoXXX'.;X2X2X2X2X2X2X2X2X2X2X2X2X2X2X1X[.XXoXOX@X&XD.u * @ =                           ",
"                          = o y 6./.OX.X.X.X[.oX8X9X9X9X9X9X9X9X9X9X9X9X9X9X9X7XoX'.XX.XXXOX/.6.y o #                           ",
"                        = = . f U. XoX.X.X_.1X8X9X9X9X9X9X9X9X9X9X9X9X9X9X9X9X9X8X1X_..X.X.X.X!.M . # =                         ",
"                      = # = r { [..X.X.X.X_.;X6X4X4X4X4X4X4X4X4X4X4X4X4X4X4X4X4X6X;X_..X.X XoX*X{ r # # =                       ",
"                      = @ # _ I.OX.X.X.X.X.X.X_._._._._._._._._._._._._._._._._._..X.X.X.X.X.XoXI._ # + =                       ",
"                      = + @ ..~..X.X.X.X.X.X.X.XXX.XXXXXXXXX.X.X.X.X[.XX.X.XXX[..X.X.X.X.X.X.X.X+Xb.# @ =                       ",
"                      = + 2 u.#X.X.X.X.X.X.X.X.XXX.X.X.X.XXX.X.X.X.XXXXXXX.X.X.X.X.X.X.X.X.X.X.X=Xv.# @ =                       ",
"                      = @ & c.&X.X.X.X.X.X.XXX.X.X.X.X.X.X X.X.X.XXX.X.X.X.X.X.X.X.X.X.X.X.X.X.X@Xc.@ + =                       ",
"                      = @ = c.@X.X.X.X.X.X.X.X.X.X.X.X.X.X.X.X.X.X.X.XXX.X.X.X.X.X.X.X.X.X.X.X.X@Xc.2 @ =                       ",
"                      = + # c.&X.X.X.X.X.X.X.X.X.X.X.X.X.X.X.X.X.X.X.X.X.X.X.X.X.X.X.X.X.X.X.X.X@Xc.@ + =                       ",
"                      2 + # y.#X.X.X.X.X.X.X.X.X.X.XXX.X.X.X.X.X.X.X.X.X.X.X.X.X.X.X.X.X.X.X.X.X#Xy.2 + =                       ",
"                      = + =  .W..X.X.X.X.X.X.X.X.X.X X.X.X.X.X.X.X.X.X.X.X.X.X.X.X.X.X.X.X.X.X.XW. .= + =                       ",
"                      = + =  .]..X.X.X.X.X.X.X.X.X.X.X.X.X.X.X.X.X.X.X.X.X.X.X.X.X.X.X.X.X.X.X.X]. .2 @ =                       ",
"                      # @ &  .].oX.X.X.X.X.X.X.X.X.X.X.X.X.X.X.X.X X.X.X.X.X X.X.X.X.X.X.X.X.XoX]. .@ + =                       ",
"                      = + 2 X.W.XX.X.X.X.X.X.X.X.X.X.X.X.X.X.X.X.X.X.X.X.X.X.X.X.X.X.X.X.X.X.X X!. .= @ =                       ",
"                      = @ = O.z.D. X.X.X.X.X.X.X.X.X.X.X.X.X.X.X.X.X.X.X.X.X.X.X.X.X.X.X.XoXQ.D.E.X.= @ =                       ",
"                      = @ = i.z.g.XXoXXX.X.X.X.X.X.X.X.X.X X.X.X.X.X.X.X.X.X.X.X.X.X.X.X.XoX.XD.l.O.& + =                       ",
"                      = @ @ ..k.g.Q. XXX.X.X.X.X.X.X.X.X.X.X.X.X.X.X.X.X.X.X.X.X.X.X.X.X.X.XE.M.~.O.= @ =                       ",
"                      = @ @ / $.g.d.Q..X.X.X.X.X.X.X.X.X.X.X.X.X.X.X.X.X.X.X.X.X.X.X.X.X.XJ.M.D.T.X.= + =                       ",
"                        2 = & x T.Q.XXXX.X.X.X.X.X.X.X.X.X.X.X.X.X.X.X.X.X.X.X.X.X.X.X.X.X'.Q..XU = # 2                         ",
"                      = + + 0 I h.XXoXXX.X.X.X.X.X.X.X.X.X.X.X.X.X.X.X.X.X.X.X.X.X.X.X.X.X.XoX#Xo.; + + 2                       ",
"                    = # # 6 t.~.F.XX.X.X.X.X.X.X.X.X.X.X.X.X.X.X.X.X X.X.X.X.X.X.X.X.X.X.X.X.X.X|.y.8 @ @ #                     ",
"                    # o 8 p.d.J.XX.X.X.X.X.X.X.X.X.X.X.X.X.X.X.X.X.X.X.X.X.X.X.X.X.X.X.X.X.X.X.XoXQ.t.8 o =                     ",
"                  # @ f O.T.g.F..X.X.X.X.X.X.X.X.X.X.X.X.X.X.X.X.X.X.X.X.X X.X.X.X.X.X.X.X.X.X.X.X.Xl.O.f @ @                   ",
"                  @ + | ^.g.M.H..X.X.X.X.X.X.X.X.X.X.X.X.X.X.X.X.X.X.X.X.X.X.X.X.X.X.X.X.X.X.X.X.X'.g.^. .+ @                   ",
"                  @ + U E.d.d.H..X.X.X.X.X.X.X.X.X.X.X.X.X.X.X.X.X X.X.X.X.X.X.X.X.X.X.X.X.X.X.X.XQ.g.l.U + #                   ",
"                  # + U E.D.d.E.oX.X.X.X.X.X.X.X.X.X.X.X X.X.X.X.X.X.X.X.X.X.X.X.X.X.X.X.X.X.X.XoX'.d.~.U + @                   ",
"                  # + U ~.g.d.F.Q..XoX.X.X.X.X.X.X.X.X.X.X.X.X.X.X.X.X.X.X.X.X.X.XXX.X.X.X.X.XoXXXJ.d.E.U + 2                   ",
"                  # + U T.g.d.d.D. X.X.X.X.X.X.X.X.X.X.X.X.X.XXX.X.X.X.X.X.X.X.X.X.X.X.X.X.X.X.XF.d.g.E.U + +                   ",
"                    + ( 7.h.j.h.d.D.J.oX.X.X.X.X.XXX.X.X.X.XXX.X.X.X.X.X.X.X.X.XXX.X.XXX.XoXXXF.g.j.h.7.( $                     ",
"                      r ) #.#.P.E.h.W.].].#X@X+X+X+X+X+X+X+X@X#X#X+X+X+X+X+X+X#X+X+X@X#X.X].].l.f.7.@.) r                       ",
"                        7 ' ` } p.p.t.a.t.S.G.A.L.L.G.G.G.G.G.A.A.A.A.A.G.L.G.G.G.G.G.A.p.t.a.s.} ` ' 7                         ",
"                          x t 2 8 8 6 8 8 8 0 8 8 8 8 8 8 8 0 2 2 0 8 0 9 8 8 9 8 8 0 8 5 6 8 8 * t x                           ",
"                                                            o F V o                                                             ",
"                                                            + G.G.+                                                             ",
"                                                = = = = = @ + m.S.+ + 2 # # # =                                                 ",
"                                              = = + @ , B T L x.x.L T B , $ + = =                                               ",
"                                              = = - w J q.Z.V.q.q.V.Z.q.J 0 2 @ =                                               ",
"                                              = + > K q.r.q.q.q.q.q.q.B.q.J , @ =                                               ",
"                                            = = @ > K 0.B.q.q.q.q.q.q.x.r.q.w + = =                                             ",
"                                          = # # > w H 0.B.q.q.q.q.q.q.q.r.V.B ; = = =                                           ",
"                                          = @ = m H H 0.B.q.q.q.q.q.q.q.w.r.9.m = @ =                                           ",
"                                          = & = n N H 0.B.q.q.q.q.q.q.q.q.q.V.T = @ =                                           ",
"                                          = @ = n N B 0.r.q.q.r.q.q.q.w.q.q.Z.R = @ =                                           ",
"                                          = = = n N B q.C.r.r.B.B.B.r.r.B.B.V.T = @ =                                           ",
"                                          # @ = n N H 9.r.q.q.q.q.q.q.q.q.q.V.R 2 @ =                                           ",
"                                # # @ O + o + = m K B h 0 q q q q q q q w J C.R = @ =                                           ",
"                              = # O 6 d e j 7 + , b 1 O X X X X X X X X O > R P = @ =                                           ",
"                            = # # # D n./.Y.&.4 @ + @ = 4 4 4 4 4 4 4 2 2 + 1 b = = =                                           ",
"                            = + =  .h.:X8X8X<X] * X = i Q >.>.;.;.>.>.Q i # @ = = = =                                           ",
"                            o 6 D f.`.>X4X5X2XU. .< 2 ~ 2.5.5.4.4.5.5.1.Q i 6 6 # = =                                           ",
"                          = 4 v +.M./.'._.`.{.#X$XU 2 ~ 3.<.<.<.1.<.<.1.1.! ! k = @ =                                           ",
"                          # [ c 8 L.R.-..XOXoX.X&Xo.+ j %.3.1.<.1.<.<.1.<.<.4.~ = @     = = =     = =                           ",
"                            s 7 = N.[ d n.Y F N.=.C @ = ~ 3.Q ^ ~ 4.1.<.1.1.5.~ = @ = = + X O = + X o @                         ",
"                              + - c 9 # c 3 3 *.[ a @ O W %.k f S >.1.1.1.1.,X;.= O + = p V h + 0 F C 5 @                       ",
"                                  # # = # + a *.-.c + @ 0 x l k l k >.1.1.<.1.~ = @ @ 6 t.$XG.- E =X{.h o =                     ",
"                                              9 t 7 #   - 6 4 4 0 k ! ,.1.z 9 4 # D &.{ l.|.W.p.H.(.8.y o =                     ",
"                                              + o @       @ +   - a 9 l W @ o + @ j ] D G A A  .I D u 3 @                       ",
"                                                                  = = @ 2 = # # # # @ = = = = = = = = & =                       "
};
