/* XPM */
static char *result[] = {
/* columns rows colors chars-per-pixel */
"64 64 210 2 ",
"   c #090009",
".  c #17000D",
"X  c #020116",
"o  c #0C0017",
"O  c #0E0119",
"+  c #050018",
"@  c #140015",
"#  c #14011A",
"$  c #1C041C",
"%  c #1E0A1B",
"&  c #180217",
"*  c #21071D",
"=  c #21081D",
"-  c #2B0B1F",
";  c #2A121F",
":  c #291A1B",
">  c #31161E",
",  c #362E1C",
"<  c #3A361E",
"1  c #2E221A",
"2  c #2C0F22",
"3  c #360D21",
"4  c #3C0B22",
"5  c #2B1120",
"6  c #281522",
"7  c #351D22",
"8  c #3C1C25",
"9  c #391B2A",
"0  c #362123",
"q  c #382325",
"w  c #3F252B",
"e  c #352E22",
"r  c #4B0724",
"t  c #471825",
"y  c #5B1A29",
"u  c #510C26",
"i  c #6C0E2B",
"p  c #6D1A2B",
"a  c #4B232A",
"s  c #4B2B2E",
"d  c #442A26",
"f  c #4D3B2B",
"g  c #493526",
"h  c #563A26",
"j  c #4C2E31",
"k  c #4C2430",
"l  c #573736",
"z  c #53272B",
"x  c #622D2B",
"c  c #643833",
"v  c #733837",
"b  c #643B2E",
"n  c #464824",
"m  c #5B4429",
"M  c #5C492A",
"N  c #574627",
"B  c #4E552B",
"V  c #515731",
"C  c #5D5124",
"Z  c #624B2B",
"A  c #6D5729",
"S  c #674537",
"D  c #764A38",
"F  c #635533",
"G  c #655834",
"H  c #745135",
"J  c #576036",
"K  c #5B6539",
"L  c #5E6B39",
"P  c #596A28",
"I  c #7E662F",
"U  c #7F692F",
"Y  c #776334",
"T  c #627830",
"R  c #707535",
"E  c #5C3B47",
"W  c #5D4E56",
"Q  c #6B464D",
"!  c #6A4753",
"~  c #754F55",
"^  c #79535D",
"/  c #754E49",
"(  c #6A7E40",
")  c #5A516F",
"_  c #8A1D31",
"`  c #8B2831",
"'  c #952634",
"]  c #973034",
"[  c #A73937",
"{  c #B5373A",
"}  c #B22539",
"|  c #C73F3D",
" . c #854D3B",
".. c #944934",
"X. c #8E533E",
"o. c #95593E",
"O. c #945735",
"+. c #A84739",
"@. c #826738",
"#. c #877A3A",
"$. c #937837",
"%. c #B0653A",
"&. c #BA703C",
"*. c #CB4A3F",
"=. c #C4723D",
"-. c #9B5C41",
";. c #8C5340",
":. c #906C47",
">. c #AA6344",
",. c #AD6944",
"<. c #B46E44",
"1. c #AD7743",
"2. c #B47F43",
"3. c #9B6F71",
"4. c #996E6C",
"5. c #AB7C7B",
"6. c #A47678",
"7. c #D84541",
"8. c #CE6B43",
"9. c #D96D41",
"0. c #6E883B",
"q. c #7C9C46",
"w. c #7D9E48",
"e. c #7FA149",
"r. c #7FA246",
"t. c #978236",
"y. c #878139",
"u. c #A38D38",
"i. c #A68D36",
"p. c #B7843B",
"a. c #AB943A",
"s. c #AD9B3A",
"d. c #A79636",
"f. c #B89D3B",
"g. c #BBA43E",
"h. c #BCAD3D",
"j. c #B6A73A",
"k. c #B9B339",
"l. c #B1A235",
"z. c #C68A3A",
"x. c #C4A83D",
"c. c #C5BC3C",
"v. c #C5C13D",
"b. c #938244",
"n. c #AD8040",
"m. c #B78647",
"M. c #A09B46",
"N. c #86AC4C",
"B. c #8AB24E",
"V. c #ADA345",
"C. c #ABAA4A",
"Z. c #BBAB43",
"A. c #B3A745",
"S. c #BEBD44",
"D. c #BDB64B",
"F. c #BCB647",
"G. c #BFBE50",
"H. c #B9B451",
"J. c #CA8942",
"K. c #D78C46",
"L. c #C99544",
"P. c #C2AE41",
"I. c #C8A343",
"U. c #C4B442",
"Y. c #C4BB45",
"T. c #C7B749",
"R. c #D0B44B",
"E. c #CCBC7B",
"W. c #C7BA65",
"Q. c #C3C544",
"!. c #C6C64D",
"~. c #CBC44D",
"^. c #C7C84E",
"/. c #CAC94D",
"(. c #D0C94C",
"). c #C3C352",
"_. c #C8C751",
"`. c #C8CA53",
"'. c #C8CA56",
"]. c #D6CC53",
"[. c #CCD255",
"{. c #D1D356",
"}. c #D5DA55",
"|. c #D4DB58",
" X c #DBDC55",
".X c #D4D54D",
"XX c #D8E45A",
"oX c #E0E758",
"OX c #D4D76A",
"+X c #D6D876",
"@X c #786A87",
"#X c #A69894",
"$X c #B28384",
"%X c #B19FA5",
"&X c #AD9AA6",
"*X c #B4B0A7",
"=X c #DDDE95",
"-X c #DADB8D",
";X c #DEE197",
":X c #EAEE89",
">X c #EAEBB6",
",X c #DAD2D3",
"<X c #F1F2D2",
"1X c #F3F4DA",
"2X c #F7F5D0",
"3X c #E2DBE3",
"4X c #F7F7E6",
"5X c #FFFFFF",
"6X c #FAF9F6",
"7X c None",
/* pixels */
"7X7X7X7X7X7X7X7X7X7X7X7X7X7X7X7X7X7X7X7X7X7X7X= * % = = * = % = * = = = * = * = % 7X7X7X7X7X7X7X7X7X7X7X7X7X7X7X7X7X7X7X7X7X7X7X",
"7X7X7X7X7X7X7X7X7X7X7X7X7X7X7X7X7X7X7X7X7X= * % # O O O o @ O o o o o # O O O # * % = 7X7X7X7X7X7X7X7X7X7X7X7X7X7X7X7X7X7X7X7X7X",
"7X7X7X7X7X7X7X7X7X7X7X7X7X7X7X7X7X7X7X7X= $ # # r x M m F F F F F G Z m m M x r @ # $ = 7X7X7X7X7X7X7X7X7X7X7X7X7X7X7X7X7X7X7X7X",
"7X7X7X7X7X7X7X7X7X7X7X7X7X7X7X7X7X7X7X% $ 6 7 0 +.K.Y.U.}.}.}.}.|. X/.U.c.Y.K.+.q 0 ; $ = 7X7X7X7X7X7X7X7X7X7X7X7X7X7X7X7X7X7X7X",
"7X7X7X7X7X7X7X7X7X7X7X7X7X7X7X7X7X7X= = o m P.s.U./.Q.!.^.^.!.Q.!.!.^.^._._._._.T.F.M o % * 7X7X7X7X7X7X7X7X7X7X7X7X7X7X7X7X7X7X",
"7X7X7X7X7X7X7X7X7X7X7X7X7X7X7X7X7X7X% $ i %.c.c.>X<X<X<X<X<X<X<X<X<X;Xv.`.`.'.`.{.}.<.i $ % 7X7X7X7X7X7X7X7X7X7X7X7X7X7X7X7X7X7X",
"7X7X7X7X7X7X7X7X7X7X7X7X7X7X7X7X7X= & o ..z.H.>X5X5X5X5X5X5X5X5X5X5X6X;X`.^.'.`.'.[.I...o $ 2 7X7X7X7X7X7X7X7X7X7X7X7X7X7X7X7X7X",
"7X7X7X7X7X7X7X7X7X7X7X7X7X7X7X7X= * * 4 $.c.W.4X1X1X1X1X1X1X1X1X1X1X4X1X'.^.`.`.'.`.~.$.3 2 % * 7X7X7X7X7X7X7X7X7X7X7X7X7X7X7X7X",
"7X7X7X7X7X7X7X7X7X7X7X7X7X7X7X7X* # 3 { p.Y.[.`.`.`.`.^.`.`.`.`.^.`.`.`.`.`.).`.`.`.S.p.{ 3 # % 7X7X7X7X7X7X7X7X7X7X7X7X7X7X7X7X",
"7X7X7X7X7X7X7X7X7X7X7X7X7X7X7X7X= # 7 p.f.F.'.~.^.).!.!.!.!.!.!.!.^.!.!.`._.`.`.`.`.`.T.p.7 # % 7X7X7X7X7X7X7X7X7X7X7X7X7X7X7X7X",
"7X7X7X7X7X7X7X7X7X7X7X7X7X7X7X7X= # 0 s.T.).`.`.`.`._.`.`.`.`.`.`.`.`.`.`.`.`.`.`.`.[.`.s.7 # = 7X7X7X7X7X7X7X7X7X7X7X7X7X7X7X7X",
"7X7X7X7X7X7X7X7X7X7X7X7X7X7X7X7X= # 0 a._.`.`.`.`.`.`.`.^.`.`._._.`.`.`.`.`.`.)._.`.`.`.V.7 # = 7X7X7X7X7X7X7X7X7X7X7X7X7X7X7X7X",
"7X7X7X7X7X7X7X7X7X7X7X7X7X7X7X7X= # 7 s.~.`.`.`.`.`.`.`.`.`.`.`.`.`.`._.`.^.`.'.`.`._.[.T.q # = 7X7X7X7X7X7X7X7X7X7X7X7X7X7X7X7X",
"7X7X7X7X7X7X7X7X7X7X7X7X7X7X7X7X= # q H.{.`.`.`.`.`.`.`.`.`.`.`._.`.`.`.`.`.`.`._.`.'.{.G.q # % 7X7X7X7X7X7X7X7X7X7X7X7X7X7X7X7X",
"7X7X7X7X7X7X7X7X7X7X7X7X7X7X7X7X= # q ).{.`.`.`.k.l.l.k.S.!.`._.`._.`._.`.`.`.`.`._.`.{.G.q # = 7X7X7X7X7X7X7X7X7X7X7X7X7X7X7X7X",
"7X7X7X7X7X7X7X7X7X7X7X7X7X7X7X7X= O q T.[.`.~.Q.E.E.E.E.1.V.[.`.`.`.`.`.).`.`.`.`.`.`.{.).q # = 7X7X7X7X7X7X7X7X7X7X7X7X7X7X7X7X",
"7X7X7X7X7X7X7X7X7X7X7X7X7X7X7X7X= # q G.{.`.Y.a.1X5X5X6X! #.|.`.`.`.`.`.`.`.`.`.`.`._.{.H.q # = 7X7X7X7X7X7X7X7X7X7X7X7X7X7X7X7X",
"7X7X7X7X7X7X7X7X7X7X7X7X7X7X7X7X* # q G.{.[.V.S ,X5X5X6X! $.|.`.^._.`.`._.`._._.`.`.'._.s.7 # = 7X7X7X7X7X7X7X7X7X7X7X7X7X7X7X7X",
"7X7X7X7X7X7X7X7X7X7X7X7X7X7X7X7X% # q G.[.|.V.k 3X5X5X5X! #.|.`.`.`.`.`.`.`.`.'.`.`.[._.s.7 # = 7X7X7X7X7X7X7X7X7X7X7X7X7X7X7X7X",
"7X7X7X7X7X7X7X7X7X7X7X7X7X7X7X7X* # q G.[.[.D.:.#X&X%X%X:.C.`.`.).'.`.`.).`.`.`.`.'._.Y.s.7 # % 7X7X7X7X7X7X7X7X7X7X7X7X7X7X7X7X",
"7X7X7X7X7X7X7X7X7X7X7X7X7X7X7X7X* # q G.[.`.[.{.Y h h Z !. X`.`.'.[.`.`.`.`.`.`.`._.F.f.p.7 # % 7X7X7X7X7X7X7X7X7X7X7X7X7X7X7X7X",
"7X7X7X7X7X7X7X7X7X7X7X7X7X7X7X7X% # q G.{.`.`.`.'.).)._.`.`.{.[.[.`.`.[.`._.`.`.`.Z.j.z.{ 3 # 2 7X7X7X7X7X7X7X7X7X7X7X7X7X7X7X7X",
"7X7X7X7X7X7X7X7X7X7X7X7X7X7X7X7X* # q G.[.`.`.`.[.|.'.1.1.;.f 0 0 7 f :.m.R.Y.Z.A.k.J.[ 4 = % = 7X7X7X7X7X7X7X7X7X7X7X7X7X7X7X7X",
"7X7X7X7X7X7X7X7X7X7X7X7X7X7X7X7X* # q ).{.`.`.`.'.T.A.m.m.b.Y C C N b v x Z $.U.x.J.+.r O # 2 7X7X7X7X7X7X7X7X7X7X7X7X7X7X7X7X7X",
"7X7X7X7X7X7X7X7X7X7X7X7X7X7X7X7X= # q D.[.`.`.`.`.F.Z.[.[.[.OX:X:X{.x.o.# X g u.$.[ r + 2 $ 7X7X7X7X7X7X7X7X7X7X7X7X7X7X7X7X7X7X",
"7X7X7X7X7X7X7X7X7X7X7X7X7X7X7X7X% # 7 a.~.'.`.`.`.`.`.`._.Q.-X5X5X;Xv.u.; $ * $ $ % % % % 7X7X7X7X7X7X7X7X7X7X7X7X7X7X7X7X7X7X7X",
"7X7X7X7X7X7X7X7X7X7X7X7X7X7X7X7X% # 7 g.P.T.'.`._.`.`.`.`._.'.+XOX1X>Xk.C.d # $ 7X7X7X7X7X7X7X7X7X7X7X7X7X7X7X7X7X7X7X7X7X7X7X7X",
"7X7X7X7X7X7X7X7X7X7X7X7X7X7X7X7X$ 6 w m i.(.[.`.`.`.`.`.`.`._.Q.k.;X;X[.oXN o % 7X7X7X7X7X7X7X7X7X7X7X7X7X7X7X7X7X7X7X7X7X7X7X7X",
"7X7X7X7X7X7X7X7X7X7X7X7X7X7X7X7X# a v + N A..X`.`.`.`.`.`._.`.`._.Q.Q.`._.f # % 7X7X7X7X7X7X7X7X7X7X7X7X7X7X7X7X7X7X7X7X7X7X7X7X",
"7X7X7X7X7X7X7X7X7X7X7X7X7X7X7X7XO p { 3 + h Z.`.`.`.`.`.`.`.`.`.'.`.`.!.Z.d # * 7X7X7X7X7X7X7X7X7X7X7X7X7X7X7X7X7X7X7X7X7X7X7X7X",
"7X7X7X7X7X7X7X7X7X7X7X7X7X7X7X7XO y *.{ 3 + h U.`.[.'.`.`.`.`.`.`.'.!.Z.Z.g O * 7X7X7X7X7X7X7X7X7X7X7X7X7X7X7X7X7X7X7X7X7X7X7X7X",
"7X7X7X7X7X7X7X7X7X7X7X7X7X7X7X7XO y *.| [ 3 + h Z.T.Y.'.`._.`.'.'.!.k.g.8.t O % 7X7X7X7X7X7X7X7X7X7X7X7X7X7X7X7X7X7X7X7X7X7X7X7X",
"7X7X7X7X7X7X7X7X7X7X7X7X7X7X7X7Xo y 7.| 7.[ t O M i.U.~.[.|.].~.`.L.=.&.` 3 $ 7X7X7X7X7X7X7X7X7X7X7X7X7X7X7X7X7X7X7X7X7X7X7X7X7X",
"7X7X7X7X7X7X7X7X7X7X7X7X7X7X7X7XO y { [ [ { ] * X M f.u.C.H.V.u.d.+.} ' & # 7X7X7X7X7X7X7X7X7X7X7X7X7X7X7X7X7X7X7X7X7X7X7X7X7X7X",
"7X7X7X7X7X7X7X7X7X7X7X7X7X7X7X7X% 2 - - 2 - 2 % % 2 : 6 * 5 6 6 ; ; - - = 7X7X7X7X7X7X7X7X7X7X7X7X7X7X7X7X7X7X7X7X7X7X7X7X7X7X7X",
"7X7X7X7X7X7X7X7X7X7X7X7X7X7X7X7X7X7X7X7X7X7X7X7X7X7X7X% :.N o 7X7X7X7X7X7X7X7X7X7X7X7X7X7X7X7X7X7X7X7X7X7X7X7X7X7X7X7X7X7X7X7X7X",
"7X7X7X7X7X7X7X7X7X7X7X7X7X7X7X7X7X7X7X7X7X7X7X7X7X7X7X6  X#.o 7X7X7X7X7X7X7X7X7X7X7X7X7X7X7X7X7X7X7X7X7X7X7X7X7X7X7X7X7X7X7X7X7X",
"7X7X7X7X7X7X7X7X7X7X7X7X7X7X7X7X7X7X7X7X7X7X7X7X7X7X7X- M.V O $ % $ % 7X7X7X7X7X7X7X7X7X* % % * $ 2 7X7X7X7X7X7X7X7X7X7X7X7X7X7X",
"7X7X7X7X7X7X7X7X7X7X7X7X7X7X7X7X7X7X7X7X7X7X7X7X7X7X7X= 2 % = % $ 2 % 2 7X7X7X7X7X% = = = % = * $ $ % % 7X7X7X7X7X7X7X7X7X7X7X7X",
"7X7X7X7X7X7X7X7X7X7X7X7X7X7X7X7X7X7X7X7X7X7X7X7X7X7X7X% # : B R ( B 1 % = 7X7X7X$ 2 # o O a s s s 2 $ % 7X7X7X7X7X7X7X7X7X7X7X7X",
"7X7X7X7X7X7X7X7X7X7X7X7X7X7X7X7X7X7X7X7X7X7X7X7X7X7X7X= $ B r.N.N.q.n $ 2 7X7X7X= $ t H A  .;./ j = $ $ 7X7X7X7X7X7X7X7X7X7X7X7X",
"7X7X7X7X7X7X7X7X7X7X7X7X7X7X7X7X7X7X7X7X7X7X7X7X7X7X7X= # V r.w.q.N.K # % 7X7X7X= # c m.Z.2.<.-.c 2 $ 2 7X7X7X7X7X7X7X7X7X7X7X7X",
"7X7X7X7X7X7X7X7X7X7X7X7X7X7X7X* = * 7X7X7X7X7X7X7X7X7X* $ , T e.w.N.V $ $ 7X7X7X% $ 9 D >.j.1.>.-.6 # % 7X7X7X7X7X7X7X7X7X7X7X7X",
"7X7X7X7X7X7X7X7X7X7X7X7X7X7X% #   @ = 7X7X7X7X7X7X7X7X= $ V w.w.w.B.V $ 2 7X7X7X7X* # a >.g.n.>.o.2 # 2 7X7X7X7X7X7X7X7X7X7X7X7X",
"7X7X7X7X7X7X7X7X7X7X7X7X* & = A #X@X@ 7X7X7X7X7X7X7X7X= # K B.q.q.B.V $ 2 7X7X7X7X2 # t <.A.n.>.o.- & % 7X7X7X7X7X7X7X7X7X7X7X7X",
"7X7X7X7X7X7X7X7X7X7X7X7X* & ; l.2X*X  7X7X7X7X7X7X7X7X= # J N.q.q.q.B $ = 7X7X7X7X7X# 8 -.f.n.>.o.2 $ = 7X7X7X7X7X7X7X7X7X7X7X7X",
"7X7X7X7X7X7X7X7X7X7X7X7X* $ ; i. Xy.# % 7X7X7X7X7X7X7X= $ V N.r.w.P , $ = 7X7X7X7X7X7X2 l s.n.>.-.2 $ % 7X7X7X7X7X7X7X7X7X7X7X7X",
"7X7X7X7X7X7X7X7X7X7X7X7X* $ : i. Xt.# % 7X7X7X7X7X7X7X= # L B.r.N.T , $ = 7X7X7X7X7X% $ 5 o.,.,.o.5 # = 7X7X7X7X7X7X7X7X7X7X7X7X",
"7X7X7X7X7X7X7X7X7X7X7X7X= $ 6 d.XX#.X O 7X7X7X7X7X7X7X= % 7 K B.N.T e $ = 7X7X7X7X7X7X& * X.,.,.o.2 # % 7X7X7X7X7X7X7X7X7X7X7X7X",
"7X7X7X7X7X7X7X7X7X7X7X7X= # 5 %.(.C.N z 2 7X7X7X7X7X7X= = @ 6 L 0.T , $ = 7X7X7X7X7X7X7X- o.,.,.o.2 $ * 7X7X7X7X7X7X7X7X7X7X7X7X",
"7X7X7X7X7X7X7X7X7X7X7X7X7X7X2 ' J.XX].m.a O 7X7X7X7X7X= = * $ & < P < $ % 7X7X7X7X7X7X7X-  .>.,.o.6 # = 7X7X7X7X7X7X7X7X7X7X7X7X",
"7X7X7X7X7X7X7X7X7X7X7X7X7X7X* $ @.(.[./.f # = 7X7X7X7X= = & $ $ * n n $ = 7X7X7X7X7X7X7X= j X.<.-.2 $ = 7X7X7X7X7X7X7X7X7X7X7X7X",
"7X7X7X7X7X7X7X7X7X7X7X7X7X7X% O I c.OX2XW   2 7X7X7X7X= $ E ~ 8 @ % : * = 7X7X7X7X7X7X% ; #.1. .8 * 7X7X7X7X7X7X7X7X7X7X7X7X7X7X",
"7X7X7X7X7X7X7X7X7X7X7X7X7X7X* # @.c.OX5X)   $ 7X7X7X7X% @ ~ 5.~ E 9 * % = 7X7X7X7X7X% $ ; s.L.v o % 7X7X7X7X7X7X7X7X7X7X7X7X7X7X",
"7X7X7X7X7X7X7X7X7X7X7X7X7X7X% # U v.OX1X^ . # 7X7X7X7X= @ Q 5.6.5.:.s $ = 7X7X7X7X7X7X$ 6 u.m.v # % 7X7X7X7X7X7X7X7X7X7X7X7X7X7X",
"7X7X7X7X7X7X7X7X7X7X7X7X7X7X2 # @.~.'.'.8.p O % 7X7X7X= @ Q 5.3.3.5.Q @ = 7X7X7X7X7X7X7X2 a.$.9 $ * 7X7X7X7X7X7X7X7X7X7X7X7X7X7X",
"7X7X7X7X7X7X7X7X7X7X7X7X7X7X7X# ` K.[.`.T.T.b.% $ 7X7X* $ j / Q 3.$X! @ * 7X7X7X7X7X7X7X- S H j % 7X7X7X7X7X7X7X7X7X7X7X7X7X7X7X",
"7X7X7X7X7X7X7X7X7X7X7X7X7X7X7X$ r O.`.`.[.oXA.# # 7X7X* $ s h v 3.3.l & * 7X7X7X7X7X7X7X7X7 9 9 7X7X7X7X7X7X7X7X7X7X7X7X7X7X7X7X",
"7X7X7X7X7X7X7X7X7X7X7X7X7X7X7X= X g P.T.'.|.C.g - 7X7X% $ 7 j j ^ E > $ = 7X7X7X7X7X7X7X7X$ # 7X7X7X7X7X7X7X7X7X7X7X7X7X7X7X7X7X",
"7X7X7X7X7X7X7X7X7X7X7X7X7X7X7X= O m P.j.G.'._.Z.d 7X7X7X2 % % % $ $ * * 7X7X7X7X7X7X7X7X7X7X7X7X7X7X7X7X7X7X7X7X7X7X7X7X7X7X7X7X",
"7X7X7X7X7X7X7X7X7X7X7X7X7X7X7X= O M R.g.k.Q.I.7.t 7X7X7X7X7X7X7X7X7X7X7X7X7X7X7X7X7X7X7X7X7X7X7X7X7X7X7X7X7X7X7X7X7X7X7X7X7X7X7X",
"7X7X7X7X7X7X7X7X7X7X7X7X7X7X7X7X# 7 A =.8.O.h y - 7X7X7X7X7X7X7X7X7X7X7X7X7X7X7X7X7X7X7X7X7X7X7X7X7X7X7X7X7X7X7X7X7X7X7X7X7X7X7X",
"7X7X7X7X7X7X7X7X7X7X7X7X7X7X7X7X7X# $ _ ' u X O 7X7X7X7X7X7X7X7X7X7X7X7X7X7X7X7X7X7X7X7X7X7X7X7X7X7X7X7X7X7X7X7X7X7X7X7X7X7X7X7X",
"7X7X7X7X7X7X7X7X7X7X7X7X7X7X7X7X7X7X% = = 7X7X7X7X7X7X7X7X7X7X7X7X7X7X7X7X7X7X7X7X7X7X7X7X7X7X7X7X7X7X7X7X7X7X7X7X7X7X7X7X7X7X7X"
};
