/* XPM */
static char *result[] = {
/* columns rows colors chars-per-pixel */
"64 64 223 2 ",
"   c #030016",
".  c #0D0016",
"X  c #050018",
"o  c #0D0119",
"O  c #13011A",
"+  c #1C041C",
"@  c #1E091C",
"#  c #150117",
"$  c #24071D",
"%  c #21081D",
"&  c #290B1E",
"*  c #29051F",
"=  c #24131C",
"-  c #29121F",
";  c #291C1C",
":  c #301E1B",
">  c #3B361F",
",  c #2B241C",
"<  c #2A0E20",
"1  c #260D24",
"2  c #330E21",
"3  c #390621",
"4  c #2B1421",
"5  c #2D1C22",
"6  c #261020",
"7  c #321423",
"8  c #331C22",
"9  c #391927",
"0  c #2F2024",
"q  c #352224",
"w  c #392424",
"e  c #3B2927",
"r  c #3B3526",
"t  c #51391D",
"y  c #4B331E",
"u  c #590D28",
"i  c #471424",
"p  c #5B1B29",
"a  c #581727",
"s  c #470824",
"d  c #66122A",
"f  c #7C1F2F",
"g  c #422C25",
"h  c #47272A",
"j  c #5A262A",
"k  c #4E3A23",
"l  c #473429",
"z  c #473527",
"x  c #563D27",
"c  c #563A32",
"v  c #6E212B",
"b  c #7B272E",
"n  c #693B2D",
"m  c #653330",
"M  c #6A3434",
"N  c #683A33",
"B  c #773B2F",
"V  c #49511F",
"C  c #454829",
"Z  c #534126",
"A  c #565933",
"S  c #53512A",
"D  c #624C2A",
"F  c #654828",
"G  c #63532D",
"H  c #6C582B",
"J  c #71562A",
"K  c #684935",
"L  c #764739",
"P  c #6C5E35",
"I  c #586337",
"U  c #7D672E",
"Y  c #746838",
"T  c #657B33",
"R  c #7C7239",
"E  c #6C6036",
"W  c #573445",
"Q  c #6B464D",
"!  c #6E4C5B",
"~  c #775756",
"^  c #735264",
"/  c #891B31",
"(  c #962933",
")  c #AA3638",
"_  c #BC3D3B",
"`  c #AC2A38",
"'  c #8C583A",
"]  c #A84C39",
"[  c #B7453C",
"{  c #AF5B38",
"}  c #826B2F",
"|  c #846D31",
" . c #897A38",
".. c #9A7D35",
"X. c #977A37",
"o. c #9A6C35",
"O. c #A46F37",
"+. c #CA5F3E",
"@. c #C34A3D",
"#. c #C6773D",
"$. c #835A5C",
"%. c #A95F43",
"&. c #946C43",
"*. c #A56542",
"=. c #B56D47",
"-. c #AE7845",
";. c #B77346",
":. c #896D7B",
">. c #8E747A",
",. c #90656A",
"<. c #C24F42",
"1. c #E14742",
"2. c #D36340",
"3. c #D17C41",
"4. c #6D863B",
"5. c #73913C",
"6. c #748F43",
"7. c #7C9C47",
"8. c #7D9E48",
"9. c #799647",
"0. c #7EA048",
"q. c #9C8B33",
"w. c #9A8637",
"e. c #9A9137",
"r. c #99832A",
"t. c #A38B38",
"y. c #A5923A",
"u. c #AB943A",
"i. c #A59536",
"p. c #B49E3B",
"a. c #B89A3C",
"s. c #AD8A32",
"d. c #AEA13A",
"f. c #B3A33D",
"g. c #B9A23C",
"h. c #BCB33D",
"j. c #BAB839",
"k. c #CA9E3B",
"l. c #C88E3F",
"z. c #C2AA3D",
"x. c #C0A23C",
"c. c #C7B63B",
"v. c #C8C33B",
"b. c #998753",
"n. c #979143",
"m. c #BC8045",
"M. c #B88548",
"N. c #B99849",
"B. c #82A549",
"V. c #85AB4C",
"C. c #88AF4F",
"Z. c #8AB14E",
"A. c #8FBA52",
"S. c #A9A446",
"D. c #BBAB42",
"F. c #BAA44C",
"G. c #B6A944",
"H. c #BBB344",
"J. c #B4B34D",
"K. c #BCBB4D",
"L. c #BABA42",
"P. c #9F8569",
"I. c #CA8946",
"U. c #C99244",
"Y. c #D0964E",
"T. c #C4AD43",
"R. c #C6A847",
"E. c #D2A94B",
"W. c #C3B544",
"Q. c #C2BE4C",
"!. c #C7BA46",
"~. c #D4B94C",
"^. c #C4BE50",
"/. c #E2AD46",
"(. c #CDBE66",
"). c #C3C443",
"_. c #CBCE43",
"`. c #C5C54C",
"'. c #CCC44D",
"]. c #C6C94C",
"[. c #CCCA4E",
"{. c #D3C247",
"}. c #D4D445",
"|. c #C6C552",
" X c #C8C752",
".X c #C8CA53",
"XX c #CBCD5B",
"oX c #CCD256",
"OX c #CDDC57",
"+X c #CED05F",
"@X c #D2D455",
"#X c #D6D957",
"$X c #DADB55",
"%X c #D6DA58",
"&X c #DADD59",
"*X c #D3D35C",
"=X c #DBE15A",
"-X c #E5EC5D",
";X c #D8D86B",
":X c #D5D877",
">X c #D0CE60",
",X c #DEE26E",
"<X c #E0E26F",
"1X c #DADB8C",
"2X c #D8DA80",
"3X c #DBDC90",
"4X c #DFDD9B",
"5X c #D5CE98",
"6X c #DEE192",
"7X c #DDEC93",
"8X c #EBED98",
"9X c #E2DDB2",
"0X c #E5E5AE",
"qX c #E4E5AA",
"wX c #EAE9B5",
"eX c #F9F6BA",
"rX c #F2EEDC",
"tX c #F4F4DA",
"yX c #F0EEC8",
"uX c #F9F9EB",
"iX c #FFFFFE",
"pX c #FCFBF5",
"aX c None",
/* pixels */
"aXaXaXaXaXaXaXaXaXaXaXaXaXaXaXaXaXaXaXaXaXaXaX% % % % @ % % % @ % @ @ % % % % % % % % aXaXaXaXaXaXaXaXaXaXaXaXaXaXaXaXaXaXaXaXaX",
"aXaXaXaXaXaXaXaXaXaXaXaXaXaXaXaXaXaXaXaXaX% @ 1 + o O O o . . O . O o O O o o O o O % % % aXaXaXaXaXaXaXaXaXaXaXaXaXaXaXaXaXaXaX",
"aXaXaXaXaXaXaXaXaXaXaXaXaXaXaXaXaXaXaXaX% @ + O * i h e g l l l l l l l g g g g i 2 + O @ @ aXaXaXaXaXaXaXaXaXaXaXaXaXaXaXaXaXaX",
"aXaXaXaXaXaXaXaXaXaXaXaXaXaXaXaXaXaXaX% % @ + o u _ s.d.G.K..X|.|.`.|.K.f.u.p.p.+./ O O @ % 1 aXaXaXaXaXaXaXaXaXaXaXaXaXaXaXaXaX",
"aXaXaXaXaXaXaXaXaXaXaXaXaXaXaXaXaXaX% % o 5 | | ..k.c.v.v._._._._._._._.'. X[.'.E.N.n.X.k X @ % aXaXaXaXaXaXaXaXaXaXaXaXaXaXaXaX",
"aXaXaXaXaXaXaXaXaXaXaXaXaXaXaXaXaXaX@ @ 3 B c.c.*X7X6X6X6X3X3X3X3X3X3X1X.X].oX.XoXOX&X$Xo.s * @ % aXaXaXaXaXaXaXaXaXaXaXaXaXaXaX",
"aXaXaXaXaXaXaXaXaXaXaXaXaXaXaXaXaXaX+ O b +.a.L.4XiXiXiXiXiXiXiXiXiXiXpX:X]..X.X.X.X.XOXY.) 2 O % aXaXaXaXaXaXaXaXaXaXaXaXaXaXaX",
"aXaXaXaXaXaXaXaXaXaXaXaXaXaXaXaX@ 1 + X J k.p.0XiXiXiXiXiXiXiXiXiXiXiXiXpX4X)..X.X.X.X+X{.O.; o % % aXaXaXaXaXaXaXaXaXaXaXaXaXaX",
"aXaXaXaXaXaXaXaXaXaXaXaXaXaXaXaX% + & u o.j.H.4XwX0X0X0X0X0X0X0X0X0X0X0XwX1X`.|..X.X.X.X).u.b 3 O % aXaXaXaXaXaXaXaXaXaXaXaXaXaX",
"aXaXaXaXaXaXaXaXaXaXaXaXaXaXaXaX% O 2 [ #.H..X].).).).).).).).).).).).).).`..X.X.X.X.X.X`.N.+.v O % aXaXaXaXaXaXaXaXaXaXaXaXaXaX",
"aXaXaXaXaXaXaXaXaXaXaXaXaXaXaXaX@ O 7 t.x.g..X.X.X.X.X]. X.X|. X]. X.X.X.X.X|..X.X.X.X.X.X`.R.F O @ aXaXaXaXaXaXaXaXaXaXaXaXaXaX",
"aXaXaXaXaXaXaXaXaXaXaXaXaXaXaXaX% O 8 i.'.Q..X.X.X X.X|..X.X.X.X.X.X.X.X.X.X.X.X.X.X.X.X.X.XW.D o % aXaXaXaXaXaXaXaXaXaXaXaXaXaX",
"aXaXaXaXaXaXaXaXaXaXaXaXaXaXaXaX@ O 8 t..XoX.X X.X.X.X.X.X.X X.X.X.X.X.X.X.X.X.X.X.X.X.X.X XQ.D O % aXaXaXaXaXaXaXaXaXaXaXaXaXaX",
"aXaXaXaXaXaXaXaXaXaXaXaXaXaXaXaX1 O 8 t.'..X.X X.X|..X.X.X.X.X.X.X.X X.X.X X X.X|..X.X.X.X.X%XP o @ aXaXaXaXaXaXaXaXaXaXaXaXaXaX",
"aXaXaXaXaXaXaXaXaXaXaXaXaXaXaXaX% o q G.@X.X.XoXoX.XoX.X.X.X.X.X X.X.X.X.X.X.X.X.X.X.X|..X.X%XE o % aXaXaXaXaXaXaXaXaXaXaXaXaXaX",
"aXaXaXaXaXaXaXaXaXaXaXaXaXaXaXaX% O q J.=X`.h.h.h.h.Q.|..X.X.X.X.X.X X.X.X|..X.X.X.X.X.X.X.X%XP . % aXaXaXaXaXaXaXaXaXaXaXaXaXaX",
"aXaXaXaXaXaXaXaXaXaXaXaXaXaXaXaX% O q J.%X^.F.N.F.N.n.D.oX.X.X X.X.X.X|..X.X.X X.X.X.X.X.X.X%XP o % aXaXaXaXaXaXaXaXaXaXaXaXaXaX",
"aXaXaXaXaXaXaXaXaXaXaXaXaXaXaXaX@ O q J.v.>XrXrXrXyX$. .@X.X.X.X.X.X.X.X.X.X.X.X X.X.X.X.X.X&XE . % aXaXaXaXaXaXaXaXaXaXaXaXaXaX",
"aXaXaXaXaXaXaXaXaXaXaXaXaXaXaXaX% O q K.i.P.iXiXiXiX! U #X.X.X X|..X.X.X.X|..X.X X.X.X.X.X.X'.G o % aXaXaXaXaXaXaXaXaXaXaXaXaXaX",
"aXaXaXaXaXaXaXaXaXaXaXaXaXaXaXaX% O w K.U ^ iXiXiXpX! U @X.X[. X.X.X.X.X.X.X.X.X.X X.X.X.X.XT.F O % aXaXaXaXaXaXaXaXaXaXaXaXaXaX",
"aXaXaXaXaXaXaXaXaXaXaXaXaXaXaXaX% O w K.} ^ iXiXiXpX! U #X.X|. X.X.X|..X.X.X.X.X.X.X.X.X.X XW.D o % aXaXaXaXaXaXaXaXaXaXaXaXaXaX",
"aXaXaXaXaXaXaXaXaXaXaXaXaXaXaXaX% O w J.Q.b.>.:.:.>.b.J.oX.X.X X.X.X.X.X.X X X.X.X.X.X.X`.H.!.D O % aXaXaXaXaXaXaXaXaXaXaXaXaXaX",
"aXaXaXaXaXaXaXaXaXaXaXaXaXaXaXaX@ O q J.-XK.J F D J K.=X.XoXoXoX@X@XoXoXoXXXoX.X.X.X.X|.D.p.l.n o % aXaXaXaXaXaXaXaXaXaXaXaXaXaX",
"aXaXaXaXaXaXaXaXaXaXaXaXaXaXaXaX@ O q J.$X.X.X.X.XoX.X X|.|.|.|.|.|.|.|.|. X X.X.X.X XD.f.a.@.d o % aXaXaXaXaXaXaXaXaXaXaXaXaXaX",
"aXaXaXaXaXaXaXaXaXaXaXaXaXaXaXaX% O q J.%X[..XoX.XoX@XF.*.-.&.c q q q e K &.Y.!.W.D.D.j.l.[ p 1 @ % aXaXaXaXaXaXaXaXaXaXaXaXaXaX",
"aXaXaXaXaXaXaXaXaXaXaXaXaXaXaXaX% O q J.%X.X.X.X.X.XQ.N.-.M.&.P Z Z t y N M N J u.c.g.U.] d + O % % aXaXaXaXaXaXaXaXaXaXaXaXaXaX",
"aXaXaXaXaXaXaXaXaXaXaXaXaXaXaXaX@ O q G.%X.X.X.X.X|.g.H.OXoXoX+X;X<X*Xh.;.m   o J f.t.[ d o @ % @ aXaXaXaXaXaXaXaXaXaXaXaXaXaXaX",
"aXaXaXaXaXaXaXaXaXaXaXaXaXaXaXaX% O 8 y.'..X.X.X.X.X|..X.X.X).2XpXpXwXc.z.x   + 7 w 8 9 2 @ @ % aXaXaXaXaXaXaXaXaXaXaXaXaXaXaXaX",
"aXaXaXaXaXaXaXaXaXaXaXaXaXaXaXaX% O 8 t.'..X.X.X.X.X.X.X.X.X`.;XqXqXyXwX*Xq.Z & O O aXaXaXaXaXaXaXaXaXaXaXaXaXaXaXaXaXaXaXaXaXaX",
"aXaXaXaXaXaXaXaXaXaXaXaXaXaXaXaX% O 8 y.'. X.X.X.X.X.X.X.X.X.X`.v.j.1XuX:X}.u.- O % aXaXaXaXaXaXaXaXaXaXaXaXaXaXaXaXaXaXaXaXaXaX",
"aXaXaXaXaXaXaXaXaXaXaXaXaXaXaXaX@ O 8 u.z.D..XoX.X.X.X X.X.X.X.X.X.X.XXX.X&XS.4 O % aXaXaXaXaXaXaXaXaXaXaXaXaXaXaXaXaXaXaXaXaXaX",
"aXaXaXaXaXaXaXaXaXaXaXaXaXaXaXaX% + @ g ..{..X.X.X.X X X.X.X.X.X X.X.X`..X@Xw.; O % aXaXaXaXaXaXaXaXaXaXaXaXaXaXaXaXaXaXaXaXaXaX",
"aXaXaXaXaXaXaXaXaXaXaXaXaXaXaXaX+ 4 1   g y.'..X.X.X X.X.X.X.X.X.X.X.X.X|.!.w.& + @ aXaXaXaXaXaXaXaXaXaXaXaXaXaXaXaXaXaXaXaXaXaX",
"aXaXaXaXaXaXaXaXaXaXaXaXaXaXaXaX+ e N 4 . w u.'..X|..X.X X.X X.X.X.X.X`.G.x.w.- O % aXaXaXaXaXaXaXaXaXaXaXaXaXaXaXaXaXaXaXaXaXaX",
"aXaXaXaXaXaXaXaXaXaXaXaXaXaXaXaXO j _ ) i   w y.{.D.|.oXXX X.X.X.XoX`.G.h.l.) & O % aXaXaXaXaXaXaXaXaXaXaXaXaXaXaXaXaXaXaXaXaXaX",
"aXaXaXaXaXaXaXaXaXaXaXaXaXaXaXaXO v 1.1.) i o z ..W.'.'.[.@X&X@X[.[.R.#.#.] u & + aXaXaXaXaXaXaXaXaXaXaXaXaXaXaXaXaXaXaXaXaXaXaX",
"aXaXaXaXaXaXaXaXaXaXaXaXaXaXaXaXO p ) ) _ ( $   g u.t.w.y.S.J.S.w.i.o.` ` a o @ aXaXaXaXaXaXaXaXaXaXaXaXaXaXaXaXaXaXaXaXaXaXaXaX",
"aXaXaXaXaXaXaXaXaXaXaXaXaXaXaXaX% 1 2 2 2 < % @ & 8 8 8 4 & 5 8 7 4 2 2 2 & @ aXaXaXaXaXaXaXaXaXaXaXaXaXaXaXaXaXaXaXaXaXaXaXaXaX",
"aXaXaXaXaXaXaXaXaXaXaXaXaXaXaXaXaXaXaXaXaXaXaXaXaXaXaX. 1 Y g   aXaXaXaXaXaXaXaXaXaXaXaXaXaXaXaXaXaXaXaXaXaXaXaXaXaXaXaXaXaXaXaX",
"aXaXaXaXaXaXaXaXaXaXaXaXaXaXaXaXaXaXaXaXaXaXaXaXaXaXaXaXl &XR . aXaXaXaXaXaXaXaXaXaXaXaXaXaXaXaXaXaXaXaXaXaXaXaXaXaXaXaXaXaXaXaX",
"aXaXaXaXaXaXaXaXaXaXaXaXaXaXaXaXaXaXaXaXaXaXaXaXaXaXaXaXg  XY o % % % % aXaXaXaXaXaXaXaXaXaXaXaXaXaXaXaXaXaXaXaXaXaXaXaXaXaXaXaX",
"aXaXaXaXaXaXaXaXaXaXaXaXaXaXaXaXaXaXaXaXaXaXaXaXaXaXaXaX4 Z 8 O O # O + % aXaXaXaXaXaXaXaXaXaXaXaXaXaXaXaXaXaXaXaXaXaXaXaXaXaXaX",
"aXaXaXaXaXaXaXaXaXaXaXaXaXaXaXaXaXaXaXaXaXaXaXaXaXaXaXaX+ o @ > l C r : % @ aXaXaXaXaXaXaXaXaXaXaXaXaXaXaXaXaXaXaXaXaXaXaXaXaXaX",
"aXaXaXaXaXaXaXaXaXaXaXaXaXaXaXaXaXaXaXaXaXaXaXaXaXaXaXaX+ + r T B.C.5.V - + % aXaXaXaXaXaXaXaXaXaXaXaXaXaXaXaXaXaXaXaXaXaXaXaXaX",
"aXaXaXaXaXaXaXaXaXaXaXaXaXaXaXaXaXaXaXaXaXaXaXaXaXaXaXaX% # A V.0.0.0.6.5 O % aXaXaXaXaXaXaXaXaXaXaXaXaXaXaXaXaXaXaXaXaXaXaXaXaX",
"aXaXaXaXaXaXaXaXaXaXaXaXaXaXaXaXaXaXaXaXaXaXaXaXaXaXaXaX$ @ C 5.8.8.C.9.q O % aXaXaXaXaXaXaXaXaXaXaXaXaXaXaXaXaXaXaXaXaXaXaXaXaX",
"aXaXaXaXaXaXaXaXaXaXaXaXaXaXaXaXaXaXaXaXaXaXaXaXaXaXaXaX+ + > T 8.8.B.6.5 O % aXaXaXaXaXaXaXaXaXaXaXaXaXaXaXaXaXaXaXaXaXaXaXaXaX",
"aXaXaXaXaXaXaXaXaXaXaXaXaXaXaXaXaXaXaXaXaXaXaXaXaXaXaXaX+ + A V.8.7.B.6.0 + % aXaXaXaX% % % % aXaXaXaXaXaXaXaXaXaXaXaXaXaXaXaXaX",
"aXaXaXaXaXaXaXaXaXaXaXaXaXaXaXaXaXaXaXaXaXaXaXaXaXaXaXaX+ + I Z.7.7.V.9.q O % aXaX% @ O o O @ % aXaXaXaXaXaXaXaXaXaXaXaXaXaXaXaX",
"aXaXaXaXaXaXaXaXaXaXaXaXaXaXaXaXaXaXaXaXaXaXaXaXaXaXaXaX+ # I Z.7.8.7.T 5 + @ aX+ O + s j g & @ 1 aXaXaXaXaXaXaXaXaXaXaXaXaXaXaX",
"aXaXaXaXaXaXaXaXaXaXaXaXaXaXaXaXaXaXaXaXaXaXaXaXaXaXaXaX@ + I V.7.0.4.V = + @ @ @ + 1 ( #.u.q O % aXaXaXaXaXaXaXaXaXaXaXaXaXaXaX",
"aXaXaXaXaXaXaXaXaXaXaXaXaXaXaXaXaXaXaXaXaXaXaXaXaXaXaXaX@ @ = A C.A.5.V - o = | q.e.n.R.~.i.% . % % aXaXaXaXaXaXaXaXaXaXaXaXaXaX",
"aXaXaXaXaXaXaXaXaXaXaXaXaXaXaXaXaXaXaXaXaXaXaXaXaXaXaXaX@ # . - I I C , X 0 R c.8X8X=XOX[.u.H q + % aXaXaXaXaXaXaXaXaXaXaXaXaXaX",
"aXaXaXaXaXaXaXaXaXaXaXaXaXaXaXaXaXaXaXaXaXaXaXaXaXaXaXaX1 7 1 + O * = & @ w.=X+XtXyX].oXH.f.T.J o @ aXaXaXaXaXaXaXaXaXaXaXaXaXaX",
"aXaXaXaXaXaXaXaXaXaXaXaXaXaXaXaXaXaXaXaXaXaXaXaXaXaXaXaX5 ,.W . # J r.r.d.L.:XpX0X.X.XoX`.p.2.v o @ aXaXaXaXaXaXaXaXaXaXaXaXaXaX",
"aXaXaXaXaXaXaXaXaXaXaXaXaXaXaXaXaXaXaXaXaXaXaXaXaXaXaX# 1 W 1 6 R 5XeXwX,X}.<XeX;Xv.&XoXE.+.b 3 + % aXaXaXaXaXaXaXaXaXaXaXaXaXaX",
"aXaXaXaXaXaXaXaXaXaXaXaXaXaXaXaXaXaXaXaXaXaXaXaXaXaX@ 1 ; : ; H $XeXuXuX;XL.S.e.w.w.S.e.] / % o % % aXaXaXaXaXaXaXaXaXaXaXaXaXaX",
"aXaXaXaXaXaXaXaXaXaXaXaXaXaXaXaXaXaXaXaXaX% 1 + @ @ + 5 K i.f.f.D.T.F.W.$XR @ ; < - 4 - = & % % % aXaXaXaXaXaXaXaXaXaXaXaXaXaXaX",
"aXaXaXaXaXaXaXaXaXaXaXaXaXaXaXaXaX# . o O o O 9 h e O p <.2./.f.x y t t G w o O O O O O O O aXaXaXaXaXaXaXaXaXaXaXaXaXaXaXaXaXaX",
"aXaXaXaXaXaXaXaXaXaXaXaXaXaXaXaX+ w A A Z k k K ' Q 9 p ( / ' G o   . . o # % @ % % 1 % % % aXaXaXaXaXaXaXaXaXaXaXaXaXaXaXaXaXaX",
"aXaXaXaXaXaXaXaXaXaXaXaXaXaXaX% . P &XoXW.f.g.-.%.{ L 9 O @ + + * 1 % 1 + 1 @ @ aXaXaXaXaXaXaXaXaXaXaXaXaXaXaXaXaXaXaXaXaXaXaXaX",
"aXaXaXaXaXaXaXaXaXaXaXaXaXaXaX% . K Y.I.m.I.;.;.=.=.=.c o + O < c $.~ h < + % @ aXaXaXaXaXaXaXaXaXaXaXaXaXaXaXaXaXaXaXaXaXaXaXaX",
"aXaXaXaXaXaXaXaXaXaXaXaXaXaXaX% # i M m N M N N N M L h + + @ < h Q Q h < + % % aXaXaXaXaXaXaXaXaXaXaXaXaXaXaXaXaXaXaXaXaXaXaXaX",
"aXaXaXaXaXaXaXaXaXaXaXaXaXaXaXaX$ % % % % @ % % $ % % % % @ % % % % @ % @ @ % aXaXaXaXaXaXaXaXaXaXaXaXaXaXaXaXaXaXaXaXaXaXaXaXaX"
};
