/* XPM */
static char *afce57e430e94fb09aa1ef6110fe57b95ZtA2hOLUa1LANTo[] = {
/* columns rows colors chars-per-pixel */
"64 64 222 2 ",
"   c None",
".  c #040014",
"X  c #0D0016",
"o  c #0E0019",
"O  c #130016",
"+  c #13011A",
"@  c #1C041C",
"#  c #1E0A1D",
"$  c #180416",
"%  c #1E111E",
"&  c #21091D",
"*  c #28071E",
"=  c #29141E",
"-  c #32121F",
";  c #2F251D",
":  c #31261D",
">  c #3E3D1F",
",  c #340921",
"<  c #2B1322",
"1  c #2B1C23",
"2  c #251421",
"3  c #311622",
"4  c #331B23",
"5  c #391B25",
"6  c #34192C",
"7  c #2C0F20",
"8  c #3A2323",
"9  c #3E232B",
"0  c #352623",
"q  c #3C3926",
"w  c #2E2024",
"e  c #5A1628",
"r  c #4D0D24",
"t  c #6A0E2A",
"y  c #442C2B",
"u  c #462729",
"i  c #5D2D2F",
"p  c #562928",
"a  c #4D3727",
"s  c #563D27",
"d  c #5E322E",
"f  c #583D2B",
"g  c #492935",
"h  c #502C31",
"j  c #5E3A36",
"k  c #563738",
"l  c #65362C",
"z  c #75322E",
"x  c #633E37",
"c  c #663933",
"v  c #753835",
"b  c #702C35",
"n  c #424421",
"m  c #464A22",
"M  c #55452E",
"N  c #5B4429",
"B  c #5F4B2A",
"V  c #4F5A21",
"C  c #4B5223",
"Z  c #575828",
"A  c #5D4A34",
"S  c #4F5433",
"D  c #585633",
"F  c #634C2A",
"G  c #69552C",
"H  c #725B2D",
"J  c #674239",
"K  c #7B4536",
"L  c #7B4C3C",
"P  c #784938",
"I  c #635532",
"U  c #665934",
"Y  c #685B35",
"T  c #775834",
"R  c #566429",
"E  c #586928",
"W  c #596136",
"Q  c #5D702A",
"!  c #6E6536",
"~  c #776536",
"^  c #7C743A",
"/  c #7E652F",
"(  c #583742",
")  c #754F4A",
"_  c #7E5754",
"`  c #63414A",
"'  c #7D6B40",
"]  c #851C30",
"[  c #A81C34",
"{  c #862D34",
"}  c #923337",
"|  c #8E3732",
" . c #A62E36",
".. c #874836",
"X. c #885439",
"o. c #BB483B",
"O. c #B34B3C",
"+. c #826B31",
"@. c #837533",
"#. c #887030",
"$. c #906F37",
"%. c #B6793D",
"&. c #C9483F",
"*. c #C76B3F",
"=. c #9C5E41",
"-. c #985441",
";. c #A35C43",
":. c #A85F44",
">. c #B04D40",
",. c #977B44",
"<. c #A56342",
"1. c #AC6544",
"2. c #A66942",
"3. c #AD6B43",
"4. c #B26B46",
"5. c #B46645",
"6. c #AB7342",
"7. c #AD7B41",
"8. c #B47745",
"9. c #825A60",
"0. c #8E6462",
"q. c #9C706E",
"w. c #A7797A",
"e. c #D75141",
"r. c #D17443",
"t. c #748B42",
"y. c #7C9B47",
"u. c #779545",
"i. c #6F8540",
"p. c #7FA049",
"a. c #8F833B",
"s. c #9C8737",
"d. c #AA863C",
"f. c #B08E3F",
"g. c #AB973B",
"h. c #B5953E",
"j. c #B59D3C",
"k. c #B89E3D",
"l. c #B7A33D",
"z. c #BAA53D",
"x. c #BCAC3D",
"c. c #B5A93C",
"v. c #BCB23E",
"b. c #ADA23B",
"n. c #CD8B3E",
"m. c #C2AC3F",
"M. c #C3A23F",
"N. c #C8B43F",
"B. c #C4C33F",
"V. c #8C8840",
"C. c #918B42",
"Z. c #9D9646",
"A. c #B68C43",
"S. c #A69A4A",
"D. c #A09B46",
"F. c #B59847",
"G. c #82A64A",
"H. c #84AA4C",
"J. c #9FA949",
"K. c #8DB84F",
"L. c #ACA648",
"P. c #BBAB43",
"I. c #B5A847",
"U. c #BDB245",
"Y. c #B6B44D",
"T. c #BEBD50",
"R. c #C19A41",
"E. c #CB9746",
"W. c #D79048",
"Q. c #C3AE41",
"!. c #C5A94F",
"~. c #C4B242",
"^. c #CDBC44",
"/. c #C3BB4B",
"(. c #C7BA46",
"). c #D5AC51",
"_. c #CABC51",
"`. c #C7B750",
"'. c #D3BE43",
"]. c #B5C04F",
"[. c #C3C442",
"{. c #C7C844",
"}. c #C6C64D",
"|. c #CBC24B",
" X c #C7C94E",
".X c #CDC94A",
"XX c #CED348",
"oX c #C6C652",
"OX c #C9C551",
"+X c #C8C953",
"@X c #CBCC5B",
"#X c #C7CE54",
"$X c #CDD255",
"%X c #CCDA55",
"&X c #D2D556",
"*X c #D4D956",
"=X c #D6DA58",
"-X c #DADD59",
";X c #D6DA57",
":X c #D3CC4C",
">X c #DBE05A",
",X c #D8E258",
"<X c #EAEE5A",
"1X c #CECE64",
"2X c #D1D36C",
"3X c #D5D67B",
"4X c #D2D372",
"5X c #B28382",
"6X c #DADA8A",
"7X c #D8D883",
"8X c #DDDE95",
"9X c #D9E686",
"0X c #DFE09B",
"qX c #E2E2A3",
"wX c #E5E5AE",
"eX c #E6E6B1",
"rX c #E7E7B5",
"tX c #E9E9BC",
"yX c #F7F7E6",
"uX c #FFFFFF",
"iX c #FFFFFF",
"pX c #FBFBF1",
/* pixels */
"                                      & & & @ & & & # & & & & & & & & & & & & & @ & & # &                                       ",
"                                  & & & @ o + X + X X X o X X X o X X X o X X o + + o + # & &                                   ",
"                                & & + + * r a s a M M M M M M M M M M M M M M M a a p r @ + @ &                                 ",
"                              & @ & = # e e.F.x.~.$X&X&X&X$X&X$X&X$X$X&X$X&X&XOXz.z.E. .3 & & & &                               ",
"                            & & + # #.L.Y.`.OX XOX{.{.{.{.{.{.{.{.{.{.{.{.{.{.{.+X+X_.!.L.g.F o @ &                             ",
"                            # @ , { Q.-X&X$X#X{.@XeXrXeXeXeXeXeXeXeXeXeXeXeXtX8X[.}.#X%X-X,X%.t * # &                           ",
"                            # X e r._.$X+X+X.X@XqXuXuXuXuXuXuXuXuXuXuXuXuXuXuXyX7X@X}.+X#X%X).>.< + &                           ",
"                          & & o f Q.+X+X+X+X].wXuXuXuXuXuXuXuXuXuXuXuXuXuXuXuXuXiX3X[.+X+X+X&XY.4 + & &                         ",
"                          # @ t 5.XX#X+X+X+X}.2X3X3X3X3X3X3X3X3X3X3X3X3X3X3X3X3X3X@X X$X+XOX%X`. .r + &                         ",
"                          @ @ | W.$X+X+X+X+X+X}.B.B.].B.(.[.[.[.[.[.[.[.B.(.B.].B. X+X+X+X+X#XOXW.l o &                         ",
"                          @ + @.:X+X+X+X+X+X+X+X+X+X+X+X+X+XoX+X+X+XOX+X+X+X+XoX+X+X+X+X+X+X+X#X,XD o #                         ",
"                          @ + C.-X+X+X+X+X+X+X+X+X+X+X+X+X+X+X+X+X+X+X+X+X+X+X+X+X+X+X+X+X+X+X+X&XD X &                         ",
"                          @ @ C.>X+X+X+X+X+X+X+X+X+X+X+X+X+X+X+X+X+X+X+X+X+X+X+X+X+X+X+X+X+X+X+X&XA o &                         ",
"                          & + C.>X+X+X+X+X+X+X+X+X+X+X+X+X+X+X+X+X+X+X+X+X+X+X+X+X+X+X+X+X+X+X+X-XI X &                         ",
"                          @ @ a.-X X+X+X+X+X+X+X+X+X+X+X+X+X+X+X+X+X+X+X+X+X+X+X+X+X+X+X+X+X+X+X&XA X &                         ",
"                          @ + +.|.+X+X+X+X+X+X+X+X+X+X+X+XoX+X+X+X+X+X+X+X+X+X+X+X+X+X+X+X+X+X+X~.N o &                         ",
"                          @ @ / ^.+X+X+X+X+X+X+X+X+X+X+X+X+X+X+X+X+X+X+X+X+X+X+X+X+X+X+X+X+X+XOXQ.s + #                         ",
"                          @ @ +.|.@X+X+X+X+X+X+XoX+X+X+X+X+X+X+X+X+X+X+X+X+X+X+X+X+X+X+X+X+X#XOX~.s o &                         ",
"                          & @ +.|.OX+X+X+X+X+X+X+X+X+X+X+X+X+X+XoX+X+X+X+XoX+X+X+X+X+X+X+X+X+X+XQ.s o &                         ",
"                          @ + +.N.P.}.+X+X+X+X+X+X+X+X+X+XoX+X+X+X+X+X+X+X+X+X+X+X+X+X+X+X#X/.z.m.N o &                         ",
"                          @ @ @.m.l.+X#X+X+X+X+X+XoX+X+X+X+X+X+X+X+X+X+X+X+X+X+X+X+X+X+X+X#X/.j.m.N + @                         ",
"                          # $ X.M.P.U.+X+X+X+X+X+X+X+X+X+X+X+X+X+X+X+X+X+X+X+XoX+X+X+X+X+X+XP.l.~.N o &                         ",
"                          # $ ] *.z.j./.+X+X+X+X+X+X+X+X+XoX+X+X+X+X+X+X+X+X+X+X+X+X+X+XOXP.j.P.x.s + &                         ",
"                          & & @ l m./.+X+X+X+X+X+X+X+X+X+X+X+XoX+XoX+X+XoXOX+X+X+X+X+X+X+X}.+XI.y @ @ &                         ",
"                        & @ O 0 +.z.+X#X+X+X+X+X+X+X+X+X+X+X+X+X+X+X+X+X+X+X+X+X+X+X+X+X+X+X%XT.G & + & &                       ",
"                      & @ @ 4 s.'.P.OX#X+X+X+X+X+X+X+X+X+X+X+X+X+X+X+X+X+X+X+X+XoX+X+X+X+X+X+X+X:X~ & @ &                       ",
"                      & O 3 g.l.U.+X+X+X+X+X+X+X+X+X+X+X+X+XoX+X+X+X+XoX+X+X+X+X+X+X+X+X+X+X+X+XOX^./ + @                       ",
"                    & + a s.l.l.P.#X+X+X+X+X+X+X+X+X+X+X+X+X+X+X+X+X+X+X+X+X+XoX+X+X+X+X+X+X+X+X#X(.j.+.3 +                     ",
"                    @ + G '.l.j.~.@X+X+X+X+X+X+X+X+X+X+X+X+X+X+X+X+X+X+X+X+X+X+X+X+X+X+X+X+X+X+X#XU.Q.z.8 + @                   ",
"                    & o F Q.l.j.U.#X+X+X+X+X+X+X+X+X+X+X+X+X+X+X+X+XoX+X+X+X+X+X+X+X+X+X+X+X+X+X#X~.z.g.8 + &                   ",
"                    & + F m.l.j.U.#X+X+X+X+X+X+X+X+X+X+XoX+X+X+X+X+X+X+X+X+X+X+X+X+X+X+X+X+X+X+X@XP.M.g.8 + &                   ",
"                    & + F (.l.l.l.U.+X@X+X+X+X+X+X}.+X+X+X+X+X+X+X+X+X+X+X+X+X+X*X*X*X*X*X*X&X#X~.z.x.b.8 + &                   ",
"                    & o l E.l.P.l.j.U.+X#X+X+X+X+X+X+X+X+X+X+X+X+X+X+X+X+X@X=XOXS.S.S.S.S.S.I.OXl.l.M.%.5 +                     ",
"                      + e o.h.j.j.z.j.(.+XOX+X+X+X+X+X+X+X+X+X+X+X+X+X+X+XoX+XZ.h g h h h g T j.k.P.%.[ ,                       ",
"                        & r O.e.*.N.m.m.~.(.&X-X;X-X*X*X=X=X-X*X&X-X=X-X$X' 9 # @ + $ $ @ u M L &.&.| ,                         ",
"                          * { t p B F N N F I Y U U Y U Y Y Y A M U I ~ ,.} z H ^ ^ @.^ G | b g p { b                           ",
"                            k 1 X o o + + o X o X X o X o o . = 0 + . @ u O.E.(.-X>X>X;XN.W.>.i $ 1                             ",
"                                                            X ! +X8 + + & s.M.P.+X+X+X#X#X%XW. .,                               ",
"                                                  & & & & @ . T #X4 . o = g.N.P.+X{.8XpXyX9Xn.[ 7 +                             ",
"                                                & & & @ & : q i.L.W S q O a d.^. X].0XiXiX9Xm.%.3 + &                           ",
"                                    @ @ @ & @ @ & & @ & : E y.G.u.p.K.t.w . a L.+X{.6XpXuX6XXX].4 + &                           ",
"                              # & & @ @ @ & @ & & & @ : E u.G.y.p.p.p.p.u.w X a +X$X{.3XuX8XXXY.4 + &                           ",
"                            & & + # K F.! + C.Y + # @ : Q y.G.y.y.y.y.p.y.1 . y ^.+X X+X3X1X&XY.2 o & &                         ",
"                            & + ; F c F.I.d |.^ o & = > E y.G.u.y.p.p.p.u.R = = H Y.&X+X[.}.&XY.z , @ &                         ",
"                            # @ H F.3 H F.5.M.F o # m V E u.p.y.y.y.y.y.y.K.S X + Z.-X+X+X+X%X`.e.e + &                         ",
"                          @ @ v 3.<.=.d.h.<.4.l + & n V R u.p.y.y.y.p.p.y.K.S . + Z.-X+X+X+X$X`.&.r o &                         ",
"                          @ @ P 4.<.A.z.f.;.1.i o # n V R u.p.p.y.p.p.p.p.S o = +.Y.XX[.[.}.+XOX).l o &                         ",
"                          # @ K 5.2.j.x.h.6.8.i + # n V E p.H.H.p.p.H.y.W # = ~ |..X4X8X8X1X+X+X%XD o &                         ",
"                          # @ K 5.2.F.l.l.l.8.i o # n V R t.t.t.t.t.y.W O X H :X#X[.qXuXuX6X{.OXm.s o #                         ",
"                          @ + K 4.2.j.l.l.l.8.i o & n E C w = 1 1 1 1 < @ X G ^.+X[.qXuXuX7X[.+X~.s o &                         ",
"                          @ + ..4.2.k.c.l.j.8.i + & C C = @ X X X X + @ & F s.~.#X X4XqX0X2X}.U.N.N + @                         ",
"                          # @ c ;.<.j.l.l.l.8.i + @ > : + = u g g g 3 + = g.^.z./.#XXXB.B. XP.d.F.f o &                         ",
"                          & @ u L 2.F.l.c.F.8.i + @ @ @ < j 0.w.q.5X( o = s.Q.j.z./.+X+XOXI.%.;.1.p + &                         ",
"                          # @ u X.<.2.f.c.j.8.i + # @ < j 0.) 9.S.5X( o * X.1.8.Q.6.A.(.3.u ! oXu @ &                           ",
"                          & @ 2 c 4.;.d.v.j.8.p . & O h q.5X) x _ ` 6 o 2 ,.E.$.F F.,.H !.c a ! & + &                           ",
"                          & @ o u =.;.%.l.l.8.v < @ O ( q.9.j u 9 @ + + 2 Y.<Xa.+ V.U & J.' < X # &                             ",
"                            & @ 6 J =.:.%.j.6.1...@ + u j & & & & & & @ 2 L.<XS.& @ & & & & & & &                               ",
"                            @ @ < J <.1.=.6.<.<.<...2 + < @             & y M 9 @ @ @ @ @ @ @                                   ",
"                            & @ 4 x L =.4.;.<.<.1.4...5 + @             & + o o           &                                     ",
"                            @ @ 4 J k L =.=.<.<.2.2.4.c + &             & # # %                                                 ",
"                              @ 5 J j j j J =.4.1.<.L 9 @ &                                                                     ",
"                              @ & 5 j J j j P L ) P J u @                                                                       ",
"                                @ @ 9 g y u u 6 9 9 y 5                                                                         ",
"                                    @ & & & & & @ & &                                                                           "
};
