/* XPM */
static char *result[] = {
/* columns rows colors chars-per-pixel */
"64 64 229 2 ",
"   c #0D0016",
".  c #0E0019",
"X  c #040015",
"o  c #110016",
"O  c #13011A",
"+  c #1C041C",
"@  c #1D0A1D",
"#  c #16091B",
"$  c #1C131D",
"%  c #1D1B1E",
"&  c #21091D",
"*  c #2A0C1F",
"=  c #25031D",
"-  c #25121D",
";  c #2A131F",
":  c #2B1C1E",
">  c #211B1F",
",  c #28251E",
"<  c #332A1D",
"1  c #3E3D1D",
"2  c #2C0F20",
"3  c #370721",
"4  c #2C1322",
"5  c #2B1A22",
"6  c #231A21",
"7  c #311522",
"8  c #331A22",
"9  c #3A1B24",
"0  c #381A27",
"q  c #352D20",
"w  c #3A2626",
"e  c #3A3422",
"r  c #450922",
"t  c #540A25",
"y  c #5A1928",
"u  c #4E1826",
"i  c #631E2A",
"p  c #6A0D2A",
"a  c #4B2A2B",
"s  c #462628",
"d  c #54292A",
"f  c #4A3926",
"g  c #593B2A",
"h  c #432534",
"j  c #492736",
"k  c #5D3A34",
"l  c #583634",
"z  c #552E3A",
"x  c #6A222C",
"c  c #76242D",
"v  c #673933",
"b  c #6C3531",
"n  c #464A1F",
"m  c #4B541F",
"M  c #444228",
"N  c #55452E",
"B  c #5A4329",
"V  c #5E492A",
"C  c #4C5422",
"Z  c #4E5823",
"A  c #525E25",
"S  c #5A5633",
"D  c #555032",
"F  c #624B2A",
"G  c #6A542C",
"H  c #735A2B",
"J  c #694539",
"K  c #764436",
"L  c #635632",
"P  c #6B5C35",
"I  c #675A34",
"U  c #765734",
"Y  c #586628",
"T  c #5C6836",
"R  c #7D682F",
"E  c #6D6336",
"W  c #7A6838",
"Q  c #667C33",
"!  c #637738",
"~  c #61752E",
"^  c #7B6042",
"/  c #735268",
"(  c #7F6270",
")  c #6F4B4F",
"_  c #81272F",
"`  c #862932",
"'  c #8A3533",
"]  c #A43235",
"[  c #BC3B3B",
"{  c #A82A36",
"}  c #851D30",
"|  c #C53F3D",
" . c #C83F3E",
".. c #874736",
"X. c #8C523B",
"o. c #895A33",
"O. c #92553D",
"+. c #97443C",
"@. c #B54A3D",
"#. c #836B31",
"$. c #857939",
"%. c #977B39",
"&. c #8D6934",
"*. c #A87D3C",
"=. c #B47039",
"-. c #CB433E",
";. c #D1423F",
":. c #C6633E",
">. c #9E5C41",
",. c #845B59",
"<. c #8A5640",
"1. c #A45F43",
"2. c #8F6754",
"3. c #A46142",
"4. c #AA6944",
"5. c #B56B46",
"6. c #BD7249",
"7. c #AC7344",
"8. c #896967",
"9. c #A47778",
"0. c #CC5941",
"q. c #D34E43",
"w. c #D66B44",
"e. c #C87744",
"r. c #6B8438",
"t. c #708B3C",
"y. c #799744",
"u. c #758B42",
"i. c #8B823E",
"p. c #85843E",
"a. c #988739",
"s. c #9C933B",
"d. c #A7893A",
"f. c #A9953A",
"g. c #B5993C",
"h. c #B0863F",
"j. c #B4A32E",
"k. c #B5A23C",
"l. c #BDAC3D",
"z. c #B7A638",
"x. c #BEB93A",
"c. c #B6B52E",
"v. c #C1AC3F",
"b. c #C3B33E",
"n. c #BFC038",
"m. c #C3C539",
"M. c #8E8540",
"N. c #938D42",
"B. c #9D8045",
"V. c #9B9844",
"C. c #B78645",
"Z. c #A79D46",
"A. c #B99B44",
"S. c #A1864A",
"D. c #82A64B",
"F. c #ACA345",
"G. c #ABA64A",
"H. c #BDAB43",
"J. c #B3AC47",
"K. c #BAB649",
"L. c #A7BC50",
"P. c #C79746",
"I. c #D8994C",
"U. c #CE8D48",
"Y. c #C8AB45",
"T. c #C4B343",
"R. c #C2BB4B",
"E. c #C8BA48",
"W. c #C8BB51",
"Q. c #CDA850",
"!. c #C1AE6C",
"~. c #CDBD7D",
"^. c #CBBD6F",
"/. c #BFC152",
"(. c #C3C442",
"). c #C7C844",
"_. c #C5C44C",
"`. c #CCC44B",
"'. c #C7C94D",
"]. c #CBCB4D",
"[. c #CBCB41",
"{. c #D4CC4A",
"}. c #CCD34B",
"|. c #D7D54E",
" X c #C6C652",
".X c #C9C452",
"XX c #C7C952",
"oX c #C8CA53",
"OX c #CBCC5C",
"+X c #CDD255",
"@X c #CBDB56",
"#X c #D2D555",
"$X c #D4D956",
"%X c #D9DD54",
"&X c #D6DC59",
"*X c #DADE59",
"=X c #D0D658",
"-X c #D1CC55",
";X c #D9E159",
":X c #E2E75B",
">X c #EBF15A",
",X c #CDCE62",
"<X c #D5D67B",
"1X c #D2D472",
"2X c #D0D16C",
"3X c #DEE17F",
"4X c #E0E26B",
"5X c #BAACA9",
"6X c #B58584",
"7X c #CCBB80",
"8X c #D8DA86",
"9X c #D8D08C",
"0X c #DFE09D",
"qX c #E0E19E",
"wX c #E5E5A9",
"eX c #E6E6B1",
"rX c #EAEABB",
"tX c #F7FAB4",
"yX c #D3C9CD",
"uX c #DDD5D8",
"iX c #D3C9D0",
"pX c #EDECC9",
"aX c #F2F2D6",
"sX c #EFF0CE",
"dX c #F9F9ED",
"fX c #F5F5E1",
"gX c #FFFFFF",
"hX c #FBFBF3",
"jX c None",
/* pixels */
"jXjXjXjXjXjXjXjXjXjXjXjXjXjXjXjXjXjX@ & & @ & + & & & & & & & & & & & & & & & & @ & & & jXjXjXjXjXjXjXjXjXjXjXjXjXjXjXjXjXjXjXjX",
"jXjXjXjXjXjXjXjXjXjXjXjXjXjXjXjX= @ & @ . O O O                             . O . . O @ & & jXjXjXjXjXjXjXjXjXjXjXjXjXjXjXjXjXjX",
"jXjXjXjXjXjXjXjXjXjXjXjXjXjXjX& @ + + = t d f f N N N N N N N N N N N N N N N f g d r + + + & jXjXjXjXjXjXjXjXjXjXjXjXjXjXjXjXjX",
"jXjXjXjXjXjXjXjXjXjXjXjXjXjX& @ @ 2 # d 0.A.l.T.#X+X#X#X#X+X#X#X+X#X+X#X#X#X.Xl.T.e.] 7 @ & @ @ jXjXjXjXjXjXjXjXjXjXjXjXjXjXjXjX",
"jXjXjXjXjXjXjXjXjXjXjXjXjX& & O @ #.G.J.W..X'._.(.).(.).).).(.).).).).).).).`._.XX.XY.G.f.F . + & jXjXjXjXjXjXjXjXjXjXjXjXjXjXjX",
"jXjXjXjXjXjXjXjXjXjXjXjXjX& + 3 ` T.;X$X+X+X(.OXeXeXeXeXeXeXeXeXeXeXeXeXeXrX0X(.oXoX@X&X%X*.p 2 + & jXjXjXjXjXjXjXjXjXjXjXjXjXjX",
"jXjXjXjXjXjXjXjXjXjXjXjXjX@ X y w.W.+XoX X_.,XwXgXgXgXgXgXgXgXgXgXgXgXgXgXgXfX8XOX_.oXoX+XQ.1.3 O & jXjXjXjXjXjXjXjXjXjXjXjXjXjX",
"jXjXjXjXjXjXjXjXjXjXjXjX& @ O g T. XoXoXoX(.wXgXgXgXgXgXgXgXgXgXgXgXgXgXgXgXgXgX<X(.oXoXoX*XJ.0 O @ & jXjXjXjXjXjXjXjXjXjXjXjXjX",
"jXjXjXjXjXjXjXjXjXjXjXjX@ + p @.XXXXXXoXXXXX2X8X<X<X<X<X<X<X<X<X<X<X<X<X<X<X<X8XOX_.oXoXoX@XW.] r O & jXjXjXjXjXjXjXjXjXjXjXjXjX",
"jXjXjXjXjXjXjXjXjXjXjXjX@ + ..I.+XoXoXoXoXoX(./.(.(.(.(.(.(.(.(.m.(.(.(.(.(.(.(. XoXoXoXoXoX.XI.b . @ jXjXjXjXjXjXjXjXjXjXjXjXjX",
"jXjXjXjXjXjXjXjXjXjXjXjX+ O $.}.oXoXoXoXoXoXoXoX XXXoXoX XXXoXoXoXoXoXoXoXoXoXoXoXoXoXoXoXoXoX;XS   & jXjXjXjXjXjXjXjXjXjXjXjXjX",
"jXjXjXjXjXjXjXjXjXjXjXjX+ + a.%XoXoXoXoXoXXXoXXXXXoXoXXXoXoXoXoXoXoX XoXoXoX XoXoXoX XoXoXoXoX$XS   & jXjXjXjXjXjXjXjXjXjXjXjXjX",
"jXjXjXjXjXjXjXjXjXjXjXjX+ + i.;XoXoXoXoXoXoXoXXXoXoXoX.XoXoXoX.XoX.XoXoXXXoXoXoXoX X XoXoXoXoX$XF . @ jXjXjXjXjXjXjXjXjXjXjXjXjX",
"jXjXjXjXjXjXjXjXjXjXjXjX@ + N.*XoXoXoXoXoXXXoXoXoXoXoXoXoXoXoXoXoXoXXXoXoXXXoXoXoXoXoXoXoXoXoX&XL . & jXjXjXjXjXjXjXjXjXjXjXjXjX",
"jXjXjXjXjXjXjXjXjXjXjXjX+ + i.*XoXoXoXoXoXoXXXoXoXoXoXoX.XoXoXoXoXoXoXXXoXoXoXoXoXoX XoX XoXoX#XL   & jXjXjXjXjXjXjXjXjXjXjXjXjX",
"jXjXjXjXjXjXjXjXjXjXjXjX+ + #.`.oXoXoXoXoXoXOXoXoXoXoX XoXoXoXXX XoXoXOXoXoX+XoXoXoXoXoXoXoXXXT.g . & jXjXjXjXjXjXjXjXjXjXjXjXjX",
"jXjXjXjXjXjXjXjXjXjXjXjX@ + #.E.XXXXXX`.E.z.j.j.j._.OXXXoXoXoXoXoX Xx.j.j.j.l.oXoXoXoXoXoXoX_.Y.g   @ jXjXjXjXjXjXjXjXjXjXjXjXjX",
"jXjXjXjXjXjXjXjXjXjXjXjX+ + #.`.oXoXOXH.%.!.9X~.~..X_.XXoXoXoXoX+Xd.S.7X~.~.^.W.XXoXoXoXoXoX XT.B   & jXjXjXjXjXjXjXjXjXjXjXjXjX",
"jXjXjXjXjXjXjXjXjXjXjXjX+ + R E.oXXX&XV.z uXhXgXgX!.j.oXXXoXoXoX#XH ( gXgXgXpXf.K.oXoXoXoXoXW.b.g O @ jXjXjXjXjXjXjXjXjXjXjXjXjX",
"jXjXjXjXjXjXjXjXjXjXjXjX+ + #.T.H.'.*Xs.k uXgXgXgX8.#.#XoXoXoXXX+XH 8.gXgXgXyXJ F.$XoXoX+XR.l.v.B . & jXjXjXjXjXjXjXjXjXjXjXjXjX",
"jXjXjXjXjXjXjXjXjXjXjXjX+ + #.b.k. X*Xs.z uXgXgXgX) H &XoXoX'.OX#XG ( gXgXgXiXh Z.$XXXXX+XR.k.v.B . & jXjXjXjXjXjXjXjXjXjXjXjXjX",
"jXjXjXjXjXjXjXjXjXjXjXjX+ + o.Y.H.R.#XG.^ 5XiXiXyX8.i.#XXXoXXXoX+X%.8.yXyXuX5XU J.+XXXXX'.K.l.b.B . & jXjXjXjXjXjXjXjXjXjXjXjXjX",
"jXjXjXjXjXjXjXjXjXjXjXjX@ + } :.z.g.R.=X XU z l k G.$XoXoXoXoXoXoX&XF.l l d U oX+XoXoXoXH.g.g.l.B . @ jXjXjXjXjXjXjXjXjXjXjXjXjX",
"jXjXjXjXjXjXjXjXjXjXjXjX& @ = = 9 ] P.@XXXJ.Z.F.F. X-XoXXXoXXXXXoX+XK.F.G.G.J.+XoXoXoX+Xw.c - 7 * + @ jXjXjXjXjXjXjXjXjXjXjXjXjX",
"jXjXjXjXjXjXjXjXjXjXjX& +   M E P 5.P./.oX=X#X#X#XoXoXoXXXXXoXXXoXoXoX$X$X#X#XoXoXoX.XK.U.3.D F ; O & @ jXjXjXjXjXjXjXjXjXjXjXjX",
"jXjXjXjXjXjXjXjXjXjX& + = 8 F.>X%X@Xx.l.oXoXoXoXoXoXoXoXXX+X-XXXoXoXoXoXoXoXoXoXoXoX Xk.).@X%X{.H & + + jXjXjXjXjXjXjXjXjXjXjXjX",
"jXjXjXjXjXjXjXjXjXjX@ O 8 f.`.+X'.XX XXXoXoX XoXoXXXoXoXXXoXOX.XoXoXoX XoXoXoX XoXoXXXXX'.'.'.XXE.#.+ + jXjXjXjXjXjXjXjXjXjXjXjX",
"jXjXjXjXjXjXjXjXjX& o a a.R.m.<XdXhX8X(.oXoXoXoXoXXX'.OX:XE W :XoXoXoXoXoXoXoXoXXXXXXXXXrXgXsX'.[.H.R 4 + jXjXjXjXjXjXjXjXjXjXjX",
"jXjXjXjXjXjXjXjXjX&   P |.].8XrXsXaX8X(.oXoXoXoXoXoX&XXXi.$ > N.-X&X.XXX XoXoXoXoXXXXX`.wXaXpXeX1X}.E.w O @ jXjXjXjXjXjXjXjXjXjX",
"jXjXjXjXjXjXjXjXjX&   P %X'.aXpXx.m.'.oXoXoXoXXXXXOXXXN.# = + $ V.oXOXXXoXoXoX XoXoXXXoX(.n.OXhXqX}._.w O & jXjXjXjXjXjXjXjXjXjX",
"jXjXjXjXjXjXjXjXjX@   P *XXXOXOXXXoXoXXXoXoX XoXXX:Xi.+ O ` `   + s.:XXXoXXXoXoXoXoXoXoXXXXXoX,XOX$XK.w O @ jXjXjXjXjXjXjXjXjXjX",
"jXjXjXjXjXjXjXjXjX& O L ].XX'.'.oXXXXXoXoXoX X=X*X$.% O c [ [ c . % i.:XOX XoXoXoXXXoXXXXXXXXX(.'.+XJ.w O & jXjXjXjXjXjXjXjXjXjX",
"jXjXjXjXjXjXjXjXjX& o b U.XX@XOXoXoXXXoXoX+X&XoXM.% . c | | | [ x   , N.oX&XoXoXXXoXoXXXoXOXoX+X@XW.=.9 # jXjXjXjXjXjXjXjXjXjXjX",
"jXjXjXjXjXjXjXjXjXjXO t -.W..X.XoXoXoXXXXX.XOXN.O O c ;.[ [ [ [ ;.x . # V.-X.XXXXXXXoXoXoX'..XW.oXU.{ 3 jXjXjXjXjXjXjXjXjXjXjXjX",
"jXjXjXjXjXjXjXjXjXjXjX& u @.q.e.E.%X;X#XT.w.c 6 + ` ;.;.| | q.| -.-._ + 6 ' w.T.#X*X&X&XE.T.Y.:.q.' * jXjXjXjXjXjXjXjXjXjXjXjXjX",
"jXjXjXjXjXjXjXjXjXjXjXjX* b p d V I P I g i 3 . & y x i y i y t y c y + . 3 i V I I I I F F B y ` x jXjXjXjXjXjXjXjXjXjXjXjXjXjX",
"jXjXjXjXjXjXjXjXjXjXjXjXjXl 5 .       O . . O + & O . . . . 6 e # . O & & + . . .       . . . . h jXjXjXjXjXjXjXjXjXjXjXjXjXjXjX",
"jXjXjXjXjXjXjXjXjXjXjXjXjXjXjXjXjXjXjXjX@ @ 2 @ @ & + 2 & . E XXw jXjXjXjXjXjXjXjXjXjXjXjXjXjXjXjXjXjXjXjXjXjXjXjXjXjXjXjXjXjXjX",
"jXjXjXjXjXjXjXjXjXjXjXjXjXjXjXjXjXjXjX+ + s k a @ + + + O X E oX5 X + & @ @ & jXjXjXjXjXjXjXjXjXjXjXjXjXjXjXjXjXjXjXjXjXjXjXjXjX",
"jXjXjXjXjXjXjXjXjXjXjXjXjXjXjXjXjXjX+ 7 v k l 0 & + & e D D u.L.T T M + O   + jXjXjXjXjX& jXjXjXjXjXjXjXjXjXjXjXjXjXjXjXjXjXjXjX",
"jXjXjXjXjXjXjXjXjXjXjXjXjXjXjXjXjX& . d 5.<.w + & & f Q t.D.r.! y.D.S + q f w # + + & + + & jXjXjXjXjXjXjXjXjXjXjXjXjXjXjXjXjXjX",
"jXjXjXjXjXjXjXjXjXjXjXjXjXjXjXjXjX& O s 3.5.l . & 1 r.y.A A 1 - C q O 4 G.;XV.2 O @ & + @ & & & jXjXjXjXjXjXjXjXjXjXjXjXjXjXjXjX",
"jXjXjXjXjXjXjXjXjXjXjXjXjXjXjXjX& & O d 1.g * + + 1 r.D.t.~ , + C < . 4 /.>Xi.. t.S @ V.W 4   + & jXjXjXjXjXjXjXjXjXjXjXjXjXjXjX",
"jXjXjXjXjXjXjXjXjXjXjXjXjXjXjXjX@ & . s 1.7   & q n Q y.t.~ < - C q . 2 7.P.&.V A.7.G Q.J s V @ + & jXjXjXjXjXjXjXjXjXjXjXjXjXjX",
"jXjXjXjXjXjXjXjXjXjXjXjXjXjXjXjX+ 2 O l =.0 . : A Z Q y.A A 1 & C q O 2 X.4.C.T.7.C.T.7.s F A.s @ + jXjXjXjXjXjXjXjXjXjXjXjXjXjX",
"jXjXjXjXjXjXjXjXjXjXjXjXjXjXjXjX@ + 0 K >.0 O : Z m ! D.y.~ < & C q . 2 %.R.oXXX XoXXX XF.*.3.1.s + & jXjXjXjXjXjXjXjXjXjXjXjXjX",
"jXjXjXjXjXjXjXjXjXjXjXjXjXjXjXjX+ + v 4.O.9 . : Z C Q D.D.Q < @ C ,   4 f.|.OXoX'.n.).+X#XH.h.P.g O @ jXjXjXjXjXjXjXjXjXjXjXjXjX",
"jXjXjXjXjXjXjXjXjXjXjXjXjXjXjXjX@ O b e.3.0 O : Z C r.D.D.~ 1 < C D e @ F J.#X`.8X0X8XoXoX_.z.b.B . & jXjXjXjXjXjXjXjXjXjXjXjXjX",
"jXjXjXjXjXjXjXjXjXjXjXjXjXjXjXjX@ + v 6.O.w . : Z m ~ y.y.Y M Z M t.! + X W %XoXaXgXaXOX'.R.k.v.B . @ jXjXjXjXjXjXjXjXjXjXjXjXjX",
"jXjXjXjXjXjXjXjXjXjXjXjXjXjXjXjX+ O R P.O.9 o : Z Y e 4 5 - - - - 5 5 +   $.:XoXaXgXfXOX'.E.k.v.B . & jXjXjXjXjXjXjXjXjXjXjXjXjX",
"jXjXjXjXjXjXjXjXjXjXjXjXjXjXjXjX& + R `.h.9   , Y e - + +     . o     + . w i.;X3XaXdXOX'.R.z.b.B . & jXjXjXjXjXjXjXjXjXjXjXjXjX",
"jXjXjXjXjXjXjXjXjXjXjXjXjXjXjXjX+ + H Q.k.w   - 1 - + & 7 h j h j j h 7 8 . 5 N.c.wXhXOX'.R.g.A.g O & jXjXjXjXjXjXjXjXjXjXjXjXjX",
"jXjXjXjXjXjXjXjXjXjXjXjXjXjXjXjX@ + b C.f.s O 2 @ @ + * l 2.9.9.9.9.2.k v w O O s.tXdXOX'._.g.7.a O & jXjXjXjXjXjXjXjXjXjXjXjXjX",
"jXjXjXjXjXjXjXjXjXjXjXjXjXjXjXjXjX+ b e.4.O.<.v O   + + 2 ,.!.9.9.,.J k J s . . V.4X2XoXoX_.g.-.y . & jXjXjXjXjXjXjXjXjXjXjXjXjX",
"jXjXjXjXjXjXjXjXjXjXjXjXjXjXjXjXjX@ 9 K 5.6.U.d.K b s + O w ) / ,.J l l s & ; H J.+X(.XXoX_.f.c 3 + @ jXjXjXjXjXjXjXjXjXjXjXjXjX",
"jXjXjXjXjXjXjXjXjXjXjXjXjXjXjXjXjX& . 4 X...*.A.O.6.K   +   2 j s a l k - X a E.].'.'.oX+X`.d.$ O & @ jXjXjXjXjXjXjXjXjXjXjXjXjX",
"jXjXjXjXjXjXjXjXjXjXjXjXjXjXjXjXjXjX& & & + b O.@ X.K + & + @ @ @ + 8 k 4 . f  X+XXXXXXXoX`.d.; O & jXjXjXjXjXjXjXjXjXjXjXjXjXjX",
"jXjXjXjXjXjXjXjXjXjXjXjXjXjXjXjXjXjXjXjXjXO 7 9 + 9 * 4 X.1.v O jX+ & 5 . f f.oXrXdXrXOXXX{.f.7 O & jXjXjXjXjXjXjXjXjXjXjXjXjXjX",
"jXjXjXjXjXjXjXjXjXjXjXjXjXjXjXjXjXjXjXjXjXjX+ jXjXjXjX7 b X.d + jXjX+ + f f.{.oXaXgXaXOX].R.%.4 O 2 jXjXjXjXjXjXjXjXjXjXjXjXjXjX",
"jXjXjXjXjXjXjXjXjXjXjXjXjXjXjXjXjXjXjXjXjXjXjXjXjXjXjXjXO . + & jX& + * d.#XoXoXrXgXsXOX}.Q.+.2 O jXjXjXjXjXjXjXjXjXjXjXjXjXjXjX",
"jXjXjXjXjXjXjXjXjXjXjXjXjXjXjXjXjXjXjXjXjXjXjXjXjXjXjXjXjXjXjXjXjX@ + ; a.{.-X.XOXOXOXXX@XI.{ 2 jXjXjXjXjXjXjXjXjXjXjXjXjXjXjXjX",
"jXjXjXjXjXjXjXjXjXjXjXjXjXjXjXjXjXjXjXjXjXjXjXjXjXjXjXjXjXjXjXjXjXjX+ * &.Q.{.*X%X%X|.`.I.+.r 2 jXjXjXjXjXjXjXjXjXjXjXjXjXjXjXjX",
"jXjXjXjXjXjXjXjXjXjXjXjXjXjXjXjXjXjXjXjXjXjXjXjXjXjXjXjXjXjXjXjXjXjXjX& l K R M.$.M.$.R ` t . + jXjXjXjXjXjXjXjXjXjXjXjXjXjXjXjX",
"jXjXjXjXjXjXjXjXjXjXjXjXjXjXjXjXjXjXjXjXjXjXjXjXjXjXjXjXjXjXjXjXjXjXjXjX& + 2 @ & @ & @ & & jXjXjXjXjXjXjXjXjXjXjXjXjXjXjXjXjXjX"
};
