/* XPM */
static char *_833a12ffef247f2aa0edd3e3ee50801ejIL2udqIDXU2iUu[] = {
/* columns rows colors chars-per-pixel */
"64 64 219 2 ",
"   c None",
".  c #030014",
"X  c #0D0016",
"o  c #0E0019",
"O  c #110015",
"+  c #13011A",
"@  c #1C041C",
"#  c #1D0A1D",
"$  c #170D1F",
"%  c #20081D",
"&  c #2A091E",
"*  c #26141E",
"=  c #2A181D",
"-  c #351B1F",
";  c #32281F",
":  c #280C20",
">  c #380821",
",  c #2D1322",
"<  c #2C1B22",
"1  c #251A21",
"2  c #331B22",
"3  c #361A27",
"4  c #3A2323",
"5  c #352D21",
"6  c #3B2628",
"7  c #393321",
"8  c #3B3922",
"9  c #2A2123",
"0  c #460723",
"q  c #581727",
"w  c #4E1726",
"e  c #6A0E2A",
"r  c #44262C",
"t  c #4A2B2B",
"y  c #462A2A",
"u  c #51262B",
"i  c #532929",
"p  c #4A3627",
"a  c #563D27",
"s  c #533928",
"d  c #4D2B30",
"f  c #482837",
"g  c #543232",
"h  c #5D3A35",
"j  c #573734",
"k  c #542F34",
"l  c #65362D",
"z  c #623C35",
"x  c #6A3731",
"c  c #793836",
"v  c #6D2A2C",
"b  c #47492A",
"n  c #55442D",
"m  c #5B4329",
"M  c #5B4628",
"N  c #4C5522",
"B  c #515E23",
"V  c #4A4C30",
"C  c #594E30",
"Z  c #5F5131",
"A  c #634C2A",
"S  c #6A4C2A",
"D  c #69542C",
"F  c #644038",
"G  c #6C4439",
"H  c #7D4B3C",
"J  c #764638",
"K  c #635532",
"L  c #675A34",
"P  c #695C35",
"I  c #765B37",
"U  c #70592C",
"Y  c #546224",
"T  c #5C6337",
"R  c #7C642E",
"E  c #6D6136",
"W  c #796537",
"Q  c #677A3C",
"!  c #7A773B",
"~  c #7C5557",
"^  c #6E494B",
"/  c #851C30",
"(  c #882934",
")  c #933435",
"_  c #853639",
"`  c #A53337",
"'  c #A42836",
"]  c #864A39",
"[  c #8A553B",
"{  c #96583E",
"}  c #B9493C",
"|  c #836C31",
" . c #856635",
".. c #847432",
"X. c #897637",
"o. c #947B39",
"O. c #81672F",
"+. c #AC7A3E",
"@. c #BA773D",
"#. c #CA4A3F",
"$. c #C7583E",
"%. c #C96E3F",
"&. c #945940",
"*. c #9C5B41",
"=. c #835A57",
"-. c #A25C43",
";. c #BE5640",
":. c #9A6542",
">. c #A46342",
",. c #AB6544",
"<. c #AD6D44",
"1. c #A66A41",
"2. c #B36C45",
"3. c #B46344",
"4. c #AD7242",
"5. c #AA7840",
"6. c #B57744",
"7. c #916769",
"8. c #966B6A",
"9. c #A57778",
"0. c #D34B40",
"q. c #D36A42",
"w. c #D27C42",
"e. c #6E883C",
"r. c #74913C",
"t. c #728E3E",
"y. c #6E8641",
"u. c #738E43",
"i. c #7C9C47",
"p. c #779646",
"a. c #7EA249",
"s. c #9B883A",
"d. c #8E853F",
"f. c #AB8B3D",
"g. c #AC973B",
"h. c #B59D3C",
"j. c #B7983E",
"k. c #B18E3F",
"l. c #B7A33D",
"z. c #BAA53E",
"x. c #B6AA3D",
"c. c #BBAB3E",
"v. c #B5AB3D",
"b. c #C3AD3F",
"n. c #C3A23F",
"m. c #C6B63E",
"M. c #C4C83E",
"N. c #8F8741",
"B. c #948C43",
"V. c #989346",
"C. c #B98B44",
"Z. c #A5994A",
"A. c #A29946",
"S. c #B79546",
"D. c #A18941",
"F. c #81A44A",
"G. c #86AC4D",
"H. c #8BB34E",
"J. c #9EAF4C",
"K. c #ADA647",
"L. c #BCAD43",
"P. c #B5AB49",
"I. c #BDB146",
"U. c #BAB649",
"Y. c #BEBD50",
"T. c #C69743",
"R. c #D79849",
"E. c #C3AE42",
"W. c #C2A848",
"Q. c #C4B242",
"!. c #C3BB4B",
"~. c #C8BA45",
"^. c #C8BB51",
"/. c #D6B54A",
"(. c #C3C442",
"). c #C7C844",
"_. c #C6C54D",
"`. c #CDC44C",
"'. c #C7C94D",
"]. c #CACB4C",
"[. c #CBCD44",
"{. c #D7CB49",
"}. c #C6C551",
"|. c #C9C451",
" X c #C7CA52",
".X c #C8C953",
"XX c #CBCC5B",
"oX c #CDD355",
"OX c #CCD856",
"+X c #D2D556",
"@X c #D4D956",
"#X c #D9DD54",
"$X c #D6DA58",
"%X c #DADD59",
"&X c #DBD551",
"*X c #D0D04B",
"=X c #DAE159",
"-X c #E2E75B",
";X c #E8F15A",
":X c #CECF65",
">X c #D1D26D",
",X c #D5D67B",
"<X c #D3D475",
"1X c #E7EC78",
"2X c #B68685",
"3X c #D8D985",
"4X c #D7D882",
"5X c #DDDE96",
"6X c #DFE09D",
"7X c #E2E2A4",
"8X c #E5E5AE",
"9X c #E6E6B1",
"0X c #E7E7B5",
"qX c #EAEBBE",
"wX c #F1F2D5",
"eX c #F0F2CD",
"rX c #FFFFFF",
"tX c #FFFFFF",
"yX c #F6F6E3",
/* pixels */
"                                    % # % % # % % % % % % % % % % % % % % % % % @ % % %                                         ",
"                                % % & @ o o o X X X X X X o X O X o X o X O o o + X + # % %                                     ",
"                              % # + + & w i s s n n n n n n n n n n n n n n n p i i 0 @ @ @ %                                   ",
"                            % # % * $ q 0.S.c.m.oX+XoX+XoXoX+XoXoX+XoXoX+X+X_.E.E.T.` , # % # %                                 ",
"                          % % + $ ..K.P.^._. X_.).).).).).).).).).).).).).)._._.|.^.^.K.A.M X @ %                               ",
"                          % @ > ( W.=X#XoXXX(.XX9X0X9X9X9X9X9X9X9X9X9X9X9XqX5X).'.oXoX$X=X5.e : @ %                             ",
"                          # X q q.^.oX.X}._.:X7XrXrXrXrXrXrXrXrXrXrXrXrXrXrXyX3XXX_..X.XOX/.;.: + %                             ",
"                        % % X n Q. X.X.X.X(.8XtXrXrXrXrXrXrXrXrXrXrXrXrXrXrXrXrX,X(..X.X|.+XP.3 + # %                           ",
"                        # # e 3. X X X.X.X X:X3X,X,X,X,X,X,X,X,X,X,X,X,X,X,X,X4X:X_..X.X.XOX!.` 0 + %                           ",
"                        # + ) R.oX.X.X.X.X X_.(.(.(.(.(.(.(.(.(.(.(.(.(.(.(.(.(._..X.X.X.XoX|.R.l X %                           ",
"                        @ @ ..*X.X.X.X.X.X.X.X.X}..X.X.X}..X.X.X.X.X|. X.X.X}..X.X.X.X.X.X.X.X=XZ o %                           ",
"                        + @ d.#X.X.X.X.X.X.X X.X.X}..X.X.X.X.X}..X X.X.X.X.X.X.X.X.X.X.X.X.X.X$XZ o %                           ",
"                        @ + B.-X.X.X.X.X.X.X.X.X.X.X.X.X.X.X.X.X.X|..X.X.X}..X.X X.X.X.X.X.X.X$XZ o #                           ",
"                        @ + B.%X.X.X.X.X.X.X.X.X.X.X.X.X.X.X.X.X.X.X.X.X.X.X.X.X.X.X.X.X.X.X.X$XZ X %                           ",
"                        + @ d.&X.X.X.X.X.X.X.X.X}..X.X.X.X.X.X.X.X.X.X.X.X.X.X.X.X.X.X}..X.X.X+XK X %                           ",
"                        # @ | `..X.X.X.X}..X.X.X.X.X.X.X.X.X.X}..X.X.X.X.X.X.X.X.X.X.X.X.X.X}.Q.a o %                           ",
"                        % + O.~.oX.X.X.X.X.X.X.X.X.X.X.X}..X.X.X.X.X.X.X.X.X.X.X.X.X.X.X.X.X}.E.a o #                           ",
"                        % @  .`..X.X.X.X.X.X.X.X.X.X.X.X.X.X.X.X.X.X.X.X.X.X.X.X.X.X.X.X.X.X.XE.a + %                           ",
"                        @ @ O.~..X.X.X.X.X.X.X X.X.X.X.X.X.X.X.X.X.X.X.X.X.X.X.X.X.X.X X.X.X^.Q.a o %                           ",
"                        @ + | Q.E.|..X.X.X.X.X.X.X.X.X}..X.X.X.X.X.X.X}..X.X.X}..X}..X.XoX!.l.b.m o %                           ",
"                        @ @ ..m.l.}.XX.X X X.X.X.X.X.X.X.X.X.X.X.X.X.X.X.X.X.X.X.X.X.X.XoX!.h.b.m o %                           ",
"                        % @ [ n.l.!. X.X.X|..X.X.X.X.X.X.X.X.X.X}..X.X.X.X.X.X.X.X.X.X.X}.L.l.m.m o %                           ",
"                        @ O / $.x.h.!..X.X.X X.X.X.X.X.X.X.X.X.X.X.X.X.X.X.X.X.X.X.X.X.XL.h.l.c.n + #                           ",
"                        % % % l Q.!.}..X.X.X.X.X.X.X.X.X}..X.X.X.X.X.X.X.X.X.X.X.X.X.X.X_..XP.y @ # %                           ",
"                      % # + 5 | z. X.X.X X.X.X.X.X.X}..X.X.X.X}..X}..X.X.X.X.X.X.X.X.X}..XOXY.D % o % #                         ",
"                    % @ + - s.~.L.}..X.X.X.X.X.X.X.X.X.X.X.X.X.X.X.X.X.X}..X.X.X.X.X.X.X.X.X.X{.R % @ @                         ",
"                    % + - g.z.I..X.X.X.X.X.X.X.X.X.X.X.X.X.X.X.X.X.X.X.X.X.X.X.X.X.X.X.X.X.X.X.X~.R @ @                         ",
"                  # @ p s.z.l.L.oX.X.X.X.X.X.X X.X.X.X.X.X.X.X.X.X.X.X.X.X.X.X.X.X.X.X.X.X.X.XXX!.h.| , @                       ",
"                  % o D ~.z.h.I..X.X.X.X.X.X.X.X.X.X.X.X.X.X.X}..X.X.X.X.X.X.X.X.X.X.X}..X.X.X.XL.b.c.r o #                     ",
"                  % o A E.z.h.L.oX.X.X.X.X.X.X.X.X.X.X.X.X.X.X.X.X.X.X.X.X}..X.X.X.X.X.X.X.X.X.XI.z.g.- @ %                     ",
"                  % o A b.z.h.I..X.X.X.X.X X.X.X}..X.X.X.X.X.X.X}..X.X.X.X.X.X.X.X.X.X.X.X.X.XoXI.z.g.4 + #                     ",
"                  % + A m.z.l.l.U..X.X.X$X$X@X@X@X.X.X.X.X.X.X.X.X.X}..X.X.X.X.X X.X.X.X.XoX].I.l.c.l.4 + %                     ",
"                  % O x T.z.x.l.h.!.+X.XZ.Z.Z.A.A.}.+X|..X.X.X.X.X.X.X.X.X.X.X.X.X.X.X.XoX|.!.z.x.n.@.- +                       ",
"                    + q } k.l.S.l.g.!.V.f d d d k A.oX.X.X.X.X.X.X.X.X.X.X.X.X.X.X.X.X|..X!.h.j.l.@.' >                         ",
"                      # w } 0.w.l.I r % + @ + : k j V.-X$X$X+X$X$X$X$X$X$X$X$X$X$X$X+X~.Q.m.n.$.0.) &                           ",
"                        & ( e l W ( v L ..! ! ..X.) c P P P K n K L L L L L L L L P K m m A m q ( v                             ",
"                          y $ : _ 3.T.{.#X#X=X@XQ.w.v . X . 1 6 + X X X O o X X o X X o o o o X 6                               ",
"                            o q 0.^.OX.X.XXX.X.XXX~.U + # X E }.4                                                               ",
"                          # + w 2.^.M.:XyXrX5X).oX{.R + @ . E XX< X @ % % % %                                                   ",
"                          # + p S._.4XwXrXwX4X).`.X.- @ V V ! J.T 8 = @ # % %           %                                       ",
"                          % + M m.(.eXrXeXXX).!.o.< o b F.H.a.p.G.r.N * % % % % @ @ % + @ @                                     ",
"                          % X a E.(.wXwX_.'.=XA.: o V a.i.i.i.i.i.a.e.N * @ % % @ % % % @ % % %                                 ",
"                        % % . p E._.<X<X'.'.&Xs.@ . V H.i.i.i.i.i.F.t.N % + @ % N.Z # V.P.A X @ :                               ",
"                        # # 0 ] c.}.'.(. X+XA.a % 9 Q a.i.i.i.i.i.F.e.N 7 * @ # P.D.x `.s.D a % + #                             ",
"                        # @ ' %.P.}..X X X%XP . % y.H.i.i.i.i.i.i.F.e.N Y 7 + # X.T.6.z.y A z.r : @                             ",
"                        @ @ c 6.x. X.X X.X%XE . % Q H.i.i.i.i.i.i.F.e.N B 5 @ % ] C.z.z.g.l.j.+.r + %                           ",
"                        @ @ I n.l._. X X(.M.P.E o 1 Q H.a.i.a.i.i.F.e.N B 5 @ # H 2.D.h.c.c.h.6.i o %                           ",
"                        @ + ..m.l.}.'.:X5X5X1X(.Z @ < Q F.F.F.F.F.G.u.N B 5 + # ] 3.,.h.l.x.h.2.u + %                           ",
"                        # + | Q.l.}.(.3XrXrX7X[.+Xp . 1 y.p.u.u.u.p.Q N B 5 + % H ,.1.h.l.z.h.<.u + #                           ",
"                        @ + | b.L._.(.3XrXrX7X[..Xp . : < < < < < * 7 Y Y 5 @ @ t [ 4.h.l.x.S.<.u + %                           ",
"                        % + X.m.c. X].:X5X7X<X]..Xd.p @ @ o o o X X # 5 B 7 + : r ] 2.h.l.c.l.<.u o %                           ",
"                        % @  .T.S.!.oX.X(.(.'..X.X{.R X % 3 f f k 3 % @ 7 5 @ % t ^ +.l.x.h.C.2.u + %                           ",
"                        % + c ,.1.f.U.XX.X|..X.X.X~.U X @ ~ Z.9.9.=.y % @ # @ % t &.1.g.c.f.-.,.i + %                           ",
"                          % @  ..Xp x C.Q.4.S.E.4.2.F . @ ~ 2X9.^ =.=.y % @ % % r ] ,.1.h.j.*.H 3 @ %                           ",
"                          % o 6 E 3 :.S.S S.o.S +.T.I $ @ f ^ ~ s 7.9.=.3 @ + @ z :.>.-.5.6.{ y % # %                           ",
"                          # # @ $ 6 V.! + V.V * I.;X:.. # X % d t ^ 7.8.3 O % , { 2.>.>.-.,.{ & + % %                           ",
"                            % % % % % % % % @ p  X-X! o # % % % % @ 3 z , @ , h { ,.>.>.>.,.{ , @ %                             ",
"                                  # + @ % @ + , p n 3 @           @ % , + 2 g h { 2.>.>.>.2.{ < + %                             ",
"                                    %         # o X @ %           % # + 2 g z h { 2.,.,.>.>.J : @ #                             ",
"                                                % % % %           % @ & h F h h { { { { ,.[ d : @                               ",
"                                                                  % # % d z h h h h G ,.,.&.g &                                 ",
"                                                                    @ % h F F F z h z ^ [ h , #                                 ",
"                                                                      : 6 r r r r r r 6 6 3 @ #                                 ",
"                                                                        : # # : # : @ : @ @                                     "
};
