/* XPM */
static char *_6a381ee672046cb97f1593ff5b997106KQaIESmO1MQGG0k[] = {
/* columns rows colors chars-per-pixel */
"64 64 216 2 ",
"   c None",
".  c #080007",
"X  c #030116",
"o  c #0C0016",
"O  c #0E0119",
"+  c #050018",
"@  c #140015",
"#  c #14011A",
"$  c #1C051C",
"%  c #1D0A1C",
"&  c #180217",
"*  c #1C000C",
"=  c #21071D",
"-  c #20081D",
";  c #2B0B1F",
":  c #2B031D",
">  c #29121F",
",  c #291A1B",
"<  c #31161E",
"1  c #362E1C",
"2  c #3A361E",
"3  c #2E221A",
"4  c #360D21",
"5  c #3C0B22",
"6  c #2A1321",
"7  c #2B1624",
"8  c #351D22",
"9  c #371A27",
"0  c #352123",
"q  c #382325",
"w  c #3F2129",
"e  c #352E22",
"r  c #533B1A",
"t  c #4B0724",
"y  c #461825",
"u  c #591928",
"i  c #510C26",
"p  c #6B0C2A",
"a  c #681E2B",
"s  c #71142B",
"d  c #45242A",
"f  c #4C2B2D",
"g  c #452529",
"h  c #4A3526",
"j  c #4E3C2B",
"k  c #4C3B25",
"l  c #573725",
"z  c #4C2932",
"x  c #553636",
"c  c #622D2B",
"v  c #63382F",
"b  c #683C32",
"n  c #743738",
"m  c #464824",
"M  c #5C4529",
"N  c #5A4727",
"B  c #4E552B",
"V  c #565531",
"C  c #5D502B",
"Z  c #624B2B",
"A  c #62472D",
"S  c #6F582D",
"D  c #694338",
"F  c #764235",
"G  c #76483C",
"H  c #635533",
"J  c #645B33",
"K  c #735333",
"L  c #576036",
"P  c #5B6539",
"I  c #5E6B39",
"U  c #596A28",
"Y  c #7D662F",
"T  c #7B652E",
"R  c #7D6431",
"E  c #756436",
"W  c #627830",
"Q  c #707535",
"!  c #5C3B47",
"~  c #5D4E56",
"^  c #69454F",
"/  c #6F4947",
"(  c #6A4753",
")  c #754F55",
"_  c #79535D",
"`  c #754E49",
"'  c #6A7E40",
"]  c #5A516F",
"[  c #801C2F",
"{  c #8B2831",
"}  c #952634",
"|  c #973034",
" . c #A53437",
".. c #A83A37",
"X. c #B5373A",
"o. c #A92637",
"O. c #C73F3D",
"+. c #934531",
"@. c #8A553E",
"#. c #93553A",
"$. c #894E3C",
"%. c #A94438",
"&. c #826738",
"*. c #887C3A",
"=. c #947D34",
"-. c #856D22",
";. c #AD743B",
":. c #CB4A3F",
">. c #C8693F",
",. c #965B41",
"<. c #8E6F49",
"1. c #A56343",
"2. c #A76B41",
"3. c #AB6844",
"4. c #B16746",
"5. c #B36C45",
"6. c #AE7345",
"7. c #9B6F71",
"8. c #996E6C",
"9. c #AB7C7B",
"0. c #A47678",
"q. c #D84541",
"w. c #CE5542",
"e. c #D46B43",
"r. c #6E883B",
"t. c #7C9C46",
"y. c #7D9E48",
"u. c #7FA246",
"i. c #7FA149",
"p. c #998537",
"a. c #8D8033",
"s. c #A48939",
"d. c #B5853B",
"f. c #AE983B",
"g. c #A79238",
"h. c #B49E3C",
"j. c #B89A3E",
"k. c #AEA13B",
"l. c #B6A23D",
"z. c #BBA53D",
"x. c #B7AB3A",
"c. c #B8B43D",
"v. c #B4A32F",
"b. c #C08B3E",
"n. c #C5A73D",
"m. c #C6BC3D",
"M. c #C5C33D",
"N. c #9D8047",
"B. c #B58849",
"V. c #A09B46",
"C. c #86AC4C",
"Z. c #8AB24E",
"A. c #ADA345",
"S. c #AFAE43",
"D. c #B9A642",
"F. c #B3AB47",
"G. c #BEB347",
"H. c #BCB44C",
"J. c #B9B74A",
"K. c #BFBE50",
"L. c #AFB04D",
"P. c #9C8C6F",
"I. c #CE8B43",
"U. c #D78C46",
"Y. c #C79548",
"T. c #C3AD41",
"R. c #CDA64A",
"E. c #D9A448",
"W. c #C4B342",
"Q. c #C7B848",
"!. c #D4B746",
"~. c #C6BC51",
"^. c #CCBC7B",
"/. c #C3C444",
"(. c #C6C64D",
"). c #CBC34D",
"_. c #C7C84E",
"`. c #CCCA4C",
"'. c #C9CC42",
"]. c #D5CB4A",
"[. c #C4C452",
"{. c #C7C853",
"}. c #C8CA53",
"|. c #CAC957",
" X c #CBD355",
".X c #C7D754",
"XX c #D1D356",
"oX c #D5D955",
"OX c #D4DA58",
"+X c #D8DC58",
"@X c #CFD64B",
"#X c #DDE05A",
"$X c #CAE056",
"%X c #E0ED5C",
"&X c #D4D76A",
"*X c #D5D775",
"=X c #CFDB67",
"-X c #AD8C8B",
";X c #988DA8",
":X c #B19FA5",
">X c #AD9AA6",
",X c #DDDE95",
"<X c #DADB8D",
"1X c #DEE197",
"2X c #EAEE89",
"3X c #FFF991",
"4X c #E9ECB7",
"5X c #DAD2D3",
"6X c #EDECDA",
"7X c #F0F1D2",
"8X c #F3F4DA",
"9X c #F2F9D0",
"0X c #E2DBE3",
"qX c #F7F7E6",
"wX c #FFFFFF",
"eX c #FAF9F6",
/* pixels */
"                                              - - - - % $ % = $ - - = - - = - - %                                               ",
"                                          - = % # O O # # O O O o O O @ O O O # - - -                                           ",
"                                        - $ O # t c N M M C J H H H J H A Z c t @ O $ -                                         ",
"                                      = $ 6 0 q %.U.Q.W.W.].+XoXoXoX+X@Xm.m.b.%.q 0 > $ -                                       ",
"                                    - = O M W.[._._.}.}.}._.(.(.(.(.(.(.).).(.Q.K.T.N O = =                                     ",
"                                    % % p ;.oXXX X}.}.}.M.,X7X7X7X7X7X7X7X7X9X4X'.@X5.p $ %                                     ",
"                                  = $ O +.E. X}.|.{._.|.1XeXwXwXwXwXwXwXwXwXwXwX4X=XE.+.O $ -                                   ",
"                                $ % % 5 =.`.}.}.|.}.(.|.7XqX8X8X8X8X8X8X8X8X8X8XqX*XM.p.5 % = -                                 ",
"                                - # 4 X.d.Q.|.}.|._.}.}.}.}.|._._.{.{.}.}.`.{.{.{.{..XR. .4 # -                                 ",
"                                - # 9 d.j.J.}.}.}.}.{.}.(.(.(.{.(._.(.(.(.(.(._._.}.|.).d.8 # -                                 ",
"                                - # 8 k.z.J.|.}.{.}.}.{.}.}.}._.{.}.}.}.{.}.}.}.}.|.|.`.f.8 # =                                 ",
"                                - # 8 f.z.W. X}.|._.}.}.{.}.|._.}.}.}.{.}.}.}.}.}.}.}.}.D.8 # =                                 ",
"                                - # 8 f.z.G.}.}.}._.|.|.}._.|.}.}.{.}.|.}.}.}.}.}.}.}.XX[.0 # %                                 ",
"                                = # 8 f.z.G. X|.{.}.}.{.{.}.}.{.}.}.}.|.|.}.}.}.}.}.|. X~.0 # =                                 ",
"                                - # 8 f.z.G.|.}.{.}.{.}.}.}.|._.}.}.).Q.v.h.v.x.}.}.}.XXK.q # %                                 ",
"                                = # 8 f.z.G.}._.}.|._.}.{.|.{.}.{. XA.=.*X^.^.^.(.).{.XXK.q # %                                 ",
"                                - # 8 h.z.G.|.{.{.}.}.}.}.}._.|.{.OX*.( wXwXwX6Xg.Q.}.XXK.q # -                                 ",
"                                = # 8 f.z.G. X{.}.}.}.{.}.{.}._.{.OX=.( eXwXwX5XD A.OXXXK.q # -                                 ",
"                                - # 8 f.z.l.G.|.|.}.}.}.}.}.}.}.{.OX*.^ wXwXwX0Xz A.XXXXK.q @ -                                 ",
"                                - # 8 k.G.h.z.|.}.{.}.}.{.}.{.}.}. XS.<.>X>X>X-X<.J. X X~.0 # -                                 ",
"                                - # 8 d.z.z.D.(.}.}.}.}.}.XX}. X|.}.#X(.Z l l R  X X{. XK.q # -                                 ",
"                                - # 4 X.d.x.l.l.(.}.}.}.}.}.XX}. X}.}.}.{.[.[.{.}.}.}.XXK.q # $                                 ",
"                                - % % 5 ..I.c.h.D.Q.R.B.&.j 3 q 0 M ,.6.6.~.OX|.}.}.}.XXK.q # =                                 ",
"                                  - % O t ..I.T.Q.p.M c n v N Z B E N.B.B.D.(.|._.}.}. XK.q # %                                 ",
"                                    - - + t ..=.p.j X # #.n.XX2X2X&X@X X XG.G.}.}.}.}.XXK.0 # =                                 ",
"                                      - - - % $ % - & > s./.1XwXwX<X/.}.|.{.}.{.{.}.{.XXK.q # -                                 ",
"                                                $ # w p.c.4X8X&X*X|.}.}.}.{.}.{.{.}.{.OX X0 O %                                 ",
"                                                % # j ]._.,X,XM./._.}.}.}.}.}.}.|.|.+X~.H g 6 $                                 ",
"                                                % # j OX|././.}.}.|._.}.}.}.}.{.{.OXK.V o n f #                                 ",
"                                                % O j  X|.}.}.}._.{.|.|.{.}.}.}.|.XXH X 4 X.c O                                 ",
"                                                = # h W.}.}.}.}.|.}.}._.}.|.{.XXOXC X 4 X.O.u #                                 ",
"                                                = O y >.W..X.X|.}.|.|._.}._.+X[.C o 4  .O.O.u #                                 ",
"                                                  # 5 { ;.Y.R.`.).XXOXOXOX+XK.J O y  .q.O.q.u O                                 ",
"                                                    # = } o.%.g.s.A.J.L.L.[.H X - | X. . .X.u #                                 ",
"                                                      - : ; ; 6 > 6 > - > 7 > $ - ; ; ; ; ; - -                                 ",
"                                                                  o j *.%                                                       ",
"                                                                  o *.#X>                                                       ",
"                              - % % = % - -               = % $ % # V V.;                                                       ",
"                            % = % % % = - - - -         - = % % $ $ - - -                                                       ",
"                            = $ d z f z - O # - -     - = , B ' ' B , & -                                                       ",
"                            % $ d G $.@.b b v = $     - $ m t.C.C.t.m & -                                                       ",
"                            = $ f ,.4.1.5.4.F = %     - $ P Z.t.y.C.V $ -                                                       ",
"                            = # F 5.1.1.5.v # - -     % # P C.t.i.W 1 $ -                 - - =                                 ",
"                            - # F 3.1.A.T.S # -       - & V C.y.t.i.V & -               = . O # -                               ",
"                            % $ F 4.2.l.].T O $       - $ V C.t.t.C.P & =               6 ;XP.r % %                             ",
"                            $ # F 4.2.j.j.A # =       - $ B t.t.t.C.L & -               7 6X3X-.# %                             ",
"                            = # F 4.2.D.K 4 $         = $ 1 W C.t.C.P # -           - # 6 S.].-.# -                             ",
"                            % # F 5.1.6.f # %         % $ e U C.t.Z.P # -             $ 6 L.].&.# =                             ",
"                            % # F 5.1.1.d O           - $ e W C.Z.I 7 % -             # % F.].T + -                             ",
"                            % $ F 5.3.4.d             - $ e W r.I 7 @ = -             : a H.oXs.u =                             ",
"                            $ # F 5.1.1.y             - $ 2 U 2 $ # % = -           # y w.~.$XY.o.;                             ",
"                            % $ n 5.,.D 7             - # m m = $ $ % - -         - # j `.|.).&.$ =                             ",
"                            - # &.Y.#.9 -             - - , $ # 8 ) ! & -         - . ~ 9X&XQ.T O $                             ",
"                            - # a.E.#.# #             - = - w ! ` 9.) & -         - . ] wX*Xm.-.# %                             ",
"                            - # S s.$.d -             - & f <.9.0.9.^ & -         # * _ 8X&X/.-.# =                             ",
"                              = $ 9 D 1.d             - # ^ 9.7.7.9.^ & -       - O s e. X}.).&.# =                             ",
"                                # 7 G w.u #           - & ) -X8./ / z $ -     $ - *.Q.~.[. XU.{ #                               ",
"                                  6 d a 4             - & x 8.0.D v g & %     # # L.%X X|.).$.t $                               ",
"                                    & O               - $ < x _ x f q $ -     - h L.oX}.~.m.h X -                               ",
"                                                        = = = $ $ $ = -       g z.`.|.(.h.n.M O -                               ",
"                                                                              y :.T.Q.c.c.!.A O -                               ",
"                                                                              ; p j #.>.e.S 7 $                                 ",
"                                                                                # + i } s $ #                                   ",
"                                                                                      % - %                                     "
};
