/* XPM */
static char *result[] = {
/* columns rows colors chars-per-pixel */
"64 64 215 2 ",
"   c #040116",
".  c #0D0017",
"X  c #070018",
"o  c #0E0019",
"O  c #12011A",
"+  c #1B041C",
"@  c #1E091D",
"#  c #150418",
"$  c #0F000B",
"%  c #20081D",
"&  c #28081E",
"*  c #27131D",
"=  c #30051F",
"-  c #3B391E",
";  c #1F0A20",
":  c #310620",
">  c #330D21",
",  c #3C0A22",
"<  c #2B1322",
"1  c #2A1F22",
"2  c #331A22",
"3  c #391826",
"4  c #250C20",
"5  c #362223",
"6  c #3B2B24",
"7  c #3C2228",
"8  c #393124",
"9  c #2F2324",
"0  c #4D3F1F",
"q  c #652B1F",
"w  c #480925",
"e  c #550A26",
"r  c #491424",
"t  c #441D26",
"y  c #431224",
"u  c #501926",
"i  c #6B172C",
"p  c #432B24",
"a  c #4C2C2D",
"s  c #492927",
"d  c #532D2E",
"f  c #4B3325",
"g  c #46342A",
"h  c #48362A",
"j  c #4F3B2B",
"k  c #503F2B",
"l  c #58372A",
"z  c #4B2C35",
"x  c #5C3A36",
"c  c #583539",
"v  c #752B2E",
"b  c #78232E",
"n  c #613C36",
"m  c #6D3637",
"M  c #6B2F35",
"N  c #73521F",
"B  c #424420",
"V  c #444527",
"C  c #52422D",
"Z  c #584427",
"A  c #585630",
"S  c #674728",
"D  c #715B29",
"F  c #6C493C",
"G  c #764739",
"H  c #675634",
"J  c #6F582E",
"K  c #5C6937",
"L  c #59682C",
"P  c #79672D",
"I  c #796734",
"U  c #667A3C",
"Y  c #7E7738",
"T  c #79702A",
"R  c #4E3449",
"E  c #6C4749",
"W  c #6A7F40",
"Q  c #7F6675",
"!  c #8A2B31",
"~  c #962633",
"^  c #883833",
"/  c #973434",
"(  c #A92838",
")  c #A93738",
"_  c #B73A3A",
"`  c #CC3B3E",
"'  c #88563A",
"]  c #92583F",
"[  c #BC453E",
"{  c #A34B37",
"}  c #866732",
"|  c #877738",
" . c #8C782B",
".. c #A67E37",
"X. c #B3743A",
"o. c #C7513D",
"O. c #C44F3C",
"+. c #C96E3D",
"@. c #C7793F",
"#. c #A55E43",
"$. c #8F7244",
"%. c #A96444",
"&. c #B66C47",
"*. c #A87444",
"=. c #B47546",
"-. c #876B7B",
";. c #907173",
":. c #D64541",
">. c #EA4943",
",. c #D67741",
"<. c #6B8535",
"1. c #76953F",
"2. c #7C9C47",
"3. c #7D9D48",
"4. c #7FA149",
"5. c #998838",
"6. c #968D3E",
"7. c #A48838",
"8. c #AF9C3C",
"9. c #A9943C",
"0. c #B39C3B",
"q. c #BA9B3C",
"w. c #B2953B",
"e. c #BD863E",
"r. c #B6A23D",
"t. c #BBA63E",
"y. c #B5AB3D",
"u. c #BCA83E",
"i. c #BCB23D",
"p. c #B8B43D",
"a. c #BFB72F",
"s. c #C3873D",
"d. c #C3993A",
"f. c #C7A73E",
"g. c #C7B93A",
"h. c #BFC035",
"j. c #C4C23D",
"k. c #8B8540",
"l. c #9E9448",
"z. c #95815C",
"x. c #AC8747",
"c. c #B69346",
"v. c #AF9641",
"b. c #81A34A",
"n. c #85AB4B",
"m. c #85AB4A",
"M. c #89B24E",
"N. c #8DB84F",
"B. c #ADA748",
"V. c #BAAC42",
"C. c #BBA54C",
"Z. c #B6A744",
"A. c #BDB246",
"S. c #BDBB4A",
"D. c #B8B54C",
"F. c #CE8640",
"G. c #D98147",
"H. c #C79B46",
"J. c #D19F4D",
"K. c #C5B343",
"L. c #CBBB44",
"P. c #C3BD4D",
"I. c #C6BA47",
"U. c #C2B652",
"Y. c #CFAE48",
"T. c #C3C443",
"R. c #CBCE43",
"E. c #C5C34C",
"W. c #CBC44D",
"Q. c #C9CA4D",
"!. c #D3CB4D",
"~. c #C5C552",
"^. c #CAC651",
"/. c #C7C852",
"(. c #C8CA53",
"). c #CACC59",
"_. c #D2CB51",
"`. c #CDD255",
"'. c #C6D153",
"]. c #D1D355",
"[. c #D4DB5A",
"{. c #D8DC57",
"}. c #DAD247",
"|. c #DCE25A",
" X c #D5E15A",
".X c #E3E75A",
"XX c #D8DC6C",
"oX c #D7D77B",
"OX c #D2C86C",
"+X c #E3DE75",
"@X c #DCE16E",
"#X c #907685",
"$X c #B49F8C",
"%X c #CC9A8A",
"&X c #D6B1A5",
"*X c #DADB8C",
"=X c #DCDD90",
"-X c #E2C48A",
";X c #DEE492",
":X c #EDF38A",
">X c #E1E39B",
",X c #D4C9BA",
"<X c #E5E5AE",
"1X c #E5E6A9",
"2X c #E8E9B6",
"3X c #DED6D9",
"4X c #E1DADD",
"5X c #EEECCB",
"6X c #F2EEDD",
"7X c #F2F3D2",
"8X c #DFD8E3",
"9X c #F8F8E8",
"0X c #FFFFFF",
"qX c #FFFFF7",
"wX c None",
/* pixels */
"wXwXwXwXwXwXwXwXwXwXwXwXwXwXwXwXwXwXwXwXwXwX% % + ; + % @ % % % % % % % % + % % % % wXwXwXwXwXwXwXwXwXwXwXwXwXwXwXwXwXwXwXwXwXwX",
"wXwXwXwXwXwXwXwXwXwXwXwXwXwXwXwXwXwXwXwX% % @ + O O O O . . . . . . . O O O O o + % % % wXwXwXwXwXwXwXwXwXwXwXwXwXwXwXwXwXwXwXwX",
"wXwXwXwXwXwXwXwXwXwXwXwXwXwXwXwXwXwXwX% + + + : r p p p g g g g h h g p p 6 p r = O + % % wXwXwXwXwXwXwXwXwXwXwXwXwXwXwXwXwXwXwX",
"wXwXwXwXwXwXwXwXwXwXwXwXwXwXwXwXwXwX% % + + . i O.w.8.Z.~.~.~.~.~.~.S.0.w.r.w.O.i . + % % % wXwXwXwXwXwXwXwXwXwXwXwXwXwXwXwXwXwX",
"wXwXwXwXwXwXwXwXwXwXwXwXwXwXwXwXwX% % X p  .I 7.f.g.g.j.R.R.R.R.R.R.R.Q.W.Q.W.Y.v.k.| 6 X % % wXwXwXwXwXwXwXwXwXwXwXwXwXwXwXwXwX",
"wXwXwXwXwXwXwXwXwXwXwXwXwXwXwXwX@ @ % , ' L.g.XX;X;X;X=X=X=X=X=X*X*X*XQ.Q.).).`. X|.}.' , % @ @ wXwXwXwXwXwXwXwXwXwXwXwXwXwXwXwX",
"wXwXwXwXwXwXwXwXwXwXwXwXwXwXwXwX% + % ( +.u.E.2X0X0X0X0X0X0X0X0X0X0X9X).Q././././.(.`.,.~ % + @ wXwXwXwXwXwXwXwXwXwXwXwXwXwXwXwX",
"wXwXwXwXwXwXwXwXwXwXwXwXwXwXwX% % O O } d.Z.5X0X0X0X0X0X0X0X0X0X0X0X0X9X*XT.(.(./.`.).Y.} O O % % wXwXwXwXwXwXwXwXwXwXwXwXwXwXwX",
"wXwXwXwXwXwXwXwXwXwXwXwXwXwXwX% + : i 7.i.U.<X2X<X<X<X<X<X<X<X<X<X<X<X2XoXT.~././.(.(.E.5.i : + % wXwXwXwXwXwXwXwXwXwXwXwXwXwXwX",
"wXwXwXwXwXwXwXwXwXwXwXwXwXwXwX% o u :.w.S.`.T.T.T.T.T.T.T.T.T.T.T.T.T.E.Q./././.(.(.`.S.F.o.u O % wXwXwXwXwXwXwXwXwXwXwXwXwXwXwX",
"wXwXwXwXwXwXwXwXwXwXwXwXwXwXwX% . f q.q.A.(.(.(.Q.Q./.(.Q././.(.(./././.(.^.(.~.(././.(.P.q.f O @ wXwXwXwXwXwXwXwXwXwXwXwXwXwXwX",
"wXwXwXwXwXwXwXwXwXwXwXwXwXwXwX% O f y.I.E././.(.(.~.(.(.(./.(.(././././.(.(.(.(./.(./.`.Q.r.f O % wXwXwXwXwXwXwXwXwXwXwXwXwXwXwX",
"wXwXwXwXwXwXwXwXwXwXwXwXwXwXwX% . f r.^.`.(.(.(.(.(./.(.(.(././.(.(.(.(./.(.(.(.(./.(.(.(.A.f . % wXwXwXwXwXwXwXwXwXwXwXwXwXwXwX",
"wXwXwXwXwXwXwXwXwXwXwXwXwXwXwX% O f Z.W.(.(.(.(./.(./.(.(./.(.(.(./.(././.(./.(.(.(./.(.`.(.k . % wXwXwXwXwXwXwXwXwXwXwXwXwXwXwX",
"wXwXwXwXwXwXwXwXwXwXwXwXwXwXwX% . j P.(.(.`.`.(.).(.(.(.(.(./.(.(.(.(.(.(.(.(.(./.(.(./.].).C . % wXwXwXwXwXwXwXwXwXwXwXwXwXwXwX",
"wXwXwXwXwXwXwXwXwXwXwXwXwXwXwX% . C (.[.E.i.i.i.A.E.^.(./.(.(.(.(././.(.(./.(./.(././.(.`.(.k . % wXwXwXwXwXwXwXwXwXwXwXwXwXwXwX",
"wXwXwXwXwXwXwXwXwXwXwXwXwXwXwX% . k (.].P.c.C.U.Z.w.S.(.(.(./.(.(.(.~.(.(.(.(.(.(./.(.(.].(.k . @ wXwXwXwXwXwXwXwXwXwXwXwXwXwXwX",
"wXwXwXwXwXwXwXwXwXwXwXwXwXwXwX@ . C (.g.oX6X6X6X,XF l.].(.(././.(.(.(.(././.(./.(.(.(.(.`.(.C . % wXwXwXwXwXwXwXwXwXwXwXwXwXwXwX",
"wXwXwXwXwXwXwXwXwXwXwXwXwXwXwX% . C (. .$X0X0X0X8XR 5.[.(.(.(.W.(.~.(.(.(.(.(.(./.(.(.(.).I.j . % wXwXwXwXwXwXwXwXwXwXwXwXwXwXwX",
"wXwXwXwXwXwXwXwXwXwXwXwXwXwXwX% . C (.S #X0X0X0X3Xx 5.[.(.(.(.(.(.(.(.(.~.(./.(./.(.(.(.W.0.f . % wXwXwXwXwXwXwXwXwXwXwXwXwXwXwX",
"wXwXwXwXwXwXwXwXwXwXwXwXwXwXwX% o C Q.S #XqX0X0X4Xx 6.[./.(.(./.(.(.(.~./.(.(.(.(./.(.).W.r.f O % wXwXwXwXwXwXwXwXwXwXwXwXwXwXwX",
"wXwXwXwXwXwXwXwXwXwXwXwXwXwXwX% o C (.D.;.;.-.-.;.l.D.`.(.(./.(.(.(.(.(.(./.(./.(.(.).P.A.u.f O % wXwXwXwXwXwXwXwXwXwXwXwXwXwXwX",
"wXwXwXwXwXwXwXwXwXwXwXwXwXwXwX% o C (..XB.S S S } `.[.(.`.`.`.].].].].).`.(.(.(.(./.E.V.q.s.a O % wXwXwXwXwXwXwXwXwXwXwXwXwXwXwX",
"wXwXwXwXwXwXwXwXwXwXwXwXwXwXwX@ . C (.].Q.(.(.'.(./././.~.~.~.~.~.~.~.^.(.(.(.(.(.~.r.y.e._ r . + wXwXwXwXwXwXwXwXwXwXwXwXwXwXwX",
"wXwXwXwXwXwXwXwXwXwXwXwXwXwXwX% . k Q.`.(.`.).`.`.`.c.%.*.' j 5 5 5 g H *.J.L.A.V.V.p.,.) 3 % @ % wXwXwXwXwXwXwXwXwXwXwXwXwXwXwX",
"wXwXwXwXwXwXwXwXwXwXwXwXwXwXwX% . C (.`.(.(.(.(.W.P.v.=.x.$.H f Z f l m M n P w.f.f.F.{ e . + % % wXwXwXwXwXwXwXwXwXwXwXwXwXwXwX",
"wXwXwXwXwXwXwXwXwXwXwXwXwXwXwX% . j ^.`.(.(.(.(.E.r.~.`.(.`.[.@X@X(.d.*.t   + | y.7._ e X % % wXwXwXwXwXwXwXwXwXwXwXwXwXwXwXwXwX",
"wXwXwXwXwXwXwXwXwXwXwXwXwXwXwX% O f V.W.(.(.(.(.~.~./.(.).T.;XqXqX;Xa.q.6   % 2 5 2 > & @ @ wXwXwXwXwXwXwXwXwXwXwXwXwXwXwXwXwXwX",
"wXwXwXwXwXwXwXwXwXwXwXwXwXwXwX% . f 0.Q.`.(.(.(./.).(.(.(.E.oX<X1X5X1XE. .f % + O wXwXwXwXwXwXwXwXwXwXwXwXwXwXwXwXwXwXwXwXwXwXwX",
"wXwXwXwXwXwXwXwXwXwXwXwXwXwXwX@ O f t.I.~.(.(.(./././.(.(.(.E.T.h.2X6X).}.| + + wXwXwXwXwXwXwXwXwXwXwXwXwXwXwXwXwXwXwXwXwXwXwXwX",
"wXwXwXwXwXwXwXwXwXwXwXwXwXwXwX% o f V.f.A.(.(.(././.(.(.(./.(.(.Q.`.)./.[.6.O + wXwXwXwXwXwXwXwXwXwXwXwXwXwXwXwXwXwXwXwXwXwXwXwX",
"wXwXwXwXwXwXwXwXwXwXwXwXwXwXwX% O & k 9.!.(.(.(.(.(.(./.(.(.(./.(.E.Q.(._.} + + wXwXwXwXwXwXwXwXwXwXwXwXwXwXwXwXwXwXwXwXwXwXwXwX",
"wXwXwXwXwXwXwXwXwXwXwXwXwXwXwX% < % X Z 8._.(.(.(.(./.(./.(./.(.(.(./.S.L.T + + wXwXwXwXwXwXwXwXwXwXwXwXwXwXwXwXwXwXwXwXwXwXwXwX",
"wXwXwXwXwXwXwXwXwXwXwXwXwXwXwX% d c * . k u.W.)./.(.(./.(.(.(././.`.P.r.f.I + + wXwXwXwXwXwXwXwXwXwXwXwXwXwXwXwXwXwXwXwXwXwXwXwX",
"wXwXwXwXwXwXwXwXwXwXwXwXwXwXwX% v [ / =   l Z.L.A.(.`.(.(.~.(.`.`.S.V.y.,./ + + % wXwXwXwXwXwXwXwXwXwXwXwXwXwXwXwXwXwXwXwXwXwXwX",
"wXwXwXwXwXwXwXwXwXwXwXwXwXwXwX% ! >.:./ > O Z 7.L.W.W._.{.{._.W.Q.H.@.@./ w @ + wXwXwXwXwXwXwXwXwXwXwXwXwXwXwXwXwXwXwXwXwXwXwXwX",
"wXwXwXwXwXwXwXwXwXwXwXwXwXwXwX% b _ ) _ b O X Z 0.5.5.9.B.D.B.5.9.{ ( ( 3 X % wXwXwXwXwXwXwXwXwXwXwXwXwXwXwXwXwXwXwXwXwXwXwXwXwX",
"wXwXwXwXwXwXwXwXwXwXwXwXwXwXwX% & > * > * @ + < 2 2 3 * 4 1 2 < * > > > & + wXwXwXwXwXwXwXwXwXwXwXwXwXwXwXwXwXwXwXwXwXwXwXwXwXwX",
"wXwXwXwXwXwXwXwXwXwXwXwXwXwXwXwXwXwXwXwXwXwXwXwXwXwX. 5 I < . wXwXwXwXwXwXwXwXwXwXwXwXwXwXwXwXwXwXwXwXwXwXwXwXwXwXwXwXwXwXwXwXwX",
"wXwXwXwXwXwXwXwXwXwXwXwXwXwXwXwXwXwXwXwXwXwXwXwXwXwX. H .XC . wXwXwXwXwXwXwXwXwXwXwXwXwXwXwXwXwXwXwXwXwXwXwXwXwXwXwXwXwXwXwXwXwX",
"wXwXwXwXwXwXwXwXwXwXwXwXwXwXwXwXwXwXwXwXwXwXwXwXwXwX. H (.j . % % % % wXwXwXwXwXwXwXwXwXwXwXwXwXwXwXwXwXwXwXwXwXwXwXwXwXwXwXwXwX",
"wXwXwXwXwXwXwXwXwXwXwXwXwXwXwXwXwXwXwXwXwXwXwXwXwXwX+ 2 C < O O # # + % wXwXwXwXwXwXwXwXwXwXwXwXwXwXwXwXwXwXwXwXwXwXwXwXwXwXwXwX",
"wXwXwXwXwXwXwXwXwXwXwXwXwXwXwXwXwXwXwXwXwXwXwXwXwXwX% + . * 8 V V 8 * % % wXwXwXwXwXwXwXwXwXwXwXwXwXwXwXwXwXwXwXwXwXwXwXwXwXwXwX",
"wXwXwXwXwXwXwXwXwXwXwXwXwXwXwXwXwXwXwXwXwXwXwXwXwXwX% + @ B <.n.M.<.B % + % wXwXwXwXwXwXwXwXwXwXwXwXwXwXwXwXwXwXwXwXwXwXwXwXwXwX",
"wXwXwXwXwXwXwXwXwXwXwXwXwXwXwXwXwXwXwXwXwXwXwXwXwXwX% + @ U m.3.4.b.K & + % wXwXwXwXwXwXwXwXwXwXwXwXwXwXwXwXwXwXwXwXwXwXwXwXwXwX",
"wXwXwXwXwXwXwXwXwXwXwXwXwXwXwXwXwXwXwXwXwXwXwXwXwXwX% + % A 1.3.3.M.W % + % wXwXwXwXwXwXwXwXwXwXwXwXwXwXwXwXwXwXwXwXwXwXwXwXwXwX",
"wXwXwXwXwXwXwXwXwXwXwXwXwXwXwXwXwXwXwXwXwXwXwXwXwXwX+ + % B <.b.3.n.U ; + % wXwX+ + @ % % wXwXwXwXwXwXwXwXwXwXwXwXwXwXwXwXwXwXwX",
"wXwXwXwXwXwXwXwXwXwXwXwXwXwXwXwXwXwXwXwXwXwXwXwXwXwX% + % U b.3.2.n.W @ + % wX% + + + % % % wXwXwXwXwXwXwXwXwXwXwXwXwXwXwXwXwXwX",
"wXwXwXwXwXwXwXwXwXwXwXwXwXwXwXwXwXwXwXwXwXwXwXwXwXwX% + + W n.3.2.M.<.% + % @ . y F s < + % wXwXwXwXwXwXwXwXwXwXwXwXwXwXwXwXwXwX",
"wXwXwXwXwXwXwXwXwXwXwXwXwXwXwXwXwXwXwXwXwXwXwXwXwXwX+ + + 2.n.3.3.2.K % + + + 5 ' &.' 3 O % wXwXwXwXwXwXwXwXwXwXwXwXwXwXwXwXwXwX",
"wXwXwXwXwXwXwXwXwXwXwXwXwXwXwXwXwXwXwXwXwXwXwXwXwXwX% + % U m.3.b.U B % + O * 5.c.#.&.d O % % % wXwXwXwXwXwXwXwXwXwXwXwXwXwXwXwX",
"wXwXwXwXwXwXwXwXwXwXwXwXwXwXwXwXwXwXwXwXwXwXwXwXwXwX% % @ 1 K N.M.<.- % O p 5.i.w.#.&.G 3 % + % wXwXwXwXwXwXwXwXwXwXwXwXwXwXwXwX",
"wXwXwXwXwXwXwXwXwXwXwXwXwXwXwXwXwXwXwXwXwXwXwXwXwXwX; + + . 5 K K L B % o l H.c.*.#.] G z % @ % wXwXwXwXwXwXwXwXwXwXwXwXwXwXwXwX",
"wXwXwXwXwXwXwXwXwXwXwXwXwXwXwXwXwXwXwXwXwXwXwXwXwXwX; 4 < * + + O - B % . s %.%.#.] n x a @ @ % wXwXwXwXwXwXwXwXwXwXwXwXwXwXwXwX",
"wXwXwXwXwXwXwXwXwXwXwXwXwXwXwXwXwXwXwXwXwXwXwXwXwXwX. z ;.E y + + @ @ .   g &.&.] x n F d @ + % wXwXwXwXwXwXwXwXwXwXwXwXwXwXwXwX",
"wXwXwXwXwXwXwXwXwXwXwXwXwXwXwXwXwXwXwXwXwXwXwXwXwXwX+ 3 E z * . X w v D v i M l x c s 3 3 % % % wXwXwXwXwXwXwXwXwXwXwXwXwXwXwXwX",
"wXwXwXwXwXwXwXwXwXwXwXwXwXwXwXwXwXwXwXwXwXwXwXwXwXwX% O $ . = w 6 ^ +.K.G.! . X 3 a ; O + % % wXwXwXwXwXwXwXwXwXwXwXwXwXwXwXwXwX",
"wXwXwXwXwXwXwXwXwXwXwXwXwXwXwXwXwXwXwXwXwXwX% % + + + + + . e #.U.A.q.0.f.} O + % % @ @ % % wXwXwXwXwXwXwXwXwXwXwXwXwXwXwXwXwXwX",
"wXwXwXwXwXwXwXwXwXwXwXwXwXwXwXwXwXwX@ O . . O $ $ q D  .k.k.x.J.K.E.P.Z.i.X.b > # @ wXwXwXwXwXwXwXwXwXwXwXwXwXwXwXwXwXwXwXwXwXwX",
"wXwXwXwXwXwXwXwXwXwXwXwXwXwXwXwXwX+ @ h A C t R -.%X-X+X{.|. X'.V.P./.r.p.s.` y o % wXwXwXwXwXwXwXwXwXwXwXwXwXwXwXwXwXwXwXwXwXwX",
"wXwXwXwXwXwXwXwXwXwXwXwXwXwXwXwX% + % l..X^.X.&X0X0X0X5XQ.E.~./.(.(.P.r.y.s.) y O % wXwXwXwXwXwXwXwXwXwXwXwXwXwXwXwXwXwXwXwXwXwX",
"wXwXwXwXwXwXwXwXwXwXwXwXwXwXwXwX+ + % 7..X|.W.+X:X:X+X).L.L._.|.|.!.I.K.,./ , % + % wXwXwXwXwXwXwXwXwXwXwXwXwXwXwXwXwXwXwXwXwXwX",
"wXwXwXwXwXwXwXwXwXwXwXwXwXwXwXwXwX+ % Z } Y | Y T P D N D J I Y $.I J P ^ e . + % wXwXwXwXwXwXwXwXwXwXwXwXwXwXwXwXwXwXwXwXwXwXwX",
"wXwXwXwXwXwXwXwXwXwXwXwXwXwXwXwXwXwX% % % @ % % % + % % + @ @ @ @ @ % + + % % @ wXwXwXwXwXwXwXwXwXwXwXwXwXwXwXwXwXwXwXwXwXwXwXwX"
};
